<svg xmlns="http://www.w3.org/2000/svg" width="451.156" height="31.5" viewBox="0 0 451.156 31.5">
  <defs>
    <style>
      .cls-1 {
        fill: #fff;
        fill-rule: evenodd;
      }
    </style>
  </defs>
  <path id="cvpr2023_cn" class="cls-1" d="M821.517,421.06h27.466v3.757H821.517V421.06Zm-3.147,27.815h2.765v3.209H805.956v-3.209h2.765V430.689H805.67V427.48h3.051l0.312-6.422h10l-0.663,6.422h3.051v3.209H818.37v18.186Zm-45.527-12.839h8.735v6.239l13.727-4.991v4.991l-13.727,4.992v1.248h13.727v3.744H772.843V436.036Zm8.735-9.983-11.231,8.735V427.3l7.487-6.282h11.232l6.239,6.282v8.735l-9.983-9.983h-3.744Zm-23.71,6.239-2.916-.106v-3.208l11.652-.429v19.966h2.5v3.744H757.868V432.292Zm0-11.231H766.6v4.992h-8.736v-4.992Zm-16.2,20.368,1.228-17.872,5.5,0.229-2,18.114Zm5.578,7.067v3.21h-35.6V448.5h7.248l0.312-27.42h9.143l-0.379,27.42h2.908l0.4-27.42h9.143l-0.468,27.42h7.3Zm-36.89-24.71,5.086-.229,1.637,17.872-4.768.471Zm-24.015,14.605h18.374l-2.193,13.436H674.005v-3.209h18.819l1.144-7.018H675.786l1.192-7.06h-5.2v-3.209h5.77l0.715-4.45H672.5v-3.209h6.341l0.415-2.611,10.044-.3-0.477,2.91h16.8v3.209H688.247l-0.715,4.45h18.755v3.209h-19.28ZM643.656,452.2H628.963v-5.913h12.516s3.265,0.556,3.265-3.225c0-3.433-1.635-3.741-2.07-3.762H628.419l0.544-4.867V433.39h12.516s3.265,0.555,3.265-3.226c0-3.96-2.177-3.762-2.177-3.762H628.419l0.544-4.868h15.781s8.163-.629,8.163,9.168a7.191,7.191,0,0,1-2.667,5.621c1.473,1.316,2.667,3.534,2.667,7.279C652.907,450.7,643.656,452.2,643.656,452.2ZM598.5,449.529v-6.461l-0.012,0,15.647-11.724a4.875,4.875,0,0,0,.134-1.176c0-3.96-2.177-3.762-2.177-3.762h-13.6v-4.868h15.781s8.162-.629,8.162,9.168a7.669,7.669,0,0,1-.079,1.07l0.079,0A11.768,11.768,0,0,1,619.712,435c-1.479,1.218-3.676,2.041-5.523,3.561l-7.537,6.2v1.525h15.794v5.928H598.5v-2.691ZM582.709,452.2h-8.162s-8.775-1.426-9.229-8.063H565.3V430.694c0-9.788,8.162-9.16,8.162-9.16H583.8s8.158-.628,8.163,9.16v13.445h-0.022C591.484,450.776,582.709,452.2,582.709,452.2Zm1.088-21.5-0.025-.008c0.015-.167.025-0.342,0.025-0.53,0-3.96-2.176-3.762-2.176-3.762h-5.986s-2.177-.2-2.177,3.762c0,0.188.01,0.363,0.026,0.53l-0.026.008v12.9h0.026a2.744,2.744,0,0,0,3.239,2.687h3.809a2.744,2.744,0,0,0,3.239-2.687H583.8V430.7Zm-46.246,18.827v-6.462l-0.008,0,0.008,0v0h0L553.19,431.34a4.875,4.875,0,0,0,.134-1.176c0-3.96-2.177-3.762-2.177-3.762h-13.6v-4.868h15.781s8.163-.629,8.163,9.168a7.517,7.517,0,0,1-.08,1.07l0.08,0A11.768,11.768,0,0,1,558.766,435c-1.48,1.218-3.677,2.041-5.524,3.561l-7.541,6.208v1.521H561.5v5.928H537.551v-2.691Zm-12.3-2.164v4.568h-5.986l-8.251-8.869H506.2V452.2l-10.884-.269V421.565l7.618-.027v0h15.781s8.162-.629,8.162,9.168c0,7.844-3.864,10.71-6.6,11.758ZM516.54,426.4H506.2v10.75h9.251s3.265-.516,3.265-5.375S516.54,426.4,516.54,426.4ZM482.8,443.064H470.83V452.2l-10.339-.269V425.865l2.72-4.331H483.89s8.162-.629,8.162,9.168C492.052,442.835,482.8,443.064,482.8,443.064ZM481.713,426.4H470.83v10.75h9.8s3.265-.516,3.265-5.375S481.713,426.4,481.713,426.4Zm-47.342,25.531L426.752,422.1l10.883-.537,3.81,17.737,8.707-17.768h10.883l-17.414,30.4h-9.25Zm-25.032-15.319c0,11.083,8.706,9.675,8.706,9.675l9.795-.537,1.633,6.181h-19.59S399,451.683,399,438.227s8.948-16.6,13.6-16.6h9.8l1.632,6.39h-3.809S409.339,426.342,409.339,436.614Zm439.627-.7H834.931l-2.574,13.136h8.257l-0.385-4.274h8.735l1.2,7.484H822.518l3.29-16.346H822.47V432.7h26.5v3.209Z" transform="translate(-399 -420.75)"/>
</svg>
