<svg xmlns="http://www.w3.org/2000/svg" width="337.25" height="21.438" viewBox="0 0 337.25 21.438">
  <defs>
    <style>
      .cls-1 {
        fill: #fff;
        fill-rule: evenodd;
      }
    </style>
  </defs>
  <path id="sh_logo" class="cls-1" d="M515.725,700.4v0.263h-3.37V700.4a1.459,1.459,0,0,0,.777-0.264,3.312,3.312,0,0,0,.26-1.928c0-1.47.386-3.706-1.037-3.77a1.278,1.278,0,0,0-.864.176c-1.352.684-1.013,2.576-.95,4.558a3.58,3.58,0,0,1,.172.877,1.315,1.315,0,0,0,.346.175,1.267,1.267,0,0,0,.6.176v0.263h-3.456V700.4a0.885,0.885,0,0,0,.864-0.527,6.4,6.4,0,0,0,.086-2.278c0-2.064.282-4.6-.086-6.488a2.8,2.8,0,0,0-.864-0.088v-0.351h0.173c0.719-.233,1.44-0.468,2.16-0.7v4.646h0.086c0.667-1.072,1.979-1.264,3.37-.876a4.753,4.753,0,0,1,.691,1.139c0.447,1.48-.056,3.847.259,5.259l0.259,0.088A0.893,0.893,0,0,0,515.725,700.4Zm30.326,0v0.263h-3.369V700.4a1.466,1.466,0,0,0,.777-0.264,3.321,3.321,0,0,0,.259-1.928c0-1.47.387-3.706-1.036-3.77a1.276,1.276,0,0,0-.864.176c-1.352.684-1.014,2.576-.951,4.558a3.534,3.534,0,0,1,.173.877,1.284,1.284,0,0,0,.346.175,1.263,1.263,0,0,0,.6.176v0.263h-3.456V700.4a0.883,0.883,0,0,0,.864-0.527,6.379,6.379,0,0,0,.087-2.278c0-2.064.282-4.6-.087-6.488a2.8,2.8,0,0,0-.864-0.088v-0.351h0.173c0.72-.233,1.44-0.468,2.16-0.7v4.646h0.087c0.666-1.072,1.978-1.264,3.369-.876a4.69,4.69,0,0,1,.691,1.139c0.448,1.48-.055,3.847.26,5.259l0.259,0.088A0.887,0.887,0,0,0,546.051,700.4Zm9.072-10.432a0.98,0.98,0,0,1,.778.437,0.88,0.88,0,0,1,0,.965,1.592,1.592,0,0,1-1.037.263,2.946,2.946,0,0,1-.346-0.351,0.95,0.95,0,0,1-.172-0.614A3.225,3.225,0,0,1,555.123,689.967Zm28.167,0a0.946,0.946,0,0,1,.95,1.139,1.176,1.176,0,0,1-1.21.526,0.307,0.307,0,0,0-.172-0.087c-0.27-.426-0.458-1.186.172-1.4C583.1,690.082,583.223,690.027,583.29,689.967Zm19.958,0a0.98,0.98,0,0,1,.778.437,0.88,0.88,0,0,1,0,.965,1.765,1.765,0,0,1-1.123.263,1.525,1.525,0,0,1-.432-0.965A3.225,3.225,0,0,1,603.248,689.967Zm12.1,0v6.75a10.514,10.514,0,0,0,.26,3.506l0.95,0.176v0.263h-3.8V700.4a2.82,2.82,0,0,0,1.037-.264,9.225,9.225,0,0,0,.173-2.893v-6.048a1.58,1.58,0,0,1-.346-0.263c-0.288.028-.576,0.058-0.864,0.087v-0.351h0.173A8.047,8.047,0,0,1,615.344,689.967Zm33.7,10.432v0.263h-3.8V700.4a2.83,2.83,0,0,0,1.037-.264,9.258,9.258,0,0,0,.172-2.893v-6.048a1.574,1.574,0,0,1-.345-0.263c-0.288.028-.576,0.058-0.864,0.087v-0.351h0.173a8.305,8.305,0,0,1,2.419-.7v0.174a7.294,7.294,0,0,1,.086,2.543c0,1.759-.344,6.323.173,7.539Zm3.2-10.432v6.574a21.428,21.428,0,0,0,.087,3.507,1.521,1.521,0,0,1,.345.263l0.692,0.088v0.263h-3.716V700.4a3.178,3.178,0,0,0,.951-0.264,8.6,8.6,0,0,0,.259-2.98c0-1.977,0-4.124-.087-5.961a1.3,1.3,0,0,0-.95-0.263,0.445,0.445,0,0,1-.259.087v-0.351C650.523,690.553,651.236,690.062,652.237,689.967Zm3.37,0a4.471,4.471,0,0,1,.691.174c0.522,0.827.244,1.554-.95,1.491C654.712,690.721,654.8,690.616,655.607,689.967Zm59.1,1.051v-0.351a7.121,7.121,0,0,0,2.419-.7v4.646h0.086v-0.176a4.69,4.69,0,0,1,1.556-.965c2.077-.53,3.83,2.053,3.283,4.209a4.075,4.075,0,0,1-2.679,3.068c-1.178.356-3.241-.033-3.542-0.877a6.977,6.977,0,0,1-.086-2.454,38.637,38.637,0,0,0-.087-6.312h-0.173A1.58,1.58,0,0,0,714.705,691.018Zm-208.312-.964q0.174,1.71.346,3.418h-0.432a2.906,2.906,0,0,0-3.8-2.454,3.219,3.219,0,0,0-.6.877,1.656,1.656,0,0,0,.95,1.753c1.241,0.912,3.349,1.736,4.061,3.156a3.024,3.024,0,0,1-1.383,3.77,6.293,6.293,0,0,1-1.382.351c-1.215.275-2.178-.553-3.11-0.526v0.175a0.455,0.455,0,0,0-.087.263h-0.518L500,697.505h0.518a3.63,3.63,0,0,0,1.987,2.543,2.109,2.109,0,0,0,2.938-1.139,1.921,1.921,0,0,0-1.123-2.105c-0.989-.684-2.935-1.638-3.543-2.63-1.3-2.125.587-3.846,2.419-4.12,0.949-.142,1.618.5,2.593,0.526A0.616,0.616,0,0,1,506.393,690.054Zm82.081,3.594c1.431,0.01,2.958-.08,4.147-0.176-0.014,1.665-.295,5.463.173,6.663a2.789,2.789,0,0,0,.864.264v0.263h-3.543V700.4a1.306,1.306,0,0,0,.951-0.351,3.161,3.161,0,0,0,.173-1.578,23.586,23.586,0,0,0-.087-4.033l-0.259-.088a7.366,7.366,0,0,0-2.419-.175,31.45,31.45,0,0,0,.173,5.874,1.292,1.292,0,0,0,.345.175,1.267,1.267,0,0,0,.605.176v0.263h-3.456V700.4l0.691-.088c0.058-.088.115-0.176,0.173-0.263a3.667,3.667,0,0,0,.173-1.754v-4.12h-1.123v-0.526h1.123a3.288,3.288,0,0,1,2.246-3.507c1.093-.327,2.663-0.02,2.938.79a0.593,0.593,0,0,1-.778.877,2.1,2.1,0,0,0-2.073-1.228,0.616,0.616,0,0,1-.346.175A4.953,4.953,0,0,0,588.474,693.648Zm-22.637-3.507h0.432c1.041,2.432,2.243,4.877,3.283,7.277,0.354,0.815.634,2.42,1.469,2.717a0.88,0.88,0,0,0,.518.176v0.351h-3.974v-0.351l0.864-.088a1.166,1.166,0,0,0,.173-0.7c-0.219-.3-0.717-2.084-0.864-2.191h-4.061a7.17,7.17,0,0,0-.864,2.541,0.743,0.743,0,0,0,.345.263,1.008,1.008,0,0,0,.692.176v0.351h-3.111v-0.351c1.22-.2,1.388-1.459,1.815-2.455,0.737-1.72,1.483-3.48,2.246-5.26A10.863,10.863,0,0,0,565.837,690.141Zm55.123,0.176h4.666v0.35a1.826,1.826,0,0,0-1.3.439c-0.326.433-.173,1.644-0.173,2.366,0,2.109-.24,4.768.173,6.576H624.5a2.039,2.039,0,0,0,1.123.263v0.351H620.96v-0.351a2.777,2.777,0,0,0,1.383-.351,59.234,59.234,0,0,0,.086-6.662c0-.873.163-1.992-0.345-2.367a2.641,2.641,0,0,0-1.124-.264v-0.35Zm77.415,0h4.493v0.35a4.067,4.067,0,0,0-1.123.264,6.969,6.969,0,0,0-.259,2.806v6.048c0.086,0.029.172,0.059,0.259,0.087,0.529,0.338,3.669.028,4.061-.175a3.386,3.386,0,0,0,.691-0.613c0.4-.457.3-1.078,1.123-1.14-0.1.979-.552,1.743-0.691,2.718h-8.554v-0.351a4.622,4.622,0,0,0,1.21-.263c0.465-1.824.172-4.616,0.172-6.75,0-.87.156-1.989-0.345-2.367a2.362,2.362,0,0,0-1.037-.264v-0.35Zm-118.887,3.244h1.469v0.7H579.4c-0.018,1.157-.236,4.342.086,5.172a1.584,1.584,0,0,0,.6.526c0.55-.117.712-0.418,1.21-0.526v0.088h0.086a4.352,4.352,0,0,1-1.21,1.227c-0.776.087-1.577,0.172-1.814-.526-0.632-.687-0.357-4.546-0.346-5.961h-0.777a1.23,1.23,0,0,1-.087-0.351c0.754-.492,1.662-2.061,2.247-2.279v0.087A4.854,4.854,0,0,1,579.488,693.561Zm56.765,0h1.469v0.7h-1.555c-0.032,1.229-.225,5.259.432,5.61,0.578,0.31.973-.33,1.469-0.438v0.088h0.086a2.209,2.209,0,0,1-2.765,1.14c-0.851-1.37-.612-4.147-0.6-6.4H633.92v-0.351c0.766-.5,1.641-2.054,2.247-2.279v0.087A4.874,4.874,0,0,1,636.253,693.561Zm108.692-1.929v1.929h1.469a1.914,1.914,0,0,1,.086.613,5.565,5.565,0,0,1-1.555.088c-0.033,1.427-.544,5.473.691,5.61a1.045,1.045,0,0,0,.95-0.525,0.242,0.242,0,0,1,.087.087l0.173,0.088V699.7c-0.26.183-.36,0.519-0.605,0.7a4.985,4.985,0,0,0-.605.35,3.635,3.635,0,0,1-1.642-.175c-0.712-1.45-.521-4.107-0.518-6.312H742.7a1.23,1.23,0,0,1-.087-0.351C743.34,693.461,744.378,691.753,744.945,691.632Zm-179.367.964a19.506,19.506,0,0,1-1.642,4.033h3.456v-0.176C566.748,695.712,566.318,692.977,565.578,692.6Zm-46.743.789a5.88,5.88,0,0,1,2.16.439c0.886,1.418.7,3.462,0.691,5.785a1.612,1.612,0,0,1,.346.263,2.716,2.716,0,0,0,.777-0.35v0.526a2.464,2.464,0,0,1-1.9.7c-0.1-.136-0.259-0.145-0.346-0.263-0.121-.163-0.032-0.545-0.173-0.7h-0.173c-0.428.479-1.881,1.5-2.764,0.877a1.626,1.626,0,0,1-.864-2.28c0.3-1,1.595-1.538,2.5-1.929a3.286,3.286,0,0,0,1.21-.438V694.7a0.594,0.594,0,0,1-.087-0.351l-0.518-.438c-0.76-.038-1.364-0.027-1.555.526a3.968,3.968,0,0,0,0,1.139,1.523,1.523,0,0,1-.432.263,0.916,0.916,0,0,1-.518.089,1.167,1.167,0,0,1-.519-0.965,3.9,3.9,0,0,1,1.123-1.315C518.109,693.488,518.555,693.569,518.835,693.385Zm30.327,0a5.89,5.89,0,0,1,2.16.439c0.885,1.418.7,3.462,0.691,5.785a1.582,1.582,0,0,1,.345.263,2.722,2.722,0,0,0,.778-0.35v0.526a2.191,2.191,0,0,1-2.073.614,2.631,2.631,0,0,0-.519-0.877c-0.428.479-1.881,1.5-2.765,0.877a1.738,1.738,0,0,1-.95-2.28,4.121,4.121,0,0,1,2.16-1.753,9.311,9.311,0,0,0,1.641-.614V694.7a0.6,0.6,0,0,1-.086-0.351c-0.173-.146-0.346-0.291-0.518-0.438-0.761-.038-1.365-0.027-1.556.526a4.005,4.005,0,0,0,0,1.139,1.523,1.523,0,0,1-.432.263,0.913,0.913,0,0,1-.518.089,1.167,1.167,0,0,1-.518-0.965,3.9,3.9,0,0,1,1.123-1.315C548.436,693.488,548.881,693.569,549.162,693.385Zm59.357,0c4.117-.049,2.364,3.028,2.937,6.312a0.972,0.972,0,0,1,.26.175,2.716,2.716,0,0,0,.777-0.35v0.526a2.427,2.427,0,0,1-1.9.7c-0.107-.171-0.346-0.284-0.432-0.438-0.113-.2-0.053-0.449-0.173-0.614-0.36.547-1.966,1.59-2.851,0.965a1.78,1.78,0,0,1-.864-2.455,4.89,4.89,0,0,1,2.333-1.666l1.382-.526v-1.4a1.191,1.191,0,0,0-.432-0.527,1.892,1.892,0,0,0-1.209-.175c-0.566.531-.554,0.521-0.519,1.665a1.517,1.517,0,0,1-.431.263,0.8,0.8,0,0,1-.778-0.087,2.316,2.316,0,0,1-.173-1.052l0.778-.876C607.582,693.577,608.143,693.635,608.519,693.385Zm102.211,0c1.122-.042,2.236.146,2.506,0.964,0.82,0.931.17,3.928,0.432,5.348a0.951,0.951,0,0,1,.259.175,2.274,2.274,0,0,0,.778-0.35v0.526a2.069,2.069,0,0,1-1.987.614c-0.159-.268-0.317-0.691-0.519-0.965a2.951,2.951,0,0,1-3.024.965,8.345,8.345,0,0,0-.777-0.877c-0.126-2.1,1.089-2.676,2.592-3.332a3.108,3.108,0,0,0,1.209-.438v-1.49a0.63,0.63,0,0,1-.173-0.351c-0.492-.262-1.636-0.514-1.9.175a2.969,2.969,0,0,0-.086,1.227,1.523,1.523,0,0,1-.432.263,0.8,0.8,0,0,1-.777-0.087,2.043,2.043,0,0,1-.173-0.964,6.439,6.439,0,0,1,.777-0.964C709.794,693.577,710.353,693.635,710.73,693.385Zm27.735,0c4.108-.049,2.365,3.034,2.938,6.312a0.982,0.982,0,0,1,.259.175,2.716,2.716,0,0,0,.777-0.35v0.526a2.427,2.427,0,0,1-1.9.7c-0.109-.158-0.347-0.277-0.432-0.438-0.11-.21-0.053-0.447-0.172-0.614-0.361.547-1.967,1.59-2.851,0.965a1.324,1.324,0,0,1-.865-0.877c-0.753-1.633,1.054-2.709,2.074-3.156a8.365,8.365,0,0,0,1.642-.614v-1.4a0.461,0.461,0,0,1-.087-0.264l-0.518-.438a1.653,1.653,0,0,0-1.469.351,2.6,2.6,0,0,0-.086,1.314,1.523,1.523,0,0,1-.432.263,0.8,0.8,0,0,1-.778-0.087,0.939,0.939,0,0,1-.086-1.052C736.837,693.669,737.675,693.894,738.465,693.385Zm-213.063.087v1.141h0.086a2.833,2.833,0,0,1,2.678-1.141,2.969,2.969,0,0,1,1.3,1.667c0.32,1.309-.507,4.435.346,5.084a0.923,0.923,0,0,0,.605.176v0.263h-3.37V700.4a0.96,0.96,0,0,0,.864-0.439c0.528-.688.1-4.551-0.086-5.26-2.949-1.472-2.394,2.852-2.333,5.26a0.318,0.318,0,0,1,.086.175l0.259,0.088a0.925,0.925,0,0,0,.605.176v0.263h-3.369V700.4a1.008,1.008,0,0,0,.777-0.351,2.878,2.878,0,0,0,.173-1.49c0-1.271.218-3.192-.259-4.033h-0.778v-0.351A20.107,20.107,0,0,1,525.4,693.472Zm12.614,1.141h-1.3v0.175a2.417,2.417,0,0,1,.086,2.016c-0.609,1.319-1.607,1.568-3.369,1.49a1.625,1.625,0,0,0-.692,1.053c0.087,0.028.173,0.058,0.26,0.087,0.6,0.387,1.673-.011,2.5.175a3.364,3.364,0,0,1,2.247,1.053,2.322,2.322,0,0,1-.087,1.49c-0.431,1.406-3.768,2.5-5.616,1.665a4.166,4.166,0,0,1-1.036-.964v-0.789c0.527-.413.894-1.018,1.468-1.4v-0.088a0.728,0.728,0,0,1-.691-0.526,0.961,0.961,0,0,1-.086-0.526,16.473,16.473,0,0,0,1.3-1.4,2.494,2.494,0,0,1,.086-4.471c1.215-.523,2.55.121,3.542,0.35l1.3-.087A2.265,2.265,0,0,1,538.016,694.613Zm17.971-1.141a37.762,37.762,0,0,0,.173,6.576,1.55,1.55,0,0,1,.346.263L557.2,700.4v0.263h-3.8V700.4a1.534,1.534,0,0,0,.778-0.176,0.373,0.373,0,0,0,.345-0.351,3.647,3.647,0,0,0,.087-1.4,22.438,22.438,0,0,0-.087-3.857,2.461,2.461,0,0,0-.777-0.088,0.438,0.438,0,0,1-.259.088v-0.351C554.435,694.151,555.1,693.627,555.987,693.472Zm18.317,0v1.316h0.086v-0.175c0.75-.527.983-1.329,2.333-1.052,0.457,0.651.542,1.546-.691,1.49a0.884,0.884,0,0,0-.777-0.438c-1.447.4-.964,3.6-0.865,5.259a3.1,3.1,0,0,0,1.3.527v0.263H571.8v-0.351l0.863-.088a0.982,0.982,0,0,0,.26-0.7c0.386-.6.022-4.338-0.173-4.822a2.834,2.834,0,0,0-.864-0.087v-0.351C572.806,694.153,573.406,693.616,574.3,693.472Zm9.936,0a38.176,38.176,0,0,0,.087,6.576,1.544,1.544,0,0,1,.345.263l0.691,0.088v0.263h-3.8V700.4a4.619,4.619,0,0,0,1.123-.264,42.877,42.877,0,0,0,.086-5.435,1.5,1.5,0,0,0-.864-0.175,0.432,0.432,0,0,1-.259.088v-0.351C582.649,694.152,583.279,693.58,584.24,693.472Zm13.22,0c1.536-.042,2.592.159,3.023,1.228a0.749,0.749,0,0,1-1.123.965c-0.4-.263-0.253-0.9-0.518-1.316-0.353-.549-1.245-0.291-1.815-0.175a7.377,7.377,0,0,0-.864,1.053,4.127,4.127,0,0,0,.432,3.594,6.765,6.765,0,0,0,.951.7,3.052,3.052,0,0,0,2.16-.351c0.406-.3.448-0.829,1.037-0.964v0.087h0.086c-0.906,2.027-2.761,3.47-5.011,1.754a2.588,2.588,0,0,1-.691-0.614,4.516,4.516,0,0,1,.864-5.26C596.418,693.854,597,693.789,597.46,693.472Zm6.652,0a37.676,37.676,0,0,0,.173,6.663,5.171,5.171,0,0,0,1.037.264v0.263h-3.8V700.4a1.432,1.432,0,0,0,1.037-.351,2.9,2.9,0,0,0,.173-1.49,22.96,22.96,0,0,0-.087-3.945,2.461,2.461,0,0,0-.777-0.088,0.438,0.438,0,0,1-.259.088v-0.351C602.528,694.154,603.224,693.626,604.112,693.472Zm24.365,0v1.141h0.087c0.417-.478,1.93-1.765,2.937-0.965,1.331,0.456,1.123,2.494,1.123,4.3,0,0.8-.183,1.993.346,2.279a0.923,0.923,0,0,0,.605.176v0.263h-3.37V700.4a4.555,4.555,0,0,0,.691-0.176c0.539-.913.654-5.433-0.345-5.786a2.07,2.07,0,0,0-1.987.79v4.558a0.738,0.738,0,0,0,.691.526,0.578,0.578,0,0,0,.345.088v0.263h-3.456V700.4l0.778-.176c0.029-.088.058-0.175,0.086-0.263,0.459-.654.163-4.294,0.087-5.26a1.736,1.736,0,0,0-.951-0.175v-0.351C626.948,694,627.619,693.6,628.477,693.472Zm15.9,2.894h-4.839c0.007,1.915,1.3,4.123,3.456,3.156,0.671-.3.875-1.274,1.642-1.4v0.088h0.087a4.422,4.422,0,0,1-2.247,2.542c-2.456.91-4.726-1.7-4.147-4.12a4.24,4.24,0,0,1,1.9-2.892A2.825,2.825,0,0,1,644.375,696.366Zm12.182-2.894c-0.013,2.133-.239,4.832.173,6.663a3.265,3.265,0,0,0,.951.264v0.263h-3.716V700.4a1.959,1.959,0,0,0,.951-0.264c0.578-.618.26-3.01,0.259-4.12a3.16,3.16,0,0,0-.086-1.315,0.912,0.912,0,0,0-.778-0.175,0.58,0.58,0,0,1-.346.088,0.426,0.426,0,0,1,.087-0.264A8.9,8.9,0,0,1,656.557,693.472Zm8.813,0.439v0.7h-1.3V694.7c1.01,1.28-.214,3.128-1.21,3.507-0.6.229-1.508-.1-1.987,0.175a1.145,1.145,0,0,0-.777.965,0.247,0.247,0,0,1,.086.087c1.327,0.131,4.33-.043,4.752,1.052a2.3,2.3,0,0,1,.173,1.754,12.1,12.1,0,0,1-1.037,1.051c-1.464.922-5.691,1.508-5.7-1.139a7.01,7.01,0,0,0,1.469-1.578,0.939,0.939,0,0,1-.778-0.877c0.1-.12.079-0.3,0.173-0.438a6.1,6.1,0,0,0,1.123-1.228c-1.761-.434-1.584-3.263-0.346-4.12,1.2-.831,2.832-0.194,4.061.087Zm6.739,2.455h-4.838c0.007,2.066.707,2.28,1.728,3.243a3.119,3.119,0,0,0,2.16-.35c0.456-.333.529-1.035,1.21-1.14-0.1,1.44-2.318,3.466-4.32,2.63a3.717,3.717,0,0,1-1.988-2.805C665,693.25,672.148,691.639,672.109,696.366Zm3.2-2.894v1.141h0.087a2.829,2.829,0,0,1,2.937-1.052,3.661,3.661,0,0,1,1.037,1.578c0.317,1.351-.5,4.375.346,5.084a0.92,0.92,0,0,0,.6.176v0.263h-3.283V700.4a0.875,0.875,0,0,0,.778-0.439c0.5-.646.18-5-0.259-5.347a1.372,1.372,0,0,0-1.556.175,1.629,1.629,0,0,0-.6.439v4.733a0.325,0.325,0,0,1,.086.175l0.259,0.088a0.923,0.923,0,0,0,.6.176v0.263h-3.37V700.4a4.6,4.6,0,0,0,.692-0.176c0.5-.841.259-2.841,0.259-4.12a3.413,3.413,0,0,0-.087-1.4,1.045,1.045,0,0,0-.864-0.175v-0.351a0.237,0.237,0,0,0,.087-0.088C673.915,693.992,674.445,693.56,675.306,693.472Zm8.381,0c1.664-.069,3.6.493,2.938,2.1a1.968,1.968,0,0,1-.951.176,4.973,4.973,0,0,0-1.036-1.666,1.434,1.434,0,0,0-1.469.263,3.042,3.042,0,0,0-.951,3.245c0.737,2.408,3.277,2.7,4.493.525a0.234,0.234,0,0,1,.086.088l0.173,0.087a0.3,0.3,0,0,1-.086.176c-0.537,2.19-3.857,3.335-5.357,1.227a4.489,4.489,0,0,1,.778-5.611C682.7,693.8,683.268,693.761,683.687,693.472Zm10.109,2.894h-4.839c-0.032,1.8,1.165,4.023,3.2,3.243,0.774-.3,1.055-1.3,1.815-1.49v0.088h0.086a0.3,0.3,0,0,1-.086.175,3.373,3.373,0,0,1-4.493,2.28,3.282,3.282,0,0,1-1.555-2.192,4.619,4.619,0,0,1-.173-2.1,3.938,3.938,0,0,1,2.073-2.718C692.1,692.71,693.613,694.453,693.8,696.366Zm32.054-2.894c1.941-.042,3.251.688,3.8,2.017a4.01,4.01,0,0,1-2.592,5.436c-2.6.639-4.916-2.381-4.061-5a3.944,3.944,0,0,1,2.074-2.28A6.162,6.162,0,0,0,725.85,693.472Zm7,0v1.316h0.086v-0.175c0.75-.527.983-1.329,2.333-1.052,0.457,0.651.542,1.546-.691,1.49a0.885,0.885,0,0,0-.778-0.438c-1.437.455-.965,3.561-0.864,5.259a3.1,3.1,0,0,0,1.3.527v0.263h-3.888v-0.351l0.864-.088a0.977,0.977,0,0,0,.259-0.7c0.39-.608.023-4.338-0.172-4.822a2.834,2.834,0,0,0-.864-0.087v-0.351C731.35,694.153,731.951,693.616,732.849,693.472Zm17.193,0c1.777-.042,2.975.5,3.629,1.579a4.011,4.011,0,0,1-2.419,5.874c-2.685.643-4.877-2.6-3.974-5.086a3.912,3.912,0,0,1,2.073-2.191A4.758,4.758,0,0,0,750.042,693.472Zm7.085,0V694.7h0.087a6.669,6.669,0,0,1,1.3-1.228,4.8,4.8,0,0,1,1.037.089l0.172,0.263c0.538,0.631-.039,1.282-0.864,1.227a1.065,1.065,0,0,0-.777-0.438c-1.226.321-.951,2.053-0.951,3.594,0,0.786-.085,1.58.346,1.928a1.447,1.447,0,0,0,.951.176v0.351h-3.8v-0.351a2.043,2.043,0,0,0,.95-0.176c0.432-.98.239-4.393,0-5.435a0.247,0.247,0,0,1-.086-0.087h-0.864a0.433,0.433,0,0,1,.086-0.264A7.49,7.49,0,0,1,757.127,693.472Zm2.852,0.176h3.283v0.263a3.117,3.117,0,0,0-.864.175,0.3,0.3,0,0,1-.087.176,19.878,19.878,0,0,0,1.9,4.3H764.3c0.187-1.6,1.309-2.7,1.469-4.384a1.322,1.322,0,0,0-.345-0.176,0.59,0.59,0,0,0-.346-0.087v-0.263h2.16v0.263c-0.931.294-.935,1.412-1.3,2.28-0.89,2.139-1.628,5.067-2.851,6.926-0.376.571-2.254,1.732-2.765,0.437a0.653,0.653,0,0,1-.173-0.525,1.916,1.916,0,0,1,.346-0.439c0.5-.405,1.205.053,1.9,0.088,0.268-.419,1.28-1.834,1.037-2.63-0.256-.833-0.951-1.743-1.3-2.543a19.044,19.044,0,0,0-1.383-3.156A2.578,2.578,0,0,1,759.979,693.648ZM533.7,694c-1.318,1.362-.57,2.816.432,3.858a3.748,3.748,0,0,0,1.21-.175A2.956,2.956,0,0,0,534.56,694H533.7Zm127.441,0a1.02,1.02,0,0,0-.433.439c-0.611.628-.24,2.284,0.173,2.894a4.269,4.269,0,0,0,.692.525,4.725,4.725,0,0,0,1.036-.088l0.432-.613A3.706,3.706,0,0,0,662,694h-0.863Zm64.8,0c-0.074.058-.272,0.118-0.346,0.176-0.89.235-1.532,1.861-1.21,3.244,0.36,1.541.735,3.028,2.679,2.981a2.786,2.786,0,0,0,1.21-1.4c0.573-1.806-.232-4.591-1.556-4.822A1.327,1.327,0,0,0,725.937,694Zm24.278,0c-0.074.058-.271,0.118-0.345,0.176-0.936.247-1.567,1.944-1.21,3.42s0.776,2.856,2.679,2.8a3.088,3.088,0,0,0,1.209-1.49C753.2,696.722,752.08,694.045,750.215,694Zm-110.592,1.841h3.024C642.692,693.465,639.711,693.75,639.623,695.839Zm27.734,0h3.024C670.426,693.465,667.446,693.75,667.357,695.839Zm24.711,0a5.414,5.414,0,0,0-.259-1.139,1.463,1.463,0,0,0-.691-0.438,1.586,1.586,0,0,0-1.3,0,3.943,3.943,0,0,0-.864,1.577h3.111Zm26.266-1.314a3.286,3.286,0,0,0-1.037.7,17.483,17.483,0,0,0-.173,4.382,0.639,0.639,0,0,0,.432.351,2.318,2.318,0,0,0,2.16,0c1.242-.848,1.313-4.638-0.259-5.172A1.5,1.5,0,0,0,718.334,694.525Zm-198.2,2.016c-0.341.263-.839,0.292-1.21,0.527a6.076,6.076,0,0,0-1.036,1.139,1.519,1.519,0,0,0,.691,1.578,3.785,3.785,0,0,0,1.382-.263,2.212,2.212,0,0,1,.346-0.438C520.324,698.488,520.5,696.785,520.131,696.541Zm30.327,0c-0.341.263-.84,0.292-1.21,0.527a6.082,6.082,0,0,0-1.037,1.139,1.519,1.519,0,0,0,.691,1.578,3.791,3.791,0,0,0,1.383-.263,2.172,2.172,0,0,1,.345-0.438v-2.543h-0.172Zm59.357,0c-0.7.537-1.76,0.565-2.074,1.49-0.588.721,0.175,1.414,0.518,1.754,2.006,0.055,1.795-1.279,1.728-3.244h-0.172Zm102.211,0c-0.991.758-2.265,0.64-2.246,2.455,0.238,0.282.447,0.526,0.691,0.789,2,0.055,1.795-1.279,1.728-3.244h-0.173Zm27.735,0c-0.341.263-.84,0.292-1.21,0.527a6.082,6.082,0,0,0-1.037,1.139,3.936,3.936,0,0,0,.173,1.227,1.691,1.691,0,0,1,.519.351c2,0.055,1.794-1.279,1.728-3.244h-0.173Zm-206.929,4.208a3.253,3.253,0,0,1-.605.878,4.408,4.408,0,0,0,.087.963c1.3,0.684,4.022.828,4.838-.438a0.958,0.958,0,0,0,.086-0.877A14.316,14.316,0,0,0,532.832,700.749Zm127.44,0a2.357,2.357,0,0,0-.691,1.578,0.321,0.321,0,0,1,.087.176c1.014,0.684,4.284,1.091,4.838-.351a1.028,1.028,0,0,0,.173-0.79C663.772,700.8,661.6,700.8,660.272,700.749ZM493.735,685.041v0.123c-5.808,0-11.564.041-17.392,0.041V685C482.121,685,487.929,685.038,493.735,685.041ZM475.127,685v0.205c-15.062,0-30.1-.076-45.127-0.082v-0.062Zm-1.03,1.874V687.1l-22.976.021a4.22,4.22,0,0,0-.762-0.021h-6.2L430,687.038v-0.1c1.169-.029,2.423-0.02,3.626-0.02h1.649a6.85,6.85,0,0,1,1.278-.021h2.534c2.541,0,5.154-.02,7.727-0.02C455.873,686.874,465.033,686.871,474.1,686.874Zm19.638,0.02v0.185l-4.884.021H487.2a4.546,4.546,0,0,0-.824.021l-10.612-.021v-0.226c2.944,0,5.948-.021,8.922-0.021h4.039a10.315,10.315,0,0,0,1.711.021Zm-21.884,1.854V689l-14.919.061h-6.738a4.184,4.184,0,0,0-.742-0.02h-6.017L430,688.953v-0.164l10.385-.083h4.76a3.545,3.545,0,0,0,.619-0.02H453.9C459.913,688.686,465.908,688.743,471.851,688.748Zm21.884,0V689l-5.75.041L473.891,689v-0.247l10.694-.062,2.762,0.02C489.5,688.706,491.628,688.745,493.735,688.748Zm-26.417,1.832v0.33l-3.009.041a10.339,10.339,0,0,0-1.731.021q-5.851.011-11.7,0.021l-5.028-.021h-1.69a4.688,4.688,0,0,1-.845-0.021h-4.265l-9.046-.1v-0.206l9.767-.1h3.462a6.746,6.746,0,0,0,1.236-.02h17.1a3.908,3.908,0,0,0,.7.02h1.34Zm26.417,0.021v0.289c-2.483.1-5.052,0.061-7.6,0.061h-2.473a6.656,6.656,0,0,1-1.236-.021h-3.153a6.113,6.113,0,0,0-1.113-.02l-1.834-.02h-5.914V690.6h6.326l2.02-.021a6.423,6.423,0,0,0,1.174-.02h3.194a7.26,7.26,0,0,1,1.34-.021h5.028a8.836,8.836,0,0,0,1.566.021Zm-31.961,2.286-12.652.041-5.852-.021a5.467,5.467,0,0,0-.989-0.02H439.5l-9.5-.123V692.5l9.582-.124,7.109-.021c5.01,0,10.04.019,15.063,0.021A1.917,1.917,0,0,1,461.774,692.887Zm31.961-.433v0.35l-3.5.063h-1.38a3.908,3.908,0,0,0-.7.02h-3.668a5.508,5.508,0,0,1-1.009-.02h-0.866l-1.751-.021a5.786,5.786,0,0,1-1.051-.021l-4.781-.041h-6.862a7.476,7.476,0,0,1-1.318.02c-0.638.009-1.3,0.041-1.958,0.042v-0.433l4.224,0.062h1.628a4.412,4.412,0,0,1,.8.021h2.1c1.635,0,3.3-.062,4.9-0.062l6.573-.062h2.906a3.945,3.945,0,0,0,.721.021h1.4Zm-36.947,1.73v0.66q-5.753,0-11.457,0l-5.5-.021L430,694.679v-0.33l9.355-.144,5.646-.021h11.787Zm36.947,0.124v0.412l-2.659.061q-2.523.012-5.048,0.021h-2.267a6.065,6.065,0,0,1-1.133-.021l-4.245-.04c-0.332-.072-0.776.055-1.133-0.021a4.771,4.771,0,0,0-.783-0.021c-0.332-.006-0.729-0.02-1.092-0.02h-0.969a4.869,4.869,0,0,0-.886-0.021h-3.112a3.892,3.892,0,0,1-.7.021h-1.937a4.184,4.184,0,0,1-.742.02l-0.886.021h-0.515c-0.332.072-.776-0.056-1.133,0.021a5.661,5.661,0,0,1-1.031.02l-1.669.02v-0.535l1.793,0.021a6.024,6.024,0,0,1,1.113.02c0.331,0.072.745-.045,1.05,0.021h0.536l1.01,0.02a4.217,4.217,0,0,1,.762.021h2.267a4.414,4.414,0,0,1,.8.021h2.287a3.616,3.616,0,0,0,.659-0.021h1.4c0.921,0,1.859-.011,2.761-0.062l2.823-.02a5.192,5.192,0,0,1,.948-0.021l1.442-.02h0.742a5.052,5.052,0,0,1,.927-0.021l1.958,0.021C489.333,694.226,491.541,694.305,493.735,694.308Zm-40.388,1.709v0.762l-5.214.021h-1.648a4.543,4.543,0,0,1-.824-0.021h-2.144a4.173,4.173,0,0,1-.741-0.02l-5.028-.021a4.418,4.418,0,0,0-.8-0.02l-1.174-.021h-0.6a4,4,0,0,0-.7-0.021c-0.268-.006-0.535-0.013-0.8-0.021h-0.474c-0.351-.075-0.818.061-1.195-0.02a4.418,4.418,0,0,0-.8-0.02c-0.4-.008-0.8-0.014-1.195-0.021V696.2l7.068-.144,4.657-.02a4.36,4.36,0,0,1,.783-0.021h2.225a5.064,5.064,0,0,1,.928-0.02h1.813C449.427,696,451.427,696.016,453.347,696.017Zm40.388,0.144v0.474c-0.319,0-.661.017-0.948,0.02a4.375,4.375,0,0,0-.742.021c-0.272.059-.619-0.032-0.866,0.021l-5.666.041h-1.731a5.014,5.014,0,0,1-.907-0.02c-0.331-.072-0.745.045-1.051-0.021l-4.451-.062a7.045,7.045,0,0,0-1.257-.041H475.7a6.926,6.926,0,0,0-1.277-.021c-0.716,0-1.48-.02-2.226-0.02h-2.823a5.2,5.2,0,0,1-.948.02l-1.607.021H466.04a6.13,6.13,0,0,1-1.154.041H464.5c-0.312.067-.734-0.052-1.072,0.02l-2.658.063v-0.639l1.071,0.021a4.364,4.364,0,0,1,.783.02c0.377,0.081.844-.054,1.2,0.021h0.412a6.785,6.785,0,0,1,1.236.041h0.556l1.092,0.02a4.357,4.357,0,0,1,.783.021h1.979a3.945,3.945,0,0,1,.721.021h2.164a3.567,3.567,0,0,0,.638-0.021h1.154l0.989-.021a4.181,4.181,0,0,0,.742-0.02c0.246-.052.563,0.027,0.783-0.021,0.305-.065.69,0.04,0.969-0.02l4.409-.062a6.294,6.294,0,0,1,1.154-.021h2.288q2.791,0.023,5.584.042c0.253,0.054.607-.04,0.886,0.02A8.041,8.041,0,0,0,493.735,696.161Zm-43.706,1.668v0.886c-1.66,0-3.435.092-5.09,0h-1.772a4.094,4.094,0,0,1-.742-0.02h-1.792a3.723,3.723,0,0,1-.66-0.021l-3.523-.021a8.77,8.77,0,0,0-1.4-.041H434.6a8.143,8.143,0,0,0-1.381-.041h-0.453c-0.286-.062-0.678.046-0.989-0.021a4.181,4.181,0,0,0-.742-0.02l-1.03-.021v-0.453l7.068-.165,3.977-.02a3.805,3.805,0,0,1,.7-0.021h1.875a4.051,4.051,0,0,1,.722-0.021h5.687Zm3.586,0.021,4.038,0.041v0.783c-1.361,0-2.706.039-4.038,0.041V697.85Zm40.12,0.165v0.515a5.677,5.677,0,0,0-1.072.041c-0.252.054-.577-0.028-0.8,0.021l-4.76.061-2.658.021a7.118,7.118,0,0,0-1.319-.021c-0.408,0-.861,0-1.236-0.02a6.317,6.317,0,0,1-.824-0.021c-0.3-.064-0.676.038-0.948-0.02-0.292-.063-0.661.036-0.927-0.021h-0.928l-3.379-.1h-1.195a6.348,6.348,0,0,0-1.175-.02h-2.328c-0.686,0-1.384.02-2.04,0.02a10.024,10.024,0,0,0-1.36.021l-1.978.02c-0.175.038-.439-0.022-0.639,0.021-0.22.047-.537-0.033-0.783,0.02a8.374,8.374,0,0,1-1.381.042v-0.618c2.539-.007,4.994.123,7.583,0.123,0.7,0,1.435.021,2.164,0.021H472.7a7.161,7.161,0,0,1,1.339-.021,8.809,8.809,0,0,0,1.443-.041c0.212-.046.492,0.02,0.68-0.02h0.412a6.394,6.394,0,0,0,1.195-.042h0.906c0.273-.058.65,0.044,0.948-0.02a3.9,3.9,0,0,1,.7-0.021c0.372,0,.831-0.008,1.195-0.041h1.01a6.241,6.241,0,0,1,1.133-.021h2.267C488.556,697.891,491.154,698.01,493.735,698.015Zm-46.653,1.648v1.009c-2.5,0-4.976-.059-7.438-0.062l-4.08-.041a6.268,6.268,0,0,0-1.175-.042H434a6.856,6.856,0,0,0-1.215-.041H432.37c-0.24-.052-0.58.037-0.845-0.02a4,4,0,0,0-.7-0.021c-0.253,0-.543-0.02-0.824-0.021V699.91l1.071-.042a3.58,3.58,0,0,0,.639-0.02c0.266-.058.605,0.031,0.845-0.021,0.265-.057.605,0.031,0.845-0.021l1.483-.02c0.26-.056.622,0.041,0.907-0.02a4.231,4.231,0,0,1,.763-0.021l1.051-.02h0.906a6.019,6.019,0,0,1,1.113-.022l1.854-.02Zm4.76,0.02,5.193,0.042v0.864l-5.193.062v-0.968Zm41.893,0.206v0.556a7.5,7.5,0,0,0-1.319.041c-0.239.052-.549-0.025-0.763,0.021-0.252.054-.577-0.028-0.8,0.02l-5.214.062h-3.359a5.654,5.654,0,0,0-.989-0.02,5.522,5.522,0,0,1-.947-0.042c-0.253-.054-0.577.029-0.8-0.02-0.246-.053-0.563.027-0.783-0.021h-0.783a3.537,3.537,0,0,0-.618-0.02,5.084,5.084,0,0,1-.866-0.042c-0.213-.045-0.493.02-0.68-0.02h-0.659c-0.19-.041-0.458,0-0.68-0.021s-0.51-.02-0.763-0.02h-0.453a3.712,3.712,0,0,0-.659-0.021h-1.237c-1.351,0-2.741.021-4.059,0.021v-0.392h5.193c0.443,0,.9-0.019,1.318-0.02a4.683,4.683,0,0,0,.845-0.021c0.207-.044.479,0.019,0.66-0.02h0.659c0.194-.042.481,0.026,0.7-0.021a5.211,5.211,0,0,1,.886-0.041,3.632,3.632,0,0,0,.618-0.021l4.7-.1h0.969c0.755,0,1.542.019,2.266,0.02C488.7,699.746,491.234,699.844,493.735,699.889Zm-48.528,1.585v1.133l-4.513-.04c-0.535-.008-1.071-0.014-1.607-0.021a5.375,5.375,0,0,1-.989-0.021l-3.215-.041a5.657,5.657,0,0,0-1.071-.041h-0.371a5.629,5.629,0,0,0-1.092-.042h-0.371c-0.2-.043-0.5.029-0.721-0.02A6.927,6.927,0,0,0,430,702.34v-0.6a7.367,7.367,0,0,0,1.3-.042c0.226-.048.521,0.023,0.721-0.021h0.371a5.8,5.8,0,0,0,1.092-.04h0.371a5.611,5.611,0,0,0,1.051-.041l3.3-.042a5.378,5.378,0,0,1,.989-0.02l1.566-.021Q442.982,701.495,445.207,701.474Zm7.336,0.042,6.141,0.1v0.844l-6.141.1v-1.051Zm41.192,0.227v0.6l-2.308.082-1.587.021c-0.351.075-.818-0.061-1.195,0.02a5.377,5.377,0,0,1-.989.021l-1.525.02-3.009.021-3.482-.062a3.834,3.834,0,0,0-.6-0.02,4.968,4.968,0,0,1-.783-0.042c-0.206-.044-0.478.019-0.659-0.02h-0.639c-0.174-.038-0.439.023-0.639-0.021a4.783,4.783,0,0,0-.721-0.041h-0.515a4.924,4.924,0,0,0-.948-0.041h-0.35a4.5,4.5,0,0,0-.8-0.021c-0.363,0-.763-0.019-1.154-0.02v-0.392c0.4,0,.825-0.018,1.195-0.02a4.647,4.647,0,0,0,.825-0.021h0.35a4.874,4.874,0,0,0,.927-0.041h0.515a4.681,4.681,0,0,0,.742-0.041c0.193-.042.451,0.015,0.618-0.021h0.66c0.18-.039.453,0.024,0.659-0.021a4.968,4.968,0,0,1,.783-0.04,3.828,3.828,0,0,0,.6-0.021h0.742c0.252-.054.607,0.039,0.886-0.02a7.8,7.8,0,0,1,1.463-.022,3.949,3.949,0,0,0,.721-0.02,7.358,7.358,0,0,1,1.277.02h1.525a4.138,4.138,0,0,1,.763.022l2.658,0.02Zm-51.351,1.585v1.2l-3.42-.042-1.257-.02a4.687,4.687,0,0,1-.845-0.02l-2.576-.042L430,704.255V703.6l4.183-.145,2.555-.04a4.6,4.6,0,0,1,.845-0.021l1.3-.02C440.037,703.37,441.2,703.33,442.384,703.328Zm8.243,0.02,1.566,0.022a5.38,5.38,0,0,1,.989.02c0.422,0.09,1.029-.068,1.442.021s0.935-.063,1.319.02h0.68a6.043,6.043,0,0,1,1.154.042c0.232,0.049.535-.025,0.742,0.02h0.7c0.174,0.037.439-.023,0.639,0.021,0.571,0.123,1.337-.03,1.916.082v0.659c-3.647.077-7.389,0.241-11.147,0.247v-1.154Zm43.108,0.248v0.638c-0.369.041-.835-0.016-1.2,0.062-0.2.043-.464-0.017-0.638,0.021-0.213.046-.493-0.02-0.68,0.02-0.233.05-.535-0.024-0.742,0.021H489.7c-0.306.065-.72-0.05-1.051,0.02a10.321,10.321,0,0,1-1.051.021c-0.514.047-1.121,0.021-1.669,0.021-0.974,0-2.022.021-3.029,0.021h-1.34l-3.585-.1v-0.823l2.328-.083,3.3-.02H485.9a4.832,4.832,0,0,0,.866.02l1.318,0.02h0.7Zm-45.128,1.565,1.278,0.021a4.821,4.821,0,0,1,.865.02c0.407,0.088.949-.063,1.34,0.021,0.407,0.088.949-.063,1.339,0.021h0.536l0.968,0.02a4.085,4.085,0,0,1,.742.021q1.443,0.03,2.885.062a8.141,8.141,0,0,0,1.216.061h0.474c0.339,0.074.8-.034,1.154,0.042s0.833-.038,1.195.041c0.187,0.04.467-.026,0.68,0.02a5.687,5.687,0,0,0,.989.042v0.514a6.525,6.525,0,0,0-1.195.041c-0.213.047-.493-0.019-0.68,0.021s-0.437-.014-0.6.021c-0.35.075-.814-0.033-1.154,0.041h-0.556c-0.521.112-1.189-.03-1.711,0.082l-3.008.062a4.223,4.223,0,0,1-.762.02l-1.031.021h-0.556c-0.384.082-.918-0.066-1.319,0.021a6.38,6.38,0,0,1-1.154.021c-0.617,0-1.289.019-1.937,0.02v-1.277Zm-11.065.062V706.4l-0.825-.021a3.945,3.945,0,0,1-.721-0.021c-0.265-.056-0.6.032-0.845-0.02H434.78a5.511,5.511,0,0,1-1.05-.041l-1.876-.042c-0.147-.031-0.382.018-0.556-0.02a7.776,7.776,0,0,0-1.3-.062v-0.72C432.479,705.357,434.984,705.231,437.542,705.223Zm48.671,0.041,5.626,0.124,1.9,0.082v0.68l-4.225.144H488.6a4.091,4.091,0,0,1-.742.021,15.6,15.6,0,0,0-1.649.04v-1.091Z" transform="translate(-430 -685)"/>
</svg>
