<svg viewBox="0 0 279.5 51.6" xmlns="http://www.w3.org/2000/svg"><g clip-rule="evenodd" fill-rule="evenodd"><path d="m124.4 8.5c4.4 0 8.4 2 11.1 5.2l4.5-4.5c-3.8-4.3-9.4-7-15.6-7-11.5 0-20.8 9.3-20.8 20.8s9.3 20.8 20.8 20.8c6.2 0 11.8-2.7 15.6-7l-4.5-4.5c-2.6 3.2-6.6 5.2-11.1 5.2-8 0-14.4-6.5-14.4-14.4-.1-8.1 6.4-14.6 14.4-14.6m48.1 2.8h-6.2v3.2c-2.7-2-6-3.2-9.6-3.2-8.7 0-15.8 7.1-15.8 15.8s7.1 15.8 15.8 15.8c3.6 0 6.9-1.2 9.6-3.2v2.8h6.2zm-15.8 25.6c-5.4 0-9.7-4.4-9.7-9.7 0-5.4 4.4-9.7 9.7-9.7 5.4 0 9.7 4.4 9.7 9.7.1 5.3-4.3 9.7-9.7 9.7m112.5-25.6h-6.2v3.2c-2.7-2-6-3.2-9.6-3.2-8.7 0-15.8 7.1-15.8 15.8s7.1 15.8 15.8 15.8c3.6 0 6.9-1.2 9.6-3.2v2.8h6.2zm-15.7 25.6c-5.4 0-9.7-4.4-9.7-9.7 0-5.4 4.4-9.7 9.7-9.7 5.4 0 9.7 4.4 9.7 9.7s-4.3 9.7-9.7 9.7m-41.5-25.6h6.2v31.1h-6.2zm-19.7 0c-3.6 0-6.9 1.2-9.6 3.2v-3.2h-6.2v40.3h6.2v-11.9c2.7 2 6 3.2 9.6 3.2 8.7 0 15.8-7.1 15.8-15.8s-7-15.8-15.8-15.8m0 25.6c-5.4 0-9.7-4.4-9.7-9.7 0-5.4 4.4-9.7 9.7-9.7 5.4 0 9.7 4.4 9.7 9.7.1 5.3-4.3 9.7-9.7 9.7m81-34.7h6.2v40.3h-6.2zm-58.2-2.2c-2.1 0-3.8 1.7-3.8 3.8s1.7 3.8 3.8 3.8 3.8-1.7 3.8-3.8-1.7-3.8-3.8-3.8m17.1 34.4v-17.1h4.2v-5.9h-4.2v-9.2h-6.1v9.2h-4.2v5.9h4.2v18.1c.1 3.9 3.3 7.1 7.4 7.1h3.3v-5.5h-2c-1.7-.1-2.6-1.4-2.6-2.6" fill="#474c55"/><path d="m0 1.4h7v42.1h-7zm74.9 42.1h15.3v-23.5h-7v16.5h-7.9c-7.8 0-14.2-6.3-14.2-14 0-7.8 6.3-14 14.2-14h14.9v-7h-15.3c-11.7 0-21.2 9.4-21.2 21s9.4 21 21.2 21m-47.1-42.1h-15.3v42.1h15.3c11.7 0 21.2-9.4 21.2-21s-9.5-21.1-21.2-21.1m-.4 35.1h-7.9v-28.1h7.9c7.8 0 14.2 6.3 14.2 14 0 7.8-6.4 14.1-14.2 14.1" fill="#ae132a"/></g></svg>