<svg xmlns="http://www.w3.org/2000/svg" width="825.434" height="104.938" viewBox="0 0 825.434 104.938">
  <defs>
    <style>
      .cls-1 {
        fill: #fff;
        fill-rule: evenodd;
      }
    </style>
  </defs>
  <path id="矩形_15" data-name="矩形 15" class="cls-1" d="M1205.5,267h-22l2.47-7h-58.61l-2.86,7h-22l6.36-18h31.08l2.18-5h23l-2.6,5h50.34Zm-85.53,22h-11.24l1.68-9h12.28l0.9-3h-13.62l1.68-9h14.65l0.91-3h23l-1.01,3h10.1l0.91-3h23l-1.01,3h7.45l-1.68,9h-8.79l-1.01,3h10.24l-1.68,9h-11.59l-1,3h25.03l-1.68,9h-20.5l24.71,15-4.1,13-15.43-9.008-1.3,4.008h-22l2.65-10h-32.41l-3.24,10h-22l2.24-8.462L1085.31,327l4.36-18,13.49-8h-4.67l1.68-9h18.9Zm21.17,3h10.93l0.9-3h-10.83Zm5.04-15-1.01,3h10.52l0.9-3h-10.41Zm10.3,28-6.85-4h-17.14l-7.26,4h31.25Zm-77.49-53,0.91-8h13.09l-2.92,8h-11.08Zm12.6,2-3.38,11h-14.07l-0.89,19.1,6.72-7.1-1.21,19-6.38,6.781L1071.11,330h8.64l-1.97,7h-30l1.09-2.573,0.25-6.935-9.29,9.87h-17l26.96-28.48L1051.37,265h-7.16l3.38-11h4.17l0.36-10h23l-0.46,10h16.93Zm-51.38,11h-14.25l-9.84,24h25.61l-19.88,48.5-22.071-.5h-31l1.539-5h-0.273l1.744-4.779,0.375-1.22h0.07l13.5-37h8.592l17.657-46h23l-4.51,11h13.12Zm-35.75,35-10.087,26h9.747l10.27-26h-9.93Zm-26.694-38-14.628,3.272L952.49,291.287,966.759,296l-3.385,11L948.1,302.023,939.1,324h16.325l3.71-5,11.56-3-4.385,11-0.157.012L963.779,337h-52l37.271-93.5h23l-4.338,10.6,13.439-3.1Zm-93.987,75,14.886-38.374-6.834.89,4.435-11.046,6.678-.874,8.079-20.825-5.518-1.31,4.367-10.874,5.4,1.24L920.05,243.5h23L905.779,337h-22Zm21.2-83-4.267,11h-2.293l-10.146,25.266,3.012-.965-4.292,11.065-3.194,1.042L869.706,336.5l-20.927.5,10.4-27.563L848.255,313l3.385-11,11.764-3.768L875.94,265h-7.733l3.385-11h8.5l3.961-10.5h23L902.834,254h2.143Zm-66.585,39.5h-21l6.9-7.5,7.622-23h-3.58l-20.2,51.04L816.7,324H838.87l-4.09,13h-6.9l0.312,0.362H805.833l-4.631-5.8-2.349,5.936-21.927.5,9.523-24.912L775.2,299h16.635l2.293-6h-17.81l14.833-42h19.032l2.867-7.5h23l-2.968,7.5h12.069s10.691,0.4,4.2,15ZM802.619,263l-9.182,24h2.985l9.174-24h-2.977Zm-33.63,40h2.8s10.425,5.4,3.937,20L768,338.5H749.391L757,321l-0.292-.017L758.549,315h-33l0.841-1.225L746,250h32s10.425,5.4,3.937,20Zm-7.6-41-9.344,31H752l-3.182,10h4.169l0.653-1,13.126-40h-5.379ZM729.416,329.16h1.736v0l5.2,0.013s0.226,0.215-1.277,5.292c-0.028.1-.061,0.19-0.1,0.282l0.013,0-0.2.672-1.12,3.785c-1.151,3.893-5.334,4.735-5.334,4.735h-6.248l0.655-2.213h5.033a1.19,1.19,0,0,0,.833-0.389l-0.226.1,0.682-2.3c-0.2.051-.312,0.074-0.312,0.074h-1.735s-4.877-.134-3.516-4.735A6.938,6.938,0,0,1,729.416,329.16Zm-0.609,6.946-0.01.033h1.157l0.315-.087,0.551-1.862h0a0,0,0,0,0,0,0l0.659-2.227h-1.736s-1.209.176-1.816,2.228C727.5,335.641,728.342,336.012,728.807,336.106Zm-5.548-2.752-1.731,5.849h-4.339l1.616-5.461h0c0.354-1.416-.493-1.529-0.849-1.516a1.845,1.845,0,0,0-1.765,1.576h0l-1.6,5.4h-4.338l1.648-5.57h0l0.083-.278h0.01c1.231-3.44,5.564-4.178,5.564-4.178h2.314s4.171,0.738,3.381,4.178h0.011ZM717.8,332.24a1.092,1.092,0,0,1,.148-0.014,0.92,0.92,0,0,1,.141.014H717.8ZM715.918,277H673.969l9.888-28h31s10.425,5.4,3.937,20Zm-20.8-16-4.031,10H698.8l2.818-10h-6.5Zm-25.2,16H651.112l4.508-16h-3.693l-6.512,16H623.81l6.324-16H618.62l8.237-12h8.019l2.174-5.5h22l-2.239,5.5h12.046s10.425,5.4,3.937,20Zm-46.159,51.492h1.735v0l5.2,0.013s0.226,0.211-1.262,5.191c-0.028.095-.061,0.186-0.1,0.277l0.013,0-0.2.658-1.109,3.714c-1.141,3.818-5.32,4.645-5.32,4.645h-6.245l0.649-2.172h5.031a1.2,1.2,0,0,0,.832-0.381l-0.226.094,0.675-2.259c-0.2.049-.311,0.073-0.311,0.073h-1.735s-4.875-.132-3.526-4.646A6.892,6.892,0,0,1,623.759,328.492Zm-0.591,6.815-0.009.032h1.156l0.315-.085,1.2-4.014h-1.735s-1.208.173-1.809,2.186C621.859,334.85,622.7,335.214,623.168,335.307Zm-5.553-2.7-1.715,5.739h-1.337l0.059-.434h-2.929l1.474-4.933h0c0.344-1.38-.5-1.49-0.855-1.479a1.828,1.828,0,0,0-1.756,1.533h0l-1.458,4.879h-4.336l1.5-5.032h0l0.082-.273h0.01c1.221-3.374,5.551-4.1,5.551-4.1h2.313s4.171,0.724,3.39,4.1h0.011Zm-5.456-1.093a1.342,1.342,0,0,1,.149-0.014,1.079,1.079,0,0,1,.14.014h-0.289ZM601,321H583.573l8.452-30H575.748l-12.191,30H551.174c-1.751,0-2.436,5-4.174,5h-6.836l13.952-35H551.16l4.121-12H558.9l14.151-35.5h22L580.624,279h24.639s10.424,5.4,3.937,20Zm-97.06-51,8.8-15h41l-9.8,15h-40Zm40.537,21H492.025l8.238-12H548.6Zm-52.456-32.5h1.23L469.841,326H448.254l-0.75,2.508H450.4l-0.735,2.459H446.77l-0.9,3.006h0.014a1.074,1.074,0,0,0,1.313,1.366h0.289a1.979,1.979,0,0,0,.9-0.1l-0.8,2.672h-3.868c-1.225-.519-2.725-1.59-2.253-3.665h-0.012l0.98-3.279H440.7l0.735-2.459h1.735l1.143-3.826h4.025l4.2-12.682H417.944l-4.509,13h3.9l-11.477,12.911h-11.4l-0.012.088h-5.523l22.342-67.468L387.41,280l6.5-17,47.21-19,9.266-5,23.955,6.5L450.405,255h44.334ZM421.759,301h34.42l3.311-10H425.227ZM433.2,268l-4.162,12h34.091l3.974-12H433.2Zm-12.583,69.253h-4.929l1.6-2.46h3.434l0.289-6.653-7.9,9.772h-5.746l13.519-15.142H425.8l-0.514,15.142h-4.694Zm6.677-3.006h-0.011L429,328.508h4.336l-1.633,5.465h0.011c-0.281,1.287.532,1.391,0.878,1.38a1.779,1.779,0,0,0,1.7-1.38h0.01l1.633-5.465h4.337l-1.633,5.465h0l-0.082.272h-0.01a6.589,6.589,0,0,1-4.049,3.665h-5.149A3.091,3.091,0,0,1,427.3,334.246Zm5.445,1.093a1.1,1.1,0,0,1-.149.014,0.92,0.92,0,0,1-.141-0.014h0.29Zm157.533-2.186,2.838-4.661H598.9l-7.994,9.419h-5.394l0.084-9.4h4.626Zm-4.452-9.291-0.087.292-0.811,2.714H580.3l0.9-3.006h4.626Zm-1.388,4.646-0.2.658-2.613,8.745H577l2.809-9.4h4.626ZM510.318,294h23.147l-15.3,32h-24.35a18.919,18.919,0,0,1,.91-3Zm3.712,40.247h-0.011l1.715-5.738h4.336l-1.633,5.465h0.011c-0.281,1.287.531,1.391,0.878,1.38a1.778,1.778,0,0,0,1.7-1.38h0.011l1.633-5.465h4.337l-1.633,5.465-0.082.273h-0.01a6.589,6.589,0,0,1-4.049,3.665h-5.149A3.091,3.091,0,0,1,514.03,334.246Zm5.444,1.093a1.068,1.068,0,0,1-.148.014,0.92,0.92,0,0,1-.141-0.014h0.289Zm-18.012-1.64a6.892,6.892,0,0,1,5.892-5.207h2.891s4.269,0.227,2.781,5.207c-0.708,2.369-3.2,3.625-4.826,4.212h-4.429C502.491,337.324,500.754,336.068,501.462,333.7Zm5.3,1.608a2.521,2.521,0,0,0,2.008-1.881c0.6-2.013-.5-2.186-0.5-2.186h-0.579s-1.208.173-1.809,2.186C505.454,334.85,506.3,335.214,506.763,335.307Zm-26.874-6.815h2.891s4.269,0.227,2.781,5.207c-0.708,2.369-3.2,3.625-4.827,4.212h-4.428c-1.28-.587-3.017-1.843-2.309-4.212A6.892,6.892,0,0,1,479.889,328.492Zm-0.591,6.815a2.521,2.521,0,0,0,2.008-1.881c0.6-2.013-.5-2.186-0.5-2.186h-0.579s-1.208.173-1.809,2.186C477.989,334.85,478.833,335.214,479.3,335.307ZM455.6,328.492H458.5s4.269,0.227,2.781,5.207c-0.708,2.369-3.2,3.625-4.826,4.212h-4.429c-1.28-.587-3.017-1.843-2.309-4.212A6.892,6.892,0,0,1,455.6,328.492Zm-0.591,6.815a2.521,2.521,0,0,0,2.008-1.881c0.6-2.013-.5-2.186-0.5-2.186h-0.579s-1.208.173-1.809,2.186C453.7,334.85,454.548,335.214,455.013,335.307Zm13.7-2.3h0c0.364-1.408-.49-1.52-0.847-1.508a1.831,1.831,0,0,0-1.759,1.541h0l-1.456,4.871h-4.336l1.5-5.029s0,0,0,0h0l0.081-.272H461.9c1.221-3.374,5.551-4.1,5.551-4.1h2.313s4.171,0.724,3.39,4.1h0.011l-1.585,5.305h-4.337Zm-1-1.494a1.342,1.342,0,0,1,.149-0.014,1.079,1.079,0,0,1,.14.014h-0.289Zm18.962,1.366,0.082-.273h0c1.578-4.767,5.557-4.1,5.557-4.1h0.867a1.917,1.917,0,0,1,1.75.729,3.27,3.27,0,0,1,2.3-.729H498.1s4.378-.669,3.107,4.1h0l-1.585,5.305h-4.337l1.5-5.032h-0.006c0.279-1.045.129-1.311-.012-1.366h0.137a0.433,0.433,0,0,0-.171-0.01,0.231,0.231,0,0,0-.118.01h0.061a1.776,1.776,0,0,0-1.04,1.366h-0.008l-1.5,5.032h-3.469l1.5-5.032h-0.008c0.261-1.045,0-1.311-.223-1.366H492a0.189,0.189,0,0,0-.113-0.01,0.5,0.5,0,0,0-.176.01h0.137a1.974,1.974,0,0,0-.829,1.366h0l-1.5,5.032H485.17l1.5-5.032h0Zm5.262-1.366h-0.091a0.375,0.375,0,0,1,.039-0.01A0.527,0.527,0,0,1,491.935,331.513Zm4.839,0h-0.091c0.02,0,.039-0.008.057-0.01A0.256,0.256,0,0,1,496.774,331.513Zm29.414,4.387h4.452a1.111,1.111,0,0,0,1.037-.762c0.226-.755-0.068-0.935-0.068-0.935h-0.983l0.025-.034-0.256.034s-3.938.021-3.026-3.03c0.938-3.139,4.347-2.938,4.347-2.938h6.129l-0.317,1.834H532.96s-0.824-.337-1.2.932c-0.362,1.211.582,0.76,0.582,0.76h0.114l0,0h1.1s3.589-.4,2.408,3.552c-0.5,1.689-2.327,2.346-3.564,2.6h-6.811Zm40.663-4.66c-1.354,4.533-4.366,6.117-6.244,6.671H547.3l5.787-11.947,0.392-3.195,1.153,0,0,0h5.493l-0.013.027,2.028,0C564.619,322.8,568.9,324.4,566.851,331.24Zm-8.293-5.225-4.479,9.248,1.429,0.076s4.412,0.715,6.095-4.919C562.66,326.885,560.235,326.133,558.558,326.015Zm16.916,2.493h3.758s-0.23.135-.608,0.364l0.237-.091-1.439,1.912h-1.657c-0.527.354-1.061,0.726-1.56,1.094a19.51,19.51,0,0,0-2.844,2.744l-1.01,3.38h-4.625l2.891-9.677h4.626l-0.2.658-0.31,1.037a7.669,7.669,0,0,1,.758-0.6A5.569,5.569,0,0,1,575.474,328.508Zm31.166-4.646-0.088.292-0.81,2.714h-4.626l0.9-3.006h4.626Zm-4.2,14.049h-4.626l2.81-9.4h4.626l-0.2.658ZM635.263,279h57s10.424,5.4,3.936,20l-1.214,3H709.64s10.425,5.4,3.937,20l-1.637,3.284a34.62,34.62,0,0,1-7.16.716c-1.452,0,2.07-5,.568-5h-11.1l2.154-7h-71Zm41.577,23,0.653-1,1.532-10H651.059l-2.936,11H676.84Zm-21.484,21.358h7.231l-1.346,3.312h-4.049s-4.565-.867-6.728,4.457c-2.334,5.743,2.59,5.013,2.59,5.013l5.319-.278-1.3,3.2h-9.544s-5.732-.13-2.9-7.1S652.881,323.357,655.356,323.357Zm13.6-.029-0.93,2.542-0.989,3.29h3.375s3.948,0.216,2.912,4.751h0.021l-1.566,5.292h-4.05l0.077-.257c-0.114.036-.221,0.069-0.318,0.1l1.6-5.411h-0.033c0.266-1.527-.63-1.671-0.63-1.671H666.2l-2.178,7.242h-4.627l4.934-15.859Zm10.422,5.832h6.363l-0.006.03,0.864,0-2.962,10.01h-4.628l0.11-.371c-0.105.033-.211,0.064-0.316,0.093a8.7,8.7,0,0,1-1.818.278s-4.725-.649-3.516-4.735A6.937,6.937,0,0,1,679.38,329.16Zm-0.33,6.979,0.978-.371,1.126-3.807h-1.446s-1.209.176-1.816,2.228C677.312,336.149,679.05,336.139,679.05,336.139Zm15.36-12.811-0.752,2.542L689.713,339.2h-4.628l4.693-15.859Zm6.652,0-0.752,2.542L696.365,339.2h-4.628l4.693-15.859Zm4.348,5.832H708.3a3.283,3.283,0,0,1,3.051,3.915h0.129l-0.495,1.671h-7.174a1.159,1.159,0,0,0,.987,1.36,2.55,2.55,0,0,0,.714-0.245h4.879c-1.775,2.559-5.641,3.342-5.641,3.342h-1.736s-4.862-.186-3.516-4.735A6.938,6.938,0,0,1,705.41,329.16ZM707,333.075a0.987,0.987,0,0,0-.678-1.114h-0.579a2.142,2.142,0,0,0-1.338,1.114H707Zm35.436-3.915h2.893a3.283,3.283,0,0,1,3.051,3.915H748.5l-0.5,1.671h-7.174a1.159,1.159,0,0,0,.987,1.36,2.55,2.55,0,0,0,.714-0.245h4.879c-1.775,2.559-5.641,3.342-5.641,3.342h-1.736s-4.862-.186-3.515-4.735A6.937,6.937,0,0,1,742.431,329.16Zm1.585,3.915a0.987,0.987,0,0,0-.678-1.114H742.76a2.142,2.142,0,0,0-1.339,1.114h2.595ZM1118.58,330l11.16-4.152,2.1-8.848h23l-4.09,13H1148l-18.22,7h-39l2.97-7h24.83Zm78.17,0-2.97,7s-31.47.362-42.3,0.362c-4.48,0-10.14-3.363-10.14-3.363l9.41-4h46Z" transform="translate(-387.406 -239)"/>
</svg>
