<svg id="组_1" data-name="组 1" xmlns="http://www.w3.org/2000/svg" width="506.187" height="75" viewBox="0 0 506.187 75">
  <defs>
    <style>
      .cls-1, .cls-2 {
        fill: #fff;
        fill-rule: evenodd;
      }

      .cls-2 {
        opacity: 0;
      }
    </style>
  </defs>
  <path id="矩形_1" data-name="矩形 1" class="cls-1" d="M919,87V86.309c-1.419.482-2.348,0.691-2.348,0.691h-6s-16.947-3.791-16.778-17c0.237-18.225,15.239-19.054,15.239-19.054H919V29h15V87H919Zm-4.015-26h-2s-4.006.632-4.1,8c-0.067,5.212,3.209,6.543,4.911,6.883,1.71-.34,5.019-1.671,5.086-6.883C918.975,61.631,914.985,61,914.985,61Zm-40.34,26,0.25-19.534h-0.01c-0.133-5.154-3.194-5.562-4.419-5.517-1.232-.045-4.34.371-4.562,5.637H865.9L865.643,87h-15L850.9,67.009a0.026,0.026,0,0,1,0-.009l0.012-1h0.035C851.842,53.653,866.1,51,866.1,51h8s15.138,2.652,15.766,15h0.046l-0.269,21h-15ZM801.556,30h45.333V41.4H818.556v9.5h28.333V62.3H818.556V75.6h28.333V87H801.556V30ZM750.444,52.8h28.334v9.5H750.444V52.8ZM715.657,87s-16.947-3.791-16.778-17c0.237-18.225,15.239-19.054,15.239-19.054h10S739.1,51.775,738.868,70c-0.173,13.208-17.216,17-17.216,17h-6Zm4.328-26h-2s-4.006.632-4.1,8c-0.067,5.212,3.209,6.543,4.911,6.883,1.71-.34,5.019-1.671,5.086-6.883C723.975,61.631,719.985,61,719.985,61Zm-23.977-1h-10L685.87,71h0.048c0.471,5.926,5.886,5,5.886,5h1a5.954,5.954,0,0,0,3-.367L695.659,87h-8S671.574,84.348,670.9,72h-0.041l0.153-12h-6l0.114-9h6L671.3,37h15L686.12,51h10Zm-79.564-7.2h28.334v9.5H616.444V52.8ZM588,86.309c-1.419.482-2.348,0.691-2.348,0.691h-6s-16.947-3.791-16.778-17c0.237-18.225,15.239-19.054,15.239-19.054H588V29h15V87H588V86.309ZM583.985,61h-2s-4.006.632-4.1,8c-0.067,5.212,3.209,6.543,4.911,6.883,1.71-.34,5.019-1.671,5.086-6.883C587.975,61.631,583.985,61,583.985,61Zm-40.34,26,0.25-19.534h-0.01c-0.133-5.154-3.194-5.562-4.419-5.517-1.232-.045-4.34.371-4.562,5.637H534.9L534.643,87h-15L519.9,67.009a0.026,0.026,0,0,1,0-.009l0.012-1h0.035C520.842,53.653,535.1,51,535.1,51h8s15.138,2.652,15.766,15h0.046l-0.269,21h-15ZM470.556,30h45.333V41.4H487.556v9.5h28.333V62.3H487.556V75.6h28.333V87H470.556V30Zm68.91,31.95a3.348,3.348,0,0,1,.5.05h-1A3.4,3.4,0,0,1,539.466,61.95Zm331,0a3.348,3.348,0,0,1,.5.05h-1A3.4,3.4,0,0,1,870.466,61.95Z" transform="translate(-470.563 -29)"/>
  <path id="矩形_3" data-name="矩形 3" class="cls-2" d="M976.706,70c0,0.346-.027.682-0.052,1.014L976.692,71l-0.025,2.407L976.494,87c-0.181,13.975-13.818,17-13.818,17H941.082l0.106-7.947h17.395a3,3,0,0,0,2.5-1.4l-0.693.342,0.112-8.266c-0.635.182-1,.267-1,0.267h-6s-16.99-.483-16.783-17c0.236-18.225,15.24-19.054,15.24-19.054h6l0,0.009L975.949,51S976.943,51.773,976.706,70Zm-18.881-9h-2s-4,.632-4.1,8c-0.066,5.212,3.214,6.543,4.909,6.883l0,0.117h4l1.007-.312L961.824,61h-4Z" transform="translate(-470.563 -29)"/>
</svg>
