<svg xmlns="http://www.w3.org/2000/svg" width="745.062" height="74" viewBox="0 0 745.062 74">
  <metadata><?xpacket begin="﻿" id="W5M0MpCehiHzreSzNTczkc9d"?>
<x:xmpmeta xmlns:x="adobe:ns:meta/" x:xmptk="Adobe XMP Core 5.6-c142 79.160924, 2017/07/13-01:06:39        ">
   <rdf:RDF xmlns:rdf="http://www.w3.org/1999/02/22-rdf-syntax-ns#">
      <rdf:Description rdf:about=""/>
   </rdf:RDF>
</x:xmpmeta>
                                                                                                    
                                                                                                    
                                                                                                    
                                                                                                    
                                                                                                    
                                                                                                    
                                                                                                    
                                                                                                    
                                                                                                    
                                                                                                    
                                                                                                    
                                                                                                    
                                                                                                    
                                                                                                    
                                                                                                    
                                                                                                    
                                                                                                    
                                                                                                    
                                                                                                    
                                                                                                    
                           
<?xpacket end="w"?></metadata>
<defs>
    <style>
      .cls-1 {
        fill: #fff;
        fill-rule: evenodd;
      }
    </style>
  </defs>
  <path id="形状_1" data-name="形状 1" class="cls-1" d="M1414.71,325c-0.01.346-.03,0.682-0.06,1.014l0.04-.012-0.02,2.407L1414.49,342c-0.18,13.975-13.81,17-13.81,17h-21.6l0.11-7.947h17.39a2.992,2.992,0,0,0,2.5-1.4l-0.69.342,0.11-8.266c-0.63.182-1,.267-1,0.267h-6s-16.99-.483-16.78-17c0.23-18.225,15.24-19.054,15.24-19.054h6v0.009l17.99,0.05S1414.94,306.773,1414.71,325Zm-18.88-9h-2s-4.01.632-4.1,8c-0.07,5.212,3.21,6.543,4.91,6.883l-0.01.117h4l1.01-.313L1399.82,316h-3.99Zm-23.06,5-0.26,21h-15l0.25-19.64h-0.01c-0.18-5.051-3.21-5.454-4.42-5.41-1.23-.045-4.33.369-4.57,5.607h-0.01L1348.51,342h-14.99l0.25-20h0l0.01-1h0.04c0.89-12.347,15.15-15,15.15-15h7.99s15.15,2.652,15.78,15h0.03Zm-19.94-4a2.549,2.549,0,0,1,1,0h-1Zm-26.78-17h-15.99l0.14-11h15.99l-0.01,1.069Zm-0.1,8.409L1325.52,342h-16l0.46-36h15.99ZM1267.52,342.5l-9.53-36.5h16l4.78,17,5.22-17.055h19.99L1284.52,342.5h-17ZM1254.07,300h-15.99l0.14-11h15.99l-0.01,1.069Zm-0.1,8.409L1253.54,342h-16l0.46-36h15.99ZM1234.99,307l-3.09,7h-5.73c-1.47,1.3-2.96,2.654-4.32,4a46.88,46.88,0,0,0-7.13,10.043L1214.56,341h-15.99l0.46-36h15.99l-0.03,2.408-0.05,3.794a18.087,18.087,0,0,1,2.04-2.2,13.809,13.809,0,0,1,6.03-3H1236s-0.66.494-1.74,1.334Zm-59.43,34.5h-21.9l-0.1.5h-18.99l8.52-45.308L1141.29,285l4,0.02V285h19l-0.02.1c2.7,0.008,5.17.013,7.02,0.013,8.55,0,24.91,5.854,24.59,30.889S1175.56,341.5,1175.56,341.5Zm-13.51-44.62-6.36,33.84,5.02,0.28s15.96,2.618,16.22-18c0.16-12.939-8.96-15.692-14.88-16.121h0Zm-64.88,14.833s-3.19-1.232-3.25,3.412c-0.05,4.434,2.77,2.782,2.77,2.782h0.4V317.9h3.8s12.02-1.467,11.83,13C1112.6,340.5,1098.99,341,1098.99,341H1079.4l0.1-7.946h15.39a2.775,2.775,0,0,0,2.84-2.789c0.03-2.763-1.16-3.423-1.16-3.423h-3.4l0.06-.122-0.86.122s-13.59.079-13.45-11.086c0.15-11.489,12.13-10.752,12.13-10.752h21.2l0.71,6.709h-15.79ZM1074.79,326h0l-0.01,1h-0.04c-0.89,12.348-15.15,15-15.15,15h-8s-15.14-2.652-15.76-15h-0.04l0.27-21h14.99l-0.25,20h0.03c0.3,4.711,3.22,5.092,4.4,5.05,1.19,0.042,4.11-.339,4.53-5.05h0.03l0.26-20h15l-0.26,20h0Zm-19.05,5a3.531,3.531,0,0,1-.5.051,3.257,3.257,0,0,1-.5-0.051h1Zm-41.13,11h-6s-16.948-3.791-16.779-17c0.236-18.225,15.239-19.054,15.239-19.054h10s14.98,0.829,14.75,19.054c-0.17,13.208-17.22,17-17.22,17h0.01Zm-1.67-26h-2s-4.01.632-4.1,8c-0.07,5.212,3.21,6.543,4.91,6.883,1.71-.34,5.02-1.671,5.09-6.883,0.09-7.369-3.9-8-3.9-8h0Zm-23.057,5-0.256,20h-15l0.243-19h-0.019c-0.069-3.827-.849-4.8-1.392-5h0.475a1.508,1.508,0,0,0-.6-0.037,0.714,0.714,0,0,0-.4.037h0.212c-0.823.2-2.02,1.173-2.248,5h-0.027l-0.243,19h-12l0.242-19h-0.031c-0.128-3.827-1.3-4.8-2.119-5h0.212a0.692,0.692,0,0,0-.4-0.037,1.544,1.544,0,0,0-.6.037h0.474c-0.55.2-1.352,1.173-1.524,5h-0.018l-0.242,19h-15l0.242-19h0l0.013-1h0.016c0.755-17.444,15.169-15,15.169-15h3a8.239,8.239,0,0,1,6.772,2.67,8.69,8.69,0,0,1,7.224-2.67h3s14.479-2.445,14.787,15h0.028Zm-33.152-4h-0.319a0.791,0.791,0,0,1,.126-0.037,1.734,1.734,0,0,1,.188.037h0Zm16.732,0H973.15a1.662,1.662,0,0,1,.189-0.037,0.743,0.743,0,0,1,.119.037h0Zm-53.83,25h-6s-16.947-3.791-16.778-17c0.236-18.225,15.239-19.054,15.239-19.054h10s14.986,0.829,14.753,19.054c-0.174,13.208-17.218,17-17.218,17h0Zm-1.666-26h-2s-4.007.632-4.1,8c-0.066,5.212,3.21,6.543,4.911,6.883,1.71-.34,5.02-1.671,5.087-6.883,0.088-7.369-3.9-8-3.9-8h0Zm-25.057,5-0.269,21h-15l0.25-19.534h-0.01c-0.133-5.154-3.194-5.562-4.419-5.517-1.232-.045-4.34.371-4.562,5.637H868.9L868.643,342h-15l0.255-19.991a0.028,0.028,0,0,1,0-.009h0l0.012-1h0.035c0.894-12.347,15.152-15,15.152-15h8s15.138,2.652,15.766,15h0.046Zm-19.944-4a3.457,3.457,0,0,1,.5-0.05,3.4,3.4,0,0,1,.5.05h-1Zm-37.31,25h-6s-16.947-3.791-16.778-17c0.237-18.225,15.239-19.054,15.239-19.054h10S853.1,306.775,852.868,325c-0.173,13.208-17.216,17-17.216,17h0Zm-1.667-26h-2s-4.006.632-4.1,8c-0.067,5.212,3.209,6.543,4.911,6.883,1.71-.34,5.019-1.671,5.086-6.883,0.089-7.369-3.9-8-3.9-8h0Zm-23.981-1h-10l-0.141,11h0.048c0.471,5.926,5.886,5,5.886,5h1a5.952,5.952,0,0,0,3-.367L809.659,342h-8s-16.087-2.652-16.763-15h-0.041l0.153-12h-6l0.114-9h6l0.178-14h15l-0.179,14h10Zm-35.131,11h0l-0.013,1h-0.035c-0.894,12.348-15.152,15-15.152,15h-8s-15.138-2.652-15.766-15h-0.038l0.268-21h15l-0.256,20h0.038c0.3,4.711,3.211,5.092,4.4,5.05,1.185,0.042,4.107-.339,4.526-5.05h0.037l0.255-20h15l-0.255,20h0Zm-19.059,5a3.458,3.458,0,0,1-.5.051,3.4,3.4,0,0,1-.5-0.051h1Zm-40.028,7H698.745l3.114-9h11.874l-5.564-24.35L689.7,341.993H669.7L702.417,285h17L732.7,340.93l-16.01,1.007Z" transform="translate(-669.688 -285)"/>
</svg>
