<svg id="link_3" xmlns="http://www.w3.org/2000/svg" width="180" height="180" viewBox="0 0 180 180">
  <defs>
    <style>
      .cls-1 {
        fill: #5c49f4;
      }

      .cls-1, .cls-2 {
        fill-rule: evenodd;
      }
    </style>
  </defs>
  <path id="_1" data-name="1" class="cls-1" d="M1298,3124v-33l64-33v33Zm-64-33,64-33v33l-64,33v-33Z" transform="translate(-1206.5 -3018.205)"/>
  <path id="_1-2" data-name="1" class="cls-2" d="M1358,3136h4v22h-4v-22Zm-8,20.63c-2.67,1.45-7.09,2.35-9,1.37-2.17-1.12-3.45-4.6,0-7,2.33-1.62,6.52-1.96,9-2.02V3148s-0.43-3-3-3a4.166,4.166,0,0,0-4,3h-4s0.68-4.18,4.8-4.95c0.38-.05,10.2-2.39,10.2,5.95v9h-4v-1.37Zm0-5.7a12.917,12.917,0,0,0-6,1.07c-3.09,1.52-2.76,4.1,1,4,2.28-.06,4-2.15,5-3v-2.07Zm-18-2.93s-0.66-3-3-3h-1s-3,.02-3,4v9h-4v-15h4v2a2.7,2.7,0,0,1,2-2,12.507,12.507,0,0,1,6,0,5.569,5.569,0,0,1,3,5v10h-4v-10Zm-22.75,10a7.808,7.808,0,1,1,8.26-7.8A8.037,8.037,0,0,1,1309.25,3158Zm0-12.21a4.423,4.423,0,1,0,4.68,4.41A4.549,4.549,0,0,0,1309.25,3145.79ZM1294,3146h-7v12h-4v-12h-5v-3h5v-5l4-1v6h11v15h-4v-12Zm1.5-7a2.05,2.05,0,1,1,2.5-2A2.3,2.3,0,0,1,1295.5,3139Zm-27.25,19a7.808,7.808,0,1,1,8.26-7.8A8.037,8.037,0,0,1,1268.25,3158Zm0-12.21a4.423,4.423,0,1,0,4.68,4.41A4.549,4.549,0,0,0,1268.25,3145.79ZM1251,3141l-5,17h-4l-5-17-2,17h-4l3-21h5l5,17,5-17h5l3,21h-4Z" transform="translate(-1206.5 -3018.205)"/>
</svg>
