<svg xmlns="http://www.w3.org/2000/svg" width="1920" height="781.16" viewBox="0 0 1920 781.16">
  <defs>
    <style>
      .cls-1 {
        fill: #f7f7f9;
        fill-rule: evenodd;
      }
    </style>
  </defs>
  <path id="motivation_br" class="cls-1" d="M1920,1642.41c-0.67-.11-1.25-0.22-1.66-0.32h-3.18c-2.18-.73-5.86-6.33-7.32-8.28-3.8-5.08-8.54-9.51-12.41-14.66-1.51-2.01-4.18-3.47-5.09-6.05,0.87-1.22,1.21-3.9,1.27-5.74,2.48,0.92,4.23,4.37,5.73,6.38,4.28,5.7,10.04,10.55,14.32,16.24,1.58,2.1,3.58,6.32,6.68,6.7a6.866,6.866,0,0,0,1.66.62v5.11ZM0.892,1607.58c9.041,3.88,18.367,6.52,27.407,10.41,4.341,1.86,13.571,3.28,17.033,6.24-0.065,2,2.327,5.04,1.363,6.79-3.436-1.77-7.523-2.3-11.008-3.8-8.85-3.8-18.305-6.01-27.045-9.77-2.827-1.22-5.733-2.22-8.643-3.19v-7.03C0.3,1607.34.6,1607.45,0.892,1607.58ZM0,2188.51q6.4,3,12.8,5.99c34.215,16.02,69.349,30.09,103.79,45.4,10.093,4.48,20.607,8.14,30.805,12.67,4.153,1.84,10.133,2.41,13.727,5.61l-0.317.18c-0.415,1.09-2.872,4.45-3.348,4.44-4.043-.44-8.306-3.24-12.051-4.88-8.843-3.89-18.007-7.11-26.955-11.09-7.192-3.2-15.045-5.55-22.243-8.74-20.047-8.89-39.961-17.42-59.891-26.75-11.944-5.59-24.143-10.88-36.321-16.21v-6.62Zm64.359-557.49c7.507,3.24,16,4.78,23.511,8.01,2.762,1.19,7.154,4.24,10.464,2.85,1.93,0.12,8.487-2.54,10.6-3.54,2.5,2.2,6.22,1.88,9.015,3.26l-1.268.72c-2.514-.11-12.252,4.06-15.259,4.95-1.056.6-2.113,1.21-3.169,1.81-2.588.52-9.442-2.97-12-4.07-6.68-2.89-13.915-4.6-20.7-7.51-2.647-1.14-6.136-1.07-8.517-3.13,0.171-1.71-1.02-4.57-2-6.43C58.016,1627.44,61.724,1629.88,64.359,1631.02ZM6.245,1685.31c11.53,7.16,23.341,14.57,35.2,21.09,8.023,4.42,14.83,10.25,22.61,15.26,6.409,4.12,12.308,8.84,18.759,13.67,2.323,1.74,5.481,3.26,7.522,5.8-2.593,1.32-4.965,1.38-7.426,1.72-11.281-9.25-23.538-18.25-35.751-24.99-6.707-3.7-12.19-8.68-18.849-12.36-5.387-2.98-10.531-6.67-16.085-9.73-3.111-1.72-6.9-3.07-9.515-6.34a7.864,7.864,0,0,1,.361-2.31C3.639,1685.67,4.8,1685.48,6.245,1685.31Zm51.2,363.72c4.531-1.13,8.974-3.37,13.312-4.67q3.259-1.65,6.519-3.31c5.453-1.74,16.874-7.71,21.414-11.83,4.583-4.16,9.958-5.79,14.168-9.79,9.562-9.07,19.487-16.75,26.975-26.37,13.23-17.01,25.441-33.72,34.882-51.52,4.093-7.71,10.329-18.83,11.394-27.14,1.222-9.53,2.7-19.38,1.61-29.53-1.111-10.33-4-14.47,1.795-23.33l0.363,0.63c-0.233,3.06,1.671,6.52,2.181,9.7,1.035,6.45,2.447,13.74,2.278,20.15-0.6,22.91-6.052,38.53-16.988,58.54-10.1,18.48-24.568,37.42-39.636,54.23-7.5,8.37-16.969,15.01-25.844,23.2l-11.679,7.53c-4.681,4.15-13.835,8.98-19.513,10.74-2.173,1.1-4.347,2.21-6.52,3.31L57,2055.6a197.945,197.945,0,0,1-26.4,4.59,175.582,175.582,0,0,1-30.6.07v-6.78c6.8,0.49,13.648.85,20.632,1.05C32.342,2054.85,45.075,2052.13,57.449,2049.03ZM311.592,1888.9c0.4-1.57.666-3.24,1.039-4.8a2.431,2.431,0,0,0,1.086-1.04,17.039,17.039,0,0,1,4.347-1.23c0.951,0.44,1.9.88,2.854,1.31,1.742,2.62,2.931,5.23.911,7.48-0.432,1.1-1.588,1.79-3.123,2.63C315.437,1892.74,313.962,1893.22,311.592,1888.9Zm73.67,105.97c-4.333-1.47-7.631-13.56-11.471-17.84-3.522-3.93-5.23-10.04-8.977-14.22-6.2-6.92-11.072-16.98-16.729-24.1-1.868-2.35-9.044-11.98-8.977-14.22-0.418-1.89.469-2.7,0.9-4.3a2.333,2.333,0,0,0,1.086-1.04,5.1,5.1,0,0,1,2.9-.82c6.155-1.07,9.517,9.99,14.095,15.08,6.4,7.11,10.694,17.7,17.273,25.04,1.391,2.43,2.781,4.87,4.172,7.3,2.185,2.44,3.623,7.17,6.121,9.96,3.177,3.55,6.774,10.71,8.026,14.76a18.722,18.722,0,0,0-1.447,3.36C389.92,1995.48,387.322,1996.74,385.262,1994.87Zm11.049,62.69c2.441,7.85,7.693,14.78,10.115,22.83,2.193,7.28,6.169,14.22,8.258,21.78,4.257,15.42,10.431,30.79,14.841,45.79-2.457,4.41-6.234,2.35-7.52-2.85-2.667-10.79-7.577-21.31-10.665-32.61-3.384-12.38-10.137-24.94-14.066-37.82-1.5-4.93-4.75-9.13-6.169-13.72q-4.581-8.745-9.161-17.48c-1.423-4.48-5.244-9.9-7.845-14.45-2.429-4.25-5.013-9.91-7.935-13.13q-2.721-4.755-5.441-9.51-9.565-14.52-19.133-29.03c-3.61-3.97-5.722-9.6-9.611-13.86q-17.814-24.525-35.631-49.05-13.938-18.1-27.879-36.22c-7.871-8.32-13.879-18.95-21.984-27.4-5.929-6.18-10.46-13.94-16.681-20.33-4.67-4.81-8.388-10.87-13.326-15.94-11.849-12.17-22.26-26.68-33.9-38.68-3.024-3.11-4.528-6.43-7.57-9.55-11.381-11.68-20.7-26.27-32.317-36.64-19.768-17.65-40.949-29.98-62.347-41.33-8.4-4.46-16.256-9.16-24.782-13.17-7.1-3.35-14.667-6.27-21.655-9.92q4.663-1.395,9.328-2.81c2.7,2.47,7.279,3.51,10.42,4.98,7.531,3.53,15.126,7.35,22.381,11.18,21.959,11.61,43.149,24.27,63.932,40.43,10.236,7.96,18.464,19.33,28.145,29.34l6.709,8.79c13.41,13.8,24.707,29.86,37.938,43.52q4.487,5.625,8.975,11.27c10.567,10.87,19.6,24.59,30.142,35.78,3.193,3.38,4.335,7.21,7.8,10.68,13.946,14,24.845,33.52,38.711,48.55l10.654,14.94c8.814,9.6,15.159,22.74,24.071,32.52l6.438,9.78c7.262,8.03,11.977,19.84,19.4,28.03q3.785,6.255,7.572,12.5c2.026,2.27,3.422,6.72,5.758,9.33,3.575,4,12.358,19.3,13.966,24.41,1.527,4.86,5.492,9.19,6.8,13.36C394.134,2053.75,395.222,2055.66,396.311,2057.56Zm-45.155,194.57c2.985,0.85,2.085,4.39-.494,5.76-3.5-.9-4.016-1.12-3.717-5.03,0.845-.48,1.69-0.97,2.535-1.45A6.409,6.409,0,0,1,351.156,2252.13ZM319.5,2311.48c1.453,2.52,1.129,4.05-1.491,5.49-2.52-.58-5.983.17-7.837-2.67,0.029-.54-0.669-4.51-0.773-5.03C312.668,2308.65,316.472,2310.74,319.5,2311.48Zm-24.279-71.1c-4.059-1.74-10.682-.98-13.727-5.62a17.775,17.775,0,0,0,.5-2.81,3.9,3.9,0,0,1,2.083-.77c3.118-.55,9.708,2.46,12.638,3.71,7.254,3.11,15.708,4.19,23.148,7.38,3.377,1.44,6.756.24,9.424,4.71-0.768,1.54-.726,2.12-3.077,3.44C316.277,2246.14,305.229,2244.66,295.216,2240.38Zm-65.867-22.49c1.1,0.32,2.2,1.36,3.353,1.44,2.531,0.18,6.5-2.21,9.146-3.12,2.558,2.23,6.622,2.16,9.513,3.39a75.447,75.447,0,0,0,11.688,4.25c1.7,2.81,1.136,4.13-1.808,5.67-8.837-3.76-18.618-5.3-27.5-9.1-2.122-.91-4.836-0.97-6.976-1.9-4.194-1.82-10.733-2.2-9.607-7.97a4.812,4.812,0,0,1,2.4-.95c0.462-.09,7.7,1.76,7.791,1.85,0.82,0.87-.145,2.21,0,2.95C228.019,2215.56,228.684,2216.72,229.349,2217.89Zm-73.074-31.41c2.789,1.77,6.12,2,9.015,3.25,8.125,3.52,16.849,5.46,24.87,8.92,2.59,1.11,14.617,4.06,6.392,8.97-2.358-1.2-5.265-1.33-7.655-2.36-7.294-3.13-14.76-5.27-22.062-8.41-4.254-1.84-11.061-1.84-14.406-6.07,0.223-1.16.372-2.19,0.631-3.31A10.2,10.2,0,0,1,156.275,2186.48Zm-33.386-12.04c3.993,1.75,9.478,1.36,12.459,6.34a6.362,6.362,0,0,1-.724,1.67,5.742,5.742,0,0,1-2.354,1.77c-3.575-1.79-7.871-2.36-11.506-3.94-7.462-3.23-14.975-5.79-22.424-9.05-4-1.75-10.648-1.33-9.425-7.65,0.739-.42,1.479-0.85,2.218-1.27C101.478,2166.81,112.487,2169.89,122.889,2174.44Zm-72.075-28.2c2.738,0.31,10.088,3.62,12.866,4.85,2.535,1.12,11.849,4.26,5.712,8.51-7.389-1.5-14.425-4.91-21.382-7.96-5.305-2.33-11.336-3.39-16.535-6.11,3.212-.91,6.534.24,9.511,0.45C44.327,2146.21,47.489,2145.88,50.814,2146.24ZM0,2148.93v-16.04c0.567,0.01,1.136,0,1.705.01a14.456,14.456,0,0,0,3.594-.04c3.469-.08,6.977-0.3,10.54-0.69,29.853-3.29,61.847-18.64,96.123-38.58,9.63-5.61,19.967-12.54,27.205-19.36,3.619-3.41,7.375-5.16,10.637-8.61a470.681,470.681,0,0,0,37.378-44.95c9.136-12.37,16.619-26.09,25.97-38.42a1.311,1.311,0,0,0-.815.05c-2.128-.11-4.094,1.41-6.43,1.99-4.461,1.12-9.679,2.59-14.173,3.9a28.177,28.177,0,0,0-3.851-1.58,15.755,15.755,0,0,1-1.724-4.49,18.256,18.256,0,0,0,1.447-3.35c6.807-4.09,17.976-6.2,24.9-7.93,7.816-1.96,11.267-5.26,18.294-3.32,3.48,5.79,4.329,11.82,5.719,17.35,1.978,7.87,4.955,15.61,6.855,23.01a12.908,12.908,0,0,1-2.081,3.71,4.76,4.76,0,0,1-2.524,1.25,1.852,1.852,0,0,0,.124-0.29,5.1,5.1,0,0,1-5.844-2.13l-0.062.09a4.749,4.749,0,0,1-.663-1.36c-1.733-5.8-4.457-12.81-5.312-18.84l-0.634.36c-0.631,1.85-2.363,3.2-3.484,4.94-3.048,4.73-6.365,9.39-9.5,14.27-7.653,11.91-16.026,24.01-24.658,35.57-3.528,4.73-7.363,8.33-11.041,13.05-6.963,8.95-15.975,16.94-24.892,25.6q-7.92,6.015-15.843,12.01l-14.983,9.84-6.655,3.81a48.563,48.563,0,0,1-13.944,7.97c-3.116.97-6.379,3.93-9.055,4.76q-6.519,3.315-13.039,6.62c-9.786,2.99-19.219,8.37-28.344,10.75-4.928,1.28-8.656,3.36-13.493,4.35-8.091,1.65-16.163,3.29-24.136,4.13A113.167,113.167,0,0,1,0,2148.93Zm238.774-136.09c-0.035.06-.1,0.11-0.328,0.39-0.758,3.3-4.691,6.49-6.832,9.37-5.568,7.5-12.378,13.95-19.233,21.53-14.691,16.23-34.022,30.11-50.24,45.99-4.071,3.99-9.139,6.74-12.991,10.38l-8.329,6.03c-5.9,5.54-13.348,10.35-19.554,15.82l0.363,0.63c3.423-.54,14.531,3.96,18.436,5.02,10.465,2.85,21.058,5.22,31.527,8.05q8.561,2.475,17.123,4.93c12.468,1.61,24.2,7.02,36.646,8.91l2.854,1.32c9.276,1.28,18,4.64,27.313,5.83,1.888,0.6,3.776,1.21,5.663,1.81,24.584,3.16,48.332,11.11,72.926,14.24,2.462,0.32,5.018,1.72,7.474,2.04,7.949,1.02,15.528,3.23,23.463,4.25,4.122,0.52,8.159,2.32,12.411,2.57a195.5,195.5,0,0,1-10.163-26.58c-2.145-7.59-6.184-14.61-8.258-21.79-2.867-9.91-8.154-19.07-10.935-28.67q-8.188-20.55-16.378-41.12-3.062-6.45-6.123-12.91c-1.189-3.8-4.048-8.21-5.262-12.14l-3.265-5.7c-1.514-4.75-9.532-18.83-12.878-22.51q-3.15-5.145-6.3-10.28c-5.321-5.83-9.488-13.59-14.642-18.98-8.6-8.97-14.788-19.42-23.75-26.8-1.332,4.66-1.329,10.17-1.937,14.99a41.879,41.879,0,0,1-3.163,10.65c-0.256,1.26-.512,2.53-0.767,3.8-3.066,7.15-5.809,14.91-10.4,21.52-0.3-.53-0.605-1.05-0.907-1.58,0.168-1.89-1.237-4.99-1.861-6.93,2.169-2.37,2.88-5.61,4.115-8.25,3.57-7.62,6.631-15.86,7.637-24.15,0.784-6.45.718-13.2,2.84-19.29,0.694-.26,1.389-0.52,2.083-0.77,7.029,3.82,12.322,12.45,18.717,18.74,6.035,5.94,11.418,13.77,17.5,20.29,2.928,3.14,4.769,7.14,7.435,10.05l8.977,14.22c2.986,3.33,5.625,9.1,8.116,13.45q2.266,3.975,4.535,7.93,6.688,14.265,13.38,28.53c2.586,8.58,7.756,17.51,10.3,26.09l3.175,7.02c1.946,6.73,5.783,13.18,7.849,20.34,5.967,20.65,17.092,40.9,23.095,61.68,1.418,4.91,4.377,9.41,5.852,13.91a6.116,6.116,0,0,1-2.941,2.94c-2.573-1.05-5.645-1.13-8.425-1.49-6.43-.82-12.9-3.13-19.523-3.98-3.569-.45-7.212-2.21-10.781-2.67-14.351-1.83-28.133-6.25-42.487-8.09-2.456-.31-5.012-1.72-7.474-2.03-7.61-.98-14.859-3.02-22.466-3.98-4.254-.54-7.919-2.64-12.547-2.08-3.395-6.52-6.351-6.85-11.777-2.94-4.252-2.18-10.052-3.15-14.767-3.76-5.147-.66-10.006-3.19-15.265-3.89-5.068-.67-10.045-3.73-15.13-4.38-7.11-.92-13.884-3.52-20.747-5.39-11.543-3.14-23.151-6.06-34.7-9.18q-12.468-3.375-24.914-6.78c-3.3-.9-7.6-0.58-10.057-4.35a13.77,13.77,0,0,1,.678-2.49c1.948-4.31,8.542-6.81,12.492-10.52,6.534-6.13,15.089-11.32,21.591-17.4,2.588-2.42,5.106-3.2,7.7-5.66,6.457-6.15,14.11-11.22,20.594-17.68,7.536-7.5,16.507-14.02,24.124-21.79,12.575-12.84,24.586-25.18,33.742-38.61A5.959,5.959,0,0,0,238.774,2012.84ZM1.705,2132.9c-0.576-.07-1.146-0.16-1.705-0.28v-6.48c2.941,0.82,6.226,1.44,8.23,4.49-0.3,1.07.061,1.7-1.04,1.86a16.87,16.87,0,0,1-1.89.37C4.1,2132.89,2.9,2132.9,1.705,2132.9Zm44.53-512.97,3.034-1.32c0.891,0.33,1.782.67,2.673,1,2.132,1.89,2.262,5.86,2.723,7.7,1.684,6.7,4.385,12.96,5.992,19.29,1.013,3.99,3.792,6.47,1.184,9.42-1.069,2.66-6.325,2.82-8.965,3.45l-24.768,7.44c-1.632-.84-2.561-0.91-3.942-3.22,0.325-1.39-.134-2.23.949-3.49a2.666,2.666,0,0,1,.311-0.43c0.668-.43,1.411-0.97,2.213-1.39,0.589-.22,1.2-0.4,1.771-0.57a3.409,3.409,0,0,1,.64-0.01l0.633-.36h0q7-2.115,13.992-4.22c-0.06-.1-0.121-0.21-0.181-0.32-3.644-.96-6.957-3.35-10.42-4.97-4.488-2.11-9.624-2.26-13.049-8.11,0.323-1.69.646-3.17,1.038-4.8,1.46-1.03,2.377-2.05,3.984-1.86,3.188-.62,5.816,1.85,8.517,3.12,5.406,2.54,11.484,4.35,16.627,7.74l0.317-.18-6.582-21.06A21.011,21.011,0,0,0,46.235,1619.93Zm-18.6,38.45a5.419,5.419,0,0,0-2.213,1.39,3.793,3.793,0,0,1-1.443.66c-4.313-.65-11.673-5.28-15.947-7.29-2.657-1.24-5.34-2.44-8.034-3.63v-6.26q5,2.25,10.023,4.55c4.469,2.04,9.019,3.97,13.591,6.11,2.375,1.11,5.217,1.42,7.384,3.35l-0.318.18c-0.365.12-.807,0.24-1.273,0.37A4.949,4.949,0,0,0,27.638,1658.38Zm113.118,28.24c11.031,6.1,21.364,15.69,31.493,24.9,3.145,2.86,13.059,11.3,9.7,15.49-0.742,2.57-3.527,2.73-5.7,3.26-8.649-4.93-15.451-15.08-23.611-21.42-5.391-4.19-11-9.37-16.9-12.63-3.789-2.09-8.089-3.77-11.74-6.07,0.248-.21.492-0.43,0.73-0.67a7.864,7.864,0,0,0,.89-1.13,12.219,12.219,0,0,0,3.1-6.63,4.463,4.463,0,0,1,.748-1.21C133.465,1681.19,137.119,1684.6,140.756,1686.62Zm-12.046-4.9c-0.82,1.72-1.786,4.64-3.1,6.63a12.134,12.134,0,0,1-1.841,1.67,2.543,2.543,0,0,0,.221.13c-8.2,7.06-21.706-.56-22.826-9.5-0.007-.05-0.01-0.11-0.016-0.16,0.111-.01.222-0.01,0.332-0.02-0.318-3.54.234-7.48,3.028-10.15-0.123-.15-0.249-0.29-0.376-0.42,0-.07.015-0.13,0.013-0.21,1.89-.49,4.213-3.29,6.972-3.99a16.484,16.484,0,0,1,14.138,3.69c-0.062.04-.124,0.07-0.186,0.11,3.447,3.09,3.2,7.47,4.355,10.55,0.017-.01.036-0.01,0.053-0.02,0.044,0.11.078,0.22,0.128,0.34a1.014,1.014,0,0,0-.152.14c-0.22-.04-0.441-0.08-0.663-0.1A10.8,10.8,0,0,1,128.71,1681.72Zm-3.45-12.33c0.149-.08.3-0.17,0.447-0.25,2.522,0.16,5.139-1.72,7.879-2.41,4.469-1.11,9.646-2.84,14.173-3.9,2.158-.5,3.866-1.82,5.8-1.63,0.951,0.44,1.9.87,2.854,1.31,1.954,3.09,2.744,5.44.911,7.48-0.93,2.31-5.42,3.46-7.787,4.03-6.431,1.54-13.768,3.22-20.051,6.01-0.745-1.95-.5-3.49-1.008-5.32A11.354,11.354,0,0,0,125.26,1669.39Zm-24.107,11.1-0.483.03c-3.078-2.03-5.61-1.79-8.2-6.25q0.067-1.725.133-3.45c0.378-.85,1.106-1.2,1.357-2.03a15.528,15.528,0,0,1,4.482-1.73c1.917,0.96,3.99,1.07,5.7,2.84-0.058,1.35-.992,1.55-1.615,2.82A18.353,18.353,0,0,0,101.153,1680.49Zm163.971-53.67,1.312-2.85c8.455-5,16.927-6.1,25.264-10.25-0.06-.1-0.121-0.21-0.181-0.32-4.03-.92-7.918-3.37-11.734-5.06-2-.9-5.014-1.16-6.84-2.4a4.171,4.171,0,0,1-1.136-5.67c0.12-.35.469-0.82,0.588-1.17l2.716-1.14c5.73,2.97,12.5,4.54,18.393,7.15,4.525,2.01,9.148,4.73,13.908,5.93,0.483,0.85.967,1.69,1.451,2.54-2.378,7.67-5.738,14.99-9.043,22.42-1.867,4.21-1.489,8.79-7.011,12.01-0.927-.39-1.266-0.13-2.175-0.86-1.021-.32-1.485-1.07-2.266-2.49,1.345-6.7,4.484-14.27,7.685-20.39-0.06-.1-0.121-0.21-0.181-0.31l-1.9,1.08c-1.679-.02-3.221,1.54-5.116,2.09-5.013,1.45-17.6,8.18-20.965,5.26-1.1-.43-1.79-1.59-2.629-3.12C265.4,1628.47,265.015,1627.67,265.124,1626.82Zm-47.255-25.98c4.525-2.69,9.562-3.84,13.946-5.03,5.307-1.45,10.169-3.93,15.078-5.27l7.516-3.03c12.41-3.38,25.1-9.12,37.4-12.56q3.033-1.32,6.067-2.63c9.174-2.52,18.816-6.75,27.937-9.25,5.187-1.43,9.864-4.41,14.761-5.08a5.554,5.554,0,0,1,2.764,2.62c-0.566,2-.671,2.59-3.529,4.13-3.032-.13-6.191,2.45-9.464,3.31-5.487,1.44-10.884,4.28-16.843,5.85-23.2,6.09-46.1,17.26-69.322,23.67-7.824,2.16-15.037,5.74-22.458,7.8-2.875.79-6,3.28-8.513,2.76l0.634-.36C214.538,1605.26,217.119,1603.34,217.869,1600.84Zm14.842,45.79c-5.615,3.37-11.129,4.66-16.346,5.98-7.175,1.83-13.85,4.78-20.556,6.72a28.274,28.274,0,0,0-3.851-1.59c-2.7-4.49-1.19-5.27.175-8.51,3.978-2.35,8.524-3.16,12.361-4.13,5.493-1.39,10.465-3.77,15.576-5.13,4.311-1.13,8.565-4.63,11.548-1.13a3.527,3.527,0,0,1,2,3.49C234,1644.14,233.111,1645.08,232.711,1646.63Zm152.664-74.3a13.007,13.007,0,0,1,4.852,7.74c1.4,10.51-3.322,18.51-15.568,16.91-2.168-.29-4.561-0.71-6.207-2.77a1.73,1.73,0,0,1-1.132.23l0.634-.36a10.5,10.5,0,0,1-1.672-1.72,56.669,56.669,0,0,1-2.857-6.72,3.552,3.552,0,0,1,.084-0.8,2.066,2.066,0,0,0-.318-0.14,2.639,2.639,0,0,1-.045-0.49C363.506,1573.16,375.868,1566.03,385.375,1572.33Zm-19.093,20.03c0.6,1.22,1.038,2.08,1.038,2.08h0c-0.739.42-1.479,0.85-2.218,1.27-1.854-.05-3.684,1.81-5.75,2.45-4.732,1.45-10.141,3.97-14.715,5.89-2.486-1-3.791-.69-5.8-4.25a4.289,4.289,0,0,0-.273-1.95,18.628,18.628,0,0,0,1.447-3.35,72.888,72.888,0,0,1,16.435-7.3c2.4-.74,4.817-3.21,6.745-2.5a8.306,8.306,0,0,0,.234.94C363.406,1587.62,364.735,1590.39,366.282,1592.36Zm98.748,552.96c-6.488,6.01-19.47.96-21.517-7.46a16.362,16.362,0,0,1,1.8-11.56,9.451,9.451,0,0,1,1.481-1.74,34.993,34.993,0,0,1,4.318-3.02,17.355,17.355,0,0,1,4.707-1.17c0.151,0.03.3,0.05,0.45,0.09,0.076-.05.153-0.09,0.229-0.13C468.922,2119.73,475.738,2135.41,465.03,2145.32Zm-13.915-23.78a23.09,23.09,0,0,0-3.355,1.68,4.4,4.4,0,0,1-.963,1.34c-0.087.07-.174,0.14-0.259,0.2l-0.363-.63c0.068-3.36-4.452-8.98-5.625-12.77-2.783-8.99-8.815-17.92-11.658-27-1.548-4.94-5.215-9.16-5.67-13.58q-3.169,1.8-6.338,3.62c-1.763-.27-3.6.27-5.119-0.86-2.381-1.76-4.416-6.98-6.121-9.96-4.55-7.95-9.785-16.51-13.468-24.27,0.727-1.84.176-3.16,2.352-4.72,2.025-3.6,8.858-3.67,10.637-8.61,3.417-1.97,4.525-.56,7.562-2.22,3.056-1.66,8.244-5.09,13.464-8.09,0.053,0.1.113,0.21,0.163,0.29q2.693-1.53,5.387-3.08c-0.026-.04-0.053-0.09-0.079-0.14,4.561-2.21,8.523-3.41,10.268-1.9,2.466,1.04,7.225,11.16,9.158,14.54,2.536,4.43,10.992,16.67,10.793,20.33-0.177,3.27-3.671,5.08-7.6,7.3h0c-1.8,1.03-3.592,2.05-5.387,3.08h0q-8.715,4.98-17.43,9.97c0.06,0.11.121,0.21,0.181,0.32,2.877,1.2,6.184,11.08,7.846,14.45q8.708,19.62,17.418,39.26l-0.405.24c-0.224.01-.451,0.02-0.679,0.04A7.606,7.606,0,0,0,451.115,2121.54Zm-13.564-89.68q0.454,0.8.907,1.59c0.423-.25.845-0.49,1.268-0.73l-0.907-1.59C438.4,2031.38,437.974,2031.62,437.551,2031.86Zm6.034,14.22c1.584-.91,3.169-1.81,4.753-2.72-1.584.91-3.169,1.81-4.753,2.72q-5.8-10.14-11.608-20.29,2.376-1.35,4.753-2.72-2.376,1.365-4.754,2.72h0q-13.152,7.53-26.3,15.05,5.8,10.14,11.608,20.29,13.151-7.53,26.3-15.05h0Zm10.695,6.93c3.717,6.37,8.475,13.73,10.293,20.2l4.807,9.87c-0.362.35-.724,0.7-1.086,1.04,0.287,0.26.574,0.52,0.861,0.77-0.744,2.99-1.79,6.86-.9,10.2l-0.317.18c-0.362-.64-0.725-1.27-1.088-1.91,0.118-2.92-2.925-5.86-3.946-9.1-2.886-9.15-8.7-18.83-14.014-28.17,1.584-.91,3.169-1.81,4.753-2.72C453.859,2053.25,454.067,2053.13,454.28,2053.01Zm-39.8-56.34c-2.112-2.33-3.414-6.39-5.215-8.38q-1.813-3.165-3.627-6.34c-2.414-3.72-5.334-8.96-8.206-12.13-0.967-1.69-1.935-3.39-2.9-5.08-4.182-4.6-7.107-11.39-11.2-15.89l-4.488-7.11c-6.682-7.32-11.605-17.33-18.224-24.5-1.133-1.74-2.267-3.47-3.4-5.21-6.641-7.18-12.084-16.77-18.676-23.82-1.012-1.52-2.025-3.05-3.037-4.57-9.347-10.07-17.167-22.58-26.517-32.38-1.722-1.81-8.66-9.9-8.658-11.46a7.529,7.529,0,0,1-.125-0.78c0.192-1.78.362-3.55,0.437-5.29,0.024-.54.016-1.08,0.013-1.61a0.755,0.755,0,0,1,.394.12c3.744,2.05,6.065,7.77,9.292,11.09,7.573,7.79,14,17.93,21.576,25.95q2.13,2.985,4.261,5.98c7.575,8.01,13.7,18.72,21.305,26.94l6.755,9.6c7.332,7.93,12.739,19.02,20.172,27.17l4.489,7.11c4.191,4.63,7.116,11.52,11.379,16.22l2.9,5.07c2.933,3.24,4.419,8.36,7.708,12,3.9,4.31,5.929,11.54,10.065,16.12,3.944,4.37,7.693,12.01,10.712,17.25-1.766.86-3.62,1.87-5.471,2.93C423.8,2011.39,418.505,2001.12,414.475,1996.67ZM300.2,1839.02c-0.4,3.73-.927,7.51-1.091,11.16-0.135,3.01.964,8.04-1.216,10.37-2.6,2.79-7.564.7-9.782,0.55-9.245-.65-18.938.02-27.764-2.21-1.837-3.06-1.087-3.78-.5-6.03,6.605-3.83,15.475.85,22.055-.41L281,1850.86c-3.866-2.1-7.559-9.85-11.06-13.45-9.338-9.6-17.248-21.67-26.607-31.06-2-2.01-10.662-11.71-10.608-14.13-0.547-2.48.833-3.13,1.673-5.17,1.307-.77,2.2-1.16,3.214-0.99,5.2-.95,11.043,9.8,15.182,14.03,9.383,9.6,17.435,21.55,26.788,31.38,4.32,4.55,7.055,10.48,11.6,14.4a1.015,1.015,0,0,0,.136-0.49c0.842-3.24.25-9.14,0.634-14.33,0.011,0.02.024,0.04,0.035,0.06l0.317-.18c-0.043-.67-0.086-1.43-0.094-2.22,0.472-3.11,1.486-5.72,3.666-6.98,2.01,0.57,3.284.26,4.893,2.67a53.163,53.163,0,0,0-.117,7.72,0.8,0.8,0,0,0-.1-0.02C300.644,1834.4,299.932,1836.71,300.2,1839.02Zm-19.41-20.86c-1.118-1.47-2.237-2.93-3.355-4.4-5.837-5.69-11.472-12.74-17.223-18.34-4.435-4.32-7.237-8.89-11.693-13.08-16.528-15.57-31.612-33.3-48.177-48.18-7.774-6.99-14.5-14.77-21.98-21.51-2.508-2.26-7.291-6.03-4.762-9.06,0.7-1.28,3.051-1.58,4.618-2.22a101.5,101.5,0,0,1,11.863-4.26c11.981-3.2,24.106-8.81,35.952-12.16,3.8-1.07,6.2-2.97,9.915-3.99,10.9-2.97,21.273-8.38,32.555-11.47,8.178-2.24,16.2-6.38,24.858-8.75,26.319-7.21,52-19.86,78.287-27.12,13.069-3.6,25.419-9.89,38.17-13.42,5.1-1.41,9.677-4.26,14.443-4.9,1.477,0.98,2.753,2.55,2.042,4.31-0.718,1.74-12.479,5.94-15.485,6.75-12.024,3.26-24.238,9.03-36.268,12.34q-4.641,1.8-9.282,3.62c-6.409,1.72-12.512,4.96-19.243,6.8-22.267,6.09-44.266,16.78-66.424,22.86-7.642,2.09-13.866,5.99-21.462,8.07-12.518,3.43-25.265,9.23-37.717,12.74l-9.916,3.99c-5.037,1.39-9.965,3.94-15.394,5.44-4.224,1.17-9,2.41-13.312,4.67,2.608,3.67,6.476,6.54,9.517,9.29,6.362,5.75,12.089,12.27,18.174,17.79,2.023,1.84,2.851,3.88,4.9,5.62,16.982,14.42,31.162,32.61,47.724,48.86,4.9,4.8,9.881,10.58,14.775,15.53,2.708,2.73,4.091,5.57,6.844,8.29,3.265,3.22,7.022,6.86,9.791,11.23-1.115,1.27-1.33,3.32-1.312,5.21q-0.171,1.14-.258,2.34C289.134,1826.31,284.4,1821.67,280.792,1818.16ZM480.5,1990.03c1.6-1.21,1.721-2.08,3.576-3.3,0.575,0.95.737,0.73,0.725,1.26-0.108,1.26-.408,1.51-1.991,2.41-0.268.84-.479,1-1.539,1.72C481.016,1991.42,480.759,1990.73,480.5,1990.03Zm716.138-124.91v0.32h-0.63v-0.32h0.63Zm1.59-27.4a2,2,0,0,1-1.27-.32A2,2,0,0,1,1198.23,1837.72Zm2.23,21.99a1.534,1.534,0,0,1-.95-0.32A1.475,1.475,0,0,1,1200.46,1859.71Zm0,5.73a1.083,1.083,0,0,1-.64-0.32h0.64v0.32Zm1.27-27.72a1.083,1.083,0,0,1-.63-0.32h0.63v0.32Zm9.87,27.4a1.6,1.6,0,0,1-.96-0.32A1.569,1.569,0,0,1,1211.6,1865.12Zm3.18,0a2,2,0,0,1-1.27-.32A2.07,2.07,0,0,1,1214.78,1865.12Zm8.27-28.04a3.223,3.223,0,0,1-1.9-.32A3.388,3.388,0,0,1,1223.05,1837.08Zm6.69,2.23h-0.32v-0.95A1.628,1.628,0,0,1,1229.74,1839.31Zm7.32,16.89h-0.32v-0.64A1.254,1.254,0,0,1,1237.06,1856.2Zm9.86-.96h-0.32v-0.63A1.107,1.107,0,0,1,1246.92,1855.24Zm0.64,8.61v-2.87A3.252,3.252,0,0,1,1247.56,1863.85Zm2.22,1.27a1.05,1.05,0,0,1-.63-0.32h0.63v0.32Zm2.87,0a1.6,1.6,0,0,1-.96-0.32A1.569,1.569,0,0,1,1252.65,1865.12Zm0.95-26.76a1.628,1.628,0,0,1,.32.95h-0.32v-0.95Zm0,25.81v-15.3C1254.18,1849.76,1254.18,1863.28,1253.6,1864.17Zm6.05-11.16a0.941,0.941,0,0,1,0,1.28v-1.28Zm0-4.14a1.254,1.254,0,0,1,.32.64h-0.32v-0.64Zm13.36-11.79a2,2,0,0,1-1.27-.32A2.141,2.141,0,0,1,1273.01,1837.08Zm26.73,0.64a1.534,1.534,0,0,1-.95-0.32A1.534,1.534,0,0,1,1299.74,1837.72Zm12.1,27.4a1.544,1.544,0,0,1-.96-0.32A1.6,1.6,0,0,1,1311.84,1865.12Zm22.27-28.04a2,2,0,0,1-1.27-.32A2.141,2.141,0,0,1,1334.11,1837.08Zm511.36,371.19c1.9,1.93-.32,4.22-2.86,4.14-2.26-2.19-2.55-2.59-.64-5.42h2.55A5.465,5.465,0,0,1,1845.47,2208.27Zm-41.68-44.93c2.6,0.93,6.28,6.07,7.95,8.29,4.15,5.49,10.07,9.97,14.32,15.61,1.93,2.56,5.01,3.11,5.09,7.65a4.751,4.751,0,0,1-3.81,1.27c-5.66-7.54-13.38-13.45-19.1-21.03-2.32-3.07-7.65-5.36-7.95-10.19a15.285,15.285,0,0,0,1.59-1.92A3.444,3.444,0,0,1,1803.79,2163.34Zm-7.96,76.15c0.01,2.54-.89,3.55-3.5,3.51-1.65-1.53-4.6-2.46-4.77-5.42,0.25-.39,1.44-3.7,1.59-4.14C1791.89,2234.39,1793.87,2237.62,1795.83,2239.49Zm-25.45-106.1c-1.22-1.6-3.24-2.83-4.46-4.46-2.38-3.19-7.16-6.32-3.82-10.19a4.054,4.054,0,0,1,2.23.32,68.066,68.066,0,0,1,5.09,4.78c0.25,1-1.06,1.6-1.27,2.23v3.5c0.69,0.72,1.07,1.99,1.91,2.55,1.84,1.23,5.88,1.14,8.27,1.59,0.97,2.8,4.08,4.51,5.73,6.69a67.141,67.141,0,0,0,7,8.29c0.07,2.86-.93,3.61-3.82,3.5C1782.18,2145.52,1775.45,2140.12,1770.38,2133.39Zm-43.92-59.26c1.35,2.55,3.77,4.17,5.41,6.37,4.63,6.19,10.39,11.44,14.96,17.53,1.48,1.96,9.3,9.41.95,9.56-1.26-1.93-3.41-3.29-4.77-5.1-4.16-5.53-8.88-10.39-13.05-15.93-2.42-3.23-7.57-6.19-8.27-10.84,0.67-.78,1.23-1.49,1.91-2.23A9.027,9.027,0,0,1,1726.46,2074.13Zm-66.82-73.28c-3.01-4.06-7.11-7.48-9.87-11.79,2.83,0.71,4.84,3.02,7.01,4.46,2.42,1.63,4.96,2.74,7.31,4.46,1.94,1.42,6.07,7.11,7.64,9.24,1.43,1.95,7.12,8.36.64,8.92C1667.43,2011.81,1663.58,2006.18,1659.64,2000.85Zm25.77,26.76h2.23c5.88,7.89,12.88,14.99,18.78,22.94,2.26,3.06,6.58,5.14,6.68,10.2a5.722,5.722,0,0,1-1.27.96,5,5,0,0,1-2.55.31c-1.93-2.9-4.93-5.19-7-7.96-4.25-5.68-8.82-10.87-13.05-16.57C1686.96,2034.43,1681.76,2031.87,1685.41,2027.61Zm8.91,104.83c-2.86-2.09-4.88-6.05-7-8.92-5-6.78-10.54-13.19-15.59-20.08-4.06-5.53-8.98-10.71-13.05-16.25-11.31-15.41-22.68-30.5-33.73-46.19-11.95-17-24.95-33.62-36.91-50.66-38.55-54.95-77.08-109.75-114.87-165.36-16.28-23.95-33.79-47.47-48.05-73.29-1.47-2.65-3.52-5.38-5.09-7.96-2-3.27-3.11-6.61-5.09-9.88-1.1-1.8-3.97-4.76-2.55-7.01a5.2,5.2,0,0,1,.95-1.27,12.168,12.168,0,0,1,2.87.32c22.61,41.18,49.09,78.77,75.41,116.29,14.01,19.96,27.5,39.95,41.05,60.22,7.72,11.54,16.57,22.74,24.51,34.09,19.12,27.35,38.12,54.34,57.27,81.57,18.96,26.94,39.44,52.82,58.87,79.33,5.7,7.77,12.07,15.09,17.82,22.94,2.34,3.2,6.62,6.21,7.96,10.2h-0.32C1697.99,2131.17,1694.68,2132.65,1694.32,2132.44Zm194.11-534.95c0.96,0.1,1.91.21,2.87,0.31l1.59,1.92c0.79,2.35-.83,5.42-1.28,7.01-1.62,5.8-2.29,11.71-3.81,17.2-0.96,3.46.07,6.54-3.19,7.65-1.95,1.55-6-.61-8.27-1.28q-10.98-2.55-21.96-5.09c-0.87-1.35-1.54-1.8-1.59-4.15,0.85-.91.87-1.74,2.23-2.23a3.536,3.536,0,0,1,.39-0.19c0.7-.03,1.51-0.13,2.31-0.09,0.54,0.08,1.08.21,1.58,0.33a2.911,2.911,0,0,1,.49.27h0.64q6.21,1.44,12.41,2.87v-0.32c-2.34-2.31-3.81-5.55-5.73-8.28-2.48-3.54-6.3-5.88-6.36-11.79,0.97-1.14,1.86-2.12,2.86-3.19,1.55-.14,2.69-0.52,3.82.32,2.68,0.91,3.6,3.92,5.09,6.05,2.99,4.27,6.81,8.27,9.23,13.07h0.32q2.07-9.405,4.14-18.8A18.783,18.783,0,0,0,1888.43,1597.49Zm-30.71,21.06a4.66,4.66,0,0,0-2.31.09,3.051,3.051,0,0,1-1.34-.13c-2.98-2.36-6.55-9.06-8.91-12.42-6.43-9.13-13.48-17.93-20.05-27.08-2.54-3.54-8.76-8.74-8.91-14.02a6.693,6.693,0,0,0,1.27-1.28h2.55c2.84,4.44,6.79,8.48,9.86,12.75,6.39,8.87,12.71,17.55,19.09,26.44,2.5,3.48,5.11,6.92,7.64,10.52,1.32,1.87,3.33,3.33,4.14,5.73h-0.32c-0.33-.07-0.71-0.17-1.13-0.27A4.213,4.213,0,0,0,1857.72,1618.55Zm-14.79-67.26c3.8,0.57,8.97,8.58,11.14,11.47,1.52,2.03,3.88,3.71,5.41,5.73,5.15,6.86,11.07,12.9,16.22,19.76,2.48,3.29,8.85,8.36,10.19,12.1-0.92,1.49-.43,4.83-1.91,5.74-1.83-2.83-4.7-5-6.68-7.65-5.05-6.71-11.25-12.48-16.23-19.12-3.87-5.14-8.6-9.58-12.41-14.65-2.43-3.23-4.73-6.81-7.64-9.56a12.168,12.168,0,0,1,.32-2.87A5.6,5.6,0,0,0,1842.93,1551.29Zm20.05,155.16c-4.54-11.89-9.91-24.02-16.23-34.41-3.48-5.71-5.47-11.85-8.91-17.52-2.79-4.59-5.08-9.62-7.96-14.34-1.61-2.64-3.89-5.31-4.45-8.92a6.734,6.734,0,0,1,1.27-1.59c1.05-.86,2.02-0.5,3.18,0,5.62,10.42,11.35,21.14,17.5,31.22,4.16,6.82,6.79,14.18,10.5,21.35,3.07,5.9,5.49,12.02,8.28,18.48,1,2.32,2.73,4.84,3.18,7.64C1866.81,1708.24,1864.98,1707.26,1862.98,1706.45Zm-280.03,187.67c4.12,5.73,8.24,11.18,12.41,16.88,2.13,2.9,6.17,5.23,6.36,9.88-1.15,1.11-1.36,1.61-3.81,1.59-1.79-2.71-4.46-5.04-6.37-7.64-4.26-5.82-8.52-11.36-12.73-17.21-2.49-3.48-7.6-6.05-3.5-10.51,0.75,0.1,1.49.21,2.23,0.31C1579.08,1889.82,1581.32,1891.84,1582.95,1894.12Zm-20.68-18.8c-6.64-7.01-12.13-15.33-17.82-23.26-2.33-3.24-6.58-5.91-6.69-11.15a7.963,7.963,0,0,0,1.6-1.28,3.3,3.3,0,0,1,1.9.32c2.85,1.05,4.68,5.62,6.37,7.97,4.3,5.99,9,11.76,13.36,17.84,1.88,2.62,4.67,4.41,4.46,8.28h-0.32v0.32A6.394,6.394,0,0,1,1562.27,1875.32Zm-50.6-76.15c4.12,6.02,8.74,11.84,13.05,17.84,1.83,2.55,5.06,4.7,5.41,8.6a1.117,1.117,0,0,0-.32.64c-1.1.71-1.28,1.19-3.18,1.28-7.18-7.69-13.87-17.52-20.05-26.13-1.04-1.45-6.43-7.7-2.86-9.24,0.24-.22.71-0.42,0.95-0.64C1508.2,1792.13,1509.94,1796.64,1511.67,1799.17Zm-35.64-48.75c4.49,6.26,9.19,12.41,13.68,18.8,1.83,2.6,4.94,4.39,5.1,8.6-1.09,1.05-1.22,1.58-3.5,1.59-6.55-7.12-11.81-15.62-17.51-23.57-2.06-2.88-6.24-6.03-6.68-10.2a6.04,6.04,0,0,0,.64-1.27,5.62,5.62,0,0,0,1.59-.96C1473.03,1743.97,1474.24,1747.93,1476.03,1750.42Zm-14-80.61c0.26-1.48.8-1.4,1.59-2.23a2.627,2.627,0,0,1,1.59.32c2.22,0.83,3.17,3.3,4.46,5.1,3.06,4.25,6.38,8.42,9.54,12.74,11.7,15.98,24.35,31.3,35.96,47.48,14.45,20.13,30.72,39.13,45.19,59.26,9.98,13.89,20.15,27.36,30.23,41.1,3.34,4.56,7.76,8.57,11.13,13.06,2.95,3.93,6.29,7.26,9.23,11.15,1.49,1.38,2.97,2.76,4.46,4.15a45.392,45.392,0,0,0,8.59,8.92q3.015,3.18,6.05,6.37a62.386,62.386,0,0,0,6.68,5.73c3.38,2.56,6.1,6.37,9.54,8.93,11.19,8.3,22.48,16.12,34.69,23.57,8.72,5.32,19.53,8.77,30.23,11.79,3.92,1.11,8.25,1.33,12.09,2.23,2.12,0.11,4.24.21,6.37,0.32,4.88,1.04,16.1,1.47,21.32.32,5.26-1.17,10.04-.07,14.95-1.28,11.16-2.73,21.99-4.23,31.82-8.28,17.37-7.15,33.84-14.51,48.69-23.9,6.43-4.06,15.96-9.78,20.36-15.61,5.05-6.69,10.44-13.51,14.01-21.66,3.63-8.31,3.23-12.69,11.45-16.89v0.64c-1.5,2.21-1.56,5.66-2.54,8.28-2.01,5.33-4.1,11.46-7.01,16.25-10.37,17.08-21.25,26.55-38.18,36.96-15.64,9.62-34.79,17.7-53.46,23.9-9.3,3.08-19.33,4-29.59,6.37q-6.045.315-12.1,0.64c-5.33,1.11-14.35.81-19.41-.32q-3.18-.165-6.36-0.32-7.8-1.44-15.59-2.87a172.184,172.184,0,0,1-21.96-7.96c-12.65-5.58-25.29-14.37-35.96-22.31-4.45-3.31-8.31-7.82-12.73-11.15-5.97-4.51-11-9.74-16.22-14.97-3.05-3.05-6.28-5.76-8.91-9.24q-2.4-2.235-4.78-4.46c-4.89-6.48-11.06-12-15.91-18.48-14.96-20.03-30.23-39.83-44.87-60.22-4.05-5.64-8.94-10.97-13.04-16.57-17.13-23.35-35.2-45.78-51.87-69.46-4.71-6.69-10.17-12.95-14.96-19.75C1465.63,1675.79,1461.12,1672.1,1462.03,1669.81Zm376.13-108.65a74.116,74.116,0,0,0,7.63,8.93c0.41,4.05-.8,6.81-5.09,7-0.85-.31-1.7-0.63-2.54-0.95-2.24-1.5-7.12-7.81-8.91-10.2-1.96-2.59-5.18-4.25-7.01-7.01,2.48-1.13,5.23-3.41,6.13-6.34q0.21-.435.39-0.87a23.084,23.084,0,0,1,4.94,5.3C1835.19,1558.4,1836.67,1559.78,1838.16,1561.16Zm-9.79-8.57a14.792,14.792,0,0,1-8.99,7.3c-8.08,2.12-16.06-7.68-13.68-15.29a14.023,14.023,0,0,1,5.73-7.33c0.98-.6,2.3-0.62,3.18-1.28,7.19-.17,10.83,1.72,13.36,6.06a10.565,10.565,0,0,1,.79,9.67,1.431,1.431,0,0,0-.15-0.11A8.238,8.238,0,0,1,1828.37,1552.59Zm85.52,169.79c-7.31-21.93-18-40.44-29.28-58.3-4.42-7.02-8.33-13.98-13.04-20.71-3.93-5.61-8.39-11.1-12.09-16.89,2.75,0.64,5.51,1.27,8.27,1.91,0.97,3.04,3.99,5.81,5.73,8.29,4.17,5.93,8.26,12.11,12.09,18.16,11.59,18.3,22.14,37.06,30.87,58.3a79.784,79.784,0,0,1,3.56,11.35v27.71C1918.23,1742,1916.97,1731.62,1913.89,1722.38Zm-14-63.72,1.59-2.55c0.65-.48,1.36-0.43,1.91-0.96a13.953,13.953,0,0,1,4.14.64c1.03,1.56,2.54,2.55,3.06,4.64-0.62.97-1.41,0.73-2.43,1.42a15.944,15.944,0,0,0-4.39,5.28c-0.13-.06-0.25-0.12-0.38-0.19C1901.94,1664.07,1899.92,1663.16,1899.89,1658.66Zm10.82,2.23c-0.03-.17-0.08-0.31-0.12-0.46,0.04-.06.08-0.11,0.12-0.18,1.64,0.45,4.61-.66,7,0a11.186,11.186,0,0,1,2.29.97v21.8a13.753,13.753,0,0,1-1.2.7,11.475,11.475,0,0,1-2.05.43c0.04,0.06.08,0.13,0.12,0.19-9.27,1.8-16.19-9.82-13.16-17.08a1.392,1.392,0,0,1,.06-0.13c0.08,0.05.17,0.09,0.25,0.13C1905.32,1664.44,1907.44,1661.7,1910.71,1660.89Zm8.09,22.83a12.377,12.377,0,0,0,1.2-.46v6.08a50.016,50.016,0,0,1-3.13-5,8.455,8.455,0,0,0,.84-0.19A7.22,7.22,0,0,0,1918.8,1683.72Zm-4.27,394.87q-0.33,3.345-.64,6.69c-1.44,5.95-1.33,12.49-2.86,18.8-4.43,18.22-4.78,38.37-9.23,56.71-1.05,4.33-.76,9.02-1.59,13.07a5.322,5.322,0,0,1-3.5.95c-1.49-1.91-3.78-3.3-5.73-4.78-4.51-3.4-8.4-7.96-13.05-11.47-2.5-1.89-4.5-4.79-7-6.69-10.06-7.61-18.57-16.92-28.64-24.53-1.72-1.3-3.04-3.47-4.77-4.78-5.34-4.03-9.94-8.72-15.28-12.74-2.98-2.25-4.85-5.43-8.59-7.01,0.25-6.41-1.84-7.94-7.63-7.33-2.28-3.49-6.25-6.74-9.55-9.24-3.61-2.73-6.19-6.75-9.86-9.56-3.55-2.7-5.99-7.18-9.55-9.88-4.99-3.77-8.98-8.67-13.37-13.06-7.37-7.38-14.89-14.62-22.27-21.98q-7.98-7.965-15.91-15.93c-2.11-2.12-5.5-3.73-5.73-7.65a11.377,11.377,0,0,1,1.59-1.59c3.34-2.42,9.41-1.46,14-2.55,7.6-1.82,16.32-2.04,23.87-3.83,3-.71,5.25-0.21,8.27-0.95,7.55-1.86,15.53-2.38,23.23-4.46,8.95-2.42,18.56-3.47,27.69-6.06,15.07-4.27,29.49-8.41,42.23-14.61a5.2,5.2,0,0,0,3.36,4.27c-0.05.03-.11,0.04-0.41,0.15-2,2.17-6.36,2.88-9.23,4.14-7.45,3.26-15.4,5.2-23.86,7.97-18.14,5.92-38.77,8.06-57.92,13.06-4.8,1.25-9.82,1.14-14.32,2.23q-4.455.48-8.91,0.95c-6.86,1.64-14.57,2.06-21.63,3.51v0.64c2.82,1.07,9.28,9.29,11.77,11.78,6.68,6.7,13.67,13.08,20.37,19.76q5.4,5.58,10.81,11.15c8.74,6.61,15.28,15.79,23.87,22.62,0.53,0.75,1.06,1.49,1.59,2.23,6.46,4.99,11.61,11.31,18.14,16.25,1.17,1.28,2.33,2.55,3.5,3.82,17.23,13.05,31.75,29.36,49,42.38,1.73,1.3,3.06,3.48,4.78,4.78,5.57,4.21,10.34,9.18,15.91,13.38,2.89,2.19,5.17,5.29,8.27,7.33a170.142,170.142,0,0,1,3.82-24.53c1.66-6.68,1.65-13.75,3.18-20.08,2.12-8.74,2.09-17.97,4.14-26.44q2.7-19.11,5.41-38.24,0.48-6.21.95-12.42c0.75-3.39.5-7.97,1.28-11.47v-5.74c0.91-4.25.93-18.38,0-22.62-0.11-3.5-.22-7.01-0.32-10.51-1.5-6.72-1.3-14.4-2.87-20.71-2.61-10.52-2.78-21.11-6.36-30.59-3.03,2.95-5.41,7.13-7.96,10.52a36.73,36.73,0,0,1-7,6.69l-2.22,2.55c-5.42,4.08-10.85,8.77-17.19,11.78v-1.59c0.95-1.36,1.23-4.31,1.59-6.05,2.67-.85,4.61-3,6.69-4.46,5.99-4.23,11.88-9.14,16.23-14.98,3.38-4.54,6.25-9.68,10.5-13.38,0.63,0.11,1.27.21,1.91,0.32,3.66,5.94,3.93,14.77,6.04,22.3,2,7.11,2.68,15.37,4.46,22.94,0.85,3.65.51,7.48,1.27,10.84q0.315,7.32.64,14.65c0.02,0.11.04,0.23,0.06,0.34v24.45q-0.99,12.135-1.97,24.28C1916.27,2061.99,1916.32,2070.99,1914.53,2078.59Zm-53.78-104.5a0.355,0.355,0,0,0-.09.04,4.523,4.523,0,0,1,.09-1.32c1.2-5.14,2.17-11.63,4.14-16.56h-0.64c-1.28,1.12-3.17,1.39-4.77,2.23-4.36,2.26-8.89,4.35-13.37,6.69-10.94,5.7-22.52,11.23-34.05,16.24-4.71,2.05-9.17,3.12-14,5.1-9.14,3.76-19.41,5.91-29.91,8.61q-8.6,1.11-17.18,2.23-7.8.465-15.6,0.95h-6.68a42.441,42.441,0,0,1-14,0c-2.78-.62-6.53.22-8.91-0.32l-12.73-.63c-8.69-1.98-18.16-2-26.09-4.15-4.29-1.16-8.01-1.2-12.09-2.54-6.84-2.26-13.66-4.51-20.05-7.33-14.93-6.58-26.61-16.58-38.82-25.81-3.68-2.78-8.12-7.49-11.46-10.83l-3.18-3.51a47.8,47.8,0,0,1-9.23-9.24q-3.345-3.18-6.68-6.37c-5.12-6.77-10.84-12.84-15.91-19.75-3.3-4.5-7.28-8.81-10.5-13.39-14.5-20.55-28.21-41.56-42.64-62.13-21.24-30.25-43.03-60.57-63.64-91.44-4.43-6.62-8.63-13.1-13.05-19.75-1.25-1.88-4.51-4.46-3.82-7.97,0.69-3.53,2.67-4.07,4.77-6.05a2.609,2.609,0,0,0,1.59-.32c6.21,0.51,7.14,4.7,9.87,8.6,5.27,7.54,10.41,15.2,15.59,22.94,21.31,31.88,43.57,63.23,65.55,94.63,13.15,18.79,26.23,37.9,39.46,56.71,3.87,5.51,8.73,10.58,12.73,15.94,6.08,8.14,12.95,15.2,20.05,22.3,3.45,3.46,6.55,7.21,10.5,10.19,3.91,2.97,6.88,7.54,10.82,10.52,8.34,6.3,16.6,12.65,25.9,18a12.508,12.508,0,0,0,2.74,1.53c2.66,1.44,5.4,2.8,8.27,4.05,24.01,10.43,54.85,12.68,89.42,12.42,9.71-.07,20.53-0.84,28.95-2.87,4.22-1.01,7.82-.71,11.78-1.91a410.42,410.42,0,0,0,47.73-17.84c12.26-5.41,23.87-12.56,36.27-17.84a1.05,1.05,0,0,0-.63-0.32c-1.57-1-3.71-.71-5.73-1.28-3.86-1.08-8.44-2.23-12.41-3.18a23.494,23.494,0,0,0-2.23-2.87,13.636,13.636,0,0,1,.64-4.14,16.38,16.38,0,0,0,2.54-1.91c6.92-.15,16.29,3.09,22.28,4.78,6.76,1.9,10.8.9,15.27,5.41,0.13,5.89-1.84,10.82-3.18,15.62-1.91,6.81-3.01,13.96-4.77,20.39a11.312,11.312,0,0,1-3.18,1.91,4.2,4.2,0,0,1-2.46-.15,1.13,1.13,0,0,0,.23-0.17A4.451,4.451,0,0,1,1860.75,1974.09Zm-235.48-16.57c-3.11-4.26-7.09-8.15-10.18-12.43-0.95-1.31-5.8-6.9-5.41-8.6,0.24-1.05,1.28-1.55,1.91-2.23a2.627,2.627,0,0,1,1.59.32c3.06,1.11,5.16,5.79,7,8.28,4.06,5.5,8.61,10.68,12.73,16.25,1.9,2.57,5.48,4.52,5.73,8.61-0.69.67-.69,1.31-1.59,0.95a13.461,13.461,0,0,1-1.59-.54c-0.93-.5-1.84-1.01-2.74-1.53C1629.55,1964.27,1627.63,1960.74,1625.27,1957.52Z" transform="translate(0 -1536)"/>
</svg>
