<svg version="1.2" xmlns="http://www.w3.org/2000/svg" viewBox="0 0 389 389" width="389" height="389">
	<title>hp-svg</title>
	<style>
		.s0 { fill: #ffffff } 
		.s1 { fill: #0096d6 } 
	</style>
	<path id="Layer" class="s0" d="m0 0h389v389h-389z"/>
	<path id="Layer" fill-rule="evenodd" class="s1" d="m194.7 389.1c-2 0-3.8 0-5.8 0l39.8-109.3h54.8c9.6 0 20-7.3 23.4-16.5l43.1-118.4c7.2-19.4-4-35.2-24.7-35.2h-76.1l-63.7 175-36 99.3c-85.7-20.3-149.4-97.3-149.4-189.2 0-89.3 60.1-164.5 142-187.5l-37.2 102.4-61.8 170.1h41.1l52.8-144.5h30.9l-52.7 144.5h41.2l48.9-134.9c7.2-19.4-4-35.2-24.7-35.2h-34.7l39.9-109.3c2.9-0.2 5.7-0.2 8.6-0.2 107.6 0 194.6 87 194.6 194.6 0.2 107.3-86.8 194.3-194.3 194.3zm74.3-135.1h-30.9l43.4-118.9h30.9z"/>
</svg>