<?xml version="1.0" encoding="UTF-8" standalone="no"?>
<!-- Created with Inkscape (http://www.inkscape.org/) -->

<svg
   width="179.162mm"
   height="63.598999mm"
   viewBox="0 0 179.162 63.598999"
   version="1.1"
   id="svg1563"
   inkscape:version="1.2.2 (b0a84865, 2022-12-01)"
   sodipodi:docname="cvpr-navbar-logo.svg"
   xmlns:inkscape="http://www.inkscape.org/namespaces/inkscape"
   xmlns:sodipodi="http://sodipodi.sourceforge.net/DTD/sodipodi-0.dtd"
   xmlns="http://www.w3.org/2000/svg"
   xmlns:svg="http://www.w3.org/2000/svg">
  <sodipodi:namedview
     id="namedview1565"
     pagecolor="#202f5c"
     bordercolor="#000000"
     borderopacity="0.25"
     inkscape:showpageshadow="2"
     inkscape:pageopacity="1"
     inkscape:pagecheckerboard="0"
     inkscape:deskcolor="#d1d1d1"
     inkscape:document-units="mm"
     showgrid="false"
     inkscape:zoom="1.7839534"
     inkscape:cx="338.57386"
     inkscape:cy="120.23857"
     inkscape:window-width="1653"
     inkscape:window-height="1265"
     inkscape:window-x="490"
     inkscape:window-y="172"
     inkscape:window-maximized="0"
     inkscape:current-layer="g1059" />
  <defs
     id="defs1560" />
  <g
     inkscape:label="Layer 1"
     inkscape:groupmode="layer"
     id="layer1"
     transform="translate(-7.5216026,-107.239)">
    <g
       id="g1059"
       transform="matrix(0.03527778,0,0,-0.03527778,13.72673,166.35041)">
      <path
         d="M 341.113,690.43 V 661.203 C 341.113,575.449 326.84,455.289 168.289,455.289 29.4141,455.289 0,542.082 0,656.48 v 378.08 c 0,115.69 52.4844,192.43 170.266,192.43 140.632,0 167.484,-93.2 167.484,-197.1 V 996.301 H 221.84 v 47.149 c 0,49.83 -11.676,78.19 -51.844,78.19 -39.5,0 -52.246,-27.28 -52.246,-78.59 V 646.598 c 0,-48.922 9.738,-86.938 53.637,-86.938 41.742,0 52.832,33.035 52.832,88.828 v 41.942 h 116.894"
         style="fill:#ffffff;fill-opacity:1;fill-rule:nonzero;stroke:none"
         id="path1061" />
      <path
         d="m 508.293,466.25 -131.191,749.79 h 124.933 l 39.863,-305.06 c 13.02,-100.968 29.219,-207.042 35.957,-293.292 h 2.11 c 6.601,81.308 23.926,188.375 35.957,290.917 l 37.433,307.435 H 777.168 L 649.391,466.25 H 508.293"
         style="fill:#ffffff;fill-opacity:1;fill-rule:nonzero;stroke:none"
         id="path1063" />
      <path
         d="m 945.332,868.984 h 31.691 c 72.097,0 84.437,42.106 84.437,115.286 v 36.86 c 0,54.5 -9.92,99.44 -74.155,99.44 H 945.332 Z M 829.695,1216.04 h 166.77 c 119.075,0 179.785,-58.82 179.785,-191.41 V 980.449 C 1176.25,856.703 1132.06,774.5 990,774.5 H 945.332 V 466.25 H 829.695 v 749.79"
         style="fill:#ffffff;fill-opacity:1;fill-rule:nonzero;stroke:none"
         id="path1065" />
      <path
         d="M 1359.48,897.008 H 1386 c 61.19,0 83.69,23.062 83.69,104.602 v 25.71 c 0,57.96 -11.98,93.25 -77.53,93.25 h -32.68 z m 0,-95.473 V 466.25 h -115.63 v 749.79 h 160.17 c 114.08,0 181.44,-45.71 181.44,-180.67 v -28.56 c 0,-115.212 -47.29,-144.517 -76.33,-156.419 43.73,-20.516 68.74,-52.032 68.74,-153.774 0,-63.121 -1.12,-184.926 6.87,-230.367 h -111.69 c -9.96,45.301 -7.85,168.449 -7.85,222.918 0,91.402 -11.77,112.367 -78.88,112.367 h -26.84"
         style="fill:#ffffff;fill-opacity:1;fill-rule:nonzero;stroke:none"
         id="path1067" />
      <path
         d="m 4459.68,796.301 c -8.46,0.25 -12.7,-5.449 -13.06,-17.832 l -2.35,-80.813 c -0.34,-11.883 3.03,-18.429 12.03,-18.695 8.94,-0.258 12.47,6.328 12.84,18.684 l 2.34,80.718 c 0.32,11.004 -2.95,17.684 -11.8,17.938"
         style="fill:#ffffff;fill-opacity:1;fill-rule:nonzero;stroke:none"
         id="path1069" />
      <path
         d="m 3347.51,878.711 c 65.19,53.348 81.49,149.659 1.48,31.113 -1.48,-2.957 -23.71,-37.039 -22.23,-38.523 5.93,-4.446 14.82,2.965 20.75,7.41"
         style="fill:#ffffff;fill-opacity:1;fill-rule:nonzero;stroke:none"
         id="path1071" />
      <path
         d="m 2277.63,666.816 c 47.41,-1.484 84.46,23.707 77.05,65.196 -26.67,-20.742 -56.31,-35.563 -77.05,-65.196"
         style="fill:#ffffff;fill-opacity:1;fill-rule:nonzero;stroke:none"
         id="path1073" />
      <path
         d="m 1700.95,444.68 c 28.31,-88.86 71.41,-176.758 134.4,-250.758 -31.66,269.019 376.71,1089.478 384.48,1224.158 -211.96,-251.45 -353.75,-632.705 -518.88,-973.4"
         style="fill:#ffffff;fill-opacity:1;fill-rule:nonzero;stroke:none"
         id="path1075" />
      <path
         d="m 4667.97,698.824 c -0.82,-28.265 -9.92,-48.586 -40.37,-47.699 -27.8,0.805 -36.83,18.68 -36.19,40.945 l 0.11,3.66 25.04,-0.73 -0.17,-5.711 c -0.23,-8.203 1.96,-17.242 11.81,-17.523 10.55,-0.309 13.06,7.16 13.56,24.695 l 0.55,18.676 c 0.44,15.301 -1.87,22.215 -11.96,22.511 -8.72,0.247 -11.73,-4.769 -13.73,-14.703 l -22.29,2.946 c 2.91,22.558 7.3,65.019 9.3,87.14 l 63.88,-1.851 -3.18,-22.078 -39.44,1.148 c -1.15,-13.277 -2.9,-29.488 -4.03,-38.418 3.51,4.297 10.74,6.895 19.29,6.645 21.27,-0.622 29.07,-16.372 28.3,-43.153 z m -90.15,-44.297 -70.96,2.063 0.09,3.008 c 1.09,30.164 13.53,49.347 30.38,71.797 13.7,18.093 18.48,23.789 18.99,41.437 0.47,16.031 -1.14,22.512 -10.32,22.777 -8.11,0.239 -11.45,-5.726 -11.83,-18.316 l -0.23,-8.309 -23.25,0.676 0.25,9.012 c 0.54,18.336 7.07,38.808 36.8,37.945 27.29,-0.793 34.63,-17.961 33.9,-42.976 -0.74,-25.344 -9.23,-35.828 -23.04,-53.34 -11.69,-14.836 -21.38,-30.129 -22.97,-42.844 l 46.24,-1.344 z m -83.58,44.887 c -0.69,-24.105 -8.52,-44.168 -39.52,-43.269 -28.66,0.828 -35.89,21.058 -35.18,45.164 l 2.16,74.863 c 0.81,27.609 13.17,43.723 39.14,42.969 25.46,-0.743 36.39,-17.106 35.62,-43.383 z m -90.23,-39.84 -70.97,2.063 0.09,3.008 c 1.09,30.16 13.54,49.351 30.39,71.793 13.69,18.093 18.47,23.792 18.99,41.445 0.46,16.027 -1.15,22.508 -10.32,22.773 -8.11,0.235 -11.46,-5.726 -11.83,-18.32 l -0.24,-8.309 -23.25,0.676 0.25,9.016 c 0.54,18.332 7.08,38.804 36.8,37.941 27.3,-0.789 34.64,-17.957 33.91,-42.976 -0.74,-25.344 -9.24,-35.829 -23.04,-53.34 -11.7,-14.836 -21.38,-30.129 -22.97,-42.844 l 46.24,-1.344 z m -131.19,-19.269 -18.59,0.535 c 9.29,21.523 13.66,44.754 14.15,58.965 l 23.01,-0.664 c -1.13,-21.774 -9.58,-45.688 -18.57,-58.836 z m -19.82,70.57 c -0.82,-28.266 -9.92,-48.59 -40.37,-47.703 -27.81,0.808 -36.83,18.68 -36.19,40.945 l 0.11,3.656 25.04,-0.726 -0.17,-5.711 c -0.23,-8.203 1.96,-17.238 11.81,-17.527 10.54,-0.301 13.05,7.164 13.56,24.699 l 0.55,18.676 c 0.44,15.296 -1.87,22.214 -11.96,22.507 -8.72,0.254 -11.73,-4.761 -13.73,-14.699 l -22.29,2.949 c 2.91,22.551 7.31,65.02 9.29,87.145 l 63.89,-1.856 -3.18,-22.078 -39.44,1.145 c -1.16,-13.277 -2.9,-29.484 -4.03,-38.414 3.51,4.297 10.74,6.89 19.3,6.64 21.26,-0.617 29.06,-16.367 28.29,-43.148 z m -94.72,-44.164 -25.23,0.73 3.78,130.164 c -4.42,-0.5 -12.49,-0.421 -16.09,-0.222 l 0.55,19.066 c 10.28,0.672 18.51,5.41 23.2,10.703 l 18.43,-0.531 z m -43.3,54.637 -44.2,1.285 0.66,23.031 44.2,-1.281 z m -63.46,-51.543 -25.23,0.734 3.78,130.16 c -4.42,-0.492 -12.48,-0.414 -16.08,-0.215 l 0.56,19.067 c 10.27,0.672 18.49,5.41 23.19,10.703 l 18.43,-0.535 z m -55.08,1.601 -25.22,0.735 3.78,130.16 c -4.43,-0.496 -12.49,-0.418 -16.1,-0.219 l 0.56,19.07 c 10.27,0.668 18.5,5.411 23.19,10.703 l 18.44,-0.535 z m -79.11,100.274 -0.67,-23.192 -35.94,1.043 -1.5,-51.508 41.43,-1.203 -3.87,-23.097 -63.45,1.84 4.74,163.527 63.16,-1.836 -0.68,-23.41 -37.93,1.101 -1.23,-42.218 z m -85.84,-95.485 -28.1,0.817 c -4.6,19.687 -23.75,110.008 -25.19,116.922 l -0.25,0.004 c 0.64,-19.833 -0.1,-41.993 -0.96,-71.407 l -1.3,-44.718 -23.51,0.683 4.75,163.527 29.21,-0.843 c 5.86,-23.262 23.03,-104.551 24.51,-113.27 l 0.27,-0.004 c -0.58,20.149 0.02,43.157 0.8,70.032 l 1.23,42.457 23.29,-0.672 z m -99.41,42.555 c -0.76,-25.805 -12.88,-41.687 -40.16,-40.898 -26,0.757 -38.03,15.187 -37.22,43.058 l 3.6,123.981 25.22,-0.735 -3.6,-124.386 c -0.35,-11.942 3.36,-18.852 13.12,-19.137 10,-0.289 13.46,7.258 13.78,18.328 l 3.6,124.414 25.25,-0.73 z m -97.26,0.48 c -0.64,-21.828 -4.02,-39.167 -33.15,-38.32 -3.61,0.102 -8.81,0.711 -12.82,1.508 l 0.63,21.465 c 2.08,-0.305 4.17,-0.61 7.6,-0.707 8.8,-0.254 12.09,1.996 12.43,13.746 l 3.75,129.269 25.22,-0.73 z m -370.29,-85.011 c -1.49,0 -1.49,0 -1.49,1.476 -17.32,18.289 -22.72,44.082 -21.98,70.875 -24.59,-51.418 -62.86,-126.273 -99.53,-179.039 -7.4,-8.902 -25.19,-22.23 -35.56,-8.902 -18.01,26.121 -14.6,82.57 0.31,151.797 -23.35,-46.59 -53.08,-101.535 -81.82,-142.895 -7.41,-8.902 -25.2,-22.23 -35.57,-8.902 -59.28,85.953 112.62,499.371 167.44,620.871 5.93,16.3 14.82,31.12 23.71,45.94 5.93,11.85 29.63,22.23 31.12,5.93 8.88,-48.9 -56.31,-191.16 -69.64,-203.011 -19.27,-17.777 -23.71,-42.968 -32.61,-63.714 -51.85,-130.395 -97.79,-360.075 -94.83,-363.032 15.3,17.473 78.87,145.168 113.62,192.141 42.59,146.168 113.87,315.176 145.71,385.746 5.93,16.3 14.82,31.12 23.71,45.94 5.93,11.85 29.63,22.23 31.12,5.93 8.88,-48.9 -56.31,-191.16 -69.64,-203.011 -19.27,-17.777 -23.71,-42.968 -32.61,-63.714 -51.85,-130.395 -97.79,-360.075 -94.83,-363.032 15.92,18.188 84.16,155.832 117.74,197.489 14.61,58.636 78.68,252.808 163.8,226.293 20.74,-7.407 31.12,-26.668 17.78,-50.379 -28.15,-50.375 -81.49,-102.243 -99.27,-80.016 -2.97,2.965 -4.45,5.93 -8.9,8.895 -28.15,-63.719 -66.68,-154.11 -40,-213.379 19.26,-42.977 143.73,136.328 161.51,157.07 8.89,-62.238 -118.54,-235.602 -179.29,-173.367 z m -327.5,45.933 c -19.26,-19.261 -53.34,5.926 -40.01,74.086 14.82,82.985 81.5,238.571 82.99,240.051 10.37,23.711 47.41,14.821 37.04,-14.816 -51.87,-145.215 -78.54,-189.668 -82.98,-262.274 -1.49,-19.269 14.81,-26.676 2.96,-37.047 z m -96.33,91.871 c -2.96,-20.75 -22.23,-80.015 -37.04,-97.796 -17.79,-20.75 -50.38,-19.266 -63.72,23.703 -10.24,32.418 -15.2,65.715 -15.96,100.043 -22.78,-58.563 -67.02,-131.926 -96.65,-104.485 -66.68,65.2 31.11,268.203 32.6,315.622 -56.31,-54.829 -139.29,-291.911 -160.04,-349.704 -14.82,-8.89 -29.63,-4.445 -31.12,13.34 -2.22,23.598 9.21,80.402 26.28,148.344 -21.86,-15.742 -55.93,-37.227 -106.3,-69.817 7.42,-56.3 13.34,-66.675 -19.25,-90.382 -38.53,-28.157 -72.61,-25.196 -105.21,-13.336 -11.85,4.445 -16.3,14.812 -20.74,28.148 1.52,3.059 3.42,5.832 5.22,8.68 -40.57,-29.715 -73.22,21.285 -71.9,59.484 l -37.05,-47.418 c -14.81,-14.816 -34.07,-14.816 -44.45,-1.476 -48.9,62.23 42.97,243.007 105.21,257.828 26.67,5.926 48.9,2.961 62.23,-16.301 5.93,-7.406 4.45,-10.371 -5.93,-20.746 -5.92,5.926 -11.85,8.891 -16.29,14.816 -25.19,40.012 -145.22,-117.058 -127.44,-217.82 16.3,19.262 35.57,35.563 88.91,139.285 2.96,5.93 5.93,13.336 14.82,13.336 8.89,1.484 19.26,2.965 25.19,-4.441 1.48,-2.965 1.48,-7.41 0,-10.371 -23.71,-38.528 -45.94,-112.618 -25.19,-154.11 29.63,10.371 63.72,97.801 81.49,134.848 9.32,-19.949 4.22,-74.477 -23.68,-117.59 20.9,17.746 47.81,32.648 77.02,50.906 -10.37,45.934 -48.89,127.434 37.04,183.742 63.73,42.969 114.11,17.778 68.17,-53.343 -14.82,-20.746 -31.11,-16.301 -48.9,-5.93 11.86,17.785 23.71,34.082 31.12,53.348 -42.97,-20.75 -68.16,-53.348 -72.61,-90.395 -2.96,-22.222 5.93,-41.488 11.85,-60.75 1.49,-5.93 7.42,-5.93 17.79,0 55.33,33.199 88.97,55.731 108.45,66.891 40.48,153.094 100.48,339.644 100.48,340.594 23.7,2.97 31.12,-4.44 25.19,-23.71 -20.74,-75.57 -103.72,-352.658 -106.69,-370.439 22.23,44.453 72.61,237.089 149.66,229.679 13.34,-1.49 22.22,-11.86 20.75,-28.16 -1.49,-51.859 -72.61,-220.785 -50.38,-288.941 31.51,39.399 57.21,78.809 81.21,119.239 2.75,43.425 11.33,88.511 23.98,135.625 4.46,17.781 8.9,22.226 25.2,23.71 13.34,0 25.18,-10.371 20.74,-23.71 -14.81,-65.196 -38.52,-108.168 -19.26,-257.829 h 4.45 c 1.48,1.481 10.37,31.114 11.85,34.079 4.45,10.375 7.4,22.226 11.86,34.082 8.88,23.71 16.3,47.418 26.67,71.125 19.26,47.418 45.93,94.835 81.49,137.804 68.17,82.986 32.6,5.93 22.23,-10.371 -48.9,-78.535 -90.39,-191.148 -93.35,-208.93 z m 171.9,311.177 c 1.48,13.34 4.45,25.19 7.41,38.53 0,4.44 1.48,8.88 2.96,13.33 1.49,4.44 4.45,10.37 11.86,13.33 11.85,5.93 16.3,-1.48 25.18,-5.92 10.38,-8.9 5.93,-19.27 -1.47,-31.12 -7.41,-11.86 -13.34,-22.23 -20.75,-32.6 -10.37,-19.26 -29.63,-13.33 -25.19,4.45 z m 1714.89,-224.22 -61.1,1.821 -0.7,24.328 c 17.27,6.062 29.42,22.742 28.87,42.016 -0.7,23.859 -20.6,42.636 -44.45,41.945 -23.86,-0.692 -42.64,-20.59 -41.95,-44.445 0.51,-17.618 11.51,-32.438 26.83,-38.723 l 0.7,-24.203 -95.85,2.855 -0.74,25.59 c 17.27,6.066 29.43,22.746 28.87,42.02 -0.69,23.855 -20.59,42.636 -44.45,41.945 -23.86,-0.691 -42.64,-20.594 -41.95,-44.449 0.52,-17.617 11.51,-32.434 26.83,-38.719 l 0.74,-25.473 -86.31,2.571 -0.8,27.836 c 17.27,6.062 29.42,22.742 28.87,42.015 -0.7,23.86 -20.6,42.637 -44.45,41.945 -23.86,-0.691 -42.64,-20.589 -41.95,-44.449 0.51,-17.613 11.51,-32.433 26.83,-38.718 l 0.8,-27.715 -348.84,10.394 -0.16,0.004 -397.3,11.836 -58.31,1.738 c 0,0 -35.87,388.755 -339.14,444.605 -246.01,45.3 -357.2,-138.53 -447.43,-141.14 -90.23,-2.62 -121.23,363.52 -554.9,350.95 -433.68,-12.56 -587.64,-529.72 -591.95,-783.27 -0.87,-51.625 2.73,-111.817 12.86,-175.344 17.79,51.836 38.5,112.813 62.41,184.758 75.57,234.126 105.2,288.946 118.54,358.596 4.44,28.15 50.38,28.15 44.45,1.47 -13.26,-61.87 -144.31,-435.097 -210.13,-621.609 2.05,-8.563 4.22,-17.141 6.52,-25.731 7.46,15.75 16.42,34.711 27.28,57.598 l 2.96,5.93 c 0,0 300.81,669.762 401.57,786.822 5.92,7.41 8.88,16.3 14.81,23.71 60.75,84.46 87.43,121.5 130.4,115.58 86.76,-11.76 -513.72,-1177.741 -377.99,-1335.901 2.65,-2.379 5.36,-4.731 8.07,-7.071 43.68,-21.718 181.42,118.59 209.89,144.211 -13.34,-32.597 -37.05,-50.379 -35.56,-59.277 0,-2.422 -80.24,-91.973 -148.38,-105.934 75.04,-56.9683 169.41,-97.0777 287.46,-109.49956 210.3,-22.12894 387.06,113.17956 442.66,205.08956 55.59,91.91 105.28,186.571 196.94,139.711 91.67,-46.867 314.85,-209.347 536.77,-127.187 0,0 -118.78,78.129 -102.04,203.867 16.75,125.746 26.79,181.387 315.11,183.914 l 655.38,1.516 c 46.65,-1.559 166.41,-12.657 190.58,-143.039 l 293.79,14.339 -10.96,378.371"
         style="fill:#ffffff;fill-opacity:1;fill-rule:nonzero;stroke:none"
         id="path1077" />
    </g>
  </g>
</svg>
