<svg xmlns="http://www.w3.org/2000/svg" width="20" height="20" viewBox="0 0 20 20">
  <defs>
    <style>
      .cls-1 {
        fill-rule: evenodd;
        fill:#fff;
      }
    </style>
  </defs>
  <path id="v5" class="cls-1" d="M1230,405l-0.44.857h2.13V408h-6.38v-2.143h2.13L1227,405h-4c-2.47,0-3,.041-3-2.925V395.03c0-1.536.79-2.03,2.22-2.03h12.67c1.77,0,2.11.208,2.11,1.759v7.672c0,2.283-.64,2.569-2,2.569h-5Zm3.51-10.014h-10.39c-1.14,0-1.12.187-1.12,1.382V401.7a1.105,1.105,0,0,0,1.33,1.287h10.38c1.07,0,1.29-.247,1.29-1.2v-5.436C1235,395.117,1235.06,394.986,1233.51,394.986ZM1228.5,396a3.82,3.82,0,0,1,3.45,2.687,1.321,1.321,0,0,1,.01.658h0A3.867,3.867,0,0,1,1228.5,402a3.821,3.821,0,0,1-3.45-2.688,1.074,1.074,0,0,1-.01-0.615A3.849,3.849,0,0,1,1228.5,396Zm1.5,5a1,1,0,1,0-.99-1A0.981,0.981,0,0,0,1230,401Z" transform="translate(-1218.5 -390.5)"/>
</svg>
