<svg xmlns="http://www.w3.org/2000/svg" width="360.937" height="74" viewBox="0 0 360.937 74">
  <defs>
    <style>
      .cls-1 {
        fill: #ffdf90;
        fill-rule: evenodd;
      }
    </style>
  </defs>
  <path id="challeng" class="cls-1" d="M538.086,311.132l-1.8,11.811h11.67S561.711,323.718,560.36,340h0.07l-2.81,19h-14l0.136-.924c-0.376.131-.73,0.247-1.051,0.348L545.578,339h-0.112c0.167-5.484-3-6-3-6h-7.717l-3.968,26h-16l9.258-56.937,16.012-.057Zm-45.049-9.022h25L515.013,314h-14s-16.208-3.113-21.07,16c-5.244,20.617,11.421,18,11.421,18l18.255-1-2.925,11.5h-33s-19.881-.465-13.513-25.5S484.48,302.11,493.037,302.11Zm85.917,20.833h22l-0.006.108,2.988,0.01L598.62,359h-16l0.2-1.331c-0.348.115-.7,0.228-1.049,0.331a27.417,27.417,0,0,1-6.147,1s-16.656-2.33-14.486-17C563.831,323.772,578.954,322.943,578.954,322.943ZM581.247,348l3.2-1.334L586.466,333h-5s-4.093.631-5.184,8C575.242,348.032,581.247,348,581.247,348Zm46.8-45.994-1.35,9.127L619.619,359h-16l8.423-56.937Zm23,0-1.35,9.127L642.62,359h-16l8.423-56.937Zm17.9,20.938h10s12,0.688,12.475,14.056h0.445l-0.887,6H666.181a4.872,4.872,0,0,0,4.083,4.882,7.528,7.528,0,0,0,2.348-.882h16.869c-4.879,9.189-17.862,12-17.862,12h-6s-16.9-.667-14.485-17C653.831,323.772,668.954,322.943,668.954,322.943Zm7.4,14.056c-0.545-3.611-2.891-4-2.891-4h-2s-2.466.382-4.08,4h8.971Zm17.221,2h0l0.147-1h0.036c2.563-12.348,17.183-15,17.183-15h8s14.784,2.652,13.743,15h0.038l-3.106,21h-15l2.9-19.607h-0.014c0.527-5.083-2.456-5.488-3.681-5.445-1.228-.044-4.4.374-5.33,5.659h-0.007L705.619,359h-15l2.958-20v0Zm19.74-5a3.623,3.623,0,0,1,.507-0.051,3.3,3.3,0,0,1,.493.051h-1Zm39.3,25h-4s-16.928-.483-14.484-17c2.7-18.227,17.819-19.056,17.819-19.056h6v0.01L775.945,323s0.886,0.773-1.811,19c-0.051.346-.119,0.681-0.191,1.013l0.044-.013-0.357,2.409L771.62,359c-2.068,13.974-16.116,17-16.116,17H733.9l1.176-7.947h17.4a3.508,3.508,0,0,0,2.69-1.394l-0.734.342,1.223-8.266c-0.652.181-1.039,0.266-1.039,0.266h-2Zm4.628-11,1.046-.313L759.282,341v0a0.013,0.013,0,0,0,0-.006L760.466,333h-6s-4.093.631-5.183,8c-0.772,5.213,2.325,6.543,3.981,6.882l-0.017.118h4Zm39.707-25.056h10s12,0.688,12.475,14.056h0.445l-0.887,6H794.181a4.872,4.872,0,0,0,4.083,4.882,7.528,7.528,0,0,0,2.348-.882h16.869c-4.879,9.189-17.862,12-17.862,12h-6s-16.9-.667-14.484-17C781.831,323.772,796.954,322.943,796.954,322.943Zm7.4,14.056c-0.545-3.611-2.891-4-2.891-4h-2s-2.466.382-4.08,4h8.971Z" transform="translate(-458.938 -302)"/>
</svg>
