<svg id="logo" xmlns="http://www.w3.org/2000/svg" xmlns:xlink="http://www.w3.org/1999/xlink" width="177.844" height="50.063" viewBox="0 0 177.844 50.063">
  <defs>
    <style>
      .cls-1, .cls-2, .cls-3, .cls-4, .cls-5 {
        fill-rule: evenodd;
      }

      .cls-1 {
        fill: url(#linear-gradient);
      }

      .cls-2 {
        fill: url(#linear-gradient-2);
      }

      .cls-3, .cls-5 {
        fill: #fff;
      }

      .cls-4 {
        fill: url(#linear-gradient-3);
      }

      .cls-5 {
        opacity: 0.8;
      }
    </style>
    <linearGradient id="linear-gradient" x1="35.938" y1="78.031" x2="35.938" y2="38.031" gradientUnits="userSpaceOnUse">
      <stop offset="0" stop-color="#e16575"/>
      <stop offset="1" stop-color="#c93349"/>
    </linearGradient>
    <linearGradient id="linear-gradient-2" x1="38.188" y1="73.641" x2="67.719" y2="44.109" gradientUnits="userSpaceOnUse">
      <stop offset="0" stop-color="#e16575"/>
      <stop offset="0.037" stop-color="#e16575"/>
      <stop offset="0.313" stop-color="#dd3572"/>
      <stop offset="0.935" stop-color="#f2b72b"/>
      <stop offset="1" stop-color="#f2b72b"/>
    </linearGradient>
    <linearGradient id="linear-gradient-3" x1="53.141" y1="59.719" x2="53.141" y2="46.719" gradientUnits="userSpaceOnUse">
      <stop offset="0" stop-color="#1fede1"/>
      <stop offset="1" stop-color="#92ffa9"/>
    </linearGradient>
  </defs>
  <path id="_1" data-name="1" class="cls-1" d="M32.768,38.017l3.1,4.124A20.668,20.668,0,0,0,40.93,70.825a21.317,21.317,0,0,0,3.931,2.212l-2.2,5a26.582,26.582,0,0,1-4.735-2.688A25.78,25.78,0,0,1,31.992,39.02Q32.369,38.507,32.768,38.017Z" transform="translate(-27 -28)"/>
  <path id="_1-2" data-name="1" class="cls-2" d="M64.939,61.618a15.31,15.31,0,0,1-17.207,4.741l-4.787,11.5-4.758-2.743,5.122-11.3c-0.114-.1-0.242-0.18-0.353-0.276l1.982-4.159a9.933,9.933,0,0,0,2.116,1.922,10.686,10.686,0,0,0,14.252-2.142,9.123,9.123,0,0,0-2.294-13.3,10.737,10.737,0,0,0-13.455,1.244l2.487,3.115L45.88,53.917,43.3,50.764c-0.01.03-.024,0.06-0.034,0.09l-3.113-3.828a13.646,13.646,0,0,1,.978-1.469,15.379,15.379,0,0,1,20.509-3.08A13.129,13.129,0,0,1,64.939,61.618Z" transform="translate(-27 -28)"/>
  <path id="_1-3" data-name="1" class="cls-3" d="M74.771,70.261a26.373,26.373,0,0,1-8.766,7.8L65.2,76.972l-5.558-6.418A15.117,15.117,0,0,0,63.8,68.267l2.457,2.907a21.138,21.138,0,0,0,4.216-4.357,21.5,21.5,0,0,0-4.756-29.835,21.031,21.031,0,0,0-29.547,4.8c-0.093.13-.177,0.262-0.266,0.392l-3.293-3.958A26.216,26.216,0,0,1,68.84,33.056,26.814,26.814,0,0,1,74.771,70.261Z" transform="translate(-27 -28)"/>
  <path id="_1-4" data-name="1" class="cls-4" d="M53.314,46.721l-5.16,12.941,4.972-2.437,4.986,2.506Z" transform="translate(-27 -28)"/>
  <path id="_1-5" data-name="1" class="cls-5" d="M201.4,68.94c0,0.791.506,0.5,0.506,0.5h0.071v0h0.687s2.167-.262,2.167,2.32c0,1.714-2.457,1.8-2.457,1.8h-3.54V72.139h2.782a0.493,0.493,0,0,0,.506-0.5,0.658,0.658,0,0,0-.217-0.61H201.29l0.009-.022-0.154.022s-2.457.014-2.457-1.978a1.95,1.95,0,0,1,2.168-1.918h3.83l0.144,1.2h-2.854S201.4,68.111,201.4,68.94Zm-7.407,4.617V77.3H191.1V67.144l0.54,0,0-.019h3.974s2.71,0.148,2.71,3.4c0,2.357-3.071,3.034-3.071,3.034h-1.265Zm0.9-4.64h-0.9v2.676h0.542a1.116,1.116,0,0,0,1.084-1.249C195.617,69.03,194.9,68.917,194.9,68.917Zm-7.768,4.64H186.4s-3.071-.676-3.071-3.034c0-3.252,2.71-3.4,2.71-3.4h1.806s2.71,0.148,2.71,3.4c0,2.357-3.071,3.034-3.071,3.034h-0.361Zm0-4.64h-0.362s-0.722.112-.722,1.428a0.946,0.946,0,1,0,1.806,0C187.849,69.03,187.127,68.917,187.127,68.917Zm-6.868,4.476c-0.064.023-.125,0.044-0.181,0.062V70.46c0-.037,0-0.076,0-0.115s0-.1,0-0.141V69.99h-0.017a1.048,1.048,0,0,0-.7-1.072h-0.723v4.64h-2.89V63.4l2.89-.011v3.736h1.445a3,3,0,0,1,2.7,3.047H182.8v3.392h-2.538v-0.17Zm-8.343-3.957h0.072v0h0.687s2.168-.262,2.168,2.32c0,1.714-2.457,1.8-2.457,1.8h-3.541V72.139h2.782a0.493,0.493,0,0,0,.506-0.5,0.658,0.658,0,0,0-.217-0.61H171.3l0.009-.022-0.154.022s-2.456.014-2.456-1.978a1.949,1.949,0,0,1,2.167-1.918h3.83l0.145,1.2h-2.855s-0.578-.22-0.578.609C171.41,69.731,171.916,69.437,171.916,69.437Zm-5.925,4.13-1.265-1.187v1.177h-2.89V67.449l-0.131.1,0.131-.06-0.542,1.249h-1.035c-0.264.231-.528,0.473-0.772,0.713a8.227,8.227,0,0,0-1.264,1.793v2.312h-2.89V67.133h2.89V68.24a3.1,3.1,0,0,1,.361-0.393,2.506,2.506,0,0,1,1.084-.535h2.168V63.4l2.89-.011V67.8l0.723-.678,2.529,0.01-2.826,2.931,3.368,3.493Zm-14.452-.01h-0.723s-3.071-.676-3.071-3.034c0-3.252,2.71-3.4,2.71-3.4h1.807s2.709,0.148,2.709,3.4c0,2.357-3.071,3.034-3.071,3.034h-0.361Zm0-4.64h-0.361s-0.723.112-.723,1.428a0.946,0.946,0,1,0,1.807,0C152.262,69.03,151.539,68.917,151.539,68.917Zm-10.116,4.55-0.669-2.617-1.5,2.617h-3.071l-2.529-9.9,2.89-.178,1.626,6.6,3.252-6.612h3.613l-2.276,3.973,0.65,2.639,3.252-6.612h3.613l-5.781,10.092h-3.071Zm-15.355.09H121.19V71.594h4.155a0.931,0.931,0,0,0,1.084-1.07c0-1.14-.543-1.242-0.687-1.249h-4.733l0.181-1.615V67.311h4.155a0.931,0.931,0,0,0,1.084-1.07c0-1.315-.723-1.249-0.723-1.249h-4.7l0.181-1.616h5.239s2.71-.209,2.71,3.044a2.386,2.386,0,0,1-.886,1.866,3.053,3.053,0,0,1,.886,2.416C129.139,73.059,126.068,73.557,126.068,73.557Zm-14.99-.888V70.525h0l5.194-3.892a1.592,1.592,0,0,0,.045-0.39c0-1.315-.723-1.249-0.723-1.249h-4.516V63.376h5.239s2.709-.209,2.709,3.044a2.538,2.538,0,0,1-.026.355h0.026a3.9,3.9,0,0,1-.9,1.071c-0.491.4-1.22,0.678-1.834,1.182l-2.5,2.059V71.6h5.243v1.968h-7.948V72.67Zm-5.243.888h-2.71s-2.913-.474-3.063-2.677h-0.008V66.417c0-3.249,2.71-3.041,2.71-3.041H106.2s2.709-.209,2.71,3.041V70.88H108.9C108.748,73.083,105.835,73.557,105.835,73.557Zm0.361-7.316c0-1.315-.722-1.249-0.722-1.249h-1.987s-0.723-.066-0.723,1.249V70.7h0.009a0.91,0.91,0,0,0,1.075.892h1.264a0.911,0.911,0,0,0,1.076-.892H106.2V66.241ZM90.844,72.67V70.524h0l0,0h0l5.191-3.89a1.614,1.614,0,0,0,.044-0.39c0-1.315-.723-1.249-0.723-1.249H90.841V63.376H96.08s2.71-.209,2.71,3.044a2.537,2.537,0,0,1-.026.355H98.79a3.911,3.911,0,0,1-.9,1.071c-0.491.4-1.221,0.678-1.834,1.182l-2.5,2.061V71.6h5.243v1.968H90.844V72.67Z" transform="translate(-27 -28)"/>
  <path id="_1-6" data-name="1" class="cls-3" d="M160.673,50.9l2.853,2.892v2.694h-3.44l-4.742-5.229H152.58v5.388l-6.255-.159V38.584l4.378-.016v0h9.07s4.691-.371,4.691,5.405C164.464,48.6,162.244,50.286,160.673,50.9Zm-2.151-9.468H152.58v6.338H157.9s1.876-.3,1.876-3.168S158.522,41.436,158.522,41.436Zm-19.39,9.825h-6.881v5.388l-5.942-.159V41.119l1.564-2.553h11.884s4.691-.371,4.691,5.405C144.448,51.126,139.132,51.26,139.132,51.26Zm-0.626-9.825h-6.255v6.338h5.63s1.876-.3,1.876-3.168S138.506,41.436,138.506,41.436ZM111.3,56.489L106.919,38.9l6.255-.317,2.189,10.458,5-10.476h6.255L116.614,56.489H111.3ZM96.911,47.457c0,6.534,5,5.706,5,5.706l5.629-.318,0.939,3.645H97.224s-6.255-.147-6.255-8.081,5.142-9.79,7.819-9.79h5.63l0.938,3.767h-2.189S96.911,41.4,96.911,47.457Z" transform="translate(-27 -28)"/>
</svg>
