<svg xmlns="http://www.w3.org/2000/svg" width="327" height="37" viewBox="0 0 327 37">
  <defs>
    <style>
      .cls-1 {
        fill: #fff;
        fill-rule: evenodd;
      }
    </style>
  </defs>
  <path id="shrg_logo" class="cls-1" d="M638.468,662.017a5.105,5.105,0,0,1,2.152,1.024c-0.182.1-.36,0.08-0.605,0.2l-0.605.683a10.06,10.06,0,0,1-2.69,2.252v0.068h1.345a2.739,2.739,0,0,1,1.076-.068l2.354-.069v-0.068a17.344,17.344,0,0,1-1.211-1.842,0.707,0.707,0,0,1,.336-0.137,3.893,3.893,0,0,0,.807.341,4.019,4.019,0,0,1,1.816,1.706c0.241,0.584.2,1.507-.336,1.706a0.659,0.659,0,0,1-.538.137,1.186,1.186,0,0,1-.4-0.342c-0.207-.36-0.017-0.9-0.47-1.023a3.777,3.777,0,0,1-1.009.273c-1.017.313-2.191,0.5-3.228,0.819l-0.874.136a2.462,2.462,0,0,1-.337.341c-0.066.069-.067-0.068-0.067-0.068a6.584,6.584,0,0,1-.74-1.91,2.2,2.2,0,0,0,1.413-1.16A9.545,9.545,0,0,0,638.468,662.017Zm23.537,3.617a2.952,2.952,0,0,1-1.21,2.661,1.779,1.779,0,0,1-.807-0.069,0.668,0.668,0,0,1-.538-0.682,1,1,0,0,1,.4-1.091c0.776-.693,1.45-0.9,1.48-2.389h0.336V664.2c0.15,0.2.122,0.6,0.269,0.819a4.38,4.38,0,0,0,1.614.068h4.035V665.02a0.724,0.724,0,0,1-.672-0.273,7.85,7.85,0,0,1-.269-1.092c-0.224-.539-0.752-0.91-0.942-1.433a0.418,0.418,0,0,0,.135-0.136c1.4,0.431,2.8.359,2.757,2.251a3.657,3.657,0,0,1-.471.614c-0.116.076-.3,0.062-0.4,0.137h4.708a2.789,2.789,0,0,1,.941-1.024,10.62,10.62,0,0,0,1.614,1.706v0.068c-1.353.331-1.691,1.751-2.891,2.184a0.724,0.724,0,0,1-.135-0.341,10.064,10.064,0,0,0,.538-2.047H662.005ZM685.139,677.1a10.144,10.144,0,0,0,2.017,0c0.77-1.381.842-3.967,0.875-6h-2.354c-0.136.273-.331,0.412-0.471,0.683a0.222,0.222,0,0,1-.134-0.069,2.622,2.622,0,0,1-1.278-1.023,0.763,0.763,0,0,0,.605-0.887,4.872,4.872,0,0,0,.135-1.3,18.189,18.189,0,0,0,.269-3.07h0.067a8.813,8.813,0,0,0,1.816.478c-0.355.652-.69,0.2-0.673,1.364l-0.336,3.207h1.479c0-2.1.45-4.137,0.471-6.346H684v-0.068h-0.068c-0.022-.159-0.044-0.318-0.067-0.477h3.632a1.816,1.816,0,0,1,.739-0.819c0.364,0.509,1.255.756,1.48,1.364h-0.067a1.11,1.11,0,0,1-.673.273q-0.135,2.388-.269,4.777h0.067c0.252-.407.667-0.713,0.942-1.092a18.191,18.191,0,0,0,1.95-3.275c0.268-.619.514-1.226,0.74-1.842a1.635,1.635,0,0,1,.336-0.887c0.446,0.295,1.921.344,2.152,0.75h-0.067c-0.194.35-.594,0.127-0.673,0.614a10.436,10.436,0,0,1,.74,1.3,10.284,10.284,0,0,0,2.555,2.456c0.421,0.284,1.45.516,1.547,1.092-0.9.42-.69,0.623-1.21,1.3a6.384,6.384,0,0,0-.875-0.682,8.943,8.943,0,0,1-1.748-2.184,14.954,14.954,0,0,1-1.009-1.978,3.653,3.653,0,0,0-.336-0.887V664a2.332,2.332,0,0,0-.4.682c-0.4.646-.89,1.293-1.345,1.911l-1.815,1.91a10.325,10.325,0,0,0-1.211.888,1.8,1.8,0,0,1-.4-0.137v0.478c0.5,0.25.947,1.024,1.345,1.228a0.453,0.453,0,0,1,.269-0.068,7.044,7.044,0,0,1,1.815,2.8c0.354,0.994.365,2.592-.874,2.593a1.28,1.28,0,0,1-.336-1.228,6.747,6.747,0,0,1-.2-1.5l-0.672-2.457h-0.135c-0.46.395-.506,0.147-0.47,1.092-0.3.511,0,1.481-.135,2.115-0.464,2.122-.188,4.6-2.757,4.572v-0.137a3.807,3.807,0,0,1-.2-0.818c-0.013-.007-1.143-0.478-1.143-0.478V677.1Zm31.539-5.118c-0.022.114-.044,0.228-0.067,0.341a0.994,0.994,0,0,1-.269.137,0.443,0.443,0,0,1-.269.068V674.3h2.488a3.662,3.662,0,0,1,1.009-1.228l1.749,1.5c-0.023.069-.045,0.137-0.068,0.205-0.843.374-3.95,0.142-5.178,0.136v2.593h4.035a14.239,14.239,0,0,1,.942-1.3h0.134c0.369,0.535,1.608,1.083,1.749,1.706a1.185,1.185,0,0,0-.269.2h-14.93a1.92,1.92,0,0,1-.067-0.546,5.192,5.192,0,0,1,1.883-.068h4.842v-2.593h-4.909v-0.136a1.026,1.026,0,0,1-.135-0.478h5.044v-2.456l-3.631.477a1.719,1.719,0,0,1-.471.478q-0.37-1.023-.74-2.047c1.834-.215,2.947-2.227,4.17-3.07v-0.069h-3.7v-0.068h-0.067a3.758,3.758,0,0,0-.135-0.546h8.272a2.652,2.652,0,0,1,.941-1.16,5.479,5.479,0,0,0,1.412,1.16c0.039-.64.19-1.209,0.2-1.91H710.088a2.83,2.83,0,0,1-1.143,2.593,4.532,4.532,0,0,1-.807,0,1.082,1.082,0,0,1-.269-0.342,1.066,1.066,0,0,1-.135-0.75c0.793-.818,1.74-1.38,1.749-3h0.336c0.067,0.318.135,0.636,0.2,0.955h3.7a3.762,3.762,0,0,0,1.412-.068,1.2,1.2,0,0,1-.4-0.819,10.508,10.508,0,0,0-1.076-1.433,1.172,1.172,0,0,1,.673-0.136,3.056,3.056,0,0,0,.538.068,2.006,2.006,0,0,1,1.479,1.023c0.438,0.539-.141,1.1-0.4,1.365h4.573q0.437-.479.874-0.955a0.182,0.182,0,0,1,.067.068l1.547,1.5v0.068h-0.067c-0.164.2-.5,0.1-0.673,0.273-0.615.623-1.079,1.411-1.748,1.979a3.31,3.31,0,0,1-1.547.136H715v0.069h0.135l1.009,0.614v0.068h-0.068a4.624,4.624,0,0,1-1.008.409,12.177,12.177,0,0,1-3.565,1.979v0.068h2.085l5.245-.2v-0.068a3.976,3.976,0,0,1-.672-0.819c-0.236-.317-0.652-0.486-0.874-0.819a0.767,0.767,0,0,1,.471-0.137,6.541,6.541,0,0,0,1.075.342,4.72,4.72,0,0,1,2.152,1.7,1.373,1.373,0,0,1,.269,1.365c-0.13.428-.423,0.5-1.008,0.478a0.485,0.485,0,0,0-.269-0.137,1.683,1.683,0,0,0-1.144-1.433c-0.8.5-3.358,0.22-4.034,0.751ZM552.39,675.8c-0.087,1.8-.893,3.106-2.824,3.071a3.473,3.473,0,0,0-.135-0.955,6.618,6.618,0,0,0-.605-0.41l-0.807-.2V676.96a19.17,19.17,0,0,0,2.219.069,2.282,2.282,0,0,0,.538-1.229H545.6a1.853,1.853,0,0,1-.672.751c-0.352-.485-1.219-0.614-1.48-1.16a0.88,0.88,0,0,0,.605-0.478,15.583,15.583,0,0,0,.538-3.275h-1.748V671.57h-0.067c-0.023-.182-0.045-0.364-0.068-0.546h1.95v-0.068h0.068q0.2-1.876.4-3.753H545.06a19.476,19.476,0,0,1-1.748,1.842h-0.068v-0.068a0.589,0.589,0,0,1-.2-0.2c0.839-.69,1.818-3.4,2.219-4.64a8.119,8.119,0,0,1,.471-1.91,0.338,0.338,0,0,1,.2-0.068,7.818,7.818,0,0,0,2.085.682v0.137h-0.067a5.413,5.413,0,0,0-.606.341q-0.3.614-.605,1.228h5.313q0.437-.648.874-1.3h0.135c0.383,0.565,1.455.919,1.546,1.706a7.132,7.132,0,0,1-2.488.137h-5.649a5.262,5.262,0,0,0-.605,1.092c1,0.963,3.444.689,5.38,0.682l0.807-.955h0.067v0.068a5.761,5.761,0,0,1,1.48,1.433,1.777,1.777,0,0,0-.673.409,16.351,16.351,0,0,0-.134,3.207h0.067v-0.068a3.578,3.578,0,0,1,.874-1.16c0.333,0.56,1.089.915,1.211,1.637a5.159,5.159,0,0,1-2.152.205,4.829,4.829,0,0,0-.068,1.3,8.977,8.977,0,0,0-.2,2.183h0.067V675.05a3.615,3.615,0,0,1,.74-1.024q0.639,0.717,1.277,1.433c-0.022.069-.044,0.137-0.067,0.205A9.922,9.922,0,0,1,552.39,675.8Zm60.457-13.646a6.861,6.861,0,0,1,2.152.682,2.424,2.424,0,0,0-1.076,1.3h2.622a2.419,2.419,0,0,1,.875-1.159l1.546,1.432c-0.022.069-.045,0.137-0.067,0.205a9.025,9.025,0,0,1-2.892.137q-0.067.989-.134,1.978h0.941a6.118,6.118,0,0,1,.807-1.159,5.017,5.017,0,0,1,1.614,1.569c-0.692.426-2.452,0.214-3.5,0.2v0.137a1.607,1.607,0,0,0-.2.682c1.547,0.067,3.1.918,2.959,2.525a1.07,1.07,0,0,1-.337.273,0.869,0.869,0,0,1-.739.068,5.484,5.484,0,0,0-2.152-2.388c-0.406,1.55-2.724,2.934-4.3,3.343a1.211,1.211,0,0,1-.2-0.341,5.692,5.692,0,0,0,3.43-4.3h-3.3q-0.033-.306-0.067-0.614h3.43q0.067-.989.134-1.978h-0.874a6.452,6.452,0,0,1-1.345,1.5,0.739,0.739,0,0,1-.538.341,0.372,0.372,0,0,1-.2-0.273C612.069,665.782,612.756,663.282,612.847,662.154Zm-72.629.136c1.487-.022,3,0.684,2.959,2.252a0.968,0.968,0,0,1-1.412.478,9.8,9.8,0,0,0-.874-1.775A1.66,1.66,0,0,1,540.218,662.29Zm-18.829.069a7.923,7.923,0,0,1,2.42.341,2.049,2.049,0,0,1-.268.409l-0.337.068v5.868h3.161l1.009-1.433h0.134c0.441,0.642,1.645.994,1.816,1.843a5.168,5.168,0,0,1-1.883.136H523.2v7.779h4.371l1.009-1.433h0.135c0.455,0.636,1.711.986,1.883,1.842a0.7,0.7,0,0,1-.4.137,3.183,3.183,0,0,1-1.21.068H515.134q-0.066-.308-0.134-0.614h6.389V662.359Zm122.594,0,2.152,0.2V662.7a0.736,0.736,0,0,1-.337.273,0.338,0.338,0,0,1-.2.068v2.593h0.067A26.2,26.2,0,0,1,647.95,664a2.2,2.2,0,0,1,.875-0.751c0.392,0.572,1.315.795,1.614,1.433h-0.068a2.018,2.018,0,0,1-.941.069c-0.111.031-.3,0.225-0.4,0.273-0.664.291-1.358,0.5-2.017,0.75a5.726,5.726,0,0,0-1.345.41,6.105,6.105,0,0,0-.067,2.183h0.134a13.611,13.611,0,0,0,3.228.068,10.1,10.1,0,0,0,.605-1.433l0.135-.614h0.269c0,0.677.025,1.4,0.067,1.979a1.026,1.026,0,0,1,.538.409c-0.022.228-.045,0.455-0.067,0.683-1.281.827-4.488,0.791-6.187,0.341C643.665,668.646,643.978,664.244,643.983,662.359ZM569.4,662.5l2.354,0.205v0.273a1,1,0,0,0-.606.545,4.536,4.536,0,0,1,.068.956q0.2,1.569.4,3.138a16.618,16.618,0,0,0,2.152,5.459,11.758,11.758,0,0,0,3.43,3.071c0.426,0.265,1.517.455,1.614,1.023a2.128,2.128,0,0,0-1.412.955,1.257,1.257,0,0,1-.337.683,5.531,5.531,0,0,0-.874-0.546,9.437,9.437,0,0,1-1.95-1.774,15.788,15.788,0,0,1-3.161-9.28h-0.067v0.136a4.987,4.987,0,0,0-.135,1.16q-0.269,1.228-.538,2.457a12.167,12.167,0,0,1-4.3,6.141c-0.613.453-1.2,0.867-1.882,1.3a1.439,1.439,0,0,1-.807.41,0.374,0.374,0,0,1-.2-0.273c3.035-1.984,4.839-5,5.85-9.075A32.692,32.692,0,0,0,569.4,662.5Zm56.018,2.388v5.254a2.979,2.979,0,0,1-1.614.478v-1.228h-2.824c0.042,1.3-.314,1.539-1.547,1.5v-7.574H619.5c0.964,0.78,2.4.751,4.17,0.75l0.739-.887c0.641,0.329,1.044.957,1.682,1.3a0.234,0.234,0,0,1-.068.136A0.889,0.889,0,0,1,625.422,664.883Zm-29.589.614v11.327H599.8a7.14,7.14,0,0,1,1.009-1.433c0.786,0.405,1.253,1.229,2.018,1.638a0.234,0.234,0,0,1-.068.136c-0.087.168,0.029,0.047-.134,0.136-0.376.325-3.192,0.137-3.968,0.137h-11.3V677.37h-0.067c-0.022-.182-0.045-0.364-0.067-0.546h6.792V665.5h-5.582q-0.066-.306-0.134-0.614h10.423l1.009-1.433h0.135c0.391,0.568,1.742,1.178,1.883,1.843a1.185,1.185,0,0,0-.269.2h-5.649Zm25.151-.887v4.231h2.824V664.61h-2.824Zm-77.134.614a9.041,9.041,0,0,1-.606,2.184c-0.473,1.465-.63,2.879-1.076,4.367a5.806,5.806,0,0,0-.47,2.8c0.118,0.51.338,1.073,0.47,1.57,0.259,0.971.1,2.342-.605,2.592a1.061,1.061,0,0,1-.874.069,2.761,2.761,0,0,1-.4-0.683,2.657,2.657,0,0,1,.135-1.023,7.936,7.936,0,0,0-.135-2.661,2.26,2.26,0,0,0-.941-0.478,0.739,0.739,0,0,1-.067-0.409h0.941a51.831,51.831,0,0,0,2.556-6.278c0.207-.511.463-1.9,0.874-2.115A0.339,0.339,0,0,0,543.85,665.224Zm123.132,0.887,2.421,0.273a1.358,1.358,0,0,1-.605.546V668.5a6.727,6.727,0,0,0-.068,1.5,22.182,22.182,0,0,1-.471,2.729h3.565l1.008-1.5a0.193,0.193,0,0,1,.068.068,7.621,7.621,0,0,1,1.748,1.774c-0.087.168,0.029,0.047-.134,0.137a5,5,0,0,1-1.816.068h-4.573l-0.336.887c2.035,0.009,5.087,1.549,5.85,2.866a2.362,2.362,0,0,1,.2,1.228,0.91,0.91,0,0,1-.4.409c-0.676.523-1.235-.5-1.547-0.819a15.869,15.869,0,0,0-4.371-3.343,4.139,4.139,0,0,1-1.547,1.706,14.016,14.016,0,0,1-6.523,2.661,1.808,1.808,0,0,1-.135-0.341,7.459,7.459,0,0,0,2.018-.751c1.971-.851,4.478-2.233,4.976-4.5h-6.388c-0.023-.182-0.045-0.364-0.068-0.546h6.658v-0.137C667.137,671.684,666.981,667.791,666.982,666.111Zm-3.968.273c1.6,0.137,3.406.779,2.959,2.593a1.991,1.991,0,0,0-.4.273,2.648,2.648,0,0,1-.874-0.136,4.171,4.171,0,0,0-1.076-1.843A1.078,1.078,0,0,1,663.014,666.384Zm-123.939.069a3.12,3.12,0,0,1,2.757,1.364,4.333,4.333,0,0,1-.067.887,1.234,1.234,0,0,1-.874.41,1.14,1.14,0,0,0-.4-0.137,7.242,7.242,0,0,0-.74-1.569A1.65,1.65,0,0,1,539.075,666.453Zm7.6,1.023a20.777,20.777,0,0,1-.471,3.548h5.044q0.068-1.774.134-3.548h-4.707Zm0.941,0.478a3.5,3.5,0,0,1,2.287,1.5,2.508,2.508,0,0,1-.067.955,1.24,1.24,0,0,1-.74.205,1.307,1.307,0,0,0-.269-0.137,8.763,8.763,0,0,0-.673-1.5,3.824,3.824,0,0,1-.672-0.955A0.227,0.227,0,0,0,547.615,667.954Zm94.754,1.774c0.015,2.69.3,6.158-.269,8.392a2.816,2.816,0,0,1-1.749.683,3.748,3.748,0,0,0-.269-1.3l-0.47-.341-0.538-.068a0.474,0.474,0,0,1-.068-0.341,0.2,0.2,0,0,0,.068-0.069,5.687,5.687,0,0,0,1.546.137,7.248,7.248,0,0,0,.135-2.525H637.93v4.094a2.51,2.51,0,0,1-1.479.478,13.265,13.265,0,0,1-.067-3.343v-7.3a7.01,7.01,0,0,1,1.614.683h2.622a1.381,1.381,0,0,1,.807-0.819,8.669,8.669,0,0,1,1.614,1.228v0.137A1.233,1.233,0,0,1,642.369,669.728Zm48.083-.683h4.034a5.273,5.273,0,0,1,.673-1.023,0.182,0.182,0,0,1,.067.068,14.928,14.928,0,0,1,1.345,1.228c-0.022.069-.045,0.137-0.067,0.205-1.623.407-4.051,0.139-5.918,0.136v-0.136A1.014,1.014,0,0,1,690.452,669.045Zm-28.783.137a3.72,3.72,0,0,1,3.228,1.433c0.67,1.17-.265,1.788-1.278,1.5A9.061,9.061,0,0,0,662.342,670,1.611,1.611,0,0,1,661.669,669.182Zm-23.739.273v1.774h2.825v-1.774H637.93Zm50.975,8.051h5.581a14.1,14.1,0,0,1,.606-2.32c0.3-1.069.4-2.173,0.672-3.207,0.127-.479.04-1.605,0.4-1.842a8.262,8.262,0,0,0,2.152.751v0.068a0.244,0.244,0,0,0-.068.136,1.808,1.808,0,0,0-.6.341,16.6,16.6,0,0,0-1.076,2.866,32.694,32.694,0,0,0-1.547,3.207h1.48a13.281,13.281,0,0,1,.874-1.228,0.19,0.19,0,0,1,.067.068c0.616,0.369,1.018.977,1.614,1.365a0.231,0.231,0,0,1-.067.136c-0.022.069-.045,0.137-0.067,0.205a35.375,35.375,0,0,1-3.7.068h-6.187v-0.136A1.014,1.014,0,0,1,688.905,677.506Zm3.564-7.232c0.863,0.3,1.847,2.429,2.085,3.479,0.222,0.982-.13,1.89-0.942,1.911-0.522-.49-0.5-0.524-0.47-1.569a5.468,5.468,0,0,1-.2-1.3q-0.336-1.228-.673-2.456A0.33,0.33,0,0,0,692.469,670.274Zm-48.419.273,2.152,0.2v0.137a0.738,0.738,0,0,1-.336.273,0.342,0.342,0,0,1-.2.068v2.661h0.067a21.44,21.44,0,0,1,2.287-1.774,2.933,2.933,0,0,1,.874-0.819c0.446,0.574,1.254.835,1.748,1.365h-0.067c-0.291.336-.72,0.044-1.076,0.2a19.44,19.44,0,0,1-3.833,1.57v2.32c0.721,0.379,2.448.144,3.43,0.136a0.237,0.237,0,0,1,.134-0.068c0.168-.7.5-1.407,0.673-2.183h0.269a4.911,4.911,0,0,0,.134,2.115,1.012,1.012,0,0,1,.471,1.023c-0.957.926-2.664,0.751-4.506,0.751-0.754,0-1.7.036-2.017-.41a4.957,4.957,0,0,1-.2-2.251v-5.322ZM621.723,678.8v-1.092H615.4v0.682a2.82,2.82,0,0,1-1.681.478v-7.915h0.134c1.476,1.193,5.159.751,7.734,0.75a2.246,2.246,0,0,1,.874-0.887,5.577,5.577,0,0,0,1.547,1.3v0.136a3.721,3.721,0,0,0-.673.341v5.8A3.253,3.253,0,0,1,621.723,678.8Zm-75.587-7.165q-0.268,1.774-.538,3.548h5.313c0.115-1.112.245-2.359,0.336-3.548h-5.111Zm91.794,0.2v1.842h2.825v-1.842H637.93Zm-90.584.068a2.451,2.451,0,0,1,2.354,2.32,0.9,0.9,0,0,1-.4.41,1.067,1.067,0,0,1-.538.068,0.808,0.808,0,0,1-.269-0.273c-0.272-.393-0.3-0.961-0.538-1.365-0.2-.324-0.566-0.634-0.74-0.955-0.045-.083.123-0.11,0.134-0.137v-0.068ZM615.4,672.32v2.048h6.321V672.32H615.4Zm72.158,0.751a0.407,0.407,0,0,1,0,.273,9.9,9.9,0,0,1-2.421,1.842,5.117,5.117,0,0,1-.942.887v-0.068a5.108,5.108,0,0,1-.807-1.979C684.881,673.993,686.176,673.277,687.56,673.071ZM615.4,674.982v2.183h6.321v-2.183H615.4Zm-88.163,19.105v0.205h-2.623v-0.205a1.137,1.137,0,0,0,.606-0.205,2.589,2.589,0,0,0,.2-1.5c0-1.144.3-2.884-.807-2.934a0.992,0.992,0,0,0-.672.137c-1.052.532-.789,2.006-0.74,3.548a2.732,2.732,0,0,1,.135.682,2.092,2.092,0,0,0,.739.273v0.205h-2.689v-0.205a0.688,0.688,0,0,0,.672-0.409,4.973,4.973,0,0,0,.067-1.774,29.491,29.491,0,0,0-.067-5.05,2.2,2.2,0,0,0-.672-0.068v-0.273h0.134l1.681-.546v3.617h0.067a2.2,2.2,0,0,1,2.623-.683,3.741,3.741,0,0,1,.538.887c0.348,1.153-.043,3,0.2,4.094l0.2,0.069A0.7,0.7,0,0,0,527.239,694.087Zm23.6,0v0.205h-2.622v-0.205a1.136,1.136,0,0,0,.605-0.205,2.58,2.58,0,0,0,.2-1.5c0-1.144.3-2.884-.807-2.934a0.993,0.993,0,0,0-.673.137c-1.052.532-.788,2.006-0.74,3.548a2.732,2.732,0,0,1,.135.682,1.009,1.009,0,0,0,.269.137,0.989,0.989,0,0,0,.471.136v0.205h-2.69v-0.205a0.688,0.688,0,0,0,.672-0.409,4.972,4.972,0,0,0,.068-1.774,29.489,29.489,0,0,0-.068-5.05,2.2,2.2,0,0,0-.672-0.068v-0.273h0.134l1.681-.546v3.617h0.068a2.2,2.2,0,0,1,2.622-.683,3.741,3.741,0,0,1,.538.887c0.348,1.153-.043,3,0.2,4.094l0.2,0.069A0.7,0.7,0,0,0,550.843,694.087Zm7.062-8.12a0.765,0.765,0,0,1,.605.342,0.683,0.683,0,0,1,0,.75,1.242,1.242,0,0,1-.807.205,2.315,2.315,0,0,1-.269-0.273,0.742,0.742,0,0,1-.135-0.478A2.526,2.526,0,0,1,557.905,685.967Zm21.923,0a0.737,0.737,0,0,1,.739.887,0.915,0.915,0,0,1-.941.41,0.244,0.244,0,0,0-.135-0.068c-0.21-.331-0.356-0.923.135-1.092C579.678,686.057,579.776,686.014,579.828,685.967Zm15.534,0a0.764,0.764,0,0,1,.605.342,0.683,0.683,0,0,1,0,.75,1.375,1.375,0,0,1-.874.205,1.188,1.188,0,0,1-.336-0.751A2.5,2.5,0,0,1,595.362,685.967Zm9.415,0v5.254a8.189,8.189,0,0,0,.2,2.73l0.739,0.136v0.205h-2.959v-0.205a2.179,2.179,0,0,0,.807-0.205,7.181,7.181,0,0,0,.135-2.251v-4.708a1.242,1.242,0,0,1-.269-0.205l-0.673.068v-0.273h0.135A6.288,6.288,0,0,1,604.777,685.967ZM631,694.087v0.205h-2.959v-0.205a2.184,2.184,0,0,0,.807-0.205,7.183,7.183,0,0,0,.134-2.251v-4.708a1.242,1.242,0,0,1-.269-0.205l-0.672.068v-0.273h0.134a6.51,6.51,0,0,1,1.883-.546V686.1a5.655,5.655,0,0,1,.068,1.978c0,1.37-.269,4.923.134,5.869Zm2.488-8.12v5.118a16.708,16.708,0,0,0,.067,2.729,1.242,1.242,0,0,1,.269.205l0.538,0.068v0.205h-2.892v-0.205a2.476,2.476,0,0,0,.74-0.205,6.689,6.689,0,0,0,.2-2.32c0-1.538,0-3.209-.067-4.639a1.016,1.016,0,0,0-.74-0.205,0.342,0.342,0,0,1-.2.068v-0.273C632.157,686.424,632.712,686.042,633.492,685.967Zm2.623,0a3.551,3.551,0,0,1,.538.137c0.406,0.643.189,1.209-.74,1.16C635.418,686.554,635.487,686.473,636.115,685.967Zm46,0.819v-0.273a5.535,5.535,0,0,0,1.883-.546v3.617h0.067v-0.137a3.623,3.623,0,0,1,1.21-.75c1.617-.413,2.982,1.6,2.556,3.275a3.173,3.173,0,0,1-2.085,2.388c-0.917.277-2.522-.026-2.757-0.682a5.442,5.442,0,0,1-.067-1.911,30.1,30.1,0,0,0-.068-4.913h-0.134A1.237,1.237,0,0,0,682.113,686.786Zm-162.137-.75q0.135,1.329.269,2.661h-0.336a2.262,2.262,0,0,0-2.959-1.911,2.511,2.511,0,0,0-.471.682,1.291,1.291,0,0,0,.74,1.365c0.966,0.709,2.606,1.351,3.161,2.457a2.354,2.354,0,0,1-1.076,2.934,4.851,4.851,0,0,1-1.076.273c-0.946.214-1.695-.431-2.421-0.41v0.137a0.34,0.34,0,0,0-.067.2h-0.4L515,691.835h0.4a2.822,2.822,0,0,0,1.547,1.979,1.642,1.642,0,0,0,2.287-.887,1.494,1.494,0,0,0-.875-1.637c-0.769-.533-2.284-1.275-2.757-2.047-1.013-1.655.456-2.994,1.883-3.207,0.738-.111,1.259.39,2.018,0.409A0.478,0.478,0,0,1,519.976,686.036Zm63.886,2.8c1.114,0.008,2.3-.062,3.228-0.136-0.01,1.295-.229,4.251.135,5.185a2.169,2.169,0,0,0,.672.205v0.205H585.14v-0.205a1.014,1.014,0,0,0,.74-0.273,2.451,2.451,0,0,0,.134-1.228,18.225,18.225,0,0,0-.067-3.139l-0.2-.068a5.674,5.674,0,0,0-1.883-.136,24.614,24.614,0,0,0,.135,4.571,1.009,1.009,0,0,0,.269.137,0.992,0.992,0,0,0,.471.136v0.205h-2.69v-0.205l0.538-.068,0.134-.205a2.843,2.843,0,0,0,.135-1.365v-3.206H581.98v-0.41h0.874A2.557,2.557,0,0,1,584.6,686.1c0.85-.255,2.073-0.016,2.287.614a0.923,0.923,0,0,1,.067.478,0.906,0.906,0,0,1-.673.2,1.633,1.633,0,0,0-1.614-.955,0.482,0.482,0,0,1-.269.137A3.859,3.859,0,0,0,583.862,688.833ZM566.243,686.1h0.337c0.81,1.892,1.745,3.795,2.555,5.663,0.275,0.635.493,1.883,1.143,2.115a0.694,0.694,0,0,0,.4.137v0.273h-3.094v-0.273l0.673-.068a0.91,0.91,0,0,0,.134-0.546c-0.17-.234-0.558-1.622-0.672-1.706h-3.161a5.579,5.579,0,0,0-.672,1.979,0.578,0.578,0,0,0,.269.2,0.78,0.78,0,0,0,.538.137v0.273h-2.421v-0.273c0.949-.152,1.08-1.135,1.412-1.911,0.574-1.338,1.155-2.708,1.748-4.094A8.444,8.444,0,0,0,566.243,686.1Zm42.9,0.136h3.631v0.273a1.42,1.42,0,0,0-1.008.341,4.24,4.24,0,0,0-.135,1.843,26.658,26.658,0,0,0,.135,5.117h0.134a1.586,1.586,0,0,0,.874.205v0.273h-3.631v-0.273a2.16,2.16,0,0,0,1.076-.273,46.121,46.121,0,0,0,.067-5.186c0-.68.127-1.55-0.269-1.842a2.062,2.062,0,0,0-.874-0.2V686.24Zm60.255,0h3.5v0.273a3.138,3.138,0,0,0-.875.2,5.442,5.442,0,0,0-.2,2.183v4.708l0.2,0.069a7.942,7.942,0,0,0,3.161-.137,2.635,2.635,0,0,0,.538-0.477c0.31-.355.236-0.839,0.874-0.888-0.08.762-.429,1.357-0.538,2.116H669.4v-0.273a3.546,3.546,0,0,0,.941-0.205,25.056,25.056,0,0,0,.135-5.254c0-.677.121-1.548-0.269-1.842a1.826,1.826,0,0,0-.807-0.2V686.24Zm-92.534,2.525h1.143v0.546H576.8a20.069,20.069,0,0,0,.068,4.025,1.238,1.238,0,0,0,.47.41c0.428-.091.555-0.325,0.942-0.41v0.069h0.067a3.384,3.384,0,0,1-.941.955c-0.605.067-1.228,0.134-1.413-.409-0.491-.536-0.277-3.539-0.269-4.64H575.12a0.993,0.993,0,0,1-.067-0.273c0.587-.383,1.293-1.605,1.748-1.774v0.068A3.767,3.767,0,0,1,576.869,688.765Zm44.182,0h1.143v0.546h-1.21c-0.025.956-.175,4.093,0.336,4.367,0.45,0.24.757-.257,1.143-0.342v0.069h0.067a1.718,1.718,0,0,1-2.152.887c-0.662-1.066-.476-3.228-0.47-4.981h-0.673v-0.273c0.6-.389,1.277-1.6,1.749-1.774v0.068A3.768,3.768,0,0,1,621.051,688.765Zm84.6-1.5v1.5h1.143a1.479,1.479,0,0,1,.067.478,4.387,4.387,0,0,1-1.21.068c-0.026,1.11-.424,4.26.538,4.367a0.817,0.817,0,0,0,.739-0.41,0.2,0.2,0,0,1,.068.068l0.134,0.069v0.136c-0.2.142-.28,0.4-0.471,0.546a3.883,3.883,0,0,0-.47.273,2.837,2.837,0,0,1-1.278-.136c-0.555-1.129-.406-3.2-0.4-4.913H703.9a0.993,0.993,0,0,1-.067-0.273C704.4,688.687,705.208,687.358,705.65,687.264Zm-139.609.75a15.086,15.086,0,0,1-1.277,3.139h2.69v-0.136C566.953,690.439,566.618,688.311,566.041,688.014Zm-36.381.614a4.6,4.6,0,0,1,1.681.342c0.69,1.1.543,2.694,0.538,4.5a1.211,1.211,0,0,1,.269.205,2.169,2.169,0,0,0,.605-0.273v0.409a1.915,1.915,0,0,1-1.479.546c-0.074-.106-0.2-0.114-0.269-0.205-0.094-.127-0.025-0.424-0.134-0.546h-0.135c-0.333.374-1.464,1.166-2.152,0.683a1.265,1.265,0,0,1-.672-1.774,3.147,3.147,0,0,1,1.95-1.5,2.566,2.566,0,0,0,.941-0.341v-1.024a0.465,0.465,0,0,1-.067-0.273l-0.4-.341a1.032,1.032,0,0,0-1.211.409,3.1,3.1,0,0,0,0,.887,1.2,1.2,0,0,1-.336.205,0.711,0.711,0,0,1-.4.068,0.908,0.908,0,0,1-.4-0.75,3.028,3.028,0,0,1,.874-1.024C529.1,688.708,529.442,688.771,529.66,688.628Zm23.6,0a4.6,4.6,0,0,1,1.682.342c0.689,1.1.542,2.694,0.538,4.5a1.235,1.235,0,0,1,.269.205,2.169,2.169,0,0,0,.6-0.273v0.409a1.7,1.7,0,0,1-1.614.478,2.044,2.044,0,0,0-.4-0.683c-0.333.374-1.464,1.166-2.152,0.683a1.352,1.352,0,0,1-.739-1.774,3.209,3.209,0,0,1,1.681-1.365,7.371,7.371,0,0,0,1.278-.477v-1.024a0.472,0.472,0,0,1-.068-0.273l-0.4-.341a1.032,1.032,0,0,0-1.211.409,3.139,3.139,0,0,0,0,.887,1.2,1.2,0,0,1-.336.205,0.709,0.709,0,0,1-.4.068,0.907,0.907,0,0,1-.4-0.75,3.028,3.028,0,0,1,.874-1.024C552.7,688.708,553.046,688.771,553.264,688.628Zm46.2,0c3.2-.038,1.84,2.357,2.287,4.913a0.75,0.75,0,0,1,.2.137,2.175,2.175,0,0,0,.606-0.273v0.409a1.893,1.893,0,0,1-1.48.546c-0.083-.133-0.27-0.221-0.336-0.341-0.088-.159-0.042-0.349-0.135-0.478-0.28.426-1.531,1.237-2.219,0.751a1.384,1.384,0,0,1-.672-1.911,3.8,3.8,0,0,1,1.815-1.3l1.076-.409v-1.092a0.935,0.935,0,0,0-.336-0.41,1.473,1.473,0,0,0-.941-0.136c-0.441.413-.431,0.4-0.4,1.3a1.2,1.2,0,0,1-.336.205,0.627,0.627,0,0,1-.605-0.068,1.8,1.8,0,0,1-.135-0.819l0.605-.682C598.735,688.778,599.171,688.823,599.464,688.628Zm79.555,0c0.873-.033,1.74.114,1.95,0.751,0.639,0.724.133,3.056,0.337,4.162a0.772,0.772,0,0,1,.2.137,1.783,1.783,0,0,0,.605-0.273v0.409a1.608,1.608,0,0,1-1.547.478c-0.124-.208-0.247-0.538-0.4-0.751a2.3,2.3,0,0,1-2.353.751,6.716,6.716,0,0,0-.605-0.683c-0.1-1.637.847-2.082,2.017-2.592a2.432,2.432,0,0,0,.941-0.341v-1.161a0.492,0.492,0,0,1-.134-0.272c-0.383-.2-1.274-0.4-1.479.136a2.3,2.3,0,0,0-.068.955,1.2,1.2,0,0,1-.336.205,0.627,0.627,0,0,1-.605-0.068,1.607,1.607,0,0,1-.135-0.751,5.063,5.063,0,0,1,.605-0.75C678.29,688.778,678.726,688.823,679.019,688.628Zm21.587,0c3.2-.038,1.841,2.361,2.287,4.913a0.75,0.75,0,0,1,.2.137,2.188,2.188,0,0,0,.606-0.273v0.409a1.893,1.893,0,0,1-1.48.546c-0.085-.123-0.27-0.216-0.336-0.341a4.927,4.927,0,0,0-.135-0.478c-0.28.426-1.531,1.237-2.219,0.751a1.028,1.028,0,0,1-.672-0.683c-0.587-1.271.819-2.108,1.614-2.456a6.55,6.55,0,0,0,1.277-.477v-1.092a0.361,0.361,0,0,1-.067-0.2l-0.4-.341a1.288,1.288,0,0,0-1.144.273,2.017,2.017,0,0,0-.067,1.023,1.2,1.2,0,0,1-.336.205,0.627,0.627,0,0,1-.605-0.068,0.731,0.731,0,0,1-.068-0.819C699.339,688.849,699.991,689.025,700.606,688.628Zm-165.835.069v0.887h0.067a2.2,2.2,0,0,1,2.085-.887,2.31,2.31,0,0,1,1.009,1.3c0.249,1.019-.395,3.452.269,3.958a0.714,0.714,0,0,0,.47.136v0.205h-2.622v-0.205a0.748,0.748,0,0,0,.672-0.341c0.411-.537.078-3.542-0.067-4.094-2.295-1.146-1.863,2.22-1.816,4.094a0.244,0.244,0,0,1,.067.136l0.2,0.069a0.719,0.719,0,0,0,.471.136v0.205h-2.623v-0.205a0.783,0.783,0,0,0,.606-0.273,2.249,2.249,0,0,0,.134-1.16c0-.989.169-2.484-0.2-3.139h-0.605v-0.272A15.362,15.362,0,0,1,534.771,688.7Zm9.818,0.887h-1.008v0.136a1.884,1.884,0,0,1,.067,1.57c-0.475,1.026-1.251,1.22-2.623,1.159a1.263,1.263,0,0,0-.538.819l0.2,0.068c0.463,0.3,1.3-.008,1.95.137a2.617,2.617,0,0,1,1.749.819,1.807,1.807,0,0,1-.068,1.16c-0.335,1.094-2.933,1.949-4.371,1.3a3.252,3.252,0,0,1-.807-0.75v-0.614c0.41-.321.7-0.793,1.143-1.092v-0.068a0.567,0.567,0,0,1-.538-0.41,0.757,0.757,0,0,1-.067-0.409,12.57,12.57,0,0,0,1.009-1.092,1.941,1.941,0,0,1,.067-3.48c0.945-.407,1.985.094,2.757,0.273l1.009-.068A1.722,1.722,0,0,1,544.589,689.584Zm13.988-.887a29.272,29.272,0,0,0,.134,5.117,1.219,1.219,0,0,1,.269.205l0.538,0.068v0.205h-2.959v-0.205a1.2,1.2,0,0,0,.606-0.136,0.292,0.292,0,0,0,.269-0.273,2.862,2.862,0,0,0,.067-1.092,17.533,17.533,0,0,0-.067-3,1.9,1.9,0,0,0-.605-0.069,0.344,0.344,0,0,1-.2.069v-0.273C557.369,689.225,557.883,688.817,558.577,688.7Zm14.257,0v1.023H572.9v-0.136c0.584-.41.765-1.035,1.816-0.819,0.355,0.507.422,1.2-.538,1.16a0.69,0.69,0,0,0-.606-0.341c-1.126.312-.749,2.8-0.672,4.094a2.408,2.408,0,0,0,1.009.409v0.205h-3.027v-0.273l0.673-.068a0.766,0.766,0,0,0,.2-0.546c0.3-.47.017-3.376-0.135-3.753a2.168,2.168,0,0,0-.672-0.068v-0.273C571.667,689.226,572.135,688.808,572.834,688.7Zm7.733,0a29.766,29.766,0,0,0,.068,5.117,1.236,1.236,0,0,1,.268.205l0.539,0.068v0.205h-2.959v-0.205a3.551,3.551,0,0,0,.874-0.205,33.456,33.456,0,0,0,.067-4.23,1.186,1.186,0,0,0-.672-0.137,0.344,0.344,0,0,1-.2.069v-0.273C579.329,689.225,579.819,688.78,580.567,688.7Zm10.289,0c1.2-.034,2.018.123,2.354,0.955a0.583,0.583,0,0,1-.874.751,2.856,2.856,0,0,1-.4-1.024c-0.274-.428-0.969-0.227-1.412-0.136a5.709,5.709,0,0,0-.672.818,3.209,3.209,0,0,0,.336,2.8,5.219,5.219,0,0,0,.74.546,2.374,2.374,0,0,0,1.681-.273,2.179,2.179,0,0,1,.807-0.751v0.068h0.067c-0.705,1.578-2.149,2.7-3.9,1.365a2.015,2.015,0,0,1-.538-0.478,3.514,3.514,0,0,1,.672-4.093C590.046,688.993,590.5,688.943,590.856,688.7Zm5.179,0a29.266,29.266,0,0,0,.134,5.185,3.971,3.971,0,0,0,.807.205v0.205h-2.959v-0.205a1.109,1.109,0,0,0,.807-0.273,2.259,2.259,0,0,0,.134-1.16,17.824,17.824,0,0,0-.067-3.07,1.9,1.9,0,0,0-.605-0.069,0.341,0.341,0,0,1-.2.069v-0.273C594.8,689.227,595.343,688.816,596.035,688.7Zm18.964,0v0.887h0.067c0.325-.372,1.5-1.374,2.286-0.751,1.036,0.355.875,1.941,0.875,3.343,0,0.622-.144,1.551.269,1.775a0.714,0.714,0,0,0,.47.136v0.205h-2.622v-0.205a3.553,3.553,0,0,0,.538-0.136c0.419-.711.508-4.23-0.269-4.5a1.615,1.615,0,0,0-1.547.614v3.548a0.576,0.576,0,0,0,.538.41,0.443,0.443,0,0,0,.269.068v0.205h-2.69v-0.205l0.605-.136c0.023-.069.045-0.137,0.067-0.205,0.357-.51.127-3.342,0.068-4.094a1.348,1.348,0,0,0-.74-0.137v-0.272C613.808,689.108,614.331,688.8,615,688.7Zm12.373,2.251h-3.766c0,1.491,1.014,3.209,2.69,2.457,0.523-.234.681-0.992,1.278-1.092v0.068h0.067a3.439,3.439,0,0,1-1.748,1.979c-1.912.708-3.679-1.321-3.228-3.207a3.307,3.307,0,0,1,1.479-2.252A2.2,2.2,0,0,1,627.372,690.948Zm9.482-2.251a26.647,26.647,0,0,0,.135,5.185,2.506,2.506,0,0,0,.74.205v0.205h-2.892v-0.205a1.526,1.526,0,0,0,.74-0.205c0.45-.481.2-2.342,0.2-3.206a2.463,2.463,0,0,0-.067-1.024,0.706,0.706,0,0,0-.605-0.137,0.449,0.449,0,0,1-.269.069,0.332,0.332,0,0,1,.067-0.2A6.871,6.871,0,0,1,636.854,688.7Zm6.86,0.341v0.546h-1.009v0.068c0.786,1-.167,2.435-0.942,2.729-0.468.179-1.174-.079-1.546,0.137a0.887,0.887,0,0,0-.605.75,0.207,0.207,0,0,1,.067.068c1.032,0.1,3.37-.034,3.7.819a1.791,1.791,0,0,1,.135,1.365,9.31,9.31,0,0,1-.807.819c-1.139.717-4.429,1.173-4.438-.887a5.467,5.467,0,0,0,1.143-1.228,0.732,0.732,0,0,1-.605-0.683c0.075-.093.061-0.23,0.134-0.341a4.749,4.749,0,0,0,.874-0.955c-1.37-.339-1.232-2.54-0.269-3.207,0.934-.647,2.205-0.151,3.161.068Zm5.245,1.91h-3.766c0.006,1.608.551,1.775,1.345,2.525a2.432,2.432,0,0,0,1.681-.273c0.356-.259.412-0.805,0.942-0.887-0.077,1.121-1.8,2.7-3.363,2.047a2.9,2.9,0,0,1-1.546-2.184C643.425,688.523,648.989,687.269,648.959,690.948Zm2.488-2.251v0.887h0.068a2.2,2.2,0,0,1,2.286-.819,2.851,2.851,0,0,1,.807,1.228c0.247,1.052-.391,3.4.269,3.958a0.715,0.715,0,0,0,.471.136v0.205h-2.556v-0.205a0.686,0.686,0,0,0,.606-0.341c0.393-.5.14-3.888-0.2-4.162a1.068,1.068,0,0,0-1.211.136,1.284,1.284,0,0,0-.47.341v3.685a0.251,0.251,0,0,1,.067.136l0.2,0.069a0.714,0.714,0,0,0,.47.136v0.205h-2.622v-0.205a3.553,3.553,0,0,0,.538-0.136c0.386-.655.2-2.212,0.2-3.207a2.676,2.676,0,0,0-.067-1.092,0.817,0.817,0,0,0-.672-0.137v-0.272a0.2,0.2,0,0,0,.067-0.069C650.364,689.1,650.777,688.764,651.447,688.7Zm6.523,0c1.295-.055,2.8.383,2.287,1.637a1.536,1.536,0,0,1-.74.137,3.87,3.87,0,0,0-.807-1.3,1.113,1.113,0,0,0-1.143.205,2.366,2.366,0,0,0-.74,2.525,1.825,1.825,0,0,0,3.5.409,0.19,0.19,0,0,1,.067.068l0.135,0.068a0.24,0.24,0,0,1-.067.137c-0.418,1.705-3,2.6-4.17.955a3.5,3.5,0,0,1,.606-4.367C657.205,688.948,657.644,688.921,657.97,688.7Zm7.869,2.251h-3.766c-0.026,1.4.906,3.131,2.488,2.525,0.6-.231.821-1.014,1.412-1.16v0.068h0.067a0.238,0.238,0,0,1-.067.137,2.624,2.624,0,0,1-3.5,1.774,2.552,2.552,0,0,1-1.21-1.706,3.588,3.588,0,0,1-.135-1.638,3.064,3.064,0,0,1,1.614-2.115C664.515,688.1,665.7,689.46,665.839,690.948Zm24.949-2.251a2.828,2.828,0,0,1,2.959,1.569,3.122,3.122,0,0,1-2.018,4.231c-2.023.5-3.826-1.854-3.16-3.89a3.06,3.06,0,0,1,1.614-1.774A5.077,5.077,0,0,0,690.788,688.7Zm5.447,0v1.023H696.3v-0.136c0.584-.41.765-1.035,1.816-0.819,0.356,0.507.422,1.2-.538,1.16a0.689,0.689,0,0,0-.605-0.341c-1.119.354-.752,2.772-0.673,4.094a2.408,2.408,0,0,0,1.009.409v0.205h-3.026v-0.273l0.672-.068a0.766,0.766,0,0,0,.2-0.546c0.3-.473.017-3.376-0.135-3.753a2.164,2.164,0,0,0-.672-0.068v-0.273C695.068,689.226,695.536,688.808,696.235,688.7Zm13.382,0a2.943,2.943,0,0,1,2.825,1.228,3.123,3.123,0,0,1-1.883,4.572c-2.09.5-3.8-2.022-3.094-3.958a3.041,3.041,0,0,1,1.614-1.706A3.939,3.939,0,0,0,709.617,688.7Zm5.515,0v0.955H715.2a5.126,5.126,0,0,1,1.009-.955,3.693,3.693,0,0,1,.807.068l0.134,0.205c0.419,0.491-.03,1-0.672.955a0.827,0.827,0,0,0-.605-0.341c-0.954.25-.74,1.6-0.74,2.8a2.027,2.027,0,0,0,.269,1.5,1.128,1.128,0,0,0,.74.137v0.273h-2.959v-0.273a1.6,1.6,0,0,0,.739-0.137,11.5,11.5,0,0,0,0-4.23,0.2,0.2,0,0,1-.067-0.068h-0.672a0.332,0.332,0,0,1,.067-0.2A5.805,5.805,0,0,1,715.132,688.7Zm2.219,0.136h2.556v0.205a2.411,2.411,0,0,0-.673.136,0.24,0.24,0,0,1-.067.137,15.454,15.454,0,0,0,1.479,3.343h0.067c0.145-1.241,1.019-2.1,1.144-3.411a1.009,1.009,0,0,0-.269-0.137,0.445,0.445,0,0,0-.269-0.068v-0.205H723v0.205c-0.725.228-.728,1.1-1.009,1.774-0.693,1.666-1.267,3.944-2.219,5.39-0.293.445-1.754,1.349-2.152,0.341a0.507,0.507,0,0,1-.134-0.409,1.456,1.456,0,0,1,.269-0.341c0.392-.316.937,0.041,1.479,0.068,0.209-.326,1-1.428.807-2.047a22.19,22.19,0,0,0-1.009-1.979,14.77,14.77,0,0,0-1.076-2.456A2.04,2.04,0,0,1,717.351,688.833Zm-176.124.273c-1.026,1.06-.444,2.192.336,3a2.9,2.9,0,0,0,.942-0.136,2.3,2.3,0,0,0-.606-2.866h-0.672Zm99.192,0a0.782,0.782,0,0,0-.337.341c-0.476.489-.187,1.778,0.135,2.252a3.272,3.272,0,0,0,.538.409,3.756,3.756,0,0,0,.807-0.068l0.336-.478a2.885,2.885,0,0,0-.807-2.456h-0.672Zm50.436,0c-0.058.044-.211,0.091-0.269,0.137-0.693.182-1.193,1.448-.941,2.524,0.279,1.2.571,2.356,2.084,2.32a2.165,2.165,0,0,0,.942-1.092c0.446-1.4-.18-3.573-1.211-3.752A1.021,1.021,0,0,0,690.855,689.106Zm18.9,0c-0.058.044-.212,0.091-0.269,0.137-0.729.192-1.219,1.513-.942,2.661s0.6,2.224,2.085,2.183a2.407,2.407,0,0,0,.942-1.16C712.074,691.225,711.2,689.142,709.752,689.106Zm-86.078,1.433h2.353C626.062,688.691,623.743,688.912,623.674,690.539Zm21.586,0h2.354C647.649,688.691,645.329,688.912,645.26,690.539Zm19.234,0a4.127,4.127,0,0,0-.2-0.887,1.134,1.134,0,0,0-.538-0.341,1.234,1.234,0,0,0-1.009,0,3.056,3.056,0,0,0-.672,1.228h2.421Zm20.443-1.024a2.6,2.6,0,0,0-.807.546,13.589,13.589,0,0,0-.134,3.412,0.5,0.5,0,0,0,.336.273,1.8,1.8,0,0,0,1.681,0c0.967-.661,1.022-3.61-0.2-4.026A1.167,1.167,0,0,0,684.937,689.515Zm-154.268,1.57c-0.266.2-.654,0.227-0.942,0.409a4.8,4.8,0,0,0-.807.887,1.182,1.182,0,0,0,.538,1.228,2.937,2.937,0,0,0,1.076-.2,1.693,1.693,0,0,1,.269-0.341C530.819,692.6,530.956,691.275,530.669,691.085Zm23.6,0c-0.265.2-.653,0.227-0.941,0.409a4.766,4.766,0,0,0-.807.887,1.18,1.18,0,0,0,.538,1.228,2.931,2.931,0,0,0,1.075-.2,1.7,1.7,0,0,1,.27-0.341v-1.979h-0.135Zm46.2,0c-0.546.417-1.369,0.439-1.614,1.16a1.01,1.01,0,0,0,.4,1.364c1.561,0.044,1.4-1,1.345-2.524h-0.134Zm79.555,0c-0.772.589-1.763,0.5-1.748,1.91,0.185,0.22.347,0.41,0.538,0.614,1.56,0.044,1.4-1,1.344-2.524h-0.134Zm21.587,0c-0.266.2-.654,0.227-0.942,0.409a4.766,4.766,0,0,0-.807.887,3.023,3.023,0,0,0,.135.955,1.333,1.333,0,0,1,.4.273c1.561,0.044,1.4-1,1.345-2.524h-0.134ZM540.554,694.36a2.487,2.487,0,0,1-.47.682,3.48,3.48,0,0,0,.067.751c1.01,0.532,3.131.644,3.766-.341a0.745,0.745,0,0,0,.067-0.682A11.07,11.07,0,0,0,540.554,694.36Zm99.192,0a1.836,1.836,0,0,0-.538,1.228,0.248,0.248,0,0,1,.067.137c0.79,0.532,3.335.849,3.766-.273a0.8,0.8,0,0,0,.135-0.614A9.24,9.24,0,0,0,639.746,694.36ZM503,660.069v0.208c-9.749,0-19.413.068-29.2,0.069V660C483.5,660,493.254,660.066,503,660.069ZM471.761,660v0.346c-25.287,0-50.536-.128-75.761-0.139v-0.1Zm-1.729,3.146v0.38l-38.573.035a7.051,7.051,0,0,0-1.28-.035H419.766l-23.766-.1V663.25c1.963-.048,4.069-0.035,6.088-0.035h2.768a11.636,11.636,0,0,1,2.145-.034h4.255c4.265,0,8.653-.035,12.973-0.035C439.436,663.146,454.815,663.143,470.032,663.146ZM503,663.181v0.311l-8.2.034h-2.767a7.66,7.66,0,0,0-1.384.035l-17.816-.035v-0.38c4.942,0,9.985-.034,14.979-0.034h6.781a17.284,17.284,0,0,0,2.871.034Zm-36.739,3.111v0.415l-25.046.1H429.9a6.935,6.935,0,0,0-1.245-.035h-10.1L396,666.638v-0.277l17.435-.138h7.992a5.9,5.9,0,0,0,1.037-.034h13.665C446.219,666.189,456.283,666.285,466.261,666.292Zm36.739,0v0.415l-9.652.069-23.662-.069v-0.415l17.954-.1,4.636,0.034C495.882,666.223,499.463,666.289,503,666.292Zm-44.35,3.077v0.554l-5.051.069a17.49,17.49,0,0,0-2.906.034l-19.649.035-8.441-.035h-2.837a7.86,7.86,0,0,1-1.418-.034h-7.161L396,669.819v-0.346l16.4-.173h5.811a11.239,11.239,0,0,0,2.076-.034H449a6.539,6.539,0,0,0,1.176.034h2.249ZM503,669.4v0.484c-4.168.168-8.48,0.1-12.765,0.1h-4.152a11.226,11.226,0,0,1-2.075-.035h-5.293a10.21,10.21,0,0,0-1.868-.034l-3.079-.035h-9.929V669.4H474.46l3.39-.035a10.724,10.724,0,0,0,1.972-.034h5.362a12.141,12.141,0,0,1,2.248-.035h8.441a14.892,14.892,0,0,0,2.63.035Zm-53.656,3.838-21.241.069-9.824-.035a9.1,9.1,0,0,0-1.661-.034h-4.67L396,673.034v-0.449l16.086-.208,11.935-.034c8.412,0,16.856.032,25.289,0.034A3.24,3.24,0,0,1,449.344,673.242ZM503,672.516V673.1l-5.881.1H494.8a6.529,6.529,0,0,0-1.176.035h-6.158a9.2,9.2,0,0,1-1.695-.035h-1.453l-2.941-.034a9.6,9.6,0,0,1-1.764-.035l-8.026-.069h-11.52a12.589,12.589,0,0,1-2.214.034c-1.071.014-2.173,0.068-3.286,0.07v-0.726l7.092,0.1h2.733a7.456,7.456,0,0,1,1.349.035h3.528c2.745,0,5.536-.1,8.234-0.1l11.035-.1h4.878a6.74,6.74,0,0,0,1.211.035h2.353Zm-62.028,2.9v1.106H421.738l-9.237-.034L396,676.25V675.7l15.706-.242,9.478-.034C427.746,675.42,434.39,675.418,440.972,675.42ZM503,675.627v0.692l-4.463.1-8.475.034h-3.806a10.315,10.315,0,0,1-1.9-.034l-7.127-.069c-0.557-.12-1.3.094-1.9-0.035a8.055,8.055,0,0,0-1.314-.035c-0.556-.011-1.224-0.034-1.834-0.034H470.55a8.167,8.167,0,0,0-1.487-.035h-5.224a6.529,6.529,0,0,1-1.176.035h-3.252a6.938,6.938,0,0,1-1.245.034l-1.488.035h-0.865c-0.556.12-1.3-.094-1.9,0.035a9.5,9.5,0,0,1-1.73.034l-2.8.035v-0.9l3.009,0.034a10.128,10.128,0,0,1,1.869.035c0.555,0.119,1.251-.076,1.764.034h0.9l1.695,0.035a7.144,7.144,0,0,1,1.28.034H463.7a7.453,7.453,0,0,1,1.349.035h3.84A6.128,6.128,0,0,0,470,675.7h2.352c1.547,0,3.122-.019,4.636-0.1l4.739-.035a8.79,8.79,0,0,1,1.592-.034l2.421-.035h1.246a8.569,8.569,0,0,1,1.556-.035l3.287,0.035C495.611,675.489,499.318,675.622,503,675.627ZM435.2,678.5v1.279l-8.752.035h-2.768a7.66,7.66,0,0,1-1.384-.035h-3.6a6.95,6.95,0,0,1-1.246-.034l-8.441-.035a7.457,7.457,0,0,0-1.349-.034l-1.972-.035h-1a6.625,6.625,0,0,0-1.176-.035l-1.349-.034h-0.8c-0.59-.127-1.373.1-2.007-0.035a7.457,7.457,0,0,0-1.349-.034L396,679.465v-0.657l11.866-.242,7.818-.034A7.256,7.256,0,0,1,417,678.5h3.736a8.569,8.569,0,0,1,1.556-.035h3.045C428.614,678.462,431.973,678.5,435.2,678.5ZM503,678.739v0.795c-0.534,0-1.108.029-1.591,0.035a7.342,7.342,0,0,0-1.246.034c-0.457.1-1.039-.054-1.453,0.035l-9.513.069h-2.906a8.374,8.374,0,0,1-1.522-.034c-0.556-.12-1.252.075-1.765-0.035l-7.472-.1a11.848,11.848,0,0,0-2.11-.069H472.73a11.638,11.638,0,0,0-2.145-.034c-1.2,0-2.484-.035-3.736-0.035h-4.74a8.684,8.684,0,0,1-1.591.035l-2.7.034h-1.315a10.278,10.278,0,0,1-1.937.069h-0.657c-0.524.113-1.232-.087-1.8,0.035l-4.463.1V678.6l1.8,0.034a7.259,7.259,0,0,1,1.315.035c0.632,0.136,1.416-.093,2.006.034h0.692a11.329,11.329,0,0,1,2.076.07h0.934l1.833,0.034a7.256,7.256,0,0,1,1.315.035h3.321a6.744,6.744,0,0,1,1.211.034h3.632a6.016,6.016,0,0,0,1.072-.034h1.938l1.66-.035a6.953,6.953,0,0,0,1.246-.034c0.412-.089.945,0.045,1.314-0.035,0.512-.11,1.158.066,1.626-0.035l7.4-.1a10.517,10.517,0,0,1,1.937-.035h3.84l9.375,0.069c0.425,0.092,1.02-.066,1.488.035A13.693,13.693,0,0,0,503,678.739Zm-73.374,2.8v1.486c-2.787,0-5.768.155-8.545,0h-2.975a6.95,6.95,0,0,1-1.246-.034h-3.009a6.214,6.214,0,0,1-1.107-.035l-5.916-.034a14.731,14.731,0,0,0-2.352-.07h-0.762a13.7,13.7,0,0,0-2.318-.069h-0.761c-0.479-.1-1.137.078-1.66-0.034a6.843,6.843,0,0,0-1.245-.035L396,682.68v-0.76l11.866-.277,6.676-.034a6.543,6.543,0,0,1,1.177-.035h3.148a6.733,6.733,0,0,1,1.21-.034h9.549Zm6.019,0.034,6.78,0.069v1.314c-2.284,0-4.544.066-6.78,0.069v-1.452ZM503,681.851v0.864a9.485,9.485,0,0,0-1.8.069c-0.424.092-.969-0.047-1.349,0.035l-7.991.1-4.463.034a11.948,11.948,0,0,0-2.214-.034c-0.686,0-1.446,0-2.076-.035a10.4,10.4,0,0,1-1.384-.035c-0.5-.108-1.133.064-1.591-0.034-0.49-.106-1.11.061-1.557-0.035H477.02l-5.674-.173H469.34a10.725,10.725,0,0,0-1.972-.034h-3.909c-1.151,0-2.323.034-3.425,0.034a16.9,16.9,0,0,0-2.283.035l-3.321.034c-0.293.063-.737-0.037-1.073,0.035-0.369.08-.9-0.054-1.314,0.035a14.157,14.157,0,0,1-2.318.069v-1.037c4.262-.012,8.383.207,12.73,0.207,1.177,0,2.41.035,3.633,0.035h1.591a12.064,12.064,0,0,1,2.249-.035,14.875,14.875,0,0,0,2.421-.069c0.358-.077.828,0.033,1.142-0.035h0.692a10.583,10.583,0,0,0,2.006-.069h1.523c0.457-.1,1.09.073,1.591-0.034a6.529,6.529,0,0,1,1.176-.035c0.625,0,1.4-.013,2.006-0.069h1.7a10.312,10.312,0,0,1,1.9-.035h3.806C494.306,681.643,498.668,681.843,503,681.851Zm-78.321,2.766v1.694c-4.2,0-8.355-.1-12.489-0.1l-6.85-.069a10.479,10.479,0,0,0-1.972-.069h-0.657A11.354,11.354,0,0,0,400.67,686h-0.692c-0.4-.087-0.973.061-1.418-0.035a6.728,6.728,0,0,0-1.176-.034c-0.425,0-.912-0.034-1.384-0.035v-0.864l1.8-.07a6.016,6.016,0,0,0,1.072-.034c0.446-.1,1.016.052,1.419-0.035,0.445-.1,1.016.052,1.418-0.034l2.491-.035c0.435-.094,1.043.068,1.522-0.034a7.048,7.048,0,0,1,1.28-.035l1.764-.035h1.522a10.21,10.21,0,0,1,1.868-.034l3.114-.035Zm7.991,0.034,8.718,0.069v1.453l-8.718.1v-1.625ZM503,685v0.934a12.461,12.461,0,0,0-2.214.069c-0.4.086-.922-0.043-1.28,0.034-0.424.091-.969-0.047-1.349,0.035l-8.753.1h-5.639a9.359,9.359,0,0,0-1.66-.035,9.245,9.245,0,0,1-1.591-.069c-0.424-.091-0.969.047-1.35-0.035-0.412-.089-0.945.045-1.314-0.034h-1.315a5.994,5.994,0,0,0-1.037-.035,8.559,8.559,0,0,1-1.454-.069c-0.357-.077-0.827.033-1.141-0.035H471.8c-0.319-.068-0.769,0-1.142-0.034s-0.856-.035-1.28-0.035h-0.761a6.222,6.222,0,0,0-1.107-.034h-2.075c-2.269,0-4.6.034-6.816,0.034v-0.657q4.385,0,8.718,0c0.745,0,1.519-.033,2.214-0.034a7.868,7.868,0,0,0,1.419-.035c0.346-.074.8,0.031,1.107-0.034h1.107c0.325-.07.807,0.044,1.176-0.035a8.644,8.644,0,0,1,1.487-.069,6,6,0,0,0,1.038-.035l7.888-.173H486.4c1.268,0,2.59.034,3.805,0.035C494.555,684.757,498.8,684.922,503,685Zm-81.47,2.662v1.9l-7.576-.069-2.7-.035a9.01,9.01,0,0,1-1.661-.035l-5.4-.069a9.466,9.466,0,0,0-1.8-.069h-0.623a9.571,9.571,0,0,0-1.833-.069h-0.623c-0.336-.072-0.831.047-1.211-0.035a11.708,11.708,0,0,0-2.11-.069v-1a12.361,12.361,0,0,0,2.179-.07c0.38-.081.875,0.038,1.211-0.034h0.623a9.66,9.66,0,0,0,1.833-.069h0.623a9.258,9.258,0,0,0,1.764-.069l5.535-.07a9.1,9.1,0,0,1,1.661-.034l2.629-.035Zm12.316,0.069,10.309,0.173v1.418l-10.309.173v-1.764ZM503,688.109v1l-3.875.139-2.663.034c-0.59.127-1.374-.1-2.007,0.035a9.088,9.088,0,0,1-1.66.034l-2.56.035-5.051.034-5.847-.1a6.222,6.222,0,0,0-1-.035,8.313,8.313,0,0,1-1.314-.069c-0.347-.075-0.8.031-1.107-0.035H474.84c-0.292-.063-0.737.038-1.072-0.034a7.725,7.725,0,0,0-1.211-.069h-0.865a8.246,8.246,0,0,0-1.591-.069h-0.588a7.464,7.464,0,0,0-1.35-.035c-0.609,0-1.28-.033-1.937-0.035v-0.656c0.673,0,1.385-.032,2.007-0.035a7.742,7.742,0,0,0,1.383-.035h0.589a8.129,8.129,0,0,0,1.556-.069h0.865a7.91,7.91,0,0,0,1.245-.069c0.325-.07.757,0.026,1.038-0.035h1.107c0.3-.065.761,0.041,1.107-0.034a8.325,8.325,0,0,1,1.315-.069,6.339,6.339,0,0,0,1-.035h1.246c0.424-.091,1.019.066,1.487-0.034a13.172,13.172,0,0,1,2.456-.035,6.646,6.646,0,0,0,1.211-.035,12.29,12.29,0,0,1,2.145.035h2.56a7.051,7.051,0,0,1,1.28.035l4.463,0.034Zm-86.209,2.662v2l-5.743-.069-2.11-.034a7.854,7.854,0,0,1-1.418-.035l-4.325-.069L396,692.327V691.22l7.023-.242,4.289-.069a7.869,7.869,0,0,1,1.419-.034l2.179-.035C412.851,690.84,414.806,690.774,416.791,690.771Zm13.838,0.034,2.629,0.035a9,9,0,0,1,1.66.035c0.708,0.152,1.728-.115,2.422.034,0.673,0.145,1.57-.1,2.214.035H440.7a10.272,10.272,0,0,1,1.937.069c0.39,0.084.9-.04,1.245,0.035h1.176c0.293,0.062.738-.038,1.073,0.034,0.959,0.207,2.244-.049,3.217.138v1.107c-6.122.129-12.406,0.4-18.715,0.415v-1.937ZM503,691.22v1.072c-0.619.068-1.4-.027-2.007,0.1-0.335.072-.78-0.029-1.072,0.035-0.358.076-.827-0.034-1.142,0.034-0.39.084-.9-0.04-1.245,0.035h-1.315c-0.512.11-1.208-.085-1.764,0.034a17.547,17.547,0,0,1-1.764.035c-0.863.079-1.881,0.034-2.8,0.034-1.636,0-3.395.035-5.086,0.035h-2.248l-6.02-.173v-1.383l3.909-.138,5.535-.035h3.875a7.973,7.973,0,0,0,1.453.035l2.214,0.034H494.7Zm-75.761,2.628,2.144,0.035a7.972,7.972,0,0,1,1.453.034c0.684,0.147,1.594-.106,2.249.035,0.683,0.147,1.593-.106,2.249.034h0.9l1.626,0.035a6.938,6.938,0,0,1,1.245.034l4.844,0.1a13.49,13.49,0,0,0,2.041.1h0.8c0.571,0.123,1.35-.058,1.937.069s1.4-.062,2.007.069c0.314,0.068.784-.042,1.142,0.035a9.316,9.316,0,0,0,1.66.069v0.864a10.856,10.856,0,0,0-2.006.069c-0.358.077-.828-0.033-1.142,0.035s-0.733-.024-1,0.035c-0.587.126-1.367-.055-1.937,0.069h-0.935c-0.873.189-2-.051-2.871,0.138l-5.051.1a7.144,7.144,0,0,1-1.28.034l-1.729.035h-0.934c-0.645.138-1.542-.11-2.214,0.034a10.439,10.439,0,0,1-1.938.035c-1.036,0-2.164.033-3.251,0.035v-2.144Zm-18.578.1v1.97l-1.383-.034a6.831,6.831,0,0,1-1.211-.035c-0.446-.1-1.016.052-1.419-0.034h-0.622a9.262,9.262,0,0,1-1.765-.069l-3.148-.07c-0.248-.053-0.642.029-0.934-0.034a12.97,12.97,0,0,0-2.179-.1v-1.21C400.161,694.178,404.367,693.965,408.661,693.952Zm81.712,0.069,9.444,0.207L503,694.367v1.141l-7.092.242h-1.522a6.95,6.95,0,0,1-1.246.034,26,26,0,0,0-2.767.069v-1.832Z" transform="translate(-396 -660)"/>
</svg>
