<svg id="title2" xmlns="http://www.w3.org/2000/svg" xmlns:xlink="http://www.w3.org/1999/xlink" width="477.25" height="85" viewBox="0 0 477.25 85">
  <metadata><?xpacket begin="﻿" id="W5M0MpCehiHzreSzNTczkc9d"?>
<x:xmpmeta xmlns:x="adobe:ns:meta/" x:xmptk="Adobe XMP Core 5.6-c142 79.160924, 2017/07/13-01:06:39        ">
   <rdf:RDF xmlns:rdf="http://www.w3.org/1999/02/22-rdf-syntax-ns#">
      <rdf:Description rdf:about=""/>
   </rdf:RDF>
</x:xmpmeta>
                                                                                                    
                                                                                                    
                                                                                                    
                                                                                                    
                                                                                                    
                                                                                                    
                                                                                                    
                                                                                                    
                                                                                                    
                                                                                                    
                                                                                                    
                                                                                                    
                                                                                                    
                                                                                                    
                                                                                                    
                                                                                                    
                                                                                                    
                                                                                                    
                                                                                                    
                                                                                                    
                           
<?xpacket end="w"?></metadata>
<defs>
    <style>
      .cls-1, .cls-2 {
        fill-rule: evenodd;
      }

      .cls-1 {
        opacity: 0.2;
      }

      .cls-2 {
        fill: url(#linear-gradient);
      }

      .cls-3 {
        fill: none;
      }
    </style>
    <linearGradient id="linear-gradient" x1="1263.375" y1="178" x2="1263.375" y2="252" gradientUnits="userSpaceOnUse">
      <stop offset="0" stop-color="#ffeba8"/>
      <stop offset="1" stop-color="#fff5be"/>
    </linearGradient>
  </defs>
  <path id="_1" data-name="1" class="cls-1" d="M1486.2,210.711s-3.09-1.232-3.5,3.413c-0.39,4.434,2.56,2.783,2.56,2.783h0.39l0.01-.013h3.8s12.13-1.468,10.86,13C1499.48,239.5,1485.84,240,1485.84,240h-19.6l0.69-7.947h15.4a3.043,3.043,0,0,0,3.05-2.789c0.24-2.763-.9-3.422-0.9-3.422h-3.4l0.06-.122-0.86.122s-13.61.078-12.63-11.086c1-11.49,12.94-10.752,12.94-10.752h21.2l0.21,6.708h-15.8ZM1439.03,224a5.251,5.251,0,0,0,4.38,4.882,7.016,7.016,0,0,0,2.3-.882h16.87c-4.32,9.193-17.14,12-17.14,12h-6s-16.94-.667-15.52-17c1.61-18.226,16.67-19.055,16.67-19.055h10s12.07,0.673,13.34,14.056h0.43l-0.52,6h-24.81Zm6.68-10h-2s-2.44.384-3.84,4h8.98C1448.09,214.383,1445.71,214,1445.71,214Zm-26.91,10.012,0.04-.011-0.21,2.409L1417.45,240c-1.23,13.975-15.09,17-15.09,17h-21.6l0.7-7.948h17.4a3.286,3.286,0,0,0,2.61-1.4l-0.72.345,0.72-8.265c-0.64.182-1.02,0.266-1.02,0.266h-6s-16.96-.482-15.52-17c1.6-18.226,16.66-19.055,16.66-19.055h6v0.01l19,0.046s-0.06.773-1.67,19c-0.03.344-.06,0.68-0.12,1.011v0ZM1400.72,214h-2s-4.05.632-4.71,8c-0.44,5.213,2.73,6.543,4.41,6.883h0l-0.01.118h4l1.03-.312L1404.72,214h-4Zm-25.27,26h-15l1.71-19.6h-0.01c0.22-5.086-2.79-5.494-4.01-5.451-1.23-.043-4.38.376-4.99,5.666h-0.01L1351.45,240h-15l1.75-19.993V220l0.08-1h0.04c1.81-12.35,16.28-15,16.28-15h8s14.95,2.65,14.65,15h0.03Zm-16.82-25h-1a3.671,3.671,0,0,1,.51-0.051A3.133,3.133,0,0,1,1358.63,215Zm-47.59,9a5.241,5.241,0,0,0,4.38,4.882,7.1,7.1,0,0,0,2.3-.882h16.87c-4.32,9.193-17.14,12-17.14,12h-6s-16.94-.667-15.52-17c1.6-18.226,16.67-19.055,16.67-19.055h10s12.07,0.673,13.34,14.056h0.43l-0.52,6h-24.81Zm6.68-10h-2s-2.44.384-3.84,4h8.98c-0.76-3.617-3.14-4-3.14-4h0Zm-29.27,26h-16l4.98-56.937,16-.056-0.79,9.125Zm-23,0h-16l4.98-56.937,16-.056-0.79,9.125Zm-37,0,0.11-1.332c-0.34.116-.68,0.229-1.03,0.332a26.745,26.745,0,0,1-6.08,1s-16.8-2.329-15.52-17c1.61-18.226,16.67-19.055,16.67-19.055h22v0.108l2.99,0.01L1244.45,240h-16Zm-2.73-26s-4.05.632-4.7,8c-0.61,7.034,5.39,7,5.39,7l3.12-1.334L1230.72,214h-5Zm-22.26,26h-14l0.08-.923c-0.37.13-.72,0.247-1.04,0.348L1190.02,222h0l0.19-2h-0.12c-0.17-5.485-3.36-6-3.36-6h-4l-2.27,26h-16l4.98-56.937,15.99-.056-0.78,9.125-1.05,11.812h8s13.81,0.771,13.45,17.056h0.06Zm-59.07-45s-19.72-3.113-21.4,16c-1.8,20.619,14.43,18,14.43,18l18.09-1-1.01,11.5h-33s-19.96-.465-17.77-25.5,19.15-30.888,27.71-30.888h28L1158.39,195h-14Zm-80.4,46-3.51-5-3.73,5.223h-20.54c-13.87,0-14.62-4.826-5.11-15.942,5.71-6.678,10.62-13.327,10.62-13.327l-10.36-14.426,1.51-7.248h28.81c12.11,0,9.73,4.62,3.29,12-3.94,4.517-7.13,8.92-7.13,8.92l5.56,7.731,3.76-4.528,7.85,4.6-6.33,7.312,10.75,14.91Zm-21.42-45.544,5.82,8.145,6.49-8.145h-12.31ZM1049.86,222l-11.79,14.045h11.69l5.31-6.045Z" transform="translate(-1024.75 -172)"/>
  <path id="_1-2" data-name="1" class="cls-2" d="M1486.2,205.711s-3.09-1.232-3.5,3.413c-0.39,4.434,2.56,2.783,2.56,2.783h0.39l0.01-.013h3.8s12.13-1.468,10.86,13C1499.48,234.5,1485.84,235,1485.84,235h-19.6l0.69-7.947h15.4a3.043,3.043,0,0,0,3.05-2.789c0.24-2.763-.9-3.422-0.9-3.422h-3.4l0.06-.122-0.86.122s-13.61.078-12.63-11.086c1-11.49,12.94-10.752,12.94-10.752h21.2l0.21,6.708h-15.8ZM1439.03,219a5.251,5.251,0,0,0,4.38,4.882,7.016,7.016,0,0,0,2.3-.882h16.87c-4.32,9.193-17.14,12-17.14,12h-6s-16.94-.667-15.52-17c1.61-18.226,16.67-19.055,16.67-19.055h10s12.07,0.673,13.34,14.056h0.43l-0.52,6h-24.81Zm6.68-10h-2s-2.44.384-3.84,4h8.98C1448.09,209.383,1445.71,209,1445.71,209Zm-26.91,10.012,0.04-.011-0.21,2.409L1417.45,235c-1.23,13.975-15.09,17-15.09,17h-21.6l0.7-7.948h17.4a3.286,3.286,0,0,0,2.61-1.4l-0.72.345,0.72-8.265c-0.64.182-1.02,0.266-1.02,0.266h-6s-16.96-.482-15.52-17c1.6-18.226,16.66-19.055,16.66-19.055h6v0.01l19,0.046s-0.06.773-1.67,19c-0.03.344-.06,0.68-0.12,1.011v0ZM1400.72,209h-2s-4.05.632-4.71,8c-0.44,5.213,2.73,6.543,4.41,6.883h0l-0.01.118h4l1.03-.312L1404.72,209h-4Zm-25.27,26h-15l1.71-19.6h-0.01c0.22-5.086-2.79-5.494-4.01-5.451-1.23-.043-4.38.376-4.99,5.666h-0.01L1351.45,235h-15l1.75-19.993V215l0.08-1h0.04c1.81-12.35,16.28-15,16.28-15h8s14.95,2.65,14.65,15h0.03Zm-16.82-25h-1a3.671,3.671,0,0,1,.51-0.051A3.133,3.133,0,0,1,1358.63,210Zm-47.59,9a5.241,5.241,0,0,0,4.38,4.882,7.1,7.1,0,0,0,2.3-.882h16.87c-4.32,9.193-17.14,12-17.14,12h-6s-16.94-.667-15.52-17c1.6-18.226,16.67-19.055,16.67-19.055h10s12.07,0.673,13.34,14.056h0.43l-0.52,6h-24.81Zm6.68-10h-2s-2.44.384-3.84,4h8.98c-0.76-3.617-3.14-4-3.14-4h0Zm-29.27,26h-16l4.98-56.937,16-.056-0.79,9.125Zm-23,0h-16l4.98-56.937,16-.056-0.79,9.125Zm-37,0,0.11-1.332c-0.34.116-.68,0.229-1.03,0.332a26.745,26.745,0,0,1-6.08,1s-16.8-2.329-15.52-17c1.61-18.226,16.67-19.055,16.67-19.055h22v0.108l2.99,0.01L1244.45,235h-16Zm-2.73-26s-4.05.632-4.7,8c-0.61,7.034,5.39,7,5.39,7l3.12-1.334L1230.72,209h-5Zm-22.26,26h-14l0.08-.923c-0.37.13-.72,0.247-1.04,0.348L1190.02,217h0l0.19-2h-0.12c-0.17-5.485-3.36-6-3.36-6h-4l-2.27,26h-16l4.98-56.937,15.99-.056-0.78,9.125-1.05,11.812h8s13.81,0.771,13.45,17.056h0.06Zm-59.07-45s-19.72-3.113-21.4,16c-1.8,20.619,14.43,18,14.43,18l18.09-1-1.01,11.5h-33s-19.96-.465-17.77-25.5,19.15-30.888,27.71-30.888h28L1158.39,190h-14Zm-80.4,46-3.51-5-3.73,5.223h-20.54c-13.87,0-14.62-4.826-5.11-15.942,5.71-6.678,10.62-13.327,10.62-13.327l-10.36-14.426,1.51-7.248h28.81c12.11,0,9.73,4.62,3.29,12-3.94,4.517-7.13,8.92-7.13,8.92l5.56,7.731,3.76-4.528,7.85,4.6-6.33,7.312,10.75,14.91Zm-21.42-45.544,5.82,8.145,6.49-8.145h-12.31ZM1049.86,217l-11.79,14.045h11.69l5.31-6.045Z" transform="translate(-1024.75 -172)"/>
  <rect id="_1-3" data-name="1" class="cls-3" x="7.25" width="4" height="4"/>
</svg>
