<svg version="1.2" xmlns="http://www.w3.org/2000/svg" viewBox="0 0 23 19" width="23" height="19">
	<title>imail-svg</title>
	<style>
		.s0 { fill: #53c2f0 } 
		.s1 { fill: #1f2d2d } 
	</style>
	<path id="i" class="s0" d="m3 4h20v15h-20z"/>
	<path id="i-2" fill-rule="evenodd" class="s1" d="m21 15q0 0.4-0.1 0.8-0.1 0.4-0.4 0.7-0.3 0.3-0.7 0.4-0.4 0.1-0.8 0.1h-16q-0.2 0.1-0.5 0-0.2 0-0.4-0.2-0.2-0.1-0.3-0.3-0.1-0.2-0.1-0.5c0-0.8 1.3-1 1.3-1h16v-11l-7.5 6.8-9.5-7.8v-1q0-0.4 0.1-0.8 0.2-0.4 0.5-0.6 0.2-0.3 0.6-0.5 0.4-0.1 0.8-0.1h15q0.4 0 0.8 0.1 0.4 0.2 0.6 0.5 0.3 0.2 0.5 0.6 0.1 0.4 0.1 0.8zm-17-13l7.5 6.3 7.5-6.3zm-4 9h7l1 2h-8zm0-4h4l1 2h-5z"/>
</svg>