<svg xmlns="http://www.w3.org/2000/svg" xmlns:xlink="http://www.w3.org/1999/xlink" viewBox="0,0,256,256" width="96px" height="96px" fill-rule="nonzero"><g fill="#0d0d0d" fill-rule="nonzero" stroke="none" stroke-width="1" stroke-linecap="butt" stroke-linejoin="miter" stroke-miterlimit="10" stroke-dasharray="" stroke-dashoffset="0" font-family="none" font-weight="none" font-size="none" text-anchor="none" style="mix-blend-mode: normal"><g transform="scale(10.66667,10.66667)"><path d="M18.231,3.618c-2.312,1.736 -4.785,5.107 -5.948,7.244c-0.123,0.226 -0.444,0.226 -0.567,0c-1.163,-2.137 -3.636,-5.508 -5.948,-7.244c-1.819,-1.366 -4.768,-2.423 -4.768,0.941c0,0.672 0.385,5.643 0.611,6.451c0.606,2.169 2.454,3.089 4.437,3.195c0.19,0.01 0.222,0.261 0.043,0.324c-2.988,1.048 -3.518,3.196 -1.424,5.344c3.826,3.894 5.814,0.647 6.733,-1.514c0.224,-0.525 0.977,-0.525 1.2,0c0.92,2.161 2.907,5.408 6.733,1.514c2.093,-2.148 1.564,-4.296 -1.424,-5.344c-0.179,-0.063 -0.146,-0.313 0.043,-0.324c1.983,-0.106 3.83,-1.026 4.437,-3.195c0.226,-0.807 0.611,-5.779 0.611,-6.451c0,-3.364 -2.949,-2.307 -4.769,-0.941z"></path></g></g></svg>