<?xml version="1.0" encoding="UTF-8" standalone="no"?>
<svg
   width="1000pt"
   height="305pt"
   viewBox="0 0 1000 305"
   version="1.1"
   id="svg179"
   sodipodi:docname="ieee_cs_.svg"
   inkscape:version="1.2.2 (b0a84865, 2022-12-01)"
   xmlns:inkscape="http://www.inkscape.org/namespaces/inkscape"
   xmlns:sodipodi="http://sodipodi.sourceforge.net/DTD/sodipodi-0.dtd"
   xmlns="http://www.w3.org/2000/svg"
   xmlns:svg="http://www.w3.org/2000/svg">
  <defs
     id="defs183" />
  <sodipodi:namedview
     id="namedview181"
     pagecolor="#ffffff"
     bordercolor="#000000"
     borderopacity="0.25"
     inkscape:showpageshadow="2"
     inkscape:pageopacity="0.0"
     inkscape:pagecheckerboard="0"
     inkscape:deskcolor="#d1d1d1"
     inkscape:document-units="pt"
     showgrid="false"
     inkscape:zoom="0.9345"
     inkscape:cx="666.66667"
     inkscape:cy="203.85233"
     inkscape:window-width="1390"
     inkscape:window-height="1205"
     inkscape:window-x="869"
     inkscape:window-y="263"
     inkscape:window-maximized="0"
     inkscape:current-layer="svg179" />
  <g
     id="#a7a9abff">
    <path
       fill="#a7a9ab"
       opacity="1.00"
       d=" M 362.38 0.00 L 365.13 0.00 C 366.56 1.45 367.10 3.38 366.47 5.35 C 347.29 94.89 328.18 184.43 309.02 273.97 C 307.32 281.01 306.49 288.24 304.29 295.15 C 304.00 298.62 303.20 302.08 301.20 305.00 L 300.73 305.00 C 299.39 304.55 296.53 304.13 297.06 302.01 C 297.40 297.75 298.66 293.64 299.50 289.47 C 319.23 197.21 338.95 104.96 358.68 12.70 C 359.60 8.39 360.06 3.86 362.38 0.00 Z"
       id="path130" />
  </g>
  <g
     id="#faa41aff">
    <path
       fill="#faa41a"
       opacity="1.00"
       d=" M 127.15 18.20 C 156.98 15.20 187.75 20.63 214.36 34.56 C 241.90 48.83 264.96 72.33 277.00 101.07 C 288.62 128.30 289.58 159.88 279.67 187.78 C 269.68 216.34 248.86 240.54 223.13 256.20 C 177.77 284.20 117.54 285.65 70.71 260.30 C 45.40 246.76 24.02 225.42 11.78 199.34 C 6.12 187.26 2.28 174.26 0.98 160.97 C 0.98 152.34 1.04 143.70 0.93 135.07 C 4.11 103.08 21.12 73.20 45.57 52.60 C 68.36 33.05 97.37 21.30 127.15 18.20 M 148.92 45.68 C 131.92 51.42 114.11 54.13 96.44 56.74 C 91.34 58.77 91.72 67.17 96.31 69.65 C 102.80 70.88 109.50 70.74 115.94 72.30 C 118.02 72.79 120.10 74.05 120.73 76.22 C 122.76 82.60 121.69 89.42 122.07 96.00 C 123.13 126.62 121.66 157.24 122.00 187.86 C 136.20 190.28 150.79 190.36 165.00 188.00 C 165.00 160.15 165.00 132.30 165.00 104.46 C 172.83 105.88 180.77 107.97 187.55 112.28 C 195.24 117.26 199.70 126.04 200.88 134.96 C 202.07 144.27 202.08 153.73 200.95 163.05 C 200.08 169.89 197.48 176.69 192.74 181.79 C 186.84 188.36 178.25 191.50 169.82 193.32 C 152.49 196.88 134.41 196.86 117.11 193.10 C 108.13 191.09 98.95 187.32 93.20 179.80 C 86.89 171.64 85.96 160.86 85.87 150.90 C 85.80 139.79 86.26 127.58 93.40 118.44 C 98.87 111.24 107.72 108.12 116.10 105.77 C 115.92 100.29 115.81 94.81 115.72 89.33 C 96.75 92.08 77.12 97.38 62.48 110.40 C 51.23 120.20 45.04 135.15 45.44 150.00 C 45.26 164.94 52.63 179.37 64.08 188.79 C 80.23 202.32 101.38 208.16 121.97 210.40 C 121.97 214.90 122.10 219.51 120.79 223.87 C 120.26 226.16 118.25 227.74 116.02 228.20 C 109.50 229.68 102.71 228.89 96.14 229.99 C 90.67 232.27 91.56 242.96 98.00 243.12 C 124.64 242.35 151.30 242.47 177.95 242.80 C 182.25 242.70 186.61 243.61 190.86 242.82 C 195.49 240.60 195.63 233.05 191.55 230.20 C 184.82 228.69 177.73 229.81 171.01 228.19 C 168.80 227.75 166.82 226.13 166.22 223.91 C 164.98 219.53 165.07 214.94 165.02 210.43 C 184.52 208.42 204.33 203.04 220.27 191.21 C 231.07 183.25 239.23 171.32 241.25 157.92 C 244.23 140.63 238.14 121.78 224.72 110.25 C 208.33 95.91 186.19 90.71 165.04 88.60 C 164.86 75.34 165.01 62.06 165.87 48.82 C 166.35 45.18 162.38 42.40 159.02 42.83 C 155.52 43.22 152.26 44.67 148.92 45.68 Z"
       id="path133" />
    <path
       fill="#faa41a"
       opacity="1.00"
       d=" M 226.19 270.09 C 231.13 270.02 236.07 269.94 241.01 270.18 C 240.76 271.11 240.47 272.03 240.15 272.95 C 238.44 273.10 236.71 273.08 235.00 273.08 C 235.00 278.29 235.00 283.49 235.01 288.69 C 234.26 288.69 232.76 288.68 232.01 288.68 C 231.90 283.48 231.92 278.28 231.97 273.08 C 230.06 273.05 228.15 273.02 226.25 272.98 C 226.24 272.25 226.21 270.81 226.19 270.09 Z"
       id="path135" />
    <path
       fill="#faa41a"
       opacity="1.00"
       d=" M 243.14 269.98 C 244.07 269.99 245.93 270.02 246.86 270.03 C 248.87 274.09 250.86 278.17 252.78 282.27 C 255.00 278.26 256.91 274.08 258.95 269.97 C 259.86 269.98 261.67 270.00 262.58 270.01 C 262.59 276.30 262.61 282.58 262.57 288.87 C 261.89 288.75 260.52 288.50 259.84 288.38 C 259.56 283.84 259.88 279.29 259.70 274.75 C 257.40 278.82 256.17 283.54 253.12 287.14 C 249.40 284.18 248.62 278.80 246.18 274.83 C 246.12 279.42 246.17 284.02 246.19 288.62 C 245.41 288.62 243.86 288.61 243.09 288.61 C 243.13 282.40 243.07 276.19 243.14 269.98 Z"
       id="path137" />
  </g>
  <g
     id="#000000ff">
    <path
       fill="#000000"
       opacity="1.00"
       d=" M 419.06 23.14 C 424.78 23.30 430.50 23.13 436.21 22.97 C 435.42 40.91 436.02 58.86 436.28 76.81 C 430.59 76.72 424.90 76.76 419.21 76.86 C 419.14 58.96 419.80 41.05 419.06 23.14 Z"
       id="path140" />
    <path
       fill="#000000"
       opacity="1.00"
       d=" M 447.37 23.13 C 459.03 23.16 470.69 23.15 482.35 23.14 C 482.18 26.87 481.96 30.60 481.90 34.33 C 475.87 34.44 469.85 34.38 463.83 34.36 C 463.84 37.54 463.84 40.72 463.84 43.91 C 469.52 43.77 475.19 43.67 480.87 43.72 C 480.68 47.37 480.59 51.03 480.13 54.66 C 474.71 54.65 469.29 54.66 463.87 54.65 C 463.88 58.09 463.88 61.53 463.87 64.97 C 470.55 65.09 477.21 64.78 483.89 64.61 C 483.37 68.61 483.22 72.65 482.73 76.65 C 471.00 76.91 459.26 76.59 447.53 76.89 C 447.91 58.97 447.98 41.05 447.37 23.13 Z"
       id="path142" />
    <path
       fill="#000000"
       opacity="1.00"
       d=" M 491.54 23.14 C 503.19 23.14 514.84 23.18 526.49 23.12 C 526.29 26.86 526.12 30.60 526.08 34.35 C 520.05 34.41 514.03 34.40 508.00 34.36 C 508.02 37.53 508.02 40.70 508.02 43.87 C 513.69 43.79 519.37 43.70 525.04 43.69 C 525.05 47.34 524.81 50.99 524.38 54.62 C 518.93 54.69 513.49 54.64 508.05 54.66 C 508.12 58.10 508.11 61.55 508.10 64.99 C 514.73 65.05 521.36 64.85 527.99 64.57 C 527.57 68.61 527.44 72.68 527.08 76.73 C 515.32 76.82 503.57 76.61 491.81 76.91 C 491.97 58.99 492.31 41.05 491.54 23.14 Z"
       id="path144" />
    <path
       fill="#000000"
       opacity="1.00"
       d=" M 535.73 23.17 C 547.39 23.13 559.06 23.16 570.72 23.15 C 570.69 26.91 570.41 30.66 570.09 34.40 C 564.14 34.36 558.19 34.41 552.24 34.36 C 552.27 37.54 552.27 40.71 552.26 43.88 C 557.95 43.79 563.65 43.67 569.35 43.72 C 569.19 47.32 568.85 50.90 568.73 54.50 C 563.29 54.80 557.83 54.60 552.39 54.64 C 552.43 58.09 552.42 61.54 552.42 64.99 C 558.99 65.00 565.56 64.95 572.12 64.48 C 572.03 68.59 571.72 72.68 571.17 76.75 C 559.39 76.73 547.61 76.74 535.84 76.82 C 536.43 58.95 536.36 41.04 535.73 23.17 Z"
       id="path146" />
    <path
       fill="#000000"
       opacity="1.00"
       d=" M 399.03 115.05 C 407.83 105.65 421.50 101.47 434.12 103.48 C 442.77 104.83 450.85 109.05 457.10 115.16 C 453.82 119.04 450.56 122.95 447.48 126.99 C 442.14 121.05 434.37 116.66 426.17 117.55 C 419.52 118.12 413.23 121.92 409.73 127.62 C 404.99 134.99 405.00 145.01 409.54 152.47 C 413.72 159.43 421.92 163.77 430.05 163.02 C 436.64 162.35 442.61 158.89 447.42 154.46 C 450.57 158.06 453.91 161.50 457.19 165.00 C 448.09 174.07 434.93 179.73 421.99 177.78 C 411.62 176.49 401.74 170.85 395.84 162.15 C 385.98 148.23 387.06 127.41 399.03 115.05 Z"
       id="path148" />
    <path
       fill="#000000"
       opacity="1.00"
       d=" M 491.67 103.83 C 501.56 101.94 512.21 103.18 521.02 108.21 C 531.11 113.76 538.28 124.35 539.47 135.83 C 541.09 147.78 536.47 160.41 527.33 168.32 C 511.66 182.44 484.74 181.23 470.66 165.41 C 458.66 152.55 457.99 130.86 469.23 117.32 C 474.78 110.32 482.93 105.54 491.67 103.83 M 493.52 118.63 C 485.49 121.28 479.54 128.80 478.41 137.12 C 476.11 149.97 486.81 163.47 499.97 163.68 C 511.52 164.38 521.83 154.39 522.63 143.08 C 523.68 134.70 519.81 125.94 512.82 121.19 C 507.29 117.28 499.88 116.45 493.52 118.63 Z"
       id="path150" />
    <path
       fill="#000000"
       opacity="1.00"
       d=" M 551.52 104.05 C 557.63 104.09 563.74 104.14 569.85 104.02 C 577.52 118.89 585.06 133.82 592.61 148.75 C 600.21 133.87 607.66 118.92 615.21 104.02 C 621.31 104.16 627.42 104.07 633.52 104.07 C 633.51 128.37 633.50 152.66 633.53 176.96 C 628.57 176.94 623.61 176.91 618.65 176.98 C 618.69 160.61 618.60 144.23 618.71 127.86 C 611.64 141.75 604.80 155.77 597.86 169.73 C 594.32 169.67 590.79 169.68 587.27 169.71 C 580.25 155.78 573.38 141.78 566.31 127.87 C 566.44 144.24 566.34 160.61 566.37 176.98 C 561.42 176.92 556.46 176.92 551.51 176.98 C 551.51 152.67 551.49 128.36 551.52 104.05 Z"
       id="path152" />
    <path
       fill="#000000"
       opacity="1.00"
       d=" M 650.63 104.04 C 661.75 104.18 672.88 103.99 684.01 104.13 C 691.72 104.61 700.01 106.68 705.25 112.77 C 711.04 119.32 711.73 128.84 710.02 137.06 C 708.52 144.61 702.89 151.05 695.73 153.79 C 686.64 157.49 676.66 155.73 667.13 156.12 C 667.16 163.06 667.13 170.01 667.15 176.96 C 661.64 176.94 656.13 176.91 650.63 176.99 C 650.63 152.67 650.62 128.35 650.63 104.04 M 667.07 117.98 C 667.20 126.09 667.16 134.20 667.09 142.31 C 674.12 141.91 681.43 143.32 688.24 141.14 C 694.91 138.69 696.66 130.06 693.91 124.12 C 691.96 120.10 687.36 118.10 683.07 118.01 C 677.73 117.90 672.40 118.02 667.07 117.98 Z"
       id="path154" />
    <path
       fill="#000000"
       opacity="1.00"
       d=" M 721.12 104.08 C 726.59 104.09 732.06 104.09 737.54 104.07 C 737.50 117.72 737.54 131.37 737.51 145.03 C 737.50 148.84 737.81 152.83 739.79 156.19 C 744.90 165.40 759.81 166.39 766.22 158.11 C 768.64 154.94 769.56 150.89 769.52 146.97 C 769.53 132.66 769.51 118.35 769.53 104.04 C 775.06 104.12 780.59 104.07 786.13 104.09 C 786.09 118.72 786.15 133.35 786.10 147.97 C 785.99 156.08 783.20 164.45 777.08 170.00 C 770.68 176.06 761.60 178.25 753.00 178.17 C 744.77 177.97 736.19 175.66 730.05 169.92 C 724.00 164.38 721.11 156.04 721.12 147.95 C 721.13 133.33 721.13 118.70 721.12 104.08 Z"
       id="path156" />
    <path
       fill="#000000"
       opacity="1.00"
       d=" M 794.65 104.04 C 815.01 104.14 835.37 104.07 855.74 104.08 C 855.73 108.78 855.71 113.48 855.75 118.18 C 848.29 118.14 840.83 118.20 833.38 118.14 C 833.40 137.76 833.38 157.37 833.39 176.98 C 827.88 176.92 822.38 176.92 816.89 176.98 C 816.91 157.37 816.87 137.76 816.91 118.16 C 809.48 118.19 802.05 118.15 794.62 118.18 C 794.66 113.47 794.63 108.75 794.65 104.04 Z"
       id="path158" />
    <path
       fill="#000000"
       opacity="1.00"
       d=" M 865.56 104.04 C 884.10 104.11 902.64 104.12 921.19 104.04 C 921.19 108.69 921.18 113.34 921.20 118.00 C 908.15 117.96 895.10 118.00 882.06 117.97 C 882.19 123.16 882.12 128.35 882.10 133.53 C 893.82 133.49 905.54 133.55 917.26 133.50 C 917.25 138.04 917.22 142.59 917.28 147.13 C 905.56 147.11 893.84 147.14 882.12 147.11 C 882.13 152.51 882.15 157.90 882.10 163.30 C 895.54 163.26 908.97 163.34 922.41 163.26 C 922.40 167.83 922.40 172.40 922.40 176.98 C 903.45 176.92 884.51 176.91 865.56 176.98 C 865.55 152.67 865.54 128.36 865.56 104.04 Z"
       id="path160" />
    <path
       fill="#000000"
       opacity="1.00"
       d=" M 936.18 104.08 C 947.46 104.13 958.73 104.03 970.01 104.12 C 978.04 104.52 986.71 106.55 992.27 112.82 C 998.50 119.74 999.03 130.03 996.72 138.66 C 994.96 145.05 990.18 150.09 984.38 153.07 C 989.78 160.69 993.97 169.18 1000.00 176.32 L 1000.00 176.78 C 993.69 177.05 987.38 176.90 981.07 176.96 C 977.06 170.08 973.54 162.92 969.30 156.19 C 963.80 155.99 958.29 156.22 952.79 156.11 C 952.80 163.06 952.79 170.01 952.81 176.96 C 947.26 176.93 941.71 176.93 936.17 176.96 C 936.20 152.67 936.18 128.37 936.18 104.08 M 952.77 117.98 C 952.83 126.09 952.80 134.21 952.78 142.32 C 958.17 142.27 963.56 142.36 968.96 142.30 C 972.53 142.25 976.33 141.40 978.95 138.80 C 982.45 135.36 982.90 129.85 981.55 125.35 C 980.11 120.93 975.51 118.31 971.05 118.07 C 964.96 117.84 958.86 118.06 952.77 117.98 Z"
       id="path162" />
    <path
       fill="#000000"
       opacity="1.00"
       d=" M 386.93 207.49 C 399.45 205.09 412.56 208.12 423.47 214.49 C 421.56 219.22 419.24 223.77 417.11 228.40 C 408.82 223.84 399.13 219.39 389.50 221.60 C 384.80 222.53 383.56 228.87 387.22 231.77 C 396.73 238.20 409.85 237.48 418.40 245.66 C 427.83 254.45 424.75 271.87 413.37 277.59 C 397.15 285.88 376.60 281.34 362.89 270.14 C 365.24 265.71 367.41 261.17 369.55 256.63 C 377.42 263.26 387.53 268.34 398.07 267.53 C 401.71 267.29 406.16 265.18 406.27 261.02 C 406.77 257.63 404.10 255.00 401.28 253.70 C 392.42 249.64 381.92 249.17 374.03 243.05 C 366.71 237.54 365.54 226.50 369.80 218.77 C 373.21 212.43 380.10 208.88 386.93 207.49 Z"
       id="path164" />
    <path
       fill="#000000"
       opacity="1.00"
       d=" M 465.01 207.15 C 473.39 206.31 482.12 207.39 489.63 211.38 C 500.76 216.90 508.68 228.45 509.58 240.86 C 510.56 250.59 507.54 260.64 501.26 268.15 C 489.41 282.67 466.98 286.05 450.78 277.17 C 441.22 272.15 433.94 262.75 431.98 252.08 C 429.89 242.16 431.90 231.34 437.81 223.05 C 443.95 214.05 454.29 208.46 465.01 207.15 M 466.51 221.70 C 458.03 223.29 450.80 230.14 448.90 238.58 C 445.95 249.03 451.60 261.02 461.47 265.50 C 470.36 269.98 482.05 267.03 487.86 258.99 C 493.96 251.13 494.40 239.40 488.79 231.16 C 484.21 223.86 474.96 219.97 466.51 221.70 Z"
       id="path166" />
    <path
       fill="#000000"
       opacity="1.00"
       d=" M 520.93 223.02 C 527.62 213.26 539.26 207.41 550.99 206.96 C 562.50 206.27 574.16 210.92 582.25 219.10 C 578.97 222.99 575.76 226.94 572.58 230.91 C 567.92 225.56 561.27 221.47 554.02 221.35 C 546.87 221.06 539.68 224.62 535.60 230.51 C 530.13 238.11 529.96 249.06 535.12 256.86 C 539.22 263.60 547.31 267.55 555.14 266.97 C 561.75 266.26 567.80 262.85 572.58 258.33 C 575.82 261.84 579.05 265.38 582.35 268.84 C 574.22 277.12 562.72 282.44 551.01 282.02 C 540.71 281.62 530.45 277.22 523.64 269.37 C 512.45 256.91 511.18 236.68 520.93 223.02 Z"
       id="path168" />
    <path
       fill="#000000"
       opacity="1.00"
       d=" M 593.02 208.13 C 598.55 208.13 604.09 208.16 609.64 208.11 C 609.62 232.34 609.61 256.57 609.64 280.80 C 604.09 280.75 598.55 280.78 593.02 280.78 C 593.02 256.56 593.01 232.35 593.02 208.13 Z"
       id="path170" />
    <path
       fill="#000000"
       opacity="1.00"
       d=" M 626.74 208.08 C 645.30 208.18 663.87 208.15 682.43 208.10 C 682.41 212.66 682.42 217.23 682.42 221.79 C 669.32 221.70 656.21 221.77 643.11 221.75 C 643.19 226.99 643.18 232.23 643.12 237.47 C 654.85 237.47 666.59 237.50 678.33 237.45 C 678.30 242.03 678.31 246.61 678.32 251.19 C 666.59 251.13 654.87 251.20 643.14 251.15 C 643.15 256.46 643.20 261.77 643.11 267.08 C 656.57 267.04 670.04 267.13 683.51 267.03 C 683.52 271.62 683.50 276.22 683.52 280.82 C 664.59 280.74 645.66 280.74 626.73 280.82 C 626.75 256.57 626.74 232.33 626.74 208.08 Z"
       id="path172" />
    <path
       fill="#000000"
       opacity="1.00"
       d=" M 690.11 208.12 C 710.46 208.12 730.82 208.20 751.18 208.08 C 751.20 212.72 751.17 217.36 751.21 222.00 C 743.76 222.00 736.31 222.00 728.86 222.00 C 728.89 241.59 728.85 261.19 728.88 280.78 C 723.41 280.77 717.93 280.76 712.46 280.79 C 712.52 261.19 712.44 241.60 712.50 222.00 C 705.02 222.00 697.54 222.00 690.06 222.00 C 690.16 217.37 690.11 212.74 690.11 208.12 Z"
       id="path174" />
    <path
       fill="#000000"
       opacity="1.00"
       d=" M 806.16 208.15 C 811.74 208.11 817.33 208.18 822.91 208.09 C 814.01 224.54 805.14 241.01 796.25 257.47 C 796.30 265.25 796.26 273.03 796.28 280.82 C 790.78 280.75 785.28 280.74 779.78 280.82 C 779.81 274.22 779.77 267.62 779.82 261.02 C 779.74 259.58 780.00 258.02 779.18 256.75 C 770.38 240.47 761.43 224.27 752.72 207.94 C 758.23 207.95 763.76 207.96 769.28 207.94 C 775.48 218.49 781.42 229.19 787.59 239.76 C 787.79 239.82 788.19 239.94 788.39 240.00 C 794.25 229.35 800.26 218.78 806.16 208.15 Z"
       id="path176" />
  </g>
</svg>
