<svg xmlns="http://www.w3.org/2000/svg" width="2048" height="242" viewBox="60.409 67.409 1059.183 125.183">
  
  <g fill="#201713">
    <path d="M 104.047771,174.996957 L 153.194294,85.003043 Q 153.742065,84.000000 154.884933,84.000000 L 170.115067,84.000000 Q 171.257935,84.000000 171.805706,85.003043 L 220.952229,174.996957 Q 221.500000,176.000000 220.357132,176.000000 L 202.134931,176.000000 Q 200.992063,176.000000 200.464177,174.986351 L 163.027886,103.100953 Q 162.500000,102.087304 161.972114,103.100953 L 124.535823,174.986351 Q 124.007937,176.000000 122.865069,176.000000 L 104.642868,176.000000 Q 103.500000,176.000000 104.047771,174.996957 Z"/>
    <path fill-rule="evenodd" d="M 287.00,84.00 H 357.07 A 22.93,22.93 0 0 1 380.00,106.93 V 121.82 A 22.93,22.93 0 0 1 357.07,144.75 H 348.09 L 380.00,176.00 H 356.29 L 324.37,144.75 H 303.59 V 176.00 H 287.00 Z M 303.59,100.59 H 357.07 A 6.34,6.34 0 0 1 363.41,106.93 V 121.82 A 6.34,6.34 0 0 1 357.07,128.16 H 303.59 Z"/>
    <path d="M 549.50,84.00 H 476.09 Q 459.50,84.00 459.50,100.59 V 159.41 Q 459.50,176.00 476.09,176.00 H 549.50 V 159.41 H 482.43 Q 476.09,159.41 476.09,153.07 V 106.93 Q 476.09,100.59 482.43,100.59 H 549.50 Z"/>
    <path d="M 629.071434,84.000000 L 644.519836,84.000000 Q 645.091270,84.000000 645.091270,84.571434 L 645.091270,125.732931 Q 645.091270,126.304365 645.662704,126.304365 L 705.337296,126.304365 Q 705.908730,126.304365 705.908730,125.732931 L 705.908730,84.571434 Q 705.908730,84.000000 706.480164,84.000000 L 721.928566,84.000000 Q 722.500000,84.000000 722.500000,84.571434 L 722.500000,175.428566 Q 722.500000,176.000000 721.928566,176.000000 L 706.480164,176.000000 Q 705.908730,176.000000 705.908730,175.428566 L 705.908730,143.467069 Q 705.908730,142.895635 705.337296,142.895635 L 645.662704,142.895635 Q 645.091270,142.895635 645.091270,143.467069 L 645.091270,175.428566 Q 645.091270,176.000000 644.519836,176.000000 L 629.071434,176.000000 Q 628.500000,176.000000 628.500000,175.428566 L 628.500000,84.571434 Q 628.500000,84.000000 629.071434,84.000000 Z"/>
    <path fill-rule="evenodd" d="M 810.591270,84.000000 H 882.408730 Q 899.000000,84.000000 899.000000,100.591270 V 159.408730 Q 899.000000,176.000000 882.408730,176.000000 H 810.591270 Q 794.000000,176.000000 794.000000,159.408730 V 100.591270 Q 794.000000,84.000000 810.591270,84.000000 Z M 816.928571,100.591270 H 876.071429 Q 882.408730,100.591270 882.408730,106.928571 V 153.071429 Q 882.408730,159.408730 876.071429,159.408730 H 816.928571 Q 810.591270,159.408730 810.591270,153.071429 V 106.928571 Q 810.591270,100.591270 816.928571,100.591270 Z"/>
    <path d="M 970.071434,84.000000 L 985.873001,84.000000 Q 986.444435,84.000000 986.833608,84.418428 L 1048.519558,150.741572 Q 1048.908730,151.160000 1048.908730,150.588566 L 1048.908730,84.571434 Q 1048.908730,84.000000 1049.480164,84.000000 L 1064.928566,84.000000 Q 1065.500000,84.000000 1065.500000,84.571434 L 1065.500000,175.428566 Q 1065.500000,176.000000 1064.928566,176.000000 L 1049.126999,176.000000 Q 1048.555565,176.000000 1048.166392,175.581572 L 986.480442,109.258428 Q 986.091270,108.840000 986.091270,109.411434 L 986.091270,175.428566 Q 986.091270,176.000000 985.519836,176.000000 L 970.071434,176.000000 Q 969.500000,176.000000 969.500000,175.428566 L 969.500000,84.571434 Q 969.500000,84.000000 970.071434,84.000000 Z"/>
  </g>
</svg>