<svg xmlns="http://www.w3.org/2000/svg" height="800" width="1200" viewBox="-83.849415 -24.54545 726.69493 147.2727"><path d="M171.185 31.127c-.112-.148-.31-.219-.595-.219-3.297-.386-6.125-1.135-8.376-2.228-2.105-1.032-4.358-2.588-6.684-4.545 1.372-.152 2.975-.257 4.871-.289 3.001-.047 3.609-.13 3.81-.189.509-.144.618-.43.618-.642 0-.489-.291-.897-.848-1.202-.5-.284-1.067-.426-1.688-.426-.472 0-1.472.189-3.06.576 0 0-3.383.667-4.474.883.078-.496.259-1.617.259-1.617-.004.023.15-.263.15-.263l.226-.558c0-.459-.477-.863-1.432-1.244 2.244-.547 4.239-.978 5.859-1.243.459.004.484-.335.484-.401 0-.221-.12-.539-1.511-1.529-.987-.711-1.707-1.059-2.193-1.059-.072 0-.307 0-.438.174-.025.039-.192.604-.249.803-.866.799-3.541 2.087-7.991 3.83l-.325.126.407.53.138-.007c1.338-.069 2.759-.315 4.208-.732l-.004.009c.007.054.359 1.722.359 1.722.13.572.196 1.139.196 1.689 0 .009-.002.02-.002.034-.413.065-4.786.761-4.786.761-2.255.399-4.152.653-5.644.76l-.594.045.425.406c.875.839 1.619 1.245 2.277 1.245.174 0 .604-.041 2.361-.415 0 0 2.253-.479 3.439-.733-2.76 3.912-6.692 7.072-11.777 9.352l-.156.067v.35c0 .056.023.335.441.335.834 0 1.903-.271 3.272-.821 1.333-.545 2.526-1.166 3.558-1.849a23.342 23.342 0 002.925-2.313c.916-.862 1.775-1.767 2.558-2.702 0 0 1.132-1.5 1.777-2.351-.045 1.035-.16 1.992-.389 2.804-.301 1.063-.438 1.709-.438 2.037 0 .593.24 1.267.717 1.99l.023.04.099.062.088.063c.015.013.367.15.367.15.342 0 .594-.393.905-1.413.267-.832.401-1.84.401-3 0 0-.083-1.964-.132-3.005.73.879 2.074 2.247 4.153 4.207 2.597 2.45 4.334 3.637 5.328 3.637 1.033 0 3.308-.348 6.945-1.072l.157-.029.045-.156a.526.526 0 00.023-.162c.005-.122-.037-.215-.083-.273m-11.928.901c-1.009-.431-1.749-.642-2.248-.642-.091.018-1.861.654-1.861.654-1.388.415-2.682.709-3.83.871l-1.858.245-.635-.151-1.086-.179c-.687 0-.761.392-.761.56.019.105.517 1.291.517 1.291.137.388.25.989.317 1.763l.105 2.76c0 1.07-.066 1.858-.202 2.341l-.204 1.275c0 .754.148 1.482.446 2.164.372.83.631 1.151.933 1.151.314 0 .561-.266.8-2.829.211.02.459.045.459.045l2.525-.286 2.173-.281c.303 0 .541.096.729.291.229.226.432.546.604.951l.597 1.537.481 1.376.138.021.533.116.097-.081c1.45-1.178 2.187-3.228 2.187-6.086l-.123-4.18c0-1.808.213-2.36.339-2.524.392-.516.441-.728.441-.865 0-.431-.496-.833-1.613-1.308m-1.91 10.029l-.413-.413c-.43-.456-.872-.682-1.306-.682-.544 0-1.544.16-3.055.501-1.283.276-2.187.428-2.805.493-.004-.469-.036-2.722-.042-3.149 1.168-.007 2.466-.125 3.865-.357 2.375-.389 2.421-.446 2.508-.555-.022.022.145-.344.145-.344 0-.33-.239-.619-.714-.853-.412-.221-.857-.329-1.324-.329-.516 0-1.175.148-1.971.441l-1.521.485c-.003 0-.596.14-.984.226.008-.254.021-.504.021-.78 0-.662-.034-1.419-.09-2.216.783-.018 1.57-.085 2.337-.262 2.153-.467 3.612-.7 4.337-.7.271 0 .485.073.666.223.172.137.263.3.282.51l.138 1.95.109 2.85c0 1.804-.1 2.589-.183 2.961m59.917-6.774c-3.662-1.106-6.293-2.134-7.837-3.044-1.442-.862-3.478-2.417-6.013-4.571 1.716-.269 3.422-.464 5.051-.504l3.307-.125c.66-.064.794-.342.794-.563 0-.294-.238-.627-.788-1.088-.491-.427-1.066-.648-1.707-.648-1.189 0-3.089.36-5.611 1.038.202-.671.931-3.147 1.01-3.416.25-.037 1.041-.15 1.041-.15.002 0 1.913-.191 1.913-.191.715-.063 1.662-.218 1.662-.883 0-.461-.29-1.007-1.665-1.007-.428 0-1.192.132-2.185.355.34-.75 1.64-3.625 1.64-3.625l-.04-.087c-.136-.377-.628-.737-1.559-1.144-.869-.387-1.502-.565-1.921-.554l-.092.002-.073.056c-.237.199-.289.425-.289.578l.289.888c.176.359.261.833.261 1.418 0 .359-.148 1.387-.428 2.982-.295.064-3.893.771-4.438.877.022-.414.072-1.458.072-1.458l.158-2.036-.124-.067c-.967-.678-1.933-1.022-2.884-1.022-.638 0-.687.39-.687.511 0 .09 0 .099.545 1.086.327.574.559 1.274.697 2.079 0 0 .197.871.299 1.345-.448.087-3.926.78-3.926.78l.397.351c.567.504 1.23.755 1.965.755.371 0 .95-.12 1.694-.321.06.46.366 2.726.423 3.124-2.311.456-4.511.783-6.52.962l-.464.042.276.378c.533.729 1.346 1.099 2.413 1.099.601 0 1.28-.103 2.021-.308 0 0 .685-.167 1.181-.285-1.304 3.709-4.081 7.183-8.338 10.311l-.128.093c.139-.398.297-.82.489-1.287.002 0 3.288-6.99 3.288-6.99l-.769-.002-2.284 2.908c-.999 1.349-1.717 2.215-2.124 2.562-.374.315-.762.484-1.132.507-.602.032-.909.221-.909.558 0 .496.196 1.368.6 2.673.441 1.437.885 2.079 1.437 2.079.7 0 .876-1.016.935-1.351.076-.416.214-.908.398-1.467l.444.326.124-.039c2.894-.827 5.271-2.648 7.108-5.342.173.912.283 1.946.283 3.16l-.106 2.933c0 1.087.397 2.108 1.178 3.05.819.958 2.485 1.426 5.096 1.426 1.63 0 3.208-.176 4.691-.523 1.613-.38 2.398-.938 2.398-1.71 0-.377-.268-.678-.799-.898l-1.093-.305c-.299.002-.651.116-1.052.334-.327.174-.964.365-1.894.559-.934.185-1.952.276-3.03.276-1.157 0-2.03-.112-2.603-.333-.505-.21-.792-.673-.875-1.419 0 0-.112-1.5-.157-2.113.294.023.691.049.691.049.349 0 1.292-.128 2.879-.393 2.438-.425 2.617-.646 2.717-.767l.269-.611c0-.447-.428-.693-.757-.824.166-.365.609-1.335.609-1.335.143-.317.374-.583.685-.795.472-.33.652-.542.652-.768-.004-.381-.422-.777-1.341-1.291-.863-.495-1.436-.726-1.813-.726-.108.021-1.581.678-1.581.678l-1.655.555c-.619.158-1.217.239-1.765.239 0 0-.25-.039-.49-.079.365-.462 1.195-1.5 1.195-1.5 1.275-1.628 1.275-1.691 1.275-1.812 0-.218-.196-.506-.927-1.044.799-.157 2.702-.535 2.93-.58.187.213 3.536 3.964 3.536 3.964 1.252 1.4 2.333 2.495 3.3 3.358 1 .876 1.657 1.373 2.003 1.515.015.004 1.184.2 1.184.2.37 0 1.356-.126 3.019-.376 2.565-.388 2.687-.571 2.687-.865.001-.119-.057-.284-.336-.377m-28.165 4.344c.081-.059.145-.125.223-.189.021-.005.042-.015.064-.02l.007.004zm9.25-5.344c.479-.002 1.15-.094 2.045-.285l2.002-.332c.08 0 .113.018.13.112.004.019.086.796.086.796l-.102 1.179-.237.702c-.019.025-.141.166-.955.367l-1.612.387s-.892.112-1.358.171v-3.097zm1.29-7.54a959.67 959.67 0 01-.059-3.244c.361-.069 3.447-.662 4.079-.783-.14.61-.726 3.161-.79 3.438-.286.051-2.741.501-3.23.589m-7.192-3.691c.392 0 1.044-.165 1.044-1.262 0-.89-.407-1.619-1.213-2.165-.771-.535-1.787-.808-3.021-.808l-1.217.126.317.364c2.552 3.358 3.56 3.745 4.09 3.745m-3.207 6.715c.439 0 1.183-.182 1.183-1.414 0-.76-.294-1.424-.878-1.983-.565-.552-1.776-.914-3.697-1.1l-.464-.04.197.414c1.31 2.773 2.506 4.123 3.659 4.123m66.67-6.963c-1.175-.868-2.028-1.294-2.601-1.294-.1 0-.292.035-1.352.445-.674.267-2.659.61-5.849 1.024.093-2.56.267-4.32.508-5.194l.166-.834c0-.521-.381-.995-1.176-1.451-.716-.411-1.583-.702-2.57-.864l-.068-.012-.067.023c-.564.216-.683.575-.683.835l.04.324c.507.714.867 1.526 1.117 2.505.256.962.387 2.646.396 4.972-2.484.388-4.251.584-5.21.584l-2.314-.226-2.418-.259-.05.05c-.125.076-.268.234-.268.558l.136.542c.522.522.919 1.115 1.233 1.836.319.73.596 2.323.83 4.74.262 2.679.809 3.927 1.735 3.927.442 0 .645-.595.744-2.094.386-.039 5.106-.462 5.62-.507-.014.527-.101 5.272-.101 5.272l-.179 5.514c0 .438.141 1.353.428 2.805.396 1.978.642 2.343.989 2.343h.099l.165-.127c.397-.357.92-1.376.92-6.026 0 0-.121-8.684-.141-9.931 3.328-.256 5.764-.389 7.221-.389.438 0 1.358 0 1.358-.548 0-.484-.246-1.074-1.146-1.363 1.522-2.353 2.61-3.798 3.205-4.239.912-.674 1.099-.953 1.099-1.186-.002-.218-.142-.537-1.816-1.755m-2.933 2.217c0 .439-.142 1.321-.418 2.62-.256 1.222-.675 1.992-1.243 2.286-.585.289-2.383.574-5.29.847 0-.523.027-5.825.027-6.236 2.7-.43 4.63-.653 5.714-.653.687 0 .911.153.975.248.16.186.235.479.235.888m-9.204-.196v6.143c-.412.041-5.134.488-5.614.537-.011-2.271-.143-4.236-.391-5.851.441-.061 5.49-.757 6.005-.829m44.562-5.559c1.585 1.28 2.759 1.904 3.589 1.904.5 0 1.099-.313 1.099-1.807 0-.599-.347-1.177-1.024-1.709-.651-.514-1.354-.827-2.101-.928-.692-.108-1.868-.183-3.584-.232l-.273-.006-.07.309c-.001.253.185.68 2.364 2.469m18.367 22.563c-4.051-.407-7.324-1.176-9.74-2.282-2.34-1.094-4.481-2.625-6.374-4.535.362-.798.746-1.908 1.149-3.363l.845-2.964c.134-.383.296-.667.466-.839l.396-.701c0-.28-.258-.595-.894-1.094-.351-.276-.729-.431-1.094-.612 2.795-.501 5.761-.926 8.864-1.241.669-.399.939-.744.939-1.093 0-.417-.36-.773-1.093-1.094-.658-.284-1.367-.429-2.109-.429-1.189 0-2.383.329-3.565.971-4.173 1.788-9.462 2.749-15.711 2.84l-.482.006.271.406c.648.957 1.664 1.443 3.019 1.443 1.434 0 4.227-.503 8.261-1.479-.028.09-.121.14-.121.243 0 .026.125 1.287.125 1.287-.002 1.234-.405 3.197-1.187 5.763-.439-.505-1.785-2.056-1.785-2.056-.962-1.227-1.702-1.991-2.271-2.329-.55-.357-1.112-.536-1.658-.536-.389 0-1.575 0-1.575.761l.114.435.094-.002c2.078.948 4.191 2.806 6.296 5.492-2.132 2.81-6.2 4.67-12.147 5.513l-.039.515c.991.299 1.908.453 2.736.453 1.12 0 2.88-.358 5.235-1.058 2.286-.677 4.209-1.92 5.756-3.629 1.806 2.043 3.567 3.774 5.223 5.125 1.766 1.425 3.038 2.115 3.873 2.115.644 0 1.98-.227 4.081-.694l4.107-.813zm40.667-.772c-1.546-.373-3.033-1.028-4.417-1.951-1.377-.933-2.72-2.154-3.988-3.624-1.246-1.454-2.475-3.201-3.655-5.179.008-.142.07-1.452.087-1.779 1.397-.268 3.363-.525 5.943-.76l4.713-.482c.768-.126.885-.541.885-.777-.003-.422-.395-.823-1.223-1.259-.754-.406-1.678-.617-2.736-.617-.087 0-.241.002-2.552.852-1.395.513-3.062.885-4.933 1.122.07-3.379.257-5.603.542-6.56.335-1.07.491-1.732.491-2.08-.002-.489-.214-.887-.611-1.155-.335-.25-.887-.498-1.63-.727-.728-.233-1.466-.348-2.188-.348-.451 0-.728.243-.728.65 0 .207.119.396.352.581.958 1.128 1.456 3.234 1.456 6.229 0 0-.079 3.43-.094 3.829-.411.057-9.164 1.253-9.164 1.253l.277.362c.673.859 1.685 1.29 3.005 1.29.778 0 1.896-.168 3.325-.503 0 0 1.752-.378 2.505-.541-.561 6.675-3.947 11.278-10.106 13.652l.084.508c2.015.099 4.279-.781 6.748-2.619 2.332-1.742 4.025-4.434 5.081-7.942 1.466 2.646 3.127 5.183 4.975 7.521 2.713 3.41 3.796 3.803 4.375 3.803 1.955 0 4.796-.342 8.469-1.015l.011-.512zm32.527-22.862c.423.304.701.558.88.786-.233.292-2.269 2.899-2.269 2.899l.739-.184c1.047-.262 1.956-.865 2.751-1.73.181.212.56.644.56.644.424.512.822.814 1.232.939l.124.041.108-.083c.339-.249.513-.556.513-.902 0-.613-.467-1.305-1.33-2.083.193-.218.64-.737.64-.737.481-.545.726-1.103.726-1.645 0-.539-.646-.873-2.081-1.098l-.358-.054.053.354c.024.134.031.266.031.402 0 .62-.233 1.274-.648 1.94-.281-.139-.915-.452-.915-.452-.627-.325-1.185-.479-1.661-.455l-.447.027.245.381c.179.274.54.606 1.107 1.01m-1.86 9.309l.741-.133c.898-.18 2.013-.956 3.362-2.271.272.279 1.343 1.397 1.343 1.397l.751.167.032-.221.108-.575c0-.557-.442-1.228-1.255-2.016.139-.18.4-.534.4-.534.293-.367.442-.745.442-1.114 0-.058-.009-.123-.018-.18l-.013-.111-.092-.071c-.454-.331-.81-.487-1.091-.487-.292 0-.665.168-.806.993-.065.378-.128.548-.179.649-.614-.381-1.167-.598-1.662-.598l-1.141.147.582.382c.66.473 1.102.871 1.363 1.209-.231.286-1.03 1.251-1.03 1.251zm18.089-.275c-.804-.833-1.489-1.234-2.107-1.234l-1.623.33c-.754.174-1.768.273-2.935.307.124-.58.938-4.358.938-4.358.443-1.971.695-2.669.823-2.908.188-.338.412-.592.646-.759.365-.271.519-.473.519-.68 0-.206-.109-.462-1.453-1.288-1.267-.806-1.533-.874-1.682-.874-.076.002-.16.002-1.233.467-.648.273-1.578.538-2.751.783l-.562.118.452.348c.573.447 1.151.673 1.699.673l.97-.151.838-.148c.14 0 .414 0 .414.732 0 .383-.099.817-.237 1.273-.929-.004-2.169.11-3.702.342l-.434.062.259.355c.38.518.956.78 1.699.78l1.776-.142s.078.014.161.02c-.083.397-.317 1.513-.375 1.812-.35.029-3.677.33-3.677.33l.09.312c.13.434.503.948 1.529.948l1.151-.109c.009 0 .383-.042.664-.072-.084.483-.324 1.987-.375 2.285-.373.042-10.32 1.169-10.8 1.223-.053-.372-.231-1.729-.278-2.079.338-.074 1.081-.247 1.081-.247l1.26-.322.143-.105.137-.088c.187-.112.288-.272.288-.455 0-.072-.021-.142-.046-.216l-.028-.063-.053-.039c-.282-.229-.607-.344-.964-.344-.299 0-.718.12-1.272.362-.421.169-.655.227-.834.261-.062-.352-.264-1.455-.315-1.773.306-.099 1.232-.393 1.232-.393.601-.191 1.401-.514 1.401-1.083 0-.222-.091-.744-.918-.744-.368 0-.816.126-1.371.382 0 0-.443.155-.725.251-.058-.317-.127-.756-.127-.756s-.067-.786-.092-1.044c.244-.148 2.824-1.702 2.824-1.702l-.014-.166c-.037-.426-.328-.789-.868-1.081-.481-.281-.95-.42-1.386-.42-.67.004-.739.358-.739.511 0 .749-.307 1.467-.891 2.137-1.522.008-2.14.2-2.14.679l.404.607c.897.809 1.778 3.582 2.613 8.19-.438.089-3.228.624-3.526.682-.524-.907-1.046-1.445-1.587-1.565l-.333-.07.018.338c.054 1.322-.157 2.356-.629 3.072-.536.82-.788 1.467-.788 1.973 0 1.227.616 1.417.988 1.417.535 0 1.093-.42 1.722-1.282.554-.758.821-1.646.867-2.611 1.211-.312 4.452-.773 9.725-1.377 5.468-.621 8.758-.937 9.793-.937l1.264.053c.012 0 .239.051.239.051-.013.077-.125.536-1.609 1.924l.252.448 2.692-.767c.004 0 1.169-.095 1.169-.095.898 0 1.929-.082 1.929-.739.001-.182-.089-.433-1.19-1.552m-3.624 7.941c-.686-.454-1.514-.683-2.487-.683-.685 0-1.694.148-3.086.449-1.331.29-2.306.438-2.906.438-.024 0-.624.056-.624.056-.088-.003-.151-.042-.206-.12 1.16-1.028 2.384-1.935 3.646-2.669.771-.315.97-.736.97-1.083 0-.063 0-.133-.017-.189l-.021-.093-.067-.062c-1.292-1.026-2.471-1.546-3.519-1.546-.081.011-2.704.86-2.704.86l-2.779.651c-.946.146-1.925.22-2.915.206l-.597-.004.391.444c.769.859 1.688 1.279 2.746 1.241.066-.011 5.045-1.564 5.26-1.63h.438c.074 0 .096.224.096.355 0 .15-.201.746-1.683 2.631-.562-.414-1.154-.663-1.782-.663-.603 0-.674.347-.674.496 0 .174.115.358.735.889.251.218.4.391.497.528-5.427.682-9.326 1.099-11.546 1.227l-.245.015-.039.299c0 .209.123.489 1.016 1.121.659.451 1.219.674 1.715.674.229 0 .925-.091 4.292-.84 2.334-.524 4.072-.808 5.269-.89.168.939.265 1.921.265 2.969 0 2.685-.517 4.044-1.549 4.044-.457 0-1.597-.204-3.4-.595l-.198.477c1.885 1.208 3.077 2.339 3.537 3.364l.106.231.236-.101c2.2-.938 3.317-3.208 3.317-6.747 0-1.01-.126-2.3-.357-3.807.497-.017 4.174-.135 4.174-.135l4.977.163c.732 0 .812-.445.812-.637-.003-.414-.359-.851-1.094-1.334M144.937 72.707c0 1.02-.057 1.721-.243 2.016-.163.263-.487.374-1.131.401l-1.292.082v.814c1.397-.054 2.665-.075 3.978-.075 1.239 0 2.507.021 3.907.075v-.814l-1.291-.082c-.647-.027-.972-.139-1.132-.401-.19-.295-.246-.996-.246-2.016V61.33c0-1.021.029-1.883.111-2.69h4.172c.806 0 1.021.242 1.073.892l.109 2.121h.832c0-1.448.056-2.929.191-4.33-.971 0-1.943.029-2.907.029-.969.023-1.938.051-2.906.051h-3.902c-1.937 0-3.877-.08-5.814-.08.137 1.401.19 2.882.19 4.33h.832l.11-2.121c.053-.649.269-.892 1.078-.892h4.17c.078.808.107 1.669.107 2.69v11.377z" fill="#231F20" clip-rule="evenodd" fill-rule="evenodd"/><path d="M155.208 73.187c0 .727-.026 1.265-.137 1.56-.104.241-.396.353-.858.376l-1.211.084v.816c.942-.024 2.022-.073 3.337-.073 1.317 0 2.397.049 3.339.073v-.816l-1.213-.084c-.454-.023-.752-.135-.858-.376-.11-.295-.139-.833-.139-1.56v-5.695c0-1.104 1.671-2.528 3.313-2.528 1.83 0 3.096 1.184 3.096 3.416v7.644c.617-.024 1.396-.073 2.149-.073.757 0 1.534.049 2.205.073v-.816l-1.101-.084c-.457-.023-.753-.135-.863-.376-.107-.295-.131-.833-.131-1.56V68c0-2.926-1.293-4.675-4.443-4.675-1.077 0-1.587.162-2.178.673l-1.991 1.721h-.057v-9.091l-.239-.218c-1.342.538-2.771.777-4.198.996v.754h1.506c.591 0 .67.481.67 1.102v13.925zm19.288-8.979c1.94 0 2.854 2.049 2.854 4.553-1.937.107-4.196.16-6.402-.084-.137-2.931 1.48-4.469 3.548-4.469m.138-.884c-.919 0-1.694.294-2.638.729-.596.262-1.158.669-1.669 1.073-1.232.969-1.934 2.532-1.934 5.139 0 3.63 2.15 6.218 6.212 6.218 1.832 0 4.118-1.186 4.31-1.51l.537-.912-.353-.269c-1.021.617-2.042 1.265-3.335 1.265-3.31 0-4.87-2.156-4.87-5.301h3.923c1.62 0 3.262-.107 4.877-.378.054-.373.054-.755.054-1.131-.002-3.043-2.183-4.923-5.114-4.923m28.27 10.362l-.241-.273c-1.239.919-3.523 1.614-5.46 1.614-5.329 0-8.854-3.44-8.854-8.77 0-4.573 2.664-8.258 7.72-8.258.998 0 2.154.159 3.018.452 1.236.458 2.315.918 2.315 1.671v1.936h.832c0-1.397.242-2.827.513-4.088-1.295-.46-3.714-1.102-6.222-1.102-3.007 0-5.755.91-7.77 2.583-2.072 1.694-3.283 4.139-3.283 7.239 0 6.104 4.358 9.791 10.818 9.791 1.642 0 4.305-.513 5.866-1.455zm2.613-.499c0 .727-.026 1.265-.131 1.56-.11.241-.408.353-.861.376l-1.212.084v.816c.94-.024 2.017-.073 3.336-.073 1.317 0 2.394.049 3.334.073v-.816l-1.209-.084c-.456-.023-.755-.135-.863-.376-.105-.295-.132-.833-.132-1.56v-5.695c0-1.104 1.664-2.528 3.31-2.528 1.829 0 3.096 1.184 3.096 3.416v7.644c.618-.024 1.397-.073 2.151-.073.753 0 1.531.049 2.206.073v-.816l-1.103-.084c-.458-.023-.752-.135-.861-.376-.11-.295-.136-.833-.136-1.56V68c0-2.926-1.292-4.675-4.441-4.675-1.075 0-1.584.162-2.176.673l-1.992 1.721h-.054v-9.091l-.244-.218c-1.344.538-2.77.777-4.197.996v.754h1.506c.593 0 .672.481.672 1.102v13.925zm17.539-9.756l-.243-.107c-.996.431-2.614.939-4.198 1.104v.754h.995c.565 0 .834.08 1 .295.133.214.185.803.185 1.665v6.046c0 .729-.026 1.263-.136 1.56-.103.243-.403.351-.859.378l-1.238.082v.814c.971-.022 2.048-.075 3.366-.075 1.316 0 2.392.053 3.361.075v-.814l-1.24-.082c-.454-.027-.751-.135-.859-.378-.11-.297-.134-.831-.134-1.56zm-1.266-5.974c-.782 0-1.48.725-1.48 1.505 0 .781.699 1.485 1.48 1.485.783 0 1.507-.704 1.507-1.485 0-.78-.724-1.505-1.507-1.505" fill="#231F20" clip-rule="evenodd" fill-rule="evenodd"/><path d="M229.64 67.49c0-1.098 1.67-2.526 3.31-2.526 1.831 0 3.094 1.182 3.094 3.418v7.64c.618-.022 1.4-.075 2.149-.075.757 0 1.536.053 2.212.075v-.814l-1.105-.082c-.457-.027-.751-.135-.859-.378-.11-.295-.137-.831-.137-1.56V68c0-2.924-1.291-4.675-4.439-4.675-1.077 0-1.588.162-2.177.673l-1.996 1.721h-.052v-2.284l-.244-.109c-.995.431-2.605.939-4.197 1.104v.754h.997c.564 0 .833.08.995.295.136.214.189.803.189 1.665v6.046c0 .729-.029 1.265-.136 1.56-.107.243-.405.351-.859.378l-1.213.082v.814c.94-.022 2.019-.075 3.339-.075 1.318 0 2.393.053 3.334.075v-.814l-1.21-.082c-.458-.027-.752-.135-.856-.378-.115-.295-.14-.831-.14-1.56v-5.7zm17.025-3.282c1.938 0 2.854 2.049 2.854 4.553-1.939.107-4.199.16-6.405-.084-.134-2.931 1.484-4.469 3.551-4.469m.138-.884c-.918 0-1.694.294-2.636.729-.595.262-1.161.669-1.672 1.073-1.233.969-1.937 2.532-1.937 5.139 0 3.63 2.154 6.218 6.214 6.218 1.831 0 4.119-1.186 4.308-1.51l.536-.912-.347-.269c-1.027.617-2.045 1.265-3.342 1.265-3.309 0-4.867-2.156-4.867-5.301h3.928c1.615 0 3.254-.107 4.872-.378.053-.373.053-.755.053-1.131 0-3.043-2.176-4.923-5.11-4.923m6.234 8.769c0 1.267-.027 2.558-.297 3.745 1.318.454 2.476.644 3.769.644 2.987 0 5.947-1.561 5.947-4.521 0-2.104-1.508-2.907-4.711-3.441-2.046-.353-2.931-.973-2.931-2.131 0-.914.353-2.18 2.638-2.18 1.533 0 3.122.812 3.122 2.207v.62h.75c.029-1.076.056-2.072.136-3.037-1.047-.381-2.208-.675-3.473-.675-2.528 0-5.056 1.025-5.056 3.933 0 1.638.997 2.44 2.286 2.928 1.293.485 2.771.784 3.954 1.08.834.211 1.292.915 1.292 1.774 0 1.45-1.454 2.448-3.146 2.448-1.563 0-3.474-.623-3.474-2.288v-1.105h-.806zm16.301-7.885c1.941 0 2.853 2.049 2.853 4.553-1.935.107-4.199.16-6.404-.084-.134-2.931 1.481-4.469 3.551-4.469m.136-.884c-.92 0-1.695.294-2.636.729-.596.262-1.157.669-1.671 1.073-1.235.969-1.935 2.532-1.935 5.139 0 3.63 2.152 6.218 6.214 6.218 1.833 0 4.118-1.186 4.308-1.51l.533-.912-.347-.269c-1.023.617-2.042 1.265-3.338 1.265-3.308 0-4.869-2.156-4.869-5.301h3.93c1.616 0 3.254-.107 4.872-.378.054-.373.054-.755.054-1.131 0-3.043-2.181-4.923-5.115-4.923m12.965 6.862c0 4.923 2.688 6.296 7.265 6.296 5.437 0 7.614-2.314 7.614-8.068v-7.769c0-1.023.053-1.722.24-2.021.165-.265.48-.349 1.132-.403l1.184-.08v-.814c-1.184.025-2.15.078-3.23.078-.971 0-2.042-.053-3.122-.078v.814l1.188.08c.642.055.963.139 1.125.403.189.299.242.997.242 2.021v8.604c0 4.463-2.632 5.562-5.544 5.562-3.546 0-5.539-1.1-5.539-4.913v-9.253c0-1.023.055-1.722.239-2.021.164-.265.487-.374 1.133-.403l1.29-.08v-.814c-1.396.051-2.662.078-3.903.078-1.313 0-2.581-.027-3.979-.078v.814l1.29.08c.647.029.969.139 1.135.403.186.299.24.997.24 2.021zm20.959-2.696c0-1.098 1.664-2.526 3.308-2.526 1.833 0 3.094 1.182 3.094 3.418v7.64c.625-.022 1.403-.075 2.155-.075.748 0 1.531.053 2.203.075v-.814l-1.103-.082c-.457-.027-.752-.135-.858-.378-.105-.295-.135-.831-.135-1.56V68c0-2.924-1.295-4.675-4.441-4.675-1.077 0-1.588.162-2.18.673l-1.989 1.721h-.054v-2.284l-.246-.109c-.991.431-2.609.939-4.194 1.104v.754h.994c.566 0 .833.08.995.295.135.214.19.803.19 1.665v6.046c0 .729-.028 1.265-.137 1.56-.107.243-.404.351-.859.378l-1.212.082v.814c.944-.022 2.018-.075 3.338-.075 1.315 0 2.394.053 3.334.075v-.814l-1.213-.082c-.457-.027-.747-.135-.854-.378-.107-.295-.136-.831-.136-1.56zm15.276-4.059l-.243-.107c-.994.431-2.61.939-4.195 1.104v.754h.993c.563 0 .837.08.993.295.139.214.19.803.19 1.665v6.046c0 .729-.024 1.263-.132 1.56-.107.243-.406.351-.867.378l-1.233.082v.814c.969-.022 2.042-.075 3.368-.075 1.314 0 2.391.053 3.355.075v-.814l-1.236-.082c-.458-.027-.751-.135-.856-.378-.111-.297-.137-.831-.137-1.56zm-1.265-5.974c-.78 0-1.483.725-1.483 1.505 0 .781.703 1.485 1.483 1.485.786 0 1.508-.704 1.508-1.485-.001-.78-.722-1.505-1.508-1.505m15.061 8.748c.376-.812.832-1.749 1.506-1.804l.835-.053v-.759c-.835.027-1.693.08-2.529.08-.84 0-1.698-.053-2.529-.08v.759l1.105.053c.807.021.858.807.13 2.661l-1.131 2.851c-.507 1.267-1.104 2.53-1.666 3.767l-3.201-7.744c-.457-1.131-.27-1.513.435-1.534l1.312-.053v-.759c-1.046.027-2.065.08-3.121.08-1.048 0-2.098-.053-3.146-.08v.759l.914.053c.514.021.675.507.837.885l4.625 10.844h1.346c.379-.914.651-1.941 1.104-2.932zm8.717-1.997c1.938 0 2.853 2.049 2.853 4.553-1.938.107-4.197.16-6.404-.084-.136-2.931 1.483-4.469 3.551-4.469m.139-.884c-.92 0-1.692.294-2.638.729-.595.262-1.162.669-1.67 1.073-1.24.969-1.938 2.532-1.938 5.139 0 3.63 2.151 6.218 6.217 6.218 1.827 0 4.113-1.186 4.301-1.51l.541-.912-.349-.269c-1.025.617-2.042 1.265-3.34 1.265-3.31 0-4.867-2.156-4.867-5.301h3.926c1.615 0 3.256-.107 4.875-.378.052-.373.052-.755.052-1.131 0-3.043-2.182-4.923-5.11-4.923m7.925 9.863c0 .727-.022 1.265-.136 1.56-.106.241-.4.353-.857.376l-1.235.084v.816c.962-.024 2.044-.073 3.358-.073 1.318 0 2.395.049 3.794.073v-.816l-1.399-.084c-.619-.023-1.021-.135-1.126-.376-.105-.295-.136-.833-.136-1.56v-4.619c0-1.718 1.182-2.959 2.366-2.959.972 0 1.53.593 1.831 1.241h.564l.238-3.26c-.211-.132-.778-.267-1.235-.267-.694 0-1.614.323-2.259 1.104l-1.454 1.72h-.052v-2.718l-.243-.105c-.995.431-2.609.939-4.197 1.104v.752h.994c.568 0 .837.082.999.299.134.212.185.803.185 1.661zm8.121-1.094c0 1.267-.03 2.558-.3 3.745 1.322.454 2.478.644 3.77.644 2.988 0 5.947-1.561 5.947-4.521 0-2.104-1.504-2.907-4.709-3.441-2.044-.353-2.931-.973-2.931-2.131 0-.914.348-2.18 2.634-2.18 1.539 0 3.124.812 3.124 2.207v.62h.755c.022-1.076.051-2.072.132-3.037-1.052-.381-2.204-.675-3.473-.675-2.529 0-5.056 1.025-5.056 3.933 0 1.638.995 2.44 2.284 2.928 1.292.485 2.771.784 3.957 1.08.836.211 1.29.915 1.29 1.774 0 1.45-1.453 2.448-3.147 2.448-1.56 0-3.471-.623-3.471-2.288v-1.105h-.806zm14.552-8.662l-.238-.107c-.996.431-2.61.939-4.2 1.104v.754h.997c.562 0 .832.08.991.295.138.214.193.803.193 1.665v6.046c0 .729-.026 1.263-.137 1.56-.105.243-.402.351-.862.378l-1.238.082v.814c.969-.022 2.044-.075 3.365-.075 1.32 0 2.397.053 3.36.075v-.814l-1.233-.082c-.462-.027-.751-.135-.862-.378-.104-.297-.136-.831-.136-1.56zm-1.262-5.974c-.781 0-1.479.725-1.479 1.505 0 .781.698 1.485 1.479 1.485.778 0 1.51-.704 1.51-1.485-.001-.78-.732-1.505-1.51-1.505m5.859 8.208v7.747c0 2.182 1.211 2.854 2.633 2.854.566 0 1.505-.055 1.75-.325l1.294-1.426-.347-.454c-.38.211-.892.511-1.592.511-1.131 0-1.48-.62-1.48-1.859v-7.048h3.447l.238-1.459-3.686.164v-1.02c0-1.127.136-2.634.3-3.819l-.326-.297c-.458.297-1.316.726-2.287 1.021.082.726.107 1.426.107 2.126v1.881l-2.098.945v.563z" fill="#231F20" clip-rule="evenodd" fill-rule="evenodd"/><path d="M389.835 73.629l-3.092-7.482c-.568-1.451-.11-1.72.648-1.749l1.016-.053v-.755c-1.05.027-2.07.082-3.118.082-1.051 0-2.071-.055-3.126-.082v.755l.486.053c.59.057.971.298 1.4 1.319l4.44 10.871-.622 1.642c-.511 1.238-1.373 3.418-2.929 3.523-.377.025-1.048-.291-1.371-.618h-.351l-.652 2.021c.3.184.893.4 1.353.4 2.257 0 3.225-1.348 4.091-3.309l5.456-12.591c1.025-2.371 1.616-3.203 2.266-3.26l.755-.053v-.755c-.869.027-1.7.082-2.565.082-.857 0-1.688-.055-2.55-.082v.755l.7.053c.965.082 1.372.382.965 1.376zm16.98 2.853c4.117 0 7.044-2.905 7.044-7.024 0-3.445-2.657-6.132-6.106-6.132-4.329 0-6.859 2.819-6.859 6.858-.001 3.71 2.529 6.404 5.921 6.298m.319-12.276c2.582 0 4.224 2.968 4.224 6.436 0 2.504-1.046 4.952-3.496 4.952-3.444 0-4.465-3.737-4.465-6.564 0-2.505.882-4.824 3.737-4.824m15.959-7.558c-.38-.158-.808-.294-1.215-.294-.754 0-1.722.325-2.416 1.133l-1.566 1.773c-.775.886-1.128 2.098-1.128 3.874v1.129l-1.858.839v.592l1.858-.112v7.605c0 .729-.03 1.265-.137 1.56-.106.243-.398.351-.859.378l-1.238.082v.814c.972-.022 2.043-.075 3.362-.075 1.318 0 2.396.053 3.362.075v-.814l-1.236-.082c-.458-.027-.752-.135-.859-.378-.107-.295-.136-.831-.136-1.56v-7.606h3.335l.194-1.424-3.529.105v-2.287c0-3.066.297-3.845 1.965-3.845.677 0 1.294.295 1.775.751l.326-.158zm24.02 3.991c0-1.02.053-1.718.24-2.015.163-.267.488-.374 1.13-.403l1.296-.08v-.816c-1.4.053-2.666.076-3.905.076-1.315 0-2.582-.023-3.98-.076v.816l1.291.08c.646.029.971.137 1.133.403.183.297.241.995.241 2.015v4.782c-.324.031-1.05.053-2.232.053h-6.296c-1.186 0-1.915-.021-2.235-.053v-4.782c0-1.02.053-1.718.239-2.015.164-.267.486-.374 1.133-.403l1.293-.08v-.816c-1.399.053-2.665.076-3.905.076-1.315 0-2.584-.023-3.979-.076v.816l1.289.08c.649.029.969.137 1.13.403.191.297.244.995.244 2.015v12.068c0 1.018-.053 1.719-.244 2.014-.161.267-.48.376-1.13.401l-1.289.082v.818c1.395-.056 2.663-.077 3.979-.077 1.24 0 2.506.021 3.905.077v-.818l-1.293-.082c-.646-.025-.969-.135-1.133-.401-.187-.295-.239-.996-.239-2.014v-5.993c.32-.025 1.05-.059 2.235-.059h6.296c1.183 0 1.908.033 2.232.059v5.993c0 1.018-.059 1.719-.241 2.014-.162.267-.487.376-1.133.401l-1.291.082v.818c1.398-.056 2.665-.077 3.98-.077 1.239 0 2.505.021 3.905.077v-.818l-1.296-.082c-.642-.025-.967-.135-1.13-.401-.188-.295-.24-.996-.24-2.014zm9.222 15.843c4.118 0 7.052-2.905 7.052-7.024 0-3.445-2.663-6.132-6.107-6.132-4.33 0-6.86 2.819-6.86 6.858-.001 3.71 2.53 6.404 5.915 6.298m.325-12.276c2.583 0 4.224 2.968 4.224 6.436 0 2.504-1.049 4.952-3.498 4.952-3.442 0-4.471-3.737-4.471-6.564-.001-2.505.892-4.824 3.745-4.824m11.408 3.284c0-1.098 1.666-2.526 3.312-2.526 1.828 0 3.089 1.182 3.089 3.418v7.64c.624-.022 1.399-.075 2.15-.075.757 0 1.54.053 2.21.075v-.814l-1.104-.082c-.453-.027-.753-.135-.861-.378-.108-.295-.139-.831-.139-1.56V68c0-2.924-1.283-4.675-4.434-4.675-1.076 0-1.59.162-2.18.673l-1.992 1.721h-.052v-2.284l-.241-.109c-.996.431-2.615.939-4.2 1.104v.754h.997c.566 0 .835.08.997.295.133.214.184.803.184 1.665v6.046c0 .729-.024 1.265-.13 1.56-.11.243-.409.351-.86.378l-1.213.082v.814c.941-.022 2.02-.075 3.341-.075 1.31 0 2.396.053 3.332.075v-.814l-1.213-.082c-.454-.027-.753-.135-.859-.378-.108-.295-.134-.831-.134-1.56zm24.184-1.716l.669-1.102-.105-.323-3.822.107c-.859-.786-2.096-1.131-3.275-1.131-1.026 0-2.669.345-3.909 1.156-1.205.781-2.044 1.938-2.044 3.657 0 2.8 2.314 3.583 3.174 3.604v.055l-2.072 1.589c-.234.324-.4.728-.4 1.129 0 .782.594 1.266 1.776 1.587l-2.343 1.27c-.562.507-.752 1.37-.752 2.15 0 2.395 2.534 4.034 5.784 4.034 4.55 0 7.293-2.933 7.293-5.785 0-1.343-.757-3.336-3.176-3.336h-4.303c-.811 0-2.045-.055-2.045-1.074 0-.595.86-1.133 1.234-1.505.19.021.382.049.566.049 1.236 0 2.586-.456 3.764-1.293 1.079-.723 1.808-1.883 1.808-3.333 0-.514-.083-1.026-.296-1.506h2.474zm-4.442 2.365c0 1.642-1.15 2.853-2.745 2.853-1.716 0-3.038-1.211-3.038-3.578 0-1.775.888-3.176 2.687-3.176 2.237 0 3.096 1.934 3.096 3.901m-2.689 14.583c-2.152 0-3.926-1.156-3.926-3.472 0-1.694 1.506-2.739 2.258-2.821 1.214-.109 2.155-.109 2.854-.109 3.038 0 3.791.832 3.791 2.423 0 2.15-2.017 3.979-4.977 3.979m18.242-15.528l.27-.184 9.361 9.011c.836-.022 1.482-.071 2.131-.071.615 0 1.264.049 1.777.071v-.814l-.572-.057c-.482-.051-.992-.483-1.664-1.1l-8.881-8.383 7.158-6.448c.672-.619 1.402-.996 2.104-1.025l1.125-.053v-.814c-.643.025-1.396.076-2.152.076-.781 0-1.537-.051-2.395-.076v.732c0 .189-.378.647-.783 1.056l-7.479 7.277v-5.753c0-1.018.057-1.716.24-2.015.168-.265.491-.376 1.127-.401l1.298-.082v-.814c-1.401.055-2.665.076-3.902.076-1.317 0-2.584-.021-3.985-.076v.814l1.293.082c.646.025.974.137 1.13.401.188.299.245.997.245 2.015v12.068c0 1.018-.058 1.715-.245 2.016-.156.263-.484.376-1.13.401l-1.293.082v.814c1.401-.052 2.668-.071 3.985-.071 1.237 0 2.501.02 3.902.071v-.814l-1.298-.082c-.636-.025-.959-.139-1.127-.401-.184-.301-.24-.998-.24-2.016z" fill="#231F20" clip-rule="evenodd" fill-rule="evenodd"/><path d="M522.41 76.482c4.119 0 7.049-2.905 7.049-7.024 0-3.445-2.662-6.132-6.111-6.132-4.326 0-6.855 2.819-6.855 6.858-.001 3.71 2.528 6.404 5.917 6.298m.324-12.276c2.584 0 4.225 2.968 4.225 6.436 0 2.504-1.047 4.952-3.5 4.952-3.443 0-4.467-3.737-4.467-6.564 0-2.505.886-4.824 3.742-4.824m11.404 3.284c0-1.098 1.668-2.526 3.311-2.526 1.834 0 3.096 1.182 3.096 3.418v7.64c.621-.022 1.4-.075 2.152-.075.752 0 1.535.053 2.209.075v-.814l-1.104-.082c-.463-.027-.754-.135-.863-.378-.107-.295-.131-.831-.131-1.56V68c0-2.924-1.291-4.675-4.445-4.675-1.074 0-1.584.162-2.178.673l-1.992 1.721h-.055v-2.284l-.244-.109c-.99.431-2.604.939-4.191 1.104v.754h.994c.562 0 .834.08.996.295.137.214.189.803.189 1.665v6.046c0 .729-.029 1.265-.139 1.56-.105.243-.402.351-.857.378l-1.213.082v.814c.945-.022 2.02-.075 3.342-.075 1.312 0 2.391.053 3.332.075v-.814l-1.211-.082c-.457-.027-.752-.135-.855-.378-.115-.295-.143-.831-.143-1.56zm24.186-1.716l.672-1.102-.109-.323-3.82.107c-.857-.786-2.096-1.131-3.279-1.131-1.023 0-2.66.345-3.908 1.156-1.199.781-2.039 1.938-2.039 3.657 0 2.8 2.312 3.583 3.174 3.604v.055l-2.07 1.589c-.24.324-.404.728-.404 1.129 0 .782.594 1.266 1.777 1.587l-2.342 1.27c-.568.507-.752 1.37-.752 2.15 0 2.395 2.527 4.034 5.783 4.034 4.549 0 7.293-2.933 7.293-5.785 0-1.343-.756-3.336-3.176-3.336h-4.303c-.811 0-2.047-.055-2.047-1.074 0-.595.861-1.133 1.236-1.505.189.021.379.049.566.049 1.236 0 2.584-.456 3.762-1.293 1.08-.723 1.805-1.883 1.805-3.333 0-.514-.076-1.026-.295-1.506h2.476zm-4.438 2.365c0 1.642-1.158 2.853-2.748 2.853-1.721 0-3.041-1.211-3.041-3.578 0-1.775.887-3.176 2.695-3.176 2.231 0 3.094 1.934 3.094 3.901m-2.695 14.583c-2.148 0-3.926-1.156-3.926-3.472 0-1.694 1.508-2.739 2.262-2.821 1.207-.109 2.15-.109 2.85-.109 3.041 0 3.795.832 3.795 2.423-.001 2.15-2.018 3.979-4.981 3.979" fill="#231F20" clip-rule="evenodd" fill-rule="evenodd"/><path d="M62.18 78.161c.897 0 5.04-1.48 6.66-2.336 8.671-4.574 16.248-10.781 21.184-19.356 3.962-6.895 4.21-15.394 4.86-23.123.835-9.985.761-19.984.601-30.006-.01-.722-14.345-2.299-15.819-2.435C73.857.362 66.071 0 62.18 0c-3.887 0-11.671.362-17.485.904-1.475.137-15.806 1.714-15.818 2.436-.157 10.022-.236 20.021.6 30.006.654 7.729.898 16.228 4.861 23.123 4.937 8.575 12.514 14.782 21.185 19.356 1.619.855 5.764 2.336 6.657 2.336" fill="#6E1E6F"/><path d="M81.755 41.38c.033.006.065.011.097.015-.034-.004-.059-.015-.097-.019zm-1.881 1.206c.064.021.119.049.172.072-.053-.027-.105-.057-.169-.081zm11.205-18.28s.033-.5.054-.527c.37-.121 1.99-.771 2.295-2.823.045-.32.053-.668.028-1.058l-.089.083c-.323.304-1.301 1.226-1.836 1.106-.139-.028-.239-.125-.303-.288.002-2.047-.161-3.677-.37-5.785.58-.32 1.805-1.229 1.801-3.165-.002-.26-.033-.534-.081-.828l-.101.113c-.317.368-1.162 1.338-1.662 1.278-.12-.015-.212-.085-.274-.221l-.031-.274c-.401-4.348-1.3-6.496-3.078-7.412 0 0-.112-.041-.112-.053 0 .032.094.168.179.299.264.387.697 1.03.861 1.789.286 1.295.393 2.336.393 3.19 0 .986-.138 1.72-.289 2.308-.236.431-.571.699-.997.8-.98.235-2.102-.853-2.47-1.736-.014-.027-.033-.057-.058-.057-.079 0-.211.236-.286.399-.315 1.164.074 2.622.863 3.185.288.208.753.376 1.308-.004.292-.191.502-.263.654-.219.081.023.135.078.174.187a39.5076 39.5076 0 01-1.266 3.116c-.266.238-.566.367-.891.386-1.104.067-2.032-1.292-2.246-2.257-.009-.043-.021-.067-.046-.069-.078-.018-.269.207-.377.367-.556 1.149-.429 2.734.274 3.464.264.272.716.534 1.377.242.342-.153.573-.192.705-.118.064.032.105.091.116.192a38.8675 38.8675 0 01-1.783 3.013c-.244.156-.507.232-.809.232-1.172-.007-1.944-1.356-2.032-2.289-.003-.035-.014-.059-.034-.061-.079-.029-.314.187-.454.345-.724 1.091-.836 2.598-.233 3.363.333.426.851.543 1.446.325.366-.135.598-.164.695-.093.045.023.066.068.058.143-.627.849-1.296 1.688-2 2.498-.464.309-.931.424-1.417.346-1.243-.191-2.012-1.965-2.012-3.152 0-.056-.014-.089-.033-.1-.102-.042-.38.18-.534.327-.936 1.183-1.193 3.042-.565 4.065.236.379.692.8 1.532.626.442-.092.7-.079.783.037.046.069.032.168-.043.303 0 0-2.031 1.878-2.036 1.883-.507.319-1.278.641-2.094.342-1.361-.485-1.85-2.67-1.593-4.019.01-.065.002-.105-.027-.127-.106-.069-.479.125-.682.26-1.318 1.142-2.011 3.21-1.513 4.507.186.484.613 1.064 1.609 1.05.547-.006.844.07.902.236.05.14-.072.323-.375.567-.273.155-.594.362-.848.677-.603.735-.879 1.332-.946 2.062l-.06.745c-.04.582-.08 1.181-.205 1.756-.107.548-.282 1.036-.508 1.449-1.268 2.307-4.228 3.512-7.336 3.961v-4.329c3.781-.112 5.413-1.761 5.413-5.458 0-3.149-1.135-4.518-3.8-4.576-.531-.009-1.088.079-1.613.258v-2.407c1.894-.859 4.042-1.831 6.278-2.402 5.143-1.307 9.28-4.149 10.725-7.184.2-.437.347-.882.432-1.336-.275.179-3.714 2.355-6.277 2.907l-.354.056c-.344.067-.708.138-.889-.018-.088-.073-.131-.183-.131-.342 0-1.386.763-2.474 2.156-3.064l.139-.058c3.115-1.323 5.537-2.355 6.712-3.97.303-.43.524-.899.639-1.423-.262.14-3.871 2.046-6.197 2.371l-.123.021c-.281.048-.75.129-.969-.108-.13-.138-.154-.365-.079-.678.268-1.055.717-1.683 1.553-2.162.912-.523 1.894-.96 2.846-1.382 1.608-.717 3.045-1.36 3.766-2.213.036-.049.081-.094.112-.145a.1514.1514 0 00.026-.038c.131-.195.224-.406.276-.628L79.409 7.95l-.666.205c-.966.306-1.972.622-2.293.304-.117-.118-.136-.311-.049-.58.167-.584.316-.914.591-1.301 1.266-1.802 3.838-3.716 6.915-3.172.513.096.772.059.788 0 .012-.031-.078-.133-.48-.279-2.323-.845-4.489-.765-6.438.231-3.565 1.824-6.501 6.739-8.728 14.613-1.274 4.501-4.046 6.122-6.899 7.405v-10.04c1.038-.416 1.937-.996 2.709-1.767 2.168-2.168 2.939-4.875 2.058-7.241-.714-1.912-2.407-3.237-4.309-3.373-.162-.01-.311-.017-.458-.02V1.488c-3.567 0-10.957.331-16.716.868-2.067.196-15.111 1.689-15.123 2.315-.057 3.405-.098 6.779-.098 10.142 0 6.266.156 12.482.673 18.711l.193 2.433c.528 6.823 1.077 13.882 4.464 19.785C39.826 63.23 46.65 69.488 55.82 74.353c.569.3 3.203 1.654 5.396 2.125.007 0 .02.004.033.004.096.025.192.041.288.057.208.032.418.065.614.079V65.862c3.055.047 7.798.084 9.061-.356 1.216-.423 2-1.352 2.203-2.622.234-1.473-.361-3.116-1.411-3.915-.148-.111-.352-.129-.405-.053-.044.047-.016.1.054.23.114.202.303.544.303 1.235 0 .638-.223 1.17-.66 1.575-1.183 1.107-3.599.958-3.621.958l-2.791-.031h-2.707c.035-.01.064-.021.097-.025h-.101c1.572-.367 2.68-1.502 3.156-2.373 1.2-2.182.192-3.628-.124-4.048-.06-.056-.097-.095-.097-.095h.02c-.011-.018-.02-.023-.02-.023.187-.004.37-.01.548-.021-.173.008-.345.025-.525.021 0 0 .01.012.022.023.709-.004 1.357-.076 1.945-.211-.436.092-.904.139-1.4.166 5.793-.332 7.016-5.557 7.681-8.409l.116-.467c.205-.848.74-2.335 2.019-2.733.813-.256 1.348-.563 1.74-.792l.469-.249s.16-.064.174-.068c.728.025.712.64.7 1.046-.004.172-.011.328.049.361.028.019.085 0 .168-.05.625-.386.937-1.548 1.023-2.219.002-.048.006-.103.006-.142l.004.002.007-.032c.794.284.866.75.906 1 .012.07.021.128.041.137.022.011.092-.028.203-.117.579-.465.707-1.536.724-2.162v-.027c.002-.007.002-.018.002-.018.974.06 1.072.612 1.115.877.009.056.023.129.041.136 0 0 .037-.002.157-.127.507-.535.507-1.672.488-2.165a.6395.6395 0 00-.009-.067h.004v-.02c.632.046.773.522.86.805.026.096.059.196.094.2.013.002.055-.009.146-.127.578-.737.545-1.846.455-2.265-.009-.033-.021-.072-.031-.092l.006.002c0-.009-.002-.024-.002-.024.646.031.792.45.875.694.027.087.055.164.084.168.021.002.067-.018.168-.151.46-.588.423-1.721.299-2.325.852-1.004 1.382-1.862 1.532-2.487.117-.469.188-.532.244-.527.096.009.124.275.134.435-.134 1.525-.453 3.478-.91 5.489a.189.189 0 00-.01.035c-.002.013-.007.031-.011.046-.061.28-.121.562-.19.848 0 0-.008-.006-.01-.01a.1077.1077 0 00-.009.034c-.285-.269-1.015-.357-1.174-.192-.077.076.01.2.092.288.312.324.481.937.504 1.491.01.083.017.165.021.238l-.02-.006c-.002.012 0 .021 0 .021-.346-.174-.916-.212-1.031-.057-.059.074.022.194.104.275.372.381.491 1.177.432 1.768-.008.102-.015.196-.034.28-.002-.004-.006-.012-.013-.013-.003.011-.003.021-.005.035-.277-.271-1.012-.365-1.175-.196-.081.078.007.203.094.292.32.333.398 1.232.335 1.828-.006.106-.016.2-.024.282-.007-.004-.012-.006-.018-.013-.003.013-.003.027-.005.036-.326-.294-.885-.459-1.014-.349-.053.049-.023.162.081.311.412.605.279 1.73.155 2.154-1.86 4.13-3.931 6.245-6.154 6.288-1.813.041-2.779-1.579-2.896-2.741-.16-1.681 1.441-2.796 2.413-3.192.702-.292 1.141.108 1.296.292.569.682.495 1.149.335 1.428-.213.36-.698.542-1.019.487-.531-.102-.962.104-1.141.534-.172.419-.062.885.269 1.121.537.374 1.228.397 1.961.072.914-.411 1.697-1.301 1.781-2.039.155-.645-.092-1.932-.595-2.462-1.138-1.545-2.568-2.003-3.827-1.222-2.244 1.393-3.503 2.969-3.637 4.577-.119 1.464.673 2.962 2.362 4.445 2.01 1.763 5.258.679 6.708-.878 0 0 .172-.126.201-.128.377.142 2.157.682 3.751-.874.193-.198.388-.423.575-.695l-.148.012c-.473.052-1.736.181-2.042-.229-.078-.109-.089-.25-.014-.431.92-1.258 1.763-2.856 2.522-4.775.39-.025 2.128-.248 2.934-2.17.122-.293.222-.628.292-1.004l-.137.071c-.444.256-1.634.926-2.011.629-.128-.095-.154-.288-.08-.572.446-1.544.852-3.259 1.224-5.123.545-.085 2.188-.526 2.698-2.66.056-.259.101-.539.121-.853l-.123.084c-.412.279-1.507 1.018-1.995.813-.124-.054-.2-.162-.228-.332.249-1.647.462-3.437.658-5.336.255-.076 2.402-.779 2.402-3.529 0-.092-.008-.191-.012-.29-.031.029-.069.064-.069.064-.367.333-1.334 1.221-1.84 1.092-.126-.03-.212-.12-.269-.281l.222-4.411zM62.152 4.439c1.701.602 2.629 1.997 2.484 3.78-.137 1.714-1.252 3.252-2.484 3.44zm0 28.114c.199-.022.419-.036.663-.034 1.678 0 2.421.786 2.421 2.557 0 1.269-.384 2.564-3.084 2.684zm7.98 13.725v.007c-1.086 1.809-2.456 2.931-5.923 2.931 0 0-.887-.002-2.057-.004v-1.898h1.849c2.832 0 4.768-.381 5.593-1.103.382-.331.493-.316.543-.281.104.069.014.306-.005.348m18.919-27.59l-.061.829c-.773 11.894-4.461 16.184-7.973 18.818l-.129.098c-1.105.826-2.359 1.764-4.658 2.529l-.072.024c-.435.139-1.753.561-2.104 1.165-.335.576-.439.625-.497.588-.144-.075.131-.866.231-1.051.257-.486.689-.754 1.521-1.142 1.575-.737 1.78-1.678 1.762-2.172-.027-.703-.509-1.373-1.176-1.623-.511-.197-1.009-.091-1.318.271.136.059.497.219.562.805.077.889-.391 1.263-.814 1.314-.502.058-1.082-.284-1.179-.962-.177-1.26.486-2.07.908-2.348.517-.344.838-.458 1.219-.585 0 0 .655-.246.661-.246 1.049-.182 1.776.391 2.167.696.143.115.266.214.319.196l.055-.059c.149-.308-.063-1.534-.323-2.188l.021-.063.038-.004c.959-.133 1.452.517 1.749.901.096.131.192.255.238.237.023-.009.039-.032.058-.076.124-.37-.212-1.71-.511-2.346-.011-.019-.021-.036-.03-.052l.002-.002c-.002-.009-.004-.02-.009-.026.975-.291 1.577.255 1.9.545.123.109.226.201.269.179l.046-.07c.096-.357-.342-1.614-.711-2.229 0 0 .186-.202.192-.209.941-.367 1.546.007 1.908.235.138.083.246.148.297.121l.047-.081c.083-.354-.379-1.496-.749-2.038 0 0 .179-.229.194-.239.754-.251 1.333-.062 1.685.047.146.051.261.089.306.062.021-.014.04-.041.046-.091.045-.333-.398-1.356-.737-1.735 0 0 .157-.224.175-.23.697-.244 1.235-.07 1.557.042l.276.056c.03-.018.044-.063.044-.135.005-.41-.428-1.415-.689-1.663 0 0-.007-.002-.012-.008h.003s-.015-.016-.022-.019c.676-.567 1.317-.529 1.66-.512l.256-.016c.017-.013.023-.035.019-.074-.014-.267-.505-.99-.847-1.263.813-1.514 1.387-2.923 1.709-4.205.41-1.61.476-1.6.533-1.59.09.016.079.343-.012 1.594m-9.308 13.549c.046-.013.094-.022.138-.031-.046.006-.094.009-.141.022zm6.033-7.476c.092-.076.185-.141.278-.194-.095.052-.19.113-.287.185l.009.009m.248 19.989a.584.584 0 01.097.088v-.019c-.029-.021-.059-.045-.097-.069m-4.428-32.945s-.096.048-.246.127c.12-.054.198-.092.239-.108.002-.005.004-.013.007-.019m1.207-4.946V6.85s-.034.011-.095.029c.041-.007.074-.015.095-.02m-3.2 10.858s-.1.062-.258.159c.124-.069.208-.12.25-.139.003-.004.003-.016.008-.02M63.045 62.584c-.271.109-.557.211-.868.273h.105c.267-.071.524-.167.763-.273M85.32 38.56c-.074-.023-.151-.048-.246-.061.003.005.005.014.005.016.092.012.169.025.241.045m-.098 8.409c.039.035.07.067.103.098v-.016c-.033-.028-.068-.054-.103-.082m1.329-4.469c.04.022.074.045.106.064v-.015c-.032-.014-.066-.033-.106-.049m.597-1.872c.036.027.067.051.088.082.007-.004.007-.006.01-.014a1.056 1.056 0 00-.098-.068m-3.596-.617v.007c.041.005.081.013.115.02-.037-.011-.072-.022-.115-.027" fill="#E5A823"/><path d="M61.111 11.377c-.313-.316-.287-1.753-.283-1.771 0-1.845-1.546-2.5-2.865-2.5-1.415 0-2.875.745-2.875 1.987l.01 4.702c0 .252-.084.452-.242.588-.139.118-.333.182-.547.182-.435 0-.88-.267-.88-.718v-2.532c0-2.879-3.222-3.309-5.141-3.309-2.748 0-5.67 1.229-5.67 3.504l.003 1.264-.003 10.36c.02.622-.38 1.073-.728 1.269-.301.169-.611.187-.832.049-.194-.124-.406-.42-.346-1.135.008-.095-.036-.167-.106-.183-.099-.025-.253.052-.365.336-.332.861-.31 1.653.058 2.358.474.905 1.417 1.419 1.931 1.544l-.021 1.609h-.015c-1.826-.031-4.032-.738-4.032-4.063V8.9c0-2.445-1.017-3.272-1.866-3.536-1.566-.483-3.614.572-4.477 1.827-.903 1.318-.637 2.507-.089 3.186.624.765 1.662 1.021 2.591.634.017-.011.182-.122.173-.233-.011-.07-.08-.115-.213-.135-.625-.096-1.001-.519-1.001-1.13 0-.67.585-1.234 1.284-1.234.688 0 1.25.555 1.25 1.234v2.347l.011 13.775c-1.861-.035-2.369 1.487-2.369 2.382 0 1.409.987 1.94 1.027 1.96.043.028.139.021.202-.038.045-.042.083-.137 0-.306-.232-.467-.247-.873-.027-1.174.279-.394.885-.536 1.332-.475.288.042.481.155.538.315.687 1.939 2.463 2.924 5.438 3.012.064 0 .175.065.284.171l-.009.88c-.916.393-2.943 1.725-2.854 5.549.064 2.924.64 7 1.193 7.407.047.037.095.049.146.037 2.474-.688 6.15-.733 8.011.373.257.151.398.336.378.506-.006.098-.067.175-.152.204-.094.036-.192.007-.271-.072-.811-.812-3.107-.908-3.789-.922-2.576-.043-7.851.75-9.41 4.045-.887 1.889.914 5.697 1.882 6.906.058.079.188.077.283.038.076-.032.117-.089.102-.149-.374-1.89.373-3.751 2.108-5.241 2.108-1.812 5.189-2.641 7.164-1.929.262.101.44.264.464.442.012.085-.01.161-.063.206-.051.035-.113.039-.188.008-2.571-1.111-5.2.576-5.227.592 1.115 6.676 9.242 6.513 15.175 6.39l2.033-.029c.004.016 2.271 2.254 1.961 4.141-.125.757-.646 1.365-1.554 1.8-.906.442-4.526.215-4.901-.088-.202-.162-.283-.64-.208-1.211.123-.895.661-2.115 1.78-2.604.122-.031.18-.082.171-.148-.03-.136-.41-.237-.665-.212-2.066.261-3.557 1.302-4.083 2.866-.117.349-.168.513-.174.883-.057.655-.208.669-1.073.763l-.464.052c-1.636.201-2.565.981-2.765 2.318-.15 1.055.175 2.119.899 2.927.605.669 1.379 1.033 2.135 1.004.043 0 .118-.039.131-.111.02-.061-.002-.162-.192-.271-.92-.53-1.16-1.391-.988-2.009.182-.68.835-1.09 1.696-1.08.014 0 .368-.008.38.258l.003.255.059.751c.349 2.016 1.887 3.776 3.739 4.287.072.018.212-.035.247-.133.03-.083-.002-.202-.314-.335-.981-.728-1.338-2.168-1.343-3.275-.006-.735.146-1.347.374-1.524.411-.316 1.93-.519 2.683.237.749.745 1.084 1.432.947 1.925-.089.323-.386.563-.863.688-.062.014-.091.116-.075.192.006.037.046.164.229.133 1.984-.294 2.678-1.849 2.666-3.094-.005-.012-.025-.08.018-.129.038-.051.125-.08.249-.08l1.462.018c.245 0 .518.006.79.012V49.154l-5.572-.011c-1.295 0-1.79.565-1.821 1.096-.046.691.689 1.527 2.128 1.707.088.012.317.147.312.231 0 .027-.031.094-.333.104-.958.012-2.947.039-3.67-1.133-.441-.716-.473-1.643-.072-2.354.507-.917 1.667-1.42 3.254-1.42h5.774v-2.239c-2.894.428-5.93.194-7.837-.427-3.594-1.175-6.593-4.459-5.367-8.469.171-.557.559-1.133 1.188-1.766.786-.779 1.57-.803 1.832-.811.109.018.176-.002.208-.053.065-.128-.159-.369-.166-.382-1.249-1.481-6.448-1.923-7.48-1.487-.027.015-.058-.033-.077-.065-.421-.76-.574-5.669 1.286-6.965.772-.534 1.587-.734 2.175-.527.476.17.816.585 1.01 1.244.222.766 0 1.665-.514 1.998-.373.248-.852.164-1.345-.243-.136-.113-.194-.278-.248-.422l-.065-.162c-.053-.109-.139-.228-.23-.22-.026 0-.066.015-.083.085-.073 1.562.545 2.698 1.703 3.117 1.993.73 4.171-.037 5.539-1.946 1.271-1.78 1.802-4.78.561-5.833-.087-.072-.155-.091-.202-.062-.11.062-.062.338-.049.394.008 1.667-1.073 2.869-2.128 3.062-.904.165-1.664-.386-2.086-1.52 0 0 .03-.247.309-.223.916.083 1.575-.251 1.911-.961.418-.89.07-2.135-.807-2.89-.033-.013-.216-.062-.292 0-.021.017-.038.044-.031.089.128 1.091-.159 1.786-.792 1.911-.578.115-1.272-.308-1.43-.863-.165-.599.318-1.151 1.329-1.516.055-.02.073-.054.08-.076.018-.085-.069-.184-.08-.196-1.329-.444-2.738.033-3.232 1.077-.324.693-.022 1.925.734 2.281 0 0 .03.045-.022.117-.146.212-.847.483-1.496.28-.474-.151-1.036-.595-1.036-1.869v-7.68c0-.787.87-1.209 1.726-1.277.846-.075 1.818.195 1.94.95.162.959.034 1.21-.272 1.36-.592.277-1.105-.178-1.105-.178-.01.006-.013.015-.015.024l-.009-.005c-.005.013-.005.026-.01.035-.093.189-.08.376.019.559.213.405.776.736 1.438.851.651.113 1.146.037 1.46-.229.244-.205.373-.528.373-.927v-1.251c0-.577.318-.854.614-.869.265-.014.551.182.596.643l.019 1.654-.019 2.728c0 1.961 1.531 2.86 2.956 2.86 1.428 0 2.874-.917 2.874-2.665v-4.045c0-.748.305-1.223.814-1.273.512-.051 1.153.381 1.307 1.16.17.892.098 1.032-.138 1.491l-.135.264-.099.203c-.233.469-.334.681-.259.789.058.081.211.081.508.045.979-.117 1.853-.34 2.649-.657v-3.799c-.015.002-.029.007-.049.011-.354.046-.722.071-1.025-.231M46.054 36.206c0 1.183-1.013 2.145-2.253 2.145-1.242 0-2.253-.962-2.253-2.145 0-1.176 1.011-2.134 2.253-2.134 1.24 0 2.253.958 2.253 2.134m1.185-22.158l.005.006c0 .001-.005-.001-.005-.006m-4.878 22.158c0 .756.646 1.374 1.44 1.374.795 0 1.445-.618 1.445-1.374 0-.751-.649-1.363-1.445-1.363-.793 0-1.44.612-1.44 1.363M57.597 4.679c-.223.293-.408.627-.315.713.051.045.146.004.292-.121 1.256-1.078 2.738-1.36 4.399-.838.078.026.138.057.208.084v-1.64c-2.911-.068-4.236 1.345-4.584 1.802m-2.528 25.145c-.62.824-.936 2.752-.936 5.737 0 4.729 3.653 5.38 7.595 5.38.155 0 .304-.006.452-.011v-3.228c-.146.004-.293.011-.452.011-3.336 0-4.598-.25-4.598-2.931 0-3.172 1.449-4.453 3.623-5.403l1.399-.625s.02-.008.029-.015v-3.433c-.356.161-.72.317-1.082.473-2.178.945-4.433 1.92-6.03 4.045M39.348 43.878h.038l.054-.034-.531-3.582c.002-.189.002-.327-.09-.396-.097-.072-.285-.056-.65.058-5.062 1.659-5.079 3.57-4.666 7.086.029.233.348.651.467.651l.024.003.028-.049c.065-.309.253-.739.338-.891 1.478-2.609 3.983-2.859 4.988-2.846m.031-.029v.002c-.055-.002-.121-.002-.181-.002h.181m20.006-9.387c-.049.21.039.441.194.503.059.022.22.044.378-.241l.149-.352c.343-.852.643-1.6 2.074-1.757V31.02c-1.376.454-2.584 1.565-2.795 3.442" fill="#6E1E6F"/><path d="M123.538 84.788c-.24-3-2.784-5.1-14.798-2.313-.054-1.369-.105-2.586-.133-3.183-.103-2.308-2.558-3.573-7.539-3.413-2.456.08-3.764.177-4.686.308-3.342-2.587-4.338-6.695-4.151-10.388l4.835-5.575c1.287-1.001-3.032-5.401-7.223-4.161l-8.216 10.822c.13-.109.256-.196.39-.29-1.992 2.526-1.846 7.344 1.014 12.121-6.764 1.116-14.466 2.198-19.941 2.198-.314 0-.639-.004-.965-.014-.327.01-.651.014-.963.014-5.475 0-13.174-1.082-19.94-2.198 2.86-4.777 3.007-9.595 1.017-12.121.129.094.258.181.387.29l-8.219-10.822c-4.191-1.24-8.506 3.16-7.219 4.161l4.835 5.575c.188 3.692-.813 7.801-4.154 10.388-.919-.131-2.227-.228-4.679-.308-4.983-.16-7.444 1.105-7.545 3.413-.027.597-.081 1.813-.132 3.183C3.501 79.689.955 81.788.717 84.788c-.195 2.455-.284 7.253-.003 9.023.281 1.77 2.924 3.082 5.77 3.569 6.575 1.125 19.063-.321 28.667-8.82 6.05 1.408 13.422 3.188 26.012 3.188.327 0 .643-.008.963-.012.323.004.636.012.965.012 12.592 0 19.96-1.78 26.012-3.188 9.601 8.499 22.094 9.945 28.669 8.82 2.845-.487 5.492-1.8 5.772-3.569.277-1.77.19-6.567-.006-9.023" fill="#F1DEAE"/><path d="M27.746 80.476c-.24.569-.892 4.218-.969 4.997.194 0 .496.045.526-.016.71-1.675 1.07-3.436 1.219-5.248-.296 0-.635-.078-.776.267m3.398.014c.205.827-.038 4.95.59 6.138.147.249.498-.059.535-.279.277-1.988.041-3.855-.348-5.833-.008-.056-.494-.026-.777-.026m1.143-1.23c.048-.01.084-.402-.017-.484-1.383-1.188-3.065-.575-4.625-.565-.408.01-.265.504-.286.817.198 0 .388.018.583 0 1.505-.196 2.861.557 4.345.232m91.781 5.487c-.099-1.306-.603-2.272-1.525-2.945-2.087-1.519-6.33-1.491-13.307.076-.026-.712-.06-1.488-.099-2.346l-.009-.262c-.082-1.881-1.545-4.082-8.045-3.871-2.277.071-3.582.163-4.514.282-1.723-1.39-2.684-3.127-3.2-4.708-.528-1.612-.704-3.336-.645-4.979l4.72-5.441c.246-.211.624-.737.112-1.739-.856-1.673-4.305-4.252-7.824-3.213-.097.033-.187.094-.25.172l-8.221 10.82c-.089.121-.108.272-.075.413-.263.458-.487.963-.647 1.522-.229.812-.342 1.675-.342 2.572 0 2.294.739 4.813 2.098 7.252-6.608 1.078-13.927 2.082-19.202 2.082-.313 0-.644-.01-.967-.016-.323.006-.653.016-.963.016-5.279 0-12.599-1.004-19.205-2.082 1.354-2.438 2.1-4.958 2.1-7.252 0-.897-.112-1.761-.346-2.572-.162-.56-.379-1.064-.645-1.522.037-.141.015-.292-.075-.413l-8.224-10.82c-.06-.078-.149-.139-.248-.172-3.524-1.039-6.964 1.54-7.825 3.213-.516 1.002-.126 1.528.118 1.739l4.712 5.441c.062 1.644-.107 3.367-.639 4.979-.516 1.581-1.482 3.318-3.206 4.708-.926-.119-2.234-.211-4.517-.282-6.491-.211-7.958 1.99-8.038 3.871l-.012.262c-.041.857-.07 1.634-.098 2.346-6.973-1.567-11.221-1.594-13.304-.076-.926.673-1.422 1.64-1.529 2.945-.188 2.422-.292 7.296 0 9.141.349 2.211 3.545 3.517 6.172 3.969 5.61.962 18.567.264 28.904-8.773.036.008.066.018.104.027 5.961 1.389 13.379 3.116 25.8 3.116.327 0 .643-.01.963-.01.323 0 .64.01.967.01 12.416 0 19.838-1.728 25.797-3.116.033-.01.07-.02.106-.027 10.335 9.037 23.29 9.735 28.904 8.773 2.629-.452 5.821-1.758 6.168-3.969.294-1.845.196-6.719.001-9.141m-22.95-8.388c3.147-.102 6.934.331 7.048 2.955l.009.26c.164 3.587.214 5.743.214 7.03 0 .495-.008.836-.022 1.102-.858-.63-1.962-.808-3.298-.994-4.168-.587-7.523-.334-10.948.284l-.052-.341c.121-.27-.676-4.328-.557-4.504.297-.442 1.692.025 1.672-.83-.016-.751-1.209-.408-1.779-.466-.215-.016-.206-.053-.243-.24-.064-.323-.387-1.874-.652-2.125-.243-.234-.612-.021-.686.276-.139.484.638 2.375.333 2.389-.774.037-1.568.708-1.62.53-.142-.376-.152-.969-.429-1.345-.369-.523-1.662-.162-1.68-.402-.029-.573.364-.524.599-.651.16-.083.322-.192.352-.394.043-.233.052-.563-.085-.76.43-.078.857-.15 1.27-.223l.838-.152c1.691-.294 2.595-.528 3.325-.719 1.336-.347 2.071-.538 6.391-.68m6.886 13.462c-.529.583-2.104.468-3.496.368-1.383-.103-2.692-.19-3.483.297-.008-.221-.012-.448-.008-.687.037-1.279.325-2.17.604-2.433 1.055.037 2.152.138 3.312.298 1.688.234 2.62.405 3.261 1.172.056.451.002.776-.19.985m-18.762-8.036c.211.029.369.068.369.29.009.264-.389.305-.455.334-.093.039-.34.031-.378-.07-.13-.358.09-.611.464-.554m-.742-.749c-.101-.135-.062-.403-.009-.421.056-.016.376-.201.525-.1.092.076.186.229.139.34-.092.214-.487.38-.655.181m.674 1.93c.068-.23 1.082.092 1.162-.624.021-.148.207.131.521.259.301.135 1.189-.321 1.734-.241.035.016.801 4.135.646 4.751l-1.725.289c-.059-2.073-1.009-4.169-1.497-4.181-.453-.01-.961.203-.841-.253m-1.253-4.414c-.014.006-.022-.074-.029-.174.223-.039.451-.08.674-.119-.019.098-.032.195-.12.256-.175.121-.425.01-.525.037m2.213-22.045c2.932-.775 5.867 1.377 6.566 2.745.093.182.145.348.145.46 0 .061-.016.104-.047.129-.022.021-.048.041-.064.062 0 0-6.73 7.766-7.428 8.564-1.32-1.797-2.798-2.896-4.326-3.117-.557-.088-1.104-.039-1.645.105 1.821-2.393 6.612-8.698 6.799-8.948M81.18 71.019c0-.821.101-1.569.286-2.227.208-.724.522-1.352.928-1.866.797-.538 1.62-.75 2.451-.626 1.389.199 2.783 1.307 4.039 3.199.082.123.22.201.373.211.15.01.292-.051.393-.164l2.119-2.44c.036 1.396.242 2.813.685 4.172.5 1.536 1.385 3.203 2.885 4.621-.282.064-.552.128-.852.208-.713.186-1.595.416-3.244.706l-.839.148c-.96.169-1.982.345-3.042.534-.163-.01-.37.018-.645.109v.002c-1.097.187-2.229.382-3.397.572-1.486-2.57-2.14-5.085-2.14-7.159m5.807 9.977l.106-.076c.134-.034.31-.212.447-.065.149.157.141.438.021.569-.158.175-.553.081-.666-.092-.073-.119.055-.255.092-.336m-.47-1.894c-.052-.029-.032-.409-.167-.456.239-.041.468-.082.698-.121.037.196.052.396-.038.521-.093.142-.346.142-.493.056m.553 3.082c.158-.109.574-.145.656.059.049.096.116.23.049.327-.094.109-.41.209-.557.174-.034-.008-.562-.271-.148-.56m-17.335 1.395c.224.089.546.089.683-.084.223-.256-.118-.962.268-.994 1.153-.098 1.653.542 1.962.928.081.105-1.648 1.519-2.157 2.346-.58-.418-1.567-.601-2.312-.835 0 0-.12-.476.239-.885.455.458.988 1.016 1.771 1.016.811-.014 1.861-1.548 1.496-1.815-.575-.403-.983 1.54-2.021.858-.37-.246-.969-1.009-.284-1.117.238-.05.108.478.355.582m-18.57-2.917c1.116.139 2.219.253 3.296.362-.75.765.23 2.49-.913 3.12-.188-.449-.556-.355-.871-.273-.446.105-.389.679-.243.84.436.445 1.713.285 1.373 1.299-.241.702-.723 1.363-1.373.858-1.295-1.009-1.25-2.724-.794-4.335.047-.153 0-.859-.389-1.243-.139-.145-.169-.484-.086-.628m-.829.984c.193.207.434.388.562.636.308.61-.268.871-.562 1.238-.262-.375-.633-.763-.527-1.238.057-.248.333-.429.527-.636M27.523 59.904a.9003.9003 0 00-.071-.062c-.025-.025-.044-.068-.044-.129 0-.112.049-.278.148-.46.698-1.368 3.627-3.521 6.562-2.745.187.25 4.981 6.555 6.799 8.949-.54-.145-1.09-.193-1.645-.105-1.524.221-3.002 1.32-4.324 3.117-.697-.8-7.425-8.565-7.425-8.565m4.275 11.374c.452-1.358.654-2.776.689-4.172l2.118 2.44c.1.113.244.174.396.164.151-.01.286-.088.367-.211 1.259-1.893 2.654-3 4.041-3.199.833-.124 1.652.088 2.447.626.41.515.725 1.143.929 1.866.189.657.287 1.405.287 2.227 0 2.074-.656 4.589-2.135 7.16-2.542-.417-4.962-.846-7.081-1.218l-.84-.148c-1.648-.29-2.537-.521-3.243-.706-.301-.08-.567-.144-.854-.208 1.502-1.418 2.38-3.085 2.879-4.621M1.142 84.826c.082-1.025.44-1.739 1.134-2.244 1.811-1.321 6.09-1.226 12.707.277-.1 2.788-.1 4.309-.036 5.143.058.991.198 2.06.585 2.465.872.91 2.594.807 4.283.681 1.211-.088 2.587-.188 3.001.229.063.064.154.189.128.495-.031.462-.197.786-.513 1.004-1.356.96-5.142-.073-8.189-.904-1.368-.372-2.659-.724-3.711-.908-3.453-.593-7.296-1.107-9.198.392-.13.102-.235.221-.345.337-.07-2.175.015-5.214.154-6.967m14.919 4.01c.639-.767 1.569-.938 3.26-1.172 1.16-.16 2.255-.261 3.312-.298.28.263.569 1.153.602 2.433.007.238.002.466-.01.687-.787-.487-2.094-.399-3.481-.297-1.39.1-2.968.215-3.497-.368-.188-.209-.245-.534-.186-.985m-9.549 8.076c-2.912-.501-5.106-1.778-5.367-3.119.057-.69.312-1.207.783-1.585 1.522-1.189 4.955-.798 8.439-.195 1.01.172 2.279.522 3.62.885 3.577.976 7.275 1.987 9.002.769.045-.037.079-.072.118-.105.009-.006.024-.006.032-.014.84-.591 1.099-2.333 1.058-3.774-.012-.546-.099-1.618-.455-2.425 3.611-.006 6.776.645 10.354 1.468-9.973 8.364-22.225 9.009-27.584 8.095m42.493-6.288C43.436 90 39.23 89.02 35.578 88.169c-1.965-.456-3.786-.881-5.593-1.197-.02-2.195.535-4.562.192-6.755-.011-.049-.491-.008-.777-.008.113 2.117-.617 4.422-.477 6.584-3.015-.461-6.061-.601-9.739-.082-1.333.187-2.438.364-3.295.994-.014-.266-.023-.606-.023-1.102 0-1.287.052-3.443.212-7.03l.009-.26c.115-2.624 3.899-3.057 7.048-2.955 4.322.143 5.056.333 6.395.681.719.188 1.615.421 3.271.715.091.051.192.1.274.143.783.279 1.418 1.854 1.438 2.894.055 2.131-1.037 4.328-.12 6.422.036.074.343.023.534.023-.466-2.72 1.542-5.65.048-8.239-.107-.195-.058-.698.15-.834 4.368.764 9.703 1.682 14.825 2.347-.292.318-.885 1.1-1.012 1.465-.397 1.161.602 2.3-.259 3.495-.374.53.416 1.342.312 1.749-.211.861-1.809 1.558-1.127 2.407.547.669.852-1.14 1.242-.953.617.308.173 1.615-.101 1.951m1.093-5.718c.341-.125.617.685.748 1.143.086.275-.253.871-.481.8-.89-.261-1.233-1.575-.267-1.943m19.086 6.157c-.003.018.016.031.023.051-1.893.098-3.927.151-6.115.151-.327 0-.644-.008-.967-.008-.321 0-.637.008-.963.008-4.161 0-7.743-.198-10.911-.509-.1-.278-.273-1.216.092-1.249.472-.043 1.095.581 1.354.185.592-.928-.603-1.608-1.361-2.109.193-.21.479-.587.548-.546 1.271.786 3.486 1.029 3.719-.721.21-1.646 1.227-3.469.333-5.144-.005-.045-.013-.076-.02-.107 2.245.207 4.375.332 6.247.332.31 0 .641-.01.963-.016.323.006.654.016.967.016 1.865 0 3.983-.123 6.224-.33l.016.139c0 .209.323.83-.534.918-1.878.176-2.477 4.729-1.468 4.761.696.035.352-.736.508-1.086.073-.159 1.558.34 2.111.798-.497.908-.683 1.973-.756 3.027-.019.386.017 1.335-.01 1.439m.842 0v-.215c.125-1.049.245-2.649.567-3.219.407-.704 1.011.569 1.068.731.212.603.708 2.139.733 2.54-.767.061-1.554.118-2.368.163m18.649-2.894c-4.082.953-8.856 2.066-15.467 2.657.067-.07.094-.155.056-.249 0 0-.342-2.864-1.978-4.283.515-.599 1.494-1.87 1.891-1.821.226.02.046 1.156.254 1.315.133.104.792.113.813-.067.119-1.209-.588-4.4-3.713-4.063l.072-.562.008-.156c4.9-.509 10.292-1.362 15.03-2.174-.143.064-.241.154-.233.307.021.632.695.91 1.208.818.152-.027.13.332.014.472-.201.211-.907.346-.85 1.172.166 2.769 2.049 1.424 2.158 1.71.206.546-1.152.25-1.152.759.011.703 1.615-.055 1.662.107.24.779-1.865.267-1.847 1.023.016.777 2.126-.039 2.148.12.187.767-1.196.248-1.169.999.019.315.525.28.791.206.576-.165 1.147-.349 1.607-.742.205.202.29.476.388.732.131.355.055.739.131 1.164-.007.051.002.092.007.137-.597.133-1.206.277-1.829.419m29.063 8.743c-5.359.914-17.607.27-27.577-8.097 3.578-.823 6.742-1.474 10.353-1.468-.357.807-.442 1.879-.458 2.425-.039 1.441.22 3.184 1.059 3.774.01.008.021.008.035.014.041.033.071.068.112.105 1.73 1.219 5.43.207 9.007-.769 1.345-.362 2.612-.713 3.619-.885 3.484-.603 6.92-.994 8.434.195.476.378.729.895.786 1.585-.265 1.342-2.454 2.62-5.37 3.121m5.528-5.121c-.107-.116-.218-.235-.346-.337-1.904-1.499-5.748-.984-9.193-.392-1.055.185-2.348.536-3.71.908-3.048.831-6.839 1.864-8.195.904-.316-.218-.478-.542-.514-1.004-.022-.306.061-.431.13-.495.412-.417 1.788-.317 3-.229 1.689.126 3.41.229 4.281-.681.385-.405.525-1.474.589-2.465.065-.834.063-2.354-.034-5.143 6.614-1.503 10.891-1.599 12.701-.277.693.505 1.055 1.219 1.137 2.244.14 1.755.224 4.794.154 6.967" fill="#6E1E6F"/></svg>