<?xml version="1.0" encoding="UTF-8"?>
<!-- Generator: Adobe Illustrator 16.0.0, SVG Export Plug-In . SVG Version: 6.00 Build 0)  -->
<svg xmlns="http://www.w3.org/2000/svg" xmlns:xlink="http://www.w3.org/1999/xlink" version="1.1" id="Layer_2" x="0px" y="0px" width="103.437px" height="136.333px" viewBox="25.78 0 103.437 136.333" xml:space="preserve">
<g id="Layer_1-2">
	<path fill="#FFFFFF" d="M30.025,134.762l-4.22-16.145l-0.025-0.096c0-0.144,0.087-0.214,0.262-0.214H29   c0.158,0,0.262,0.079,0.31,0.239l2.267,9.705c0.015,0.064,0.04,0.096,0.073,0.096s0.056-0.031,0.07-0.096l2.194-9.683   c0.048-0.175,0.152-0.262,0.31-0.262h2.886c0.174,0,0.287,0.079,0.334,0.239l2.385,9.705c0.015,0.049,0.04,0.075,0.071,0.084   c0.031,0.008,0.056-0.021,0.073-0.084l2.194-9.683c0.048-0.175,0.151-0.262,0.31-0.262h2.815c0.222,0,0.31,0.104,0.262,0.31   l-3.91,16.145c-0.048,0.159-0.16,0.238-0.334,0.238H38.47c-0.16,0-0.262-0.079-0.31-0.238l-2.433-10.328   c-0.017-0.062-0.04-0.096-0.073-0.096s-0.056,0.031-0.071,0.096l-2.267,10.303c-0.033,0.174-0.135,0.262-0.31,0.262h-2.646   c-0.175,0-0.287-0.079-0.334-0.239L30.025,134.762z"></path>
	<path fill="#FFFFFF" d="M63.082,134.762l-0.715-2.338c-0.031-0.062-0.071-0.096-0.119-0.096h-5.867   c-0.048,0-0.087,0.031-0.118,0.096l-0.692,2.338c-0.048,0.159-0.152,0.238-0.31,0.238h-3.029c-0.096,0-0.167-0.027-0.214-0.083   c-0.048-0.056-0.056-0.14-0.023-0.251l5.15-16.121c0.048-0.16,0.152-0.239,0.31-0.239h3.744c0.16,0,0.262,0.079,0.31,0.239   l5.152,16.121c0.015,0.033,0.023,0.07,0.023,0.118c0,0.144-0.087,0.214-0.262,0.214h-3.029c-0.16,0-0.262-0.079-0.31-0.239   L63.082,134.762z M57.214,129.729h4.197c0.096,0,0.126-0.048,0.096-0.144l-2.146-7.082c-0.017-0.064-0.039-0.092-0.07-0.083   c-0.033,0.009-0.056,0.035-0.071,0.083l-2.098,7.082c-0.017,0.096,0.015,0.144,0.096,0.144H57.214z"></path>
	<path fill="#FFFFFF" d="M77.547,134.893c-0.056-0.057-0.083-0.123-0.083-0.204v-6.033c0-0.064-0.009-0.11-0.025-0.144l-4.913-9.871   c-0.033-0.062-0.048-0.111-0.048-0.145c0-0.126,0.087-0.19,0.262-0.19h3.004c0.158,0,0.27,0.07,0.334,0.214l2.98,6.342   c0.049,0.096,0.096,0.096,0.145,0l2.98-6.342c0.062-0.144,0.175-0.214,0.334-0.214h3.053c0.109,0,0.187,0.026,0.227,0.083   c0.039,0.057,0.035,0.139-0.014,0.249l-4.961,9.872c-0.016,0.031-0.024,0.079-0.024,0.144v6.033c0,0.079-0.026,0.147-0.083,0.204   c-0.057,0.055-0.123,0.082-0.203,0.082h-2.766c-0.079,0-0.147-0.027-0.204-0.082L77.547,134.893z"></path>
	<path fill="#FFFFFF" d="M99.283,134.762l-4.913-16.121l-0.024-0.096c0-0.16,0.087-0.239,0.262-0.239h3.004   c0.174,0,0.286,0.079,0.334,0.239l3.172,11.637c0.016,0.049,0.04,0.071,0.071,0.071c0.03,0,0.056-0.024,0.07-0.071l3.124-11.637   c0.049-0.16,0.158-0.239,0.335-0.239h2.934c0.096,0,0.166,0.03,0.214,0.095s0.057,0.145,0.025,0.24l-4.984,16.121   c-0.048,0.159-0.151,0.238-0.31,0.238h-3.004C99.433,135,99.331,134.921,99.283,134.762z"></path>
	<path fill="#FFFFFF" d="M128.278,121.107c-0.056,0.057-0.122,0.084-0.204,0.084h-7.82c-0.08,0-0.119,0.039-0.119,0.118v3.696   c0,0.078,0.039,0.117,0.119,0.117h5.127c0.078,0,0.146,0.027,0.203,0.084c0.057,0.056,0.083,0.123,0.083,0.203v2.314   c0,0.079-0.028,0.147-0.083,0.203c-0.057,0.057-0.123,0.084-0.203,0.084h-5.127c-0.08,0-0.119,0.039-0.119,0.118v3.864   c0,0.078,0.039,0.118,0.119,0.118h7.82c0.08,0,0.148,0.026,0.204,0.083s0.083,0.123,0.083,0.203v2.312   c0,0.079-0.029,0.148-0.083,0.204c-0.056,0.056-0.122,0.083-0.204,0.083h-11.016c-0.08,0-0.148-0.027-0.204-0.083   s-0.083-0.122-0.083-0.204V118.59c0-0.078,0.027-0.147,0.083-0.203c0.056-0.057,0.122-0.084,0.204-0.084h11.016   c0.08,0,0.148,0.027,0.204,0.084c0.056,0.056,0.083,0.123,0.083,0.203v2.312c0,0.079-0.029,0.147-0.083,0.203V121.107z"></path>
	<path fill="#FFFFFF" d="M124.948,30.387c-1.751-3.947-2.815-6.519-5.42-9.916c-0.606-0.789-1.114-1.392-1.114-1.392   c-1.934-0.617-3.625,0.891-3.224,2.9c7.034,8.754,9.651,18.714,9.651,30.028s-6.631,22.052-22.129,22.096h-0.066   c-11.969,0-21.576-8.811-22.361-20.518c-0.295-4.39,0.854-11.457,5.562-18.354c5.27-7.911,16.969-15.937,32.615-21.957   c0.209-0.077,0.309-0.139,0.311-0.193l0,0c-1.293-0.14-2.615-0.229-3.944-0.279c-0.553,0-1.13,0-1.718,0   c-3.696,0-7.436,0.168-11.178,0.528c-6.065,0.64-10.934,1.623-12.398,1.936c-5.656,1.245-11.225,3-16.563,5.356   c-19.68,8.682-35.35,25.532-40.375,44.391c-0.106-0.359-0.208-0.719-0.306-1.08c-2.082-7.703-2.191-15.874-0.237-23.696   C37.402,18.828,56.679,4.5,77.812,4.5c3.771,0,7.604,0.457,11.426,1.41c0.077,0.019,0.152,0.04,0.227,0.059   c1.216,0.315,6.908,1.928,9.162,3.292c2.701-0.23,5.47-0.357,8.077-0.421c-1.271-0.848-2.581-1.644-3.925-2.379   c-3.898-2.154-8.081-3.806-12.456-4.898C76.942-1.782,63.057,0.287,51.229,7.388C39.4,14.486,31.047,25.767,27.704,39.152   c-1.083,4.338-1.587,8.771-1.527,13.19l0,0c0.38,25.501,19.225,46.519,43.753,50.306c0.129,0.021,0.26,0.04,0.391,0.058   c0.164,0.025,0.326,0.051,0.49,0.071c1.513,0.204,3.517,0.486,6.083,0.486c3.275,0,5.389-0.511,5.123-1.209   c-0.301-0.786-2.396-1.174-6.646-4.276c-1.687-1.289-3.737-3.084-5.769-5.438c-6.332-7.332-9.515-16.325-9.461-26.733   c0.061-11.524,3.977-21.483,11.64-29.602c5.593-5.925,13.286-11,22.964-15.171c-1.598,1.213-3.391,2.682-5.49,4.479   c-7.666,6.322-11.045,13.366-12.44,19.734c-0.769,3.033-1.088,6.045-0.901,8.835c0.941,14.04,12.426,24.603,26.729,24.603   c0.027,0,0.055,0,0.079,0c7.274-0.021,13.632-2.468,18.458-6.891c5.258-4.82,8.037-11.592,8.037-19.583   c0-7.498-1.233-14.772-4.271-21.62L124.948,30.387z M55.85,65.582c-0.075,14.391,5.744,24.102,10.639,29.713   c0.85,0.975,1.699,1.859,2.528,2.664c-1.512-0.283-3-0.634-4.458-1.056c-0.295-0.085-0.59-0.173-0.883-0.266   c-1.115-0.355-1.695-0.546-2.393-0.814c-0.008-0.002-0.015-0.007-0.023-0.009c-0.162-0.062-0.33-0.129-0.513-0.203   c-0.744-0.291-1.481-0.596-2.204-0.925c-5.975-2.706-11.291-6.631-15.637-11.461c-0.31-0.359-0.625-0.731-0.954-1.122   c-3.174-3.764-4.84-8.49-4.892-13.293c-0.027-2.55,0.396-5.12,1.294-7.582c3.682-10.096,10.681-19.491,20.432-27.221   c8.991-7.128,19.565-12.866,30.296-15.313C67.116,29.298,55.956,45.01,55.85,65.582L55.85,65.582z"></path>
</g>
</svg>
