<svg id="link_2" xmlns="http://www.w3.org/2000/svg" width="180" height="180" viewBox="0 0 180 180">
  <defs>
    <style>
      .cls-1 {
        fill: #5f7aaf;
      }

      .cls-1, .cls-2 {
        fill-rule: evenodd;
      }

      .cls-2 {
        fill: #252525;
      }
    </style>
  </defs>
  <path id="_1" data-name="1" class="cls-1" d="M1003.53,3122.09a12.885,12.885,0,1,1,.01-25.77A12.885,12.885,0,1,1,1003.53,3122.09Zm-11.854-28.48a12.97,12.97,0,0,1-13.535-7.31c-0.357-.77-0.707-1.55-1.091-2.31a1.015,1.015,0,0,1,.03-0.97q2.013-4.275,4.011-8.57,4.565-9.78,9.12-19.56c0.285-.61.482-1.26,0.719-1.9h0.142c0.477,1.02.957,2.03,1.431,3.04q3.766,8.07,7.527,16.13a38.984,38.984,0,0,1,2.15,4.92A12.9,12.9,0,0,1,991.676,3093.61Zm-18.587-9.91q-7.4,15.84-14.807,31.69a11.141,11.141,0,0,1-8.946,6.6,11.325,11.325,0,0,1-12.226-7.39,11.851,11.851,0,0,1,.666-9.51c3.716-7.84,7.361-15.71,11.032-23.57q7.3-15.645,14.6-31.28c0.931-2,1.843-4,2.794-5.98a11.374,11.374,0,0,1,8.735-6.6,1.344,1.344,0,0,0,.193-0.06h3.073a11.776,11.776,0,0,1,4.486,1.64,11.34,11.34,0,0,1,5.4,9.87,14.476,14.476,0,0,1-1.816,6.37Q979.668,3069.58,973.089,3083.7Zm-31.15,4.64a0.4,0.4,0,0,1-.267.34,0.441,0.441,0,0,1-.264-0.35c-0.76-1.62-1.51-3.25-2.279-4.86a0.814,0.814,0,0,1,.041-0.77q2.615-5.58,5.22-11.16,2.333-5.01,4.65-10.02a0.321,0.321,0,0,1,.188-0.28,0.264,0.264,0,0,1,.222.24c0.787,1.69,1.571,3.37,2.353,5.06a2.739,2.739,0,0,1,.121.36c-0.059.14-.116,0.3-0.187,0.46Q946.84,3077.845,941.939,3088.34ZM927.83,3099.1q-4.284,9.18-8.569,18.35a8.085,8.085,0,0,1-15.333-2.35,8.24,8.24,0,0,1,.745-4.63q4.357-9.315,8.7-18.62,6.567-14.07,13.133-28.13c1.543-3.31,3.071-6.62,4.64-9.91a7.85,7.85,0,0,1,6.072-4.59c5.108-.87,9.466,3.4,9.271,7.71a9.656,9.656,0,0,1-.917,4.18Q936.692,3080.1,927.83,3099.1Zm34.32,15.95c1.927-4.23,3.921-8.44,5.89-12.65a0.391,0.391,0,0,1,.268-0.34,0.372,0.372,0,0,1,.232.31c1.03,2.21,2.071,4.41,3.08,6.63a8.7,8.7,0,0,1-2.853,10.71,11.954,11.954,0,0,1-7.351,2.41c-0.5.01-.99,0-1.484,0h-2.2a0.28,0.28,0,0,1-.281-0.07c-0.068-.12.043-0.19,0.117-0.25A18.5,18.5,0,0,0,962.15,3115.05Z" transform="translate(-870 -3007.795)"/>
  <path id="_1-2" data-name="1" class="cls-2" d="M1020.46,3154.17a5.979,5.979,0,0,1-8.47,3.09c-0.19-.11-0.27-0.04-0.4.12a1.368,1.368,0,0,1-1.67.52,1.526,1.526,0,0,1-.92-1.56v-7.88c0-2.5-.01-5.01,0-7.51,0-.21-0.01-0.42.01-0.63a1.489,1.489,0,0,1,1.33-1.32,1.514,1.514,0,0,1,1.46,1.1,2.9,2.9,0,0,1,.09.83v3.33c0,0.2-.03.5,0.3,0.27,3.14-2.14,7.37-.22,8.51,4.25A9.256,9.256,0,0,1,1020.46,3154.17Zm-2.42-4.05a4.207,4.207,0,0,0-1.27-2.63,2.473,2.473,0,0,0-3.57.01,4.376,4.376,0,0,0-1.28,3.57c0,0.28-.02.56,0,0.83,0.13,1.72.88,2.74,2.25,3a5.771,5.771,0,0,0,1.18.05,2.611,2.611,0,0,0,2.5-2.04A6.922,6.922,0,0,0,1018.04,3150.12Zm-12.85,7.69a1.424,1.424,0,0,1-1.5-.08,0.911,0.911,0,0,1-.34-0.3c-0.19-.46-0.43-0.38-0.81-0.2a6.385,6.385,0,0,1-9.425-4.87,7.141,7.141,0,0,1,2.063-6.68,6.312,6.312,0,0,1,6.172-1.43,5.568,5.568,0,0,1,1.43.52,0.362,0.362,0,0,0,.52-0.12,1.443,1.443,0,0,1,1.71-.54,1.5,1.5,0,0,1,1,1.51v10.77A1.5,1.5,0,0,1,1005.19,3157.81Zm-2.18-6.89a7.269,7.269,0,0,0-.09-1.77,3.116,3.116,0,0,0-2.64-2.1,3.3,3.3,0,0,0-3.843,1.8,4.912,4.912,0,0,0-.235,3.76,3.219,3.219,0,0,0,3.425,2.4,3.774,3.774,0,0,0,2.543-1.13,2.6,2.6,0,0,0,.85-2.34A3.97,3.97,0,0,1,1003.01,3150.92Zm-12.584,7.07q-4.916.015-9.83,0.01a1.5,1.5,0,0,1-1.586-1.73c-0.009-2.6,0-5.21,0-7.82,0-2.56,0-5.11,0-7.67a1.649,1.649,0,0,1,.848-1.62,1.474,1.474,0,0,1,2.076,1.26c0.018,0.2.009,0.39,0.009,0.59q0,6.66,0,13.32c0,0.76,0,.76.723,0.76h7.772A1.454,1.454,0,1,1,990.426,3157.99ZM960.3,3146.16a11.594,11.594,0,0,1,3.748,1.26,5.577,5.577,0,0,1,1.921,8.11,6.39,6.39,0,0,1-3.826,2.3l-0.758.18h-3.033a11.437,11.437,0,0,1-2.129-.7,5.388,5.388,0,0,1-3.175-3.74,3.846,3.846,0,0,1-.06-0.95,1.376,1.376,0,0,1,1.307-1.38,1.394,1.394,0,0,1,1.462,1.29,2.13,2.13,0,0,0,1.158,1.82,5.82,5.82,0,0,0,5.936.03,2.472,2.472,0,0,0,.212-4.16,5.106,5.106,0,0,0-2.135-.94c-1.26-.26-2.524-0.51-3.786-0.76-0.051-.01-0.1-0.04-0.151-0.05-1.556-.41-2.93-1.1-3.317-2.83a4.825,4.825,0,0,1,1.546-4.88,7.528,7.528,0,0,1,9.211-.39,5.36,5.36,0,0,1,2.195,4.3,1.555,1.555,0,0,1-1.14,1.52,1.4,1.4,0,0,1-1.591-.73,1.5,1.5,0,0,1-.169-0.66,2.8,2.8,0,0,0-2.422-2.71,4.8,4.8,0,0,0-3.73.54,2.147,2.147,0,0,0-1.1,1.58,0.953,0.953,0,0,0,.717,1.26A17.329,17.329,0,0,0,960.3,3146.16Zm-8.83,9.1a1.551,1.551,0,0,1,.536,1.31,1.278,1.278,0,0,1-.8,1.25,1.57,1.57,0,0,1-1.714-.3q-2.544-2.55-5.067-5.12c-0.517-.52-1.032-1.04-1.539-1.58a0.8,0.8,0,0,0-.653-0.26c-0.56.01-1.122,0.02-1.681-.01a0.464,0.464,0,0,0-.576.57q0.027,2.685,0,5.37a1.494,1.494,0,1,1-2.978-.12q0-3.915,0-7.83,0-3.84,0-7.68a1.483,1.483,0,0,1,1.571-1.76,63.565,63.565,0,0,1,8.4.08,5.678,5.678,0,0,1,4.792,5.08,5.77,5.77,0,0,1-4.144,6.09c-0.831.22-.832,0.22-0.232,0.82C948.742,3152.54,950.1,3153.91,951.47,3155.26Zm-2.7-10.37a2.726,2.726,0,0,0-2.744-2.84c-1.853-.03-3.707,0-5.56-0.01a0.4,0.4,0,0,0-.492.48c0.012,1.51.013,3.02,0,4.52a0.435,0.435,0,0,0,.514.53c0.962-.02,1.924-0.01,2.885-0.01,0.875,0,1.749.01,2.623,0A2.675,2.675,0,0,0,948.772,3144.89Zm-16.509,12.21c-0.45-.97-0.873-1.95-1.308-2.93-0.249-.56-0.519-1.11-0.742-1.68a0.6,0.6,0,0,0-.659-0.44c-2.02.01-4.041,0.02-6.061,0a0.7,0.7,0,0,0-.73.5c-0.592,1.37-1.206,2.72-1.814,4.08a2.79,2.79,0,0,1-.491.86,1.254,1.254,0,0,1-1.828.18,1.343,1.343,0,0,1-.458-1.77q2.649-6.045,5.306-12.08c0.543-1.24,1.092-2.47,1.627-3.71a1.522,1.522,0,0,1,1.414-1.1,1.6,1.6,0,0,1,1.468,1.12q3.377,7.71,6.762,15.41a2.364,2.364,0,0,1,.255.9,1.541,1.541,0,0,1-1.2,1.51A1.377,1.377,0,0,1,932.263,3157.1Zm-3.655-8.42c-0.635-1.42-1.265-2.85-1.9-4.27a0.367,0.367,0,0,0-.152-0.2c-0.123-.03-0.156.11-0.2,0.2-0.626,1.41-1.244,2.82-1.878,4.23-0.168.37-.007,0.42,0.3,0.41,0.577-.01,1.154,0,1.731,0,0.612,0,1.223-.01,1.834,0C928.6,3149.05,928.747,3149,928.608,3148.68Zm-13.079,9.33a1.4,1.4,0,0,1-1.423-1.5c-0.007-3.22,0-6.45-.006-9.67a1.169,1.169,0,0,0-.075-0.63c-0.623,1.11-1.223,2.17-1.822,3.24-0.931,1.66-1.854,3.33-2.794,4.98-0.769,1.36-2.018,1.37-2.791,0-1.47-2.59-2.913-5.19-4.368-7.79-0.066-.12-0.138-0.23-0.224-0.38a1.149,1.149,0,0,0-.064.6q-0.006,4.785,0,9.57a1.456,1.456,0,0,1-.873,1.44,1.38,1.38,0,0,1-1.6-.27,1.516,1.516,0,0,1-.488-1.19q0-7.92,0-15.84a1.5,1.5,0,0,1,1.242-1.55,1.486,1.486,0,0,1,1.639.85c0.871,1.53,1.717,3.08,2.571,4.62q1.639,2.97,3.28,5.92a0.4,0.4,0,0,0,.289.34,0.449,0.449,0,0,0,.278-0.35q2.912-5.25,5.822-10.5a1.429,1.429,0,0,1,2.143-.66,1.3,1.3,0,0,1,.724,1.2q0,8.04,0,16.1A1.437,1.437,0,0,1,915.529,3158.01Z" transform="translate(-870 -3007.795)"/>
</svg>
