<svg id="title1" xmlns="http://www.w3.org/2000/svg" xmlns:xlink="http://www.w3.org/1999/xlink" width="553.031" height="85" viewBox="0 0 553.031 85">
  <metadata><?xpacket begin="﻿" id="W5M0MpCehiHzreSzNTczkc9d"?>
<x:xmpmeta xmlns:x="adobe:ns:meta/" x:xmptk="Adobe XMP Core 5.6-c142 79.160924, 2017/07/13-01:06:39        ">
   <rdf:RDF xmlns:rdf="http://www.w3.org/1999/02/22-rdf-syntax-ns#">
      <rdf:Description rdf:about=""/>
   </rdf:RDF>
</x:xmpmeta>
                                                                                                    
                                                                                                    
                                                                                                    
                                                                                                    
                                                                                                    
                                                                                                    
                                                                                                    
                                                                                                    
                                                                                                    
                                                                                                    
                                                                                                    
                                                                                                    
                                                                                                    
                                                                                                    
                                                                                                    
                                                                                                    
                                                                                                    
                                                                                                    
                                                                                                    
                                                                                                    
                           
<?xpacket end="w"?></metadata>
<defs>
    <style>
      .cls-1, .cls-2 {
        fill-rule: evenodd;
      }

      .cls-1 {
        opacity: 0.2;
      }

      .cls-2 {
        fill: url(#linear-gradient);
      }
    </style>
    <linearGradient id="linear-gradient" x1="722.515" y1="172" x2="722.515" y2="252" gradientUnits="userSpaceOnUse">
      <stop offset="0" stop-color="#fedd88"/>
      <stop offset="1" stop-color="#ffe9a3"/>
    </linearGradient>
  </defs>
  <path id="_1" data-name="1" class="cls-1" d="M979.726,214.126c-0.387,4.434,2.556,2.783,2.556,2.783h0.393l0.006-.013h3.8s12.127-1.468,10.863,13c-0.838,9.6-14.482,10.1-14.482,10.1h-19.4l-14,.055-6.418-6.653-0.578,6.6h-16l4.981-56.937,16-.056-0.8,9.125-1.367,15.613,4.332-3.8,14,0.052-17.08,16.425,16.749,19.365,0.677-7.737h15.4a3.039,3.039,0,0,0,3.043-2.79c0.242-2.762-.9-3.421-0.9-3.421h-3.4l0.062-.122-0.863.122s-13.606.078-12.629-11.086c1-11.491,12.939-10.756,12.939-10.756h21.2l0.212,6.708h-15.8s-3.091-1.229-3.5,3.416v0Zm-74,0c-0.388,4.434,2.556,2.783,2.556,2.783h0.393l0-.013h3.8s12.127-1.468,10.863,13c-0.838,9.6-14.482,10.1-14.482,10.1h-19.6l0.7-7.947h15.4a3.04,3.04,0,0,0,3.044-2.789c0.241-2.763-.9-3.422-0.9-3.422h-3.4l0.063-.122-0.863.122s-13.607.078-12.63-11.086c1-11.491,12.935-10.756,12.935-10.756h21.2l0.212,6.708h-15.8s-3.091-1.229-3.5,3.416v0ZM867.468,240l0.117-1.332c-0.343.116-.687,0.229-1.029,0.332a26.858,26.858,0,0,1-6.089,1s-16.8-2.329-15.511-17c1.6-18.226,16.667-19.055,16.667-19.055h22v0.108l2.988,0.01L883.467,240h-16Zm-2.725-26s-4.055.632-4.7,8c-0.615,7.034,5.388,7,5.388,7l3.116-1.334,1.2-13.667h-5Zm-22.724-26-4.462,51-17.574,6,4.19-57h-24.19l5-11h62l-6.962,11h-18Zm-59.186,36.01,0.038-.011-0.21,2.409L781.471,240c-1.221,13.975-15.086,17-15.086,17h-21.6l0.7-7.948h17.4a3.285,3.285,0,0,0,2.614-1.4l-0.722.345,0.724-8.265c-0.644.182-1.024,0.266-1.024,0.266h-6s-16.957-.482-15.512-17c1.6-18.226,16.666-19.055,16.666-19.055h6v0.01L784.621,204s-0.067.773-1.662,19C782.929,223.343,782.884,223.679,782.833,224.01ZM764.747,214h-2s-4.055.632-4.7,8c-0.456,5.213,2.722,6.543,4.4,6.883l-0.01.118h4l1.027-.312L768.747,214h-4Zm-25.186,25h-15l1.716-19.617h-0.015c0.216-5.07-2.787-5.477-4.009-5.434-1.232-.044-4.377.376-4.987,5.654h-0.008l-1.7,19.4h-15l1.749-19.993V219h0l0.087-1h0.032c1.815-12.35,16.28-15,16.28-15h8s14.95,2.651,14.652,15h0.034Zm-16.812-25h-1a3.569,3.569,0,0,1,.5-0.05A3.282,3.282,0,0,1,722.749,214Zm-21.511-17h-16l0.962-11h16l-0.093,1.071Zm-0.736,8.409L697.563,239h-16l3.15-36h16Zm-21.664,18.6,0.038-.011-0.21,2.409L677.476,240c-1.223,13.975-15.086,17-15.086,17h-21.6l0.7-7.948h17.4a3.286,3.286,0,0,0,2.614-1.4l-0.722.345,0.723-8.265c-0.643.182-1.023,0.266-1.023,0.266h-6s-16.956-.482-15.511-17c1.6-18.226,16.666-19.055,16.666-19.055h6v0.01L680.626,204s-0.067.773-1.662,19c-0.03.343-.075,0.679-0.126,1.01h0ZM660.752,214h-2s-4.055.632-4.7,8c-0.456,5.213,2.722,6.543,4.4,6.883h0l-0.01.118h4l1.027-.312L664.052,222h0l0.7-8h-4Zm-17.3-8-3.612,7h-5.733c-1.571,1.295-3.153,2.654-4.617,4a52.065,52.065,0,0,0-7.878,10.043L620.479,240h-16l3.151-36h16l-0.211,2.409-0.326,3.791a19.713,19.713,0,0,1,2.192-2.2,15.158,15.158,0,0,1,6.263-3h13s-0.7.494-1.845,1.336ZM578.07,224a5.258,5.258,0,0,0,4.384,4.882,7.071,7.071,0,0,0,2.3-.882h16.873c-4.319,9.193-17.145,12-17.145,12h-6s-16.941-.667-15.511-17c1.6-18.226,16.666-19.055,16.666-19.055h10S601.7,204.618,602.976,218h0.429l-0.525,6H578.07Zm6.686-10h-2s-2.443.384-3.838,4h8.975C587.131,214.383,584.756,214,584.756,214Zm-26.436,5-1.75,20h-15l1.661-19h-0.018c0.217-3.827-.489-4.8-1.018-5h0.474a1.476,1.476,0,0,0-.6-0.036,0.722,0.722,0,0,0-.4.036h0.212c-0.839.2-2.109,1.173-2.621,5h-0.029l-1.661,19h-12l1.662-19h-0.027c0.157-3.827-.944-4.8-1.747-5h0.212a0.676,0.676,0,0,0-.4-0.036,1.557,1.557,0,0,0-.6.036h0.475c-0.565.2-1.441,1.173-1.894,5h-0.019l-1.661,19h-15l1.662-19h0v-0.006l0.087-.994h0.016c2.059-17.445,16.3-15,16.3-15h3a7.615,7.615,0,0,1,6.576,2.664A9.364,9.364,0,0,1,541.633,204h3s14.665-2.445,13.67,15h0.017Zm-32.861-4h-0.313a0.741,0.741,0,0,1,.128-0.036A1.26,1.26,0,0,1,525.459,215Zm16.737,0h-0.313a1.5,1.5,0,0,1,.191-0.036A0.679,0.679,0,0,1,542.2,215Zm-68.16-27L472.9,201h32l-0.963,11h-32l-1.4,16h32l-0.961,11H446s5.5-10.279,6-16c1.521-17.381,5-46,5-46h54l-4.963,11h-32Z" transform="translate(-446 -172)"/>
  <path id="_1-2" data-name="1" class="cls-2" d="M979.726,209.126c-0.387,4.434,2.556,2.783,2.556,2.783h0.393l0.006-.013h3.8s12.127-1.468,10.863,13c-0.838,9.6-14.482,10.1-14.482,10.1h-19.4l-14,.055-6.418-6.653-0.578,6.6h-16l4.981-56.937,16-.056-0.8,9.125-1.367,15.613,4.332-3.8,14,0.052-17.08,16.425,16.749,19.365,0.677-7.737h15.4a3.039,3.039,0,0,0,3.043-2.79c0.242-2.762-.9-3.421-0.9-3.421h-3.4l0.062-.122-0.863.122s-13.606.078-12.629-11.086c1-11.491,12.939-10.756,12.939-10.756h21.2l0.212,6.708h-15.8s-3.091-1.229-3.5,3.416v0Zm-74,0c-0.388,4.434,2.556,2.783,2.556,2.783h0.393l0-.013h3.8s12.127-1.468,10.863,13c-0.838,9.6-14.482,10.1-14.482,10.1h-19.6l0.7-7.947h15.4a3.04,3.04,0,0,0,3.044-2.789c0.241-2.763-.9-3.422-0.9-3.422h-3.4l0.063-.122-0.863.122s-13.607.078-12.63-11.086c1-11.491,12.935-10.756,12.935-10.756h21.2l0.212,6.708h-15.8s-3.091-1.229-3.5,3.416v0ZM867.468,235l0.117-1.332c-0.343.116-.687,0.229-1.029,0.332a26.858,26.858,0,0,1-6.089,1s-16.8-2.329-15.511-17c1.6-18.226,16.667-19.055,16.667-19.055h22v0.108l2.988,0.01L883.467,235h-16Zm-2.725-26s-4.055.632-4.7,8c-0.615,7.034,5.388,7,5.388,7l3.116-1.334,1.2-13.667h-5Zm-22.724-26-4.462,51-17.574,6,4.19-57h-24.19l5-11h62l-6.962,11h-18Zm-59.186,36.01,0.038-.011-0.21,2.409L781.471,235c-1.221,13.975-15.086,17-15.086,17h-21.6l0.7-7.948h17.4a3.285,3.285,0,0,0,2.614-1.4l-0.722.345,0.724-8.265c-0.644.182-1.024,0.266-1.024,0.266h-6s-16.957-.482-15.512-17c1.6-18.226,16.666-19.055,16.666-19.055h6v0.01L784.621,199s-0.067.773-1.662,19C782.929,218.343,782.884,218.679,782.833,219.01ZM764.747,209h-2s-4.055.632-4.7,8c-0.456,5.213,2.722,6.543,4.4,6.883l-0.01.118h4l1.027-.312L768.747,209h-4Zm-25.186,25h-15l1.716-19.617h-0.015c0.216-5.07-2.787-5.477-4.009-5.434-1.232-.044-4.377.376-4.987,5.654h-0.008l-1.7,19.4h-15l1.749-19.993V214h0l0.087-1h0.032c1.815-12.35,16.28-15,16.28-15h8s14.95,2.651,14.652,15h0.034Zm-16.812-25h-1a3.569,3.569,0,0,1,.5-0.05A3.282,3.282,0,0,1,722.749,209Zm-21.511-17h-16l0.962-11h16l-0.093,1.071Zm-0.736,8.409L697.563,234h-16l3.15-36h16Zm-21.664,18.6,0.038-.011-0.21,2.409L677.476,235c-1.223,13.975-15.086,17-15.086,17h-21.6l0.7-7.948h17.4a3.286,3.286,0,0,0,2.614-1.4l-0.722.345,0.723-8.265c-0.643.182-1.023,0.266-1.023,0.266h-6s-16.956-.482-15.511-17c1.6-18.226,16.666-19.055,16.666-19.055h6v0.01L680.626,199s-0.067.773-1.662,19c-0.03.343-.075,0.679-0.126,1.01h0ZM660.752,209h-2s-4.055.632-4.7,8c-0.456,5.213,2.722,6.543,4.4,6.883h0l-0.01.118h4l1.027-.312L664.052,217h0l0.7-8h-4Zm-17.3-8-3.612,7h-5.733c-1.571,1.295-3.153,2.654-4.617,4a52.065,52.065,0,0,0-7.878,10.043L620.479,235h-16l3.151-36h16l-0.211,2.409-0.326,3.791a19.713,19.713,0,0,1,2.192-2.2,15.158,15.158,0,0,1,6.263-3h13s-0.7.494-1.845,1.336ZM578.07,219a5.258,5.258,0,0,0,4.384,4.882,7.071,7.071,0,0,0,2.3-.882h16.873c-4.319,9.193-17.145,12-17.145,12h-6s-16.941-.667-15.511-17c1.6-18.226,16.666-19.055,16.666-19.055h10S601.7,199.618,602.976,213h0.429l-0.525,6H578.07Zm6.686-10h-2s-2.443.384-3.838,4h8.975C587.131,209.383,584.756,209,584.756,209Zm-26.436,5-1.75,20h-15l1.661-19h-0.018c0.217-3.827-.489-4.8-1.018-5h0.474a1.476,1.476,0,0,0-.6-0.036,0.722,0.722,0,0,0-.4.036h0.212c-0.839.2-2.109,1.173-2.621,5h-0.029l-1.661,19h-12l1.662-19h-0.027c0.157-3.827-.944-4.8-1.747-5h0.212a0.676,0.676,0,0,0-.4-0.036,1.557,1.557,0,0,0-.6.036h0.475c-0.565.2-1.441,1.173-1.894,5h-0.019l-1.661,19h-15l1.662-19h0v-0.006l0.087-.994h0.016c2.059-17.445,16.3-15,16.3-15h3a7.615,7.615,0,0,1,6.576,2.664A9.364,9.364,0,0,1,541.633,199h3s14.665-2.445,13.67,15h0.017Zm-32.861-4h-0.313a0.741,0.741,0,0,1,.128-0.036A1.26,1.26,0,0,1,525.459,210Zm16.737,0h-0.313a1.5,1.5,0,0,1,.191-0.036A0.679,0.679,0,0,1,542.2,210Zm-68.16-27L472.9,196h32l-0.963,11h-32l-1.4,16h32l-0.961,11H446s5.5-10.279,6-16c1.521-17.381,5-46,5-46h54l-4.963,11h-32Z" transform="translate(-446 -172)"/>
</svg>
