<svg id="link_1" xmlns="http://www.w3.org/2000/svg" width="180" height="180" viewBox="0 0 180 180">
  <defs>
    <style>
      .cls-1, .cls-2 {
        fill-rule: evenodd;
      }

      .cls-2 {
        fill: #025f84;
      }
    </style>
  </defs>
  <path id="_1" data-name="1" class="cls-1" d="M631.318,3126.81c0.876-.13,1.838-1.79,2.259-2.48a2.452,2.452,0,0,1,.508-0.96c0.564,0.24,1.129.49,1.694,0.73l-0.057.12c-1.257.67-1.954,1.94-3.218,2.59v0.06H634.2a11.451,11.451,0,0,1,2.315-.11v-0.12a7.107,7.107,0,0,1-.96-1.46,0.878,0.878,0,0,1,.282-0.06c0.871,0.64,1.471.49,2.033,1.58a1.167,1.167,0,0,1,.113,1.13,0.515,0.515,0,0,1-.508.4,0.852,0.852,0,0,1-.565-0.17,1.678,1.678,0,0,0-.226-0.85,0.4,0.4,0,0,0-.226-0.06,5.049,5.049,0,0,1-1.355.34c-0.677.21-1.511,0.37-2.2,0.57-0.188.02-.376,0.03-0.565,0.05-0.185.06-.258,0.21-0.451,0.29C631.75,3127.84,631.41,3127.41,631.318,3126.81Zm67.814,6.78h2.089a2.2,2.2,0,0,1,.9-1.02c0.327,0.47,1.2.71,1.355,1.3a1,1,0,0,0-.226.17h-4.121v2.2h3.387a8.911,8.911,0,0,1,.791-1.13c0.593,0.35,1.015.93,1.581,1.3-0.019.06-.038,0.12-0.057,0.17a20.824,20.824,0,0,1-4.291.12h-8.356v-0.12a0.553,0.553,0,0,1-.113-0.34h5.646v-2.2h-4.065v-0.05H693.6c-0.019-.14-0.038-0.27-0.056-0.4h4.178v-2.09c-1,.11-2,0.23-2.993.34a0.564,0.564,0,0,1-.451.39c-0.137-.57-0.471-1.02-0.565-1.63,1.373-.1,2.617-1.91,3.5-2.6v-0.06h-3.219c-0.018-.15-0.037-0.3-0.056-0.45h6.889l0.677-.9a0.2,0.2,0,0,1,.113.05,6.255,6.255,0,0,1,1.186.91c0.075-.55.15-1.09,0.226-1.64h-8.922c0.036,1.21-.344,2.18-1.581,2.15a0.193,0.193,0,0,0-.113-0.06,1.057,1.057,0,0,1-.282-0.79,2.539,2.539,0,0,1,.282-0.45,3.057,3.057,0,0,0,.847-0.68c0.235-.36.207-1.06,0.4-1.35a0.23,0.23,0,0,1,.169-0.06v0.06h0.056a1.671,1.671,0,0,0,.17.67,3.339,3.339,0,0,0,1.242.06H698.4v-0.06c-0.325-.11-0.212-0.32-0.339-0.62a7.769,7.769,0,0,0-.9-1.24,0.616,0.616,0,0,1,.283-0.11,11.518,11.518,0,0,0,1.185.22,2.491,2.491,0,0,1,.791.74,0.86,0.86,0,0,1-.395,1.01v0.06h3.9c0.226-.26.451-0.53,0.677-0.79a0.116,0.116,0,0,1,.057.06,3.537,3.537,0,0,1,1.242,1.35c-0.836.18-.915,0.82-1.468,1.24-0.185.14-.472,0.27-0.565,0.34,0.006,0.01.163,0.08,0.113,0.11h-0.056a1.828,1.828,0,0,1-1.242.17h-3.558V3128h0.113a3.8,3.8,0,0,1,.9.62,1.8,1.8,0,0,1-.283.17l-0.282-.06a5.686,5.686,0,0,0-.621.51c-0.467.31-1,.56-1.468,0.85a11.182,11.182,0,0,0-1.242.56c2.138,0.01,4.182-.11,6.211-0.17v-0.11a6.362,6.362,0,0,1-1.243-1.35,0.678,0.678,0,0,1,.283-0.06,6,6,0,0,0,1.016.34c1.013,0.43,2.264,1.22,1.92,2.65a0.982,0.982,0,0,1-.96.12,12.352,12.352,0,0,0-.678-1.25l-2.54.45a4.966,4.966,0,0,0-1.412.23,5.791,5.791,0,0,1,1.807.17,1.322,1.322,0,0,1-.508.4v1.52Zm-141.161-9.54a0.3,0.3,0,0,1-.056.17,0.942,0.942,0,0,0-.452.17,3.823,3.823,0,0,0-.508,1.07h4.46c0.228-.37.533-0.68,0.734-1.07a4.713,4.713,0,0,1,1.412,1.35,0.671,0.671,0,0,1-.226.11,5.194,5.194,0,0,1-1.863.06h-4.8c-0.1.38-.395,0.58-0.508,0.96,0.386,0.1.677,0.4,1.017,0.51h3.613a1.455,1.455,0,0,1,.734-0.74,4.685,4.685,0,0,0,1.186,1.13v0.06c-0.832.23-.659,0.8-0.621,1.81a3.054,3.054,0,0,0-.057,1.18h0.113v-0.11a3.441,3.441,0,0,0,.565-0.9h0.056v0.05a2.839,2.839,0,0,1,1.073,1.3l-0.169.06a4.725,4.725,0,0,1-1.694.05,21.77,21.77,0,0,1-.226,3h0.113a6.043,6.043,0,0,1,.508-0.91h0.113a3.958,3.958,0,0,1,1.017,1.25,4.967,4.967,0,0,1-1.807.11c-0.14,1.47-.7,2.59-2.315,2.6v-0.06h-0.057a1.652,1.652,0,0,0-.113-0.73,2.338,2.338,0,0,0-1.129-.51v-0.28a7.267,7.267,0,0,0,1.863.05,2.46,2.46,0,0,0,.452-1.07h-4.348a1.106,1.106,0,0,1-.621.56,2.521,2.521,0,0,1-1.186-.84,0.6,0.6,0,0,0,.509-0.57,10.984,10.984,0,0,0,.395-2.6H553.68v-0.05h-0.057c-0.019-.13-0.037-0.27-0.056-0.4h1.694c0.016-1.08.319-2.08,0.339-3.22h-0.057v0.06c-0.448.43-.885,1.33-1.581,1.47a0.877,0.877,0,0,1-.056-0.23c0.7-.52,1.451-2.75,1.806-3.72a5.838,5.838,0,0,1,.509-1.7A5.938,5.938,0,0,0,557.971,3124.05Zm57.142,1.58c-0.057.56-.113,1.13-0.17,1.69h0.791c0.222-.35.536-0.63,0.734-1.01,0.507,0.32.861,0.85,1.355,1.18-0.038.08-.075,0.15-0.113,0.23-0.856.09-1.932,0.05-2.88,0.05a1.825,1.825,0,0,1-.169.68h0.113a4.439,4.439,0,0,0,.791.17c0.835,0.28,1.831.79,1.581,1.98a0.769,0.769,0,0,1-.735.22,1.969,1.969,0,0,1-.564-0.79,4.944,4.944,0,0,0-1.355-1.18c-0.31,1.11-2.346,2.6-3.67,2.71a0.7,0.7,0,0,0-.113-0.23,4.492,4.492,0,0,0,2.879-3.56h-2.71v-0.05h-0.056c-0.019-.13-0.038-0.27-0.057-0.4h2.88v-0.11a5.868,5.868,0,0,0,.113-1.58h-0.791a3.391,3.391,0,0,1-1.581,1.52,0.424,0.424,0,0,0-.113-0.11c0.019-.06.038-0.11,0.057-0.17a6.286,6.286,0,0,0,.96-2.31,2.316,2.316,0,0,1,.282-1.08c0.382,0.28,1.4.22,1.637,0.62a0.488,0.488,0,0,1-.225.17c-0.057.04-.226,0.08-0.283,0.12a2,2,0,0,0-.395.79h2.2a1.926,1.926,0,0,1,.847-0.96c0.295,0.43,1.071.68,1.186,1.24a0.978,0.978,0,0,0-.226.17h-2.2Zm41.783-2.15a2.714,2.714,0,0,1,2.315,1.13,1.147,1.147,0,0,1-.282,1.13,0.764,0.764,0,0,1-1.073-.22,4.969,4.969,0,0,1-.169-0.68A6.272,6.272,0,0,1,656.9,3123.48Zm24.393,0.45v0.17a6.754,6.754,0,0,0-.621.29,7.353,7.353,0,0,0,2.71,3.21c0.326,0.23,1.342.57,1.412,0.96-0.775.21-.662,0.78-1.073,1.02-0.346-.45-0.953-0.72-1.3-1.18a10.034,10.034,0,0,1-1.92-3.56,0.192,0.192,0,0,0-.056.11,9.96,9.96,0,0,0-.847,1.36c-0.585.83-2.3,2.84-3.275,3.16a0.913,0.913,0,0,1-.113-0.23c0.931-.64,2.155-2.87,2.654-4.01,0.177-.4.416-1.69,0.847-1.75A3.667,3.667,0,0,0,681.289,3123.93Zm-129.755-.33a3.071,3.071,0,0,1,2.372,1.24,2.207,2.207,0,0,1-.057.84,0.833,0.833,0,0,1-.282.17,0.739,0.739,0,0,1-.734,0,13.28,13.28,0,0,0-.9-1.63C551.722,3123.94,551.4,3123.93,551.534,3123.6Zm-13.89.28c-0.019.09-.038,0.19-0.057,0.28-0.15.06-.3,0.11-0.451,0.17v4.86h2.71c0.282-.38.565-0.76,0.847-1.13a0.2,0.2,0,0,1,.113.05,5.327,5.327,0,0,1,1.524,1.36h-0.056a2.1,2.1,0,0,1-1.355.17h-3.783v6.43h3.783a2.071,2.071,0,0,1,.96-1.12,7.623,7.623,0,0,0,1.524,1.29,0.223,0.223,0,0,1-.056.12c-0.073.14,0.024,0.04-.113,0.11a2.762,2.762,0,0,1-1.017.06h-11.8c-0.018-.15-0.037-0.31-0.056-0.46h5.308v-12.36a0.84,0.84,0,0,1,.225-0.06A7.207,7.207,0,0,0,537.644,3123.88Zm100.958-.23c0.583,0.06,1.167.12,1.75,0.17-0.018.1-.037,0.19-0.056,0.28-0.557.15-.361,1.58-0.339,2.26h0.113c0.74-.74,1.9-1.08,2.484-1.97a0.138,0.138,0,0,1,.057.05,16.625,16.625,0,0,1,1.412,1.08v0.05h-0.057a2.8,2.8,0,0,1-.847.06,18.956,18.956,0,0,1-3.162,1.13v1.86a0.173,0.173,0,0,1,.057.06,12.512,12.512,0,0,0,2.879-.06c0.125-.51.379-1.02,0.508-1.58h0.226v1.58a0.584,0.584,0,0,1,.508.68,0.659,0.659,0,0,0-.112.28,9.815,9.815,0,0,1-5.082.23C638.328,3128.83,638.6,3125.29,638.6,3123.65Zm-62.619.12c0.659,0.07,1.318.15,1.976,0.22v0.11H577.9a0.2,0.2,0,0,1-.113.17,0.559,0.559,0,0,1-.339.12,12.839,12.839,0,0,0,.339,3.05,21.019,21.019,0,0,0,.734,3.04,9.91,9.91,0,0,0,5.364,5.26,0.235,0.235,0,0,1-.056.11,5.738,5.738,0,0,0-.96.56c-0.178.25-.209,0.61-0.4,0.85a18.566,18.566,0,0,1-2.145-1.64,13.212,13.212,0,0,1-2.936-8.13h-0.057v0.11a5.663,5.663,0,0,0-.169,1.36c-0.17.7-.339,1.39-0.508,2.09a10.346,10.346,0,0,1-4.066,5.19,4.225,4.225,0,0,1-1.75,1.02,0.822,0.822,0,0,0-.113-0.23,6.89,6.89,0,0,0,2.146-1.92,13.383,13.383,0,0,0,1.863-2.65C575.767,3130.11,575.965,3127.21,575.983,3123.77Zm100.732,7.22c0.019,1.75-.163,4.69-0.9,5.71a1.885,1.885,0,0,1-1.525.62,1.1,1.1,0,0,0-.113-0.62c-0.181-.48-0.9-0.33-1.016-0.8a0.914,0.914,0,0,1,.226-0.05,3.068,3.068,0,0,0,1.412.05c0.712-1.11.78-3.25,0.79-5.02H673.61c-0.151.19-.3,0.38-0.452,0.56a0.136,0.136,0,0,1-.056-0.05,2.9,2.9,0,0,1-1.073-.85,0.559,0.559,0,0,0,.508-0.56,4.063,4.063,0,0,0,.113-1.08,13.584,13.584,0,0,0,.226-2.65c0.508,0.11,1.016.23,1.524,0.34v0.17a3.72,3.72,0,0,0-.508.22l-0.282,3.45h1.242c0.03-1.74.379-3.44,0.395-5.31H672.2v-0.11a0.959,0.959,0,0,1-.113-0.34h3.106c0.128-.26.319-0.43,0.451-0.68a13.944,13.944,0,0,1,1.3,1.02c-0.172.4-.552,0.11-0.564,0.73a4.042,4.042,0,0,0-.057.96,15.575,15.575,0,0,0-.226,3.05c0.349,0.22.58,0.61,0.9,0.85a1.018,1.018,0,0,0,.451.11,7.263,7.263,0,0,1,1.525,2.37c0.208,0.63.219,1.83-.339,2.03a0.514,0.514,0,0,1-.282.06c-0.446-.36-0.42-0.42-0.395-1.24a4.732,4.732,0,0,1-.17-1.07c-0.179-.68-0.406-1.38-0.565-2.04h-0.056A0.494,0.494,0,0,1,676.715,3130.99Zm-55.052-.56v-0.96h-2.372v0.84a2.02,2.02,0,0,1-1.3.4v-6.21a8.144,8.144,0,0,1,1.3.56h2.259c0.207-.24.414-0.49,0.621-0.73h0.056v0.06c0.433,0.33.866,0.67,1.3,1.01v0.12a2.886,2.886,0,0,0-.508.22v4.29a0.23,0.23,0,0,0-.057.12A4.275,4.275,0,0,1,621.663,3130.43Zm-23.489-4.18v9.37h3.331c0.282-.39.565-0.79,0.847-1.18a5.145,5.145,0,0,1,1.637,1.52c-0.64.33-2.8,0.11-3.726,0.11h-9.2v-0.11a0.584,0.584,0,0,1-.113-0.34h5.759v-9.37h-4.686v-0.06h-0.057c-0.018-.15-0.037-0.3-0.056-0.45h8.752c0.208-.42.55-0.73,0.79-1.13a0.19,0.19,0,0,1,.113.06,7.987,7.987,0,0,1,1.581,1.3c-0.018.05-.037,0.11-0.056,0.17A26.473,26.473,0,0,1,598.174,3126.25Zm55.052-1.19h0.226c0.056,0.29.113,0.57,0.169,0.85h8.865a2.077,2.077,0,0,1,.791-0.79,8.4,8.4,0,0,1,1.3,1.41h-0.056a2.338,2.338,0,0,1-.452.11l-1.016,1.08a6.066,6.066,0,0,0-.734.56,0.2,0.2,0,0,1-.113-0.05,0.275,0.275,0,0,1-.113-0.06,5.866,5.866,0,0,0,.452-1.81h-8.865c0.108,1.13-.312,2.24-1.581,2.2-0.161-.15-0.346-0.3-0.508-0.45v-0.62C652.26,3126.81,653.2,3126.39,653.226,3125.06Zm-33.935.46v3.5h2.372v-3.5h-2.372Zm-68.6,7.73v-0.28h0.057v-0.06a1.982,1.982,0,0,0,.79-0.05,5.775,5.775,0,0,0,.734-1.7c0.461-1.09.9-2.29,1.355-3.39,0.179-.43.392-1.68,0.847-1.75v0.06h0.057a66.531,66.531,0,0,0-1.807,6.89c-0.321,1.39.942,2.42,0.339,3.78a1.99,1.99,0,0,1-.509.51,1.768,1.768,0,0,1-.734-0.06,2.826,2.826,0,0,1-.282-0.56,4.644,4.644,0,0,1,.169-1.3,3.966,3.966,0,0,0-.225-1.81A1.6,1.6,0,0,0,550.687,3133.25Zm109.2-6.27v0.17a0.833,0.833,0,0,1-.282.17,0.289,0.289,0,0,1-.17.06,22.1,22.1,0,0,1-.451,4.85h3.049a2.679,2.679,0,0,1,.847-1.18c0.316,0.43,1.394.97,1.468,1.52l-0.17.06a4.222,4.222,0,0,1-1.524.06h-3.84c-0.041.3-.175,0.43-0.226,0.73,1.689,0.08,4.159,1.23,4.856,2.32a1.807,1.807,0,0,1,.226,1.01,0.747,0.747,0,0,1-1.073.34,23.123,23.123,0,0,0-1.92-1.98c-0.418-.3-0.869-0.63-1.3-0.9a4.407,4.407,0,0,1-.9-0.51,0.2,0.2,0,0,0-.113.06c-0.4.31-.606,0.88-1.016,1.19a13.135,13.135,0,0,1-5.759,2.37v-0.12a0.277,0.277,0,0,1-.057-0.17,6.618,6.618,0,0,0,1.807-.67,7,7,0,0,0,4.066-3.67H652.04v-0.12a0.939,0.939,0,0,1-.112-0.34h5.646a15.663,15.663,0,0,1,.339-2.14c0.226-1.04-.262-2.39.056-3.33C658.609,3126.83,659.249,3126.91,659.889,3126.98Zm-109.315.06c1.3-.02,3.01.97,1.864,2.15a3.326,3.326,0,0,1-.678-0.06,11.7,11.7,0,0,0-.734-1.41c-0.1-.15-0.49-0.38-0.565-0.51C550.5,3127.15,550.537,3127.1,550.574,3127.04Zm104.007,0a3.018,3.018,0,0,1,2.428,1.02,0.8,0.8,0,0,1-.677,1.3,0.6,0.6,0,0,0-.283-0.12,4.888,4.888,0,0,0-.9-1.47A1.181,1.181,0,0,1,654.581,3127.04Zm-97.683.79c-0.132,1-.263,2-0.395,2.99h4.291c0.019-.99.038-1.99,0.057-2.99H556.9Zm0.791,0.45a3.059,3.059,0,0,1,1.694.91,3.464,3.464,0,0,0,.225.39,3.185,3.185,0,0,1-.056.68,0.842,0.842,0,0,1-.847.11,4.549,4.549,0,0,0-1.129-1.92C557.613,3128.4,557.651,3128.34,557.689,3128.28Zm76.791,7.29c0.452,0.01.9,0.03,1.355,0.05v-0.05h0.057v-2.09H633.52v3.38a1.766,1.766,0,0,1-1.242.4v-8.75h0.113c0.693,0.65,2.027.57,3.388,0.56a8.308,8.308,0,0,0,.564-0.73h0.113a4.35,4.35,0,0,0,1.355,1.07,0.934,0.934,0,0,1-.056.11,3.86,3.86,0,0,0-.508.23v5.99a6.679,6.679,0,0,0-.113.67,1.7,1.7,0,0,1-1.525.85v-0.06h-0.056a1.353,1.353,0,0,0-.395-1.18C634.885,3135.83,634.556,3135.97,634.48,3135.57Zm43.252-5.93a1.01,1.01,0,0,1-.057-0.4,2.475,2.475,0,0,1,.96-0.05h2.372a1.607,1.607,0,0,1,.677-0.79,3.6,3.6,0,0,1,1.017,1.12,4.359,4.359,0,0,1-1.581.12h-3.388Zm-24.223-.34c1.341,0.02,2.8.61,2.766,2.03-0.465.51-.359,0.53-1.185,0.4a3.963,3.963,0,0,0-1.017-1.7A1.071,1.071,0,0,1,653.509,3129.3Zm-19.989.22v1.47h2.372v-1.47H633.52Zm48.842,0.63a5.252,5.252,0,0,1,1.807.67h-0.057a0.738,0.738,0,0,1-.508.29,5,5,0,0,1-.508,1.35c-0.566,1.34-1.084,2.51-1.694,3.73h1.3a2.125,2.125,0,0,1,.846-0.96c0.313,0.45,1.12.69,1.243,1.3a7.425,7.425,0,0,1-2.485.11h-5.872v-0.11a0.336,0.336,0,0,1-.056-0.29,3.663,3.663,0,0,1,1.3-.05h3.332v-0.12a5.424,5.424,0,0,0,.4-1.52c0.291-.96.468-2.1,0.734-3.11C682.255,3130.99,682.218,3130.55,682.362,3130.15Zm-3.162.11h0.226c0.842,1.27,1.957,1.95,1.468,4.12a1.033,1.033,0,0,1-.565.28,0.725,0.725,0,0,1-.395-0.84,4.443,4.443,0,0,1-.113-1.02A17.234,17.234,0,0,1,679.2,3130.26Zm-40.542.17c0.584,0.05,1.167.11,1.751,0.17-0.019.09-.038,0.19-0.057,0.28a1.49,1.49,0,0,1-.338.11v2.2h0.112a3.469,3.469,0,0,1,.735-0.5,7.5,7.5,0,0,0,1.75-1.64c0.508,0.36,1.016.71,1.524,1.07a0.154,0.154,0,0,1-.056.11,2.213,2.213,0,0,1-.791.06,2.474,2.474,0,0,0-.282.23c-0.507.26-1.074,0.46-1.581,0.67a6.242,6.242,0,0,0-1.355.46,7.54,7.54,0,0,0-.056,1.97,0.17,0.17,0,0,1,.056.06c0.882,0.06,1.994.01,2.88,0a6.871,6.871,0,0,0,.621-1.81H643.8v1.7a1.713,1.713,0,0,1,.508.39,1.347,1.347,0,0,1-.113.62c-0.748.45-4.776,0.87-5.364,0a3.626,3.626,0,0,1-.17-1.75v-4.4Zm-17.391,1.64v4.85l-0.169.06a2.12,2.12,0,0,1-1.129.28,3.234,3.234,0,0,1-.057-0.9h-5.364v0.56a2.315,2.315,0,0,1-1.3.4v-6.55h0.057c1.035,0.97,4.531.62,6.55,0.62,0.188-.25.376-0.49,0.564-0.74h0.057v0.06a5.5,5.5,0,0,1,1.355,1.07h-0.056A0.659,0.659,0,0,1,621.267,3132.07Zm-64.821-.8q-0.225,1.5-.451,3h4.46v-0.06h0.057q0.113-1.47.226-2.94h-4.292Zm77.074,0.17v1.59h2.372v-1.59H633.52Zm-76.057.12a2.14,2.14,0,0,1,1.976,1.86,0.68,0.68,0,0,1-.734.45,1.319,1.319,0,0,0-.226-0.11,8.563,8.563,0,0,0-.621-1.47,4.153,4.153,0,0,1-.452-0.51A0.264,0.264,0,0,1,557.463,3131.56Zm57.085,0.28v1.75h5.364v-1.75h-5.364Zm60.643,0.73v0.17c-0.447.29-.818,0.71-1.242,1.02-0.371.27-.773,0.45-1.13,0.73a2.541,2.541,0,0,1-.451.51c-0.226-.54-0.452-1.09-0.678-1.64H671.8a5.086,5.086,0,0,1,1.3-.28A10.281,10.281,0,0,1,675.191,3132.57Zm-60.643,1.47v1.86h5.364v-1.86h-5.364Zm-8.074,15.87v0.17h-2.428v-0.17a2.671,2.671,0,0,0,.564-0.11,0.64,0.64,0,0,0,.17-0.4,4.063,4.063,0,0,0,.056-1.47,21.827,21.827,0,0,0-.113-4.06H604.61a1.33,1.33,0,0,0-.621-0.06v-0.17a9.462,9.462,0,0,0,1.694-.45v6.27a0.344,0.344,0,0,1,.057.22,0.916,0.916,0,0,0,.226.12A0.752,0.752,0,0,0,606.474,3149.91Zm21.23,0v0.17h-2.428v-0.17a2.694,2.694,0,0,0,.565-0.11,0.645,0.645,0,0,0,.169-0.4,4.061,4.061,0,0,0,.057-1.47,20.84,20.84,0,0,0-.113-4.06h-0.113a1.332,1.332,0,0,0-.621-0.06v-0.17a8.616,8.616,0,0,0,1.694-.45v6.27a0.352,0.352,0,0,1,.056.22,0.934,0.934,0,0,0,.226.12A0.755,0.755,0,0,0,627.7,3149.91Zm2.824,0v0.17H628.1v-0.17a0.694,0.694,0,0,0,.677-0.28,2.813,2.813,0,0,0,.113-1.3v-3.16a2.659,2.659,0,0,0-.113-1.25,3.258,3.258,0,0,1-.734-0.22,0.173,0.173,0,0,0,.057-0.06,12.316,12.316,0,0,0,1.637-.45v6.15a1.352,1.352,0,0,1,.113.4l0.169,0.06A0.756,0.756,0,0,0,630.528,3149.91Zm-93.336-6.66v2.93h0.057c0.23-.37,1.278-1.09,1.919-0.62,1.258,0.36.6,2.75,0.847,4.12a2.946,2.946,0,0,0,.565.28v0.12h-2.2v-0.17a0.668,0.668,0,0,0,.565-0.23,1.951,1.951,0,0,0,.112-1.01c0-.82.216-2.32-0.395-2.55a0.861,0.861,0,0,0-.96.12,1.4,1.4,0,0,0-.508.34v2.82a0.959,0.959,0,0,1,.113.34l0.169,0.06a0.631,0.631,0,0,0,.4.11v0.17h-2.2v-0.17c0.169-.04.338-0.08,0.508-0.11,0.388-.87.169-3.04,0.169-4.24a5.381,5.381,0,0,0-.113-1.64,0.911,0.911,0,0,0-.282-0.05,0.488,0.488,0,0,0-.282,0v-0.23A15.176,15.176,0,0,0,537.192,3143.25Zm19.819,0v2.93h0.057c0.23-.37,1.278-1.09,1.919-0.62,1.258,0.36.6,2.75,0.847,4.12a2.946,2.946,0,0,0,.565.28v0.12h-2.2v-0.17a0.669,0.669,0,0,0,.565-0.23,1.951,1.951,0,0,0,.112-1.01c0-.82.216-2.32-0.395-2.55a0.861,0.861,0,0,0-.96.12,1.4,1.4,0,0,0-.508.34v2.82a0.959,0.959,0,0,1,.113.34l0.169,0.06a0.631,0.631,0,0,0,.4.11v0.17h-2.2v-0.17c0.169-.04.338-0.08,0.508-0.11,0.388-.87.169-3.04,0.169-4.24a5.381,5.381,0,0,0-.113-1.64,0.911,0.911,0,0,0-.282-0.05,0.488,0.488,0,0,0-.282,0v-0.23A15.246,15.246,0,0,0,557.011,3143.25Zm9.147,0c0.189,0.01.377,0.03,0.565,0.05a0.913,0.913,0,0,1,.113.23,0.768,0.768,0,0,1,0,.56,0.985,0.985,0,0,1-.621.17,0.375,0.375,0,0,0-.226-0.11,1.716,1.716,0,0,1-.113-0.62A1.5,1.5,0,0,0,566.158,3143.25Zm18.408,0c0.384-.02.581,0,0.677,0.28a0.505,0.505,0,0,1-.621.73,0.627,0.627,0,0,1-.339-0.68Zm3.557,2.31c0.482,0,2.579-.1,2.654-0.06,0.387,0.64-.275,3.44.113,4.07a1.013,1.013,0,0,0,.621.34v0.17h-2.259v-0.17a1.545,1.545,0,0,0,.621-0.17,14.287,14.287,0,0,0,0-3.73H589.76a3.891,3.891,0,0,0-1.637-.11,19.355,19.355,0,0,0,.113,3.84l0.169,0.06a0.72,0.72,0,0,0,.452.11v0.17H586.6v-0.17a1.086,1.086,0,0,0,.621-0.17,36.345,36.345,0,0,0,.057-3.84H586.6v-0.34h0.678a2.174,2.174,0,0,1,1.524-2.26c0.836-.24,1.913.04,1.92,0.85a0.192,0.192,0,0,0-.056.11l-0.17.06a0.446,0.446,0,0,1-.282.05,1.678,1.678,0,0,0-1.242-.84,2.235,2.235,0,0,0-.226.11C588.129,3143.85,588.1,3144.72,588.123,3145.56Zm9.486-2.31h0.452a0.806,0.806,0,0,1,.225.28,0.86,0.86,0,0,1,.057.45,0.954,0.954,0,0,1-.734.28,0.82,0.82,0,0,1-.226-0.28,0.794,0.794,0,0,1,0-.57A0.961,0.961,0,0,0,597.609,3143.25Zm34.274,0c0.953-.06.954,1.06,0,1.01a1.56,1.56,0,0,1-.226-0.22C631.383,3143.7,631.692,3143.44,631.883,3143.25Zm40.315,0v2.93h0.057c1.018-1.63,3.655-.27,3.162,1.81a2.549,2.549,0,0,1-1.864,2.14c-0.685.19-1.923-.03-2.145-0.5a4.473,4.473,0,0,1-.057-1.59c0-1.34.025-2.81-.056-4.06a0.582,0.582,0,0,0-.339-0.11,0.488,0.488,0,0,0-.282,0v-0.23A13.512,13.512,0,0,0,672.2,3143.25Zm-137.716.05c0.075,0.72.15,1.43,0.226,2.15h-0.283c-0.11-1.04-1.458-2.32-2.6-1.53-0.094.13-.188,0.27-0.282,0.4,0.029,1.97,2.641,1.87,3.275,3.33a1.894,1.894,0,0,1-1.525,2.54c-0.942.23-1.538-.29-2.258-0.34a0.4,0.4,0,0,1-.4.34v-0.11a6.865,6.865,0,0,1-.282-2.04h0.226a2.41,2.41,0,0,0,1.468,1.64,1.571,1.571,0,0,0,1.186,0,1.18,1.18,0,0,0,.451-1.69c-0.634-.95-2.5-1.18-2.992-2.32a1.785,1.785,0,0,1,1.355-2.37c0.815-.2,1.346.28,1.976,0.34A0.523,0.523,0,0,1,534.482,3143.3Zm42.574,6.55v0.23h-2.6v-0.23a1.374,1.374,0,0,0,.621-0.11,1.452,1.452,0,0,0,.056-0.45c-0.188-.45-0.376-0.91-0.565-1.36h-2.71c-0.09.36-.786,1.56-0.339,1.81a0.756,0.756,0,0,0,.509.11v0.23H570v-0.23c0.8-.09.915-0.9,1.186-1.52,0.5-1.15,1.081-2.36,1.581-3.5,0.173-.4.4-1.47,0.847-1.53a9.276,9.276,0,0,0,.734,1.58c0.477,1.08.954,2.13,1.411,3.16,0.218,0.5.409,1.5,0.9,1.7A0.628,0.628,0,0,0,577.056,3149.85Zm32.3-6.44h3.05v0.23a2.845,2.845,0,0,0-.847.17,16.18,16.18,0,0,0-.113,3.33,15,15,0,0,0,.056,2.49,1.65,1.65,0,0,0,.9.22v0.23h-3.05a0.265,0.265,0,0,1,.057-0.17,2.83,2.83,0,0,0,.847-0.28,3.8,3.8,0,0,0,.113-1.59,22.945,22.945,0,0,0-.113-4.17,1.938,1.938,0,0,0-.9-0.23v-0.23Zm50.649,0h2.88v0.23a0.822,0.822,0,0,0-.847.34,2.739,2.739,0,0,0-.113,1.24v3.05a1.91,1.91,0,0,0,.169,1.3c0.558,0.38,2.646-.03,2.993-0.28,0.361-.27.331-0.91,0.9-0.96v0.11c-0.3.41-.2,1.17-0.508,1.58a4.227,4.227,0,0,1-1.525.06H660v-0.23a2.6,2.6,0,0,0,.677-0.11,0.881,0.881,0,0,0,.113-0.23,3.83,3.83,0,0,0,.113-1.58,19.464,19.464,0,0,0-.169-4.12,3.355,3.355,0,0,0-.734-0.17v-0.23Zm-77.808,2.15h1.017v0.34h-1.017a17.97,17.97,0,0,0,.113,3.56,0.934,0.934,0,0,0,.565.17,1.429,1.429,0,0,1,.508-0.34v0.05h0.056a0.223,0.223,0,0,1-.056.12,1.2,1.2,0,0,1-1.525.62c-0.821-.29-0.579-2.99-0.564-4.18h-0.565v-0.17a3.315,3.315,0,0,0,1.355-1.47h0.113v1.3Zm37.1,0h1.017v0.34h-1.017a17.97,17.97,0,0,0,.113,3.56,0.934,0.934,0,0,0,.565.17,1.429,1.429,0,0,1,.508-0.34v0.05h0.056v0.12c-0.312.25-.945,1.08-1.581,0.62-0.828-.29-0.58-2.99-0.564-4.18h-0.565a0.265,0.265,0,0,1,.057-0.17c0.173-.19.467-0.31,0.621-0.51a2.46,2.46,0,0,1,.79-0.96v1.3Zm71.089,0h0.96v0.34h-1.017c-0.014,1.17-.174,2.86.226,3.67a1.394,1.394,0,0,0,.96-0.28v0.05h0.056a0.216,0.216,0,0,1-.056.12,1.189,1.189,0,0,1-1.525.62c-0.775-.28-0.523-3.05-0.508-4.18h-0.621v-0.11a4.273,4.273,0,0,0,1.355-1.53h0.113v0.11A3.106,3.106,0,0,1,690.38,3145.56Zm-117.164-.73a19.444,19.444,0,0,0-1.129,2.65h2.259v-0.11C573.852,3146.71,573.763,3145.39,573.216,3144.83Zm-30.321.56a1.428,1.428,0,0,1,1.355.68c0.516,0.67.1,2.49,0.283,3.44h0.112a0.592,0.592,0,0,0,.565-0.11v0.28a1.437,1.437,0,0,1-1.3.4,2.146,2.146,0,0,0-.395-0.62c-0.585.87-2.856,0.97-2.484-.57a2.594,2.594,0,0,1,1.807-1.52c0.244-.08.489-0.15,0.734-0.23v-1.02a0.35,0.35,0,0,1-.113-0.22,0.978,0.978,0,0,1-.226-0.17,1.058,1.058,0,0,0-.791.06,0.448,0.448,0,0,0-.338.56,0.464,0.464,0,0,1-.057.51,0.376,0.376,0,0,1-.282.11,0.882,0.882,0,0,1-.395-0.05,1.776,1.776,0,0,1-.113-0.63,2.712,2.712,0,0,1,.734-0.73A8.487,8.487,0,0,0,542.9,3145.39Zm20.5,1.75a4.9,4.9,0,0,0-.113-1.24,0.978,0.978,0,0,1-.226-0.17,1.058,1.058,0,0,0-.791.06,0.448,0.448,0,0,0-.338.56,0.464,0.464,0,0,1-.057.51,0.282,0.282,0,0,1-.113.06,0.843,0.843,0,0,1-.565,0,1.8,1.8,0,0,1-.112-0.63,3.241,3.241,0,0,1,.621-0.67,1.985,1.985,0,0,1,2.428.45c0.391,0.86.041,2.41,0.225,3.44h0.113a0.592,0.592,0,0,0,.565-0.11v0.28a1.437,1.437,0,0,1-1.3.4,2.146,2.146,0,0,0-.395-0.62c-0.528.81-2.194,0.97-2.484-.17S562.577,3147.25,563.392,3147.14Zm38.113-1.75a1.842,1.842,0,0,1,1.355.57c0.5,0.75.1,2.52,0.282,3.55h0.113a0.561,0.561,0,0,0,.565-0.11v0.28a1.245,1.245,0,0,1-1.355.34,4.077,4.077,0,0,0-.282-0.56,1.988,1.988,0,0,1-2.033.56,3.633,3.633,0,0,0-.452-0.56,1.826,1.826,0,0,1,1.355-1.92c0.583-.29,1.187-0.1,1.186-1.02a2.272,2.272,0,0,1-.113-0.56,2.1,2.1,0,0,1-.282-0.23,1.058,1.058,0,0,0-.791.06,0.328,0.328,0,0,0-.282.28,4.8,4.8,0,0,0-.057.79l-0.169.06a0.485,0.485,0,0,1-.452.05,1.1,1.1,0,0,1-.169-0.28,0.388,0.388,0,0,1,0-.4,1.424,1.424,0,0,1,1.073-.84A2.327,2.327,0,0,0,601.505,3145.39Zm66.8,0a1.87,1.87,0,0,1,1.355.57c0.5,0.75.1,2.53,0.283,3.55h0.113a0.559,0.559,0,0,0,.564-0.11v0.28a1.245,1.245,0,0,1-1.355.34,2.671,2.671,0,0,0-.282-0.56,1.987,1.987,0,0,1-2.033.56,3.633,3.633,0,0,0-.452-0.56,1.788,1.788,0,0,1,1.355-1.92c0.706-.31,1.191-0.06,1.186-1.13a1.631,1.631,0,0,1-.113-0.45,2.1,2.1,0,0,1-.282-0.23,1.058,1.058,0,0,0-.791.06,0.328,0.328,0,0,0-.282.28,4.7,4.7,0,0,0-.056.79,0.582,0.582,0,0,1-.339.11,0.488,0.488,0,0,1-.282,0,0.847,0.847,0,0,1-.226-0.62,2.347,2.347,0,0,1,.621-0.73C667.56,3145.47,668.029,3145.56,668.3,3145.39Zm18.125,0a1.841,1.841,0,0,1,1.355.57c0.5,0.75.1,2.53,0.283,3.55h0.113a0.559,0.559,0,0,0,.564-0.11v0.28a1.245,1.245,0,0,1-1.355.34,1.441,1.441,0,0,0-.339-0.56,1.8,1.8,0,0,1-1.976.56,1.321,1.321,0,0,1-.395-0.56,1.01,1.01,0,0,1,.169-1.08,2.888,2.888,0,0,1,1.242-.9c0.481-.21,1.05-0.1,1.073-0.79a5.569,5.569,0,0,1-.169-0.79,0.978,0.978,0,0,1-.226-0.17,1.058,1.058,0,0,0-.791.06,0.448,0.448,0,0,0-.338.56,0.667,0.667,0,0,1,0,.51l-0.17.06a0.484,0.484,0,0,1-.451.05,0.848,0.848,0,0,1-.226-0.68h0.056a1.424,1.424,0,0,1,1.073-.84A2.327,2.327,0,0,0,686.427,3145.39Zm-136.248,4.52v0.17h-2.146v-0.17a0.582,0.582,0,0,0,.508-0.23c0.293-.38.113-2.91,0-3.39a1.492,1.492,0,0,1-.282-0.22c-1.816-.14-1.4,1.68-1.355,3.44a1.293,1.293,0,0,1,.113.23,1,1,0,0,1,.226.17h0.339v0.17h-2.2v-0.17c0.17-.04.339-0.08,0.509-0.11a10.228,10.228,0,0,0,0-3.68c-0.308-.01-0.473.05-0.509-0.22h0.113l1.356-.45a1.859,1.859,0,0,0,.056.79c0.253-.35,1.27-1.15,1.92-0.68,1.193,0.39.542,2.97,0.847,4.24h0.113A0.494,0.494,0,0,0,550.179,3149.91Zm4.912-4.12v0.39h-0.847v0.06a1.4,1.4,0,0,1,.113,1.3c-0.391.85-.965,1.05-2.258,1.01l-0.452.51a0.162,0.162,0,0,0,.056.11c0.074,0.14-.024.04,0.113,0.12,0.469,0.31,1.469.02,2.09,0.17a1.955,1.955,0,0,1,1.072.67c0.087,1.39-.823,1.81-1.976,2.09-0.855.21-2.1-.06-2.315-0.67a0.669,0.669,0,0,1-.113-0.51,5.824,5.824,0,0,0,.96-1.02,0.6,0.6,0,0,1-.508-0.62,4.949,4.949,0,0,0,.847-1.02c-1.252-.32-0.974-2.18-0.113-2.71,0.751-.46,1.67-0.05,2.371.12h0.96Zm11.688-.34h0.113a22.772,22.772,0,0,0,.113,4.29c0.194,0.08.453,0.14,0.678,0.22v0.12H565.2v-0.12h0.057v-0.05a0.642,0.642,0,0,0,.677-0.28c0.3-.45.108-2.75,0.057-3.39a0.934,0.934,0,0,0-.226-0.12,0.854,0.854,0,0,0-.508.06v-0.17h0.113A14.8,14.8,0,0,0,566.779,3145.45Zm12.931,4.46v0.17h-2.485v-0.17a1.292,1.292,0,0,0,.621-0.17c0.366-.4.15-2.71,0.113-3.39a1.031,1.031,0,0,0-.282-0.17,0.582,0.582,0,0,0-.395,0,0.265,0.265,0,0,1,.056-0.17,7.925,7.925,0,0,1,1.468-.51c0.1,0.18.006,0.62,0.113,0.79a1.463,1.463,0,0,1,1.355-.84,0.44,0.44,0,0,0,.226.11,1.111,1.111,0,0,1,.17.56,0.67,0.67,0,0,1-.283.29,0.646,0.646,0,0,1-.338.05,0.9,0.9,0,0,0-.622-0.34,1.5,1.5,0,0,0-.451.51,7.942,7.942,0,0,0,0,3.05A1.285,1.285,0,0,0,579.71,3149.91Zm6.38,0v0.17h-2.484v-0.12h0.056v-0.05a0.645,0.645,0,0,0,.678-0.28,9.823,9.823,0,0,0,0-3.45,0.754,0.754,0,0,1-.17-0.11c-0.169.04-.338,0.07-0.508,0.11v-0.17h0.113c0.508-.19,1.017-0.37,1.525-0.56v3.84a1.631,1.631,0,0,1,.113.45l0.169,0.06A0.755,0.755,0,0,0,586.09,3149.91Zm8.018-4.46a1.688,1.688,0,0,1,1.807.73,0.612,0.612,0,0,1,.113.4,0.972,0.972,0,0,0-.169.28,1.381,1.381,0,0,1-.678-0.06,1.447,1.447,0,0,0-.508-0.96,0.883,0.883,0,0,0-.96.12,2.052,2.052,0,0,0-.621,2.37,1.612,1.612,0,0,0,2.258.9,4.408,4.408,0,0,1,.734-0.73v0.05h0.057a0.223,0.223,0,0,1-.057.12,2.019,2.019,0,0,1-3.5.73,2.856,2.856,0,0,1,.564-3.56C593.424,3145.64,593.808,3145.64,594.108,3145.45Zm2.541,4.63v-0.17a2.618,2.618,0,0,0,.678-0.11c0.018-.06.037-0.12,0.056-0.17,0.323-.51.081-2.69,0.057-3.39a0.934,0.934,0,0,0-.226-0.12,0.857,0.857,0,0,0-.509.06v-0.17h0.057v-0.05a10.308,10.308,0,0,0,1.581-.51v4.01a0.345,0.345,0,0,1,.056.22,4.257,4.257,0,0,0,.734.28v0.12h-2.484Zm20.892-.17v0.17H615.4v-0.12h0.057a0.937,0.937,0,0,0,.508-0.33c0.344-.48.071-2.91-0.057-3.39a1,1,0,0,1-.226-0.17,1.379,1.379,0,0,0-1.355.51v3.05a0.162,0.162,0,0,1,.057.11c0.183,0.08.4,0.15,0.621,0.22v0.12h-2.2v-0.17a0.585,0.585,0,0,0,.508-0.23,11.384,11.384,0,0,0,.056-3.44,4.214,4.214,0,0,0-.564-0.17,0.235,0.235,0,0,1-.057-0.11,6.668,6.668,0,0,1,1.468-.46c0.1,0.16.015,0.58,0.113,0.74a1.727,1.727,0,0,1,2.089-.62,2.621,2.621,0,0,1,.509.84v0.96a12.784,12.784,0,0,0,.113,2.32,0.907,0.907,0,0,0,.225.11A0.52,0.52,0,0,0,617.541,3149.91Zm7.114-2.6h-3.162a2.337,2.337,0,0,0,1.073,2.09,2.165,2.165,0,0,0,1.581-.28,2.967,2.967,0,0,1,.621-0.68v0.06h0.057a2.232,2.232,0,0,1-3.049,1.52,2.678,2.678,0,0,1-1.073-1.92,1.727,1.727,0,0,1,.113-0.79,2.284,2.284,0,0,1,1.185-1.69A1.837,1.837,0,0,1,624.655,3147.31Zm8.7,2.6v0.17h-2.428v-0.17a0.671,0.671,0,0,0,.734-0.34,2.321,2.321,0,0,0,.056-0.9,14.353,14.353,0,0,0-.056-2.49l-0.17-.06a0.777,0.777,0,0,0-.508.06v-0.17a0.145,0.145,0,0,0,.057-0.05c0.3-.04,1.472-0.51,1.524-0.46,0.387,0.64-.275,3.44.113,4.07a0.33,0.33,0,0,0,.395.28A0.52,0.52,0,0,0,633.351,3149.91Zm5.025-4.12v0.39h-0.847v0.11c0.765,0.95-.391,2.08-1.073,2.26a9.988,9.988,0,0,1-1.185.06,0.967,0.967,0,0,0-.339.62l0.169,0.06a1.769,1.769,0,0,0,.9.11c0.842,0,1.923.04,2.145,0.68a1.02,1.02,0,0,1,0,.96c-0.377,1.23-4.212,1.92-4.348.11a4.387,4.387,0,0,1,1.017-1.07v-0.06a0.549,0.549,0,0,1-.508-0.68,6.311,6.311,0,0,0,.847-0.96,1.335,1.335,0,0,1-.791-1.86,1.672,1.672,0,0,1,1.976-1.07c0.339,0.11.678,0.22,1.017,0.34h1.016Zm4.4,1.52h-3.162a2.309,2.309,0,0,0,1.073,2.09,2.051,2.051,0,0,0,1.638-.34,1.668,1.668,0,0,1,.564-0.62v0.06h0.057a2.238,2.238,0,0,1-2.936,1.58,2.574,2.574,0,0,1-1.186-1.92,2.065,2.065,0,0,1,.169-1.08,2.232,2.232,0,0,1,1.129-1.46A1.842,1.842,0,0,1,642.78,3147.31Zm5.364,2.6v0.17H646v-0.17a0.519,0.519,0,0,0,.564-0.34,2.3,2.3,0,0,0,.057-0.9,12.059,12.059,0,0,0-.113-2.38,1.492,1.492,0,0,1-.282-0.22c-1.783-.13-1.4,1.58-1.356,3.33a0.476,0.476,0,0,1,.057.28,1.215,1.215,0,0,1,.282.23h0.339v0.17h-2.2v-0.17c0.169-.04.339-0.08,0.508-0.11a10.2,10.2,0,0,0,0-3.68c-0.308-.01-0.472.05-0.508-0.22h0.113a3.05,3.05,0,0,1,1.355-.4,1.762,1.762,0,0,0,.169.68c0.223-.36,1.2-1.06,1.807-0.62,1.2,0.39.542,2.97,0.847,4.24h0.113A0.5,0.5,0,0,0,648.144,3149.91Zm2.259-4.46c0.919-.04,1.853.16,1.92,0.96a0.61,0.61,0,0,1,0,.28,0.765,0.765,0,0,1-.734.17,2.342,2.342,0,0,0-.565-1.02,0.8,0.8,0,0,0-.79,0c-1.163.31-1.129,2.64-.283,3.28a1.771,1.771,0,0,0,1.807.05,3.71,3.71,0,0,1,.678-0.67v0.05h0.056c-0.7,1.57-2.615,2.44-3.726.62a2.842,2.842,0,0,1,.564-3.21C649.641,3145.72,650.063,3145.68,650.4,3145.45Zm6.493,1.86h-3.162a2.532,2.532,0,0,0,.791,1.92,1.69,1.69,0,0,0,2.371-.79,1.758,1.758,0,0,0,.226.11,3.29,3.29,0,0,1-1.524,1.58,2.174,2.174,0,0,1-2.6-2.71,2.551,2.551,0,0,1,1.412-1.86A1.786,1.786,0,0,1,656.9,3147.31Zm21.118-1.86a2.37,2.37,0,0,1,2.371,3.33,2.432,2.432,0,0,1-1.863,1.47c-1.506.34-2.982-1.58-2.484-3.11a2.417,2.417,0,0,1,1.3-1.52A6.274,6.274,0,0,0,678.014,3145.45Zm5.308,4.46v0.17h-2.485v-0.17a1.292,1.292,0,0,0,.621-0.17c0.365-.39.15-2.72,0.113-3.39a1.031,1.031,0,0,0-.282-0.17,0.582,0.582,0,0,0-.395,0,0.265,0.265,0,0,1,.056-0.17,7.925,7.925,0,0,1,1.468-.51c0.1,0.18.006,0.62,0.113,0.79a1.463,1.463,0,0,1,1.355-.84,0.44,0.44,0,0,0,.226.11,1.111,1.111,0,0,1,.17.56,0.67,0.67,0,0,1-.283.29,0.648,0.648,0,0,1-.339.05,0.9,0.9,0,0,0-.621-0.34,1.5,1.5,0,0,0-.451.51,7.942,7.942,0,0,0,0,3.05A1.282,1.282,0,0,0,683.322,3149.91Zm10.558-4.46a2.385,2.385,0,0,1,2.315,3.44,2.448,2.448,0,0,1-1.806,1.36c-1.762.39-3.071-1.88-2.372-3.5a2.491,2.491,0,0,1,1.129-1.13A7.146,7.146,0,0,0,693.88,3145.45Zm5.308,4.46v0.17H696.7v-0.17a0.772,0.772,0,0,0,.677-0.28c0.3-.44.11-2.8,0-3.34a0.933,0.933,0,0,0-.226-0.11,0.581,0.581,0,0,0-.395,0,0.265,0.265,0,0,1,.057-0.17,6.206,6.206,0,0,1,1.468-.56v0.11c0.1,0.16.014,0.58,0.113,0.73v-0.11a1.918,1.918,0,0,1,1.355-.73,0.868,0.868,0,0,1,.395.62,0.583,0.583,0,0,1-.621.39,1.212,1.212,0,0,0-.621-0.34c-0.187.21-.372,0.43-0.565,0.63a16.414,16.414,0,0,0,.057,2.88,1.492,1.492,0,0,1,.282.22Zm1.016-4.35h2.146v0.11h-0.056c-0.319.19-.545,0-0.565,0.51a1.967,1.967,0,0,1,.282.62c0.285,0.65.672,1.3,0.96,1.98h0.057c0.129-1.07.915-1.76,0.96-2.94a1.093,1.093,0,0,0-.17-0.05,0.514,0.514,0,0,0-.282-0.06v-0.17h1.411v0.11c-0.671.34-.72,1.21-1.016,1.92a23.723,23.723,0,0,1-1.75,4.12,4.111,4.111,0,0,1-.621.51,1.268,1.268,0,0,1-.847-0.05c-0.3-.09-0.355-0.27-0.339-0.68a0.235,0.235,0,0,0,.056-0.11l0.17-.06c0.476-.33,1.02.4,1.411-0.17a2.707,2.707,0,0,0,.452-1.52,20.924,20.924,0,0,0-1.242-2.49,2.439,2.439,0,0,0-.734-1.3,0.42,0.42,0,0,0-.283-0.11v-0.17Zm-147.71.17a0.4,0.4,0,0,1-.226.06,1.649,1.649,0,0,0-.395.56,1.685,1.685,0,0,0,.677,1.86,0.85,0.85,0,0,0,.791,0l0.282-.39c0.031-.86-0.064-1.77-0.677-1.98A0.661,0.661,0,0,0,552.494,3145.73Zm83.228,0a0.712,0.712,0,0,1-.282.11c-0.441.66-.465,2.1,0.395,2.37a0.7,0.7,0,0,0,.508.12c0.188-.16.337-0.29,0.509-0.45,0.085-.84-0.012-2.02-0.847-2.09A0.52,0.52,0,0,0,635.722,3145.73Zm42.123,0.06a0.3,0.3,0,0,1-.17.05,3.186,3.186,0,0,0-.508.45,3.306,3.306,0,0,0,.565,3.45,1.727,1.727,0,0,0,1.016.17,2.973,2.973,0,0,0,.565-0.45,3.367,3.367,0,0,0-.4-3.39A1.562,1.562,0,0,0,677.845,3145.79Zm15.866,0a1.687,1.687,0,0,0-.79.73,3.263,3.263,0,0,0,.677,3.22,1.728,1.728,0,0,0,1.016.17,2.073,2.073,0,0,0,.678-0.74,3.223,3.223,0,0,0-.678-3.21A1.539,1.539,0,0,0,693.711,3145.79Zm-70.129,1.18a1.065,1.065,0,0,0-.564-1.01,1.113,1.113,0,0,0-.96,0,2.6,2.6,0,0,0-.565,1.01h2.089Zm16.883-1.13a0.23,0.23,0,0,1-.169.06,1.847,1.847,0,0,0-.678,1.07h2.089v-0.11a3.607,3.607,0,0,1-.112-0.45,1.86,1.86,0,0,0-.452-0.51Zm13.326,1.13h2.033a0.946,0.946,0,0,0-.452-0.96,1.137,1.137,0,0,0-1.129,0A1.777,1.777,0,0,0,653.791,3146.97Zm19.141-.85a1.736,1.736,0,0,0-.734.51v2.83a1.468,1.468,0,0,0,1.525.22c1.034-.3,1.076-3.04.056-3.39A1.241,1.241,0,0,0,672.932,3146.12Zm-129.416,1.25c-0.22.17-.546,0.19-0.79,0.34a4.191,4.191,0,0,0-.734.73,0.892,0.892,0,0,0,.056.68,0.962,0.962,0,0,0,.339.39,1.034,1.034,0,0,0,1.129-.39A3.586,3.586,0,0,0,543.516,3147.37Zm19.819,0c-0.22.17-.546,0.19-0.79,0.34a4.191,4.191,0,0,0-.734.73,0.892,0.892,0,0,0,.056.68,0.962,0.962,0,0,0,.339.39,1.034,1.034,0,0,0,1.129-.39A3.586,3.586,0,0,0,563.335,3147.37Zm38.791,0a4.1,4.1,0,0,1-.678.28,4.412,4.412,0,0,0-.846.79,3.9,3.9,0,0,0,.056.79c0.113,0.09.226,0.19,0.339,0.28a0.994,0.994,0,0,0,1.129-.39A2.584,2.584,0,0,0,602.126,3147.37Zm66.8,0a8.747,8.747,0,0,1-.96.45,3.708,3.708,0,0,0-.564.68,2.5,2.5,0,0,0,.113.79,1.505,1.505,0,0,0,.96.22,2.215,2.215,0,0,0,.451-0.34A2.7,2.7,0,0,0,668.923,3147.37Zm18.125,0a4.128,4.128,0,0,1-.677.28,4.3,4.3,0,0,0-.847.79,3.9,3.9,0,0,0,.056.79c0.113,0.09.226,0.19,0.339,0.28a1.011,1.011,0,0,0,1.129-.39A2.584,2.584,0,0,0,687.048,3147.37Zm-135.232,2.71a1.651,1.651,0,0,0-.508,1.01,1.293,1.293,0,0,1,.113.23c0.687,0.42,2.838.61,3.162-.28a0.657,0.657,0,0,0,.113-0.51C553.958,3150.08,552.7,3150.38,551.816,3150.08Zm83.229,0a3,3,0,0,1-.452.62,2.852,2.852,0,0,0,.056.62c0.741,0.45,2.9.6,3.219-.34a0.584,0.584,0,0,0,.113-0.34C637.292,3149.97,636.031,3150.41,635.045,3150.08Z" transform="translate(-527.625 -3011.735)"/>
  <path id="_1-2" data-name="1" class="cls-2" d="M653.96,3051.15v0.57q-61.822-.12-123.656-0.23v-0.11C571.48,3051.4,612.7,3051.15,653.96,3051.15Zm3.388,0,47.543,0.12a0.854,0.854,0,0,1,.056.28c-15.816-.02-31.669.16-47.6,0.17v-0.57Zm-6.211,5.14v0.62l-53.585.06a13.523,13.523,0,0,0-2.484-.06H575.475q-22.556-.09-45.115-0.17a0.854,0.854,0,0,1-.056-0.28q17.813-.09,35.628-0.17h15.754a10.614,10.614,0,0,0,1.976-.06Zm53.81,0.51c-16.221.23-32.788,0.11-49.18,0.11v-0.62l31.394-.06a11.241,11.241,0,0,0,2.033.06h3.952l11.745,0.06A1.371,1.371,0,0,1,704.947,3056.8Zm-60.021,4.63v0.68q-22.16.075-44.324,0.17a13.892,13.892,0,0,0-2.6-.06H577.338q-23.487-.12-46.978-0.23a1.371,1.371,0,0,1-.056-0.45q15.639-.105,31.281-0.22h14.229a10.577,10.577,0,0,0,1.807-.06h21C614.164,3061.26,629.532,3061.42,644.926,3061.43Zm60.021,0.62c-3.478,0-7.008.11-10.558,0.11h-3.783a10.9,10.9,0,0,0-1.92.06q-19.028-.06-38.057-0.11a2.365,2.365,0,0,1-.057-0.68l11.914-.06h4.066a11.914,11.914,0,0,0,2.089-.05h11.236c8.39,0,16.745.1,25.014,0.11A2.079,2.079,0,0,1,704.947,3062.05Zm-72.387,5.31q-5.166.045-10.333,0.11h-3.783a10.018,10.018,0,0,0-1.92.06H570.28a18.094,18.094,0,0,0-3.388-.06h-9.486q-13.549-.135-27.1-0.28v-0.57q14.848-.135,29.7-0.28h9.937a18.455,18.455,0,0,0,3.5-.06h18.351c13.658,0,27.206.16,40.711,0.17A3.323,3.323,0,0,1,632.56,3067.36Zm72.387-.06c-6.636-.01-13.384.17-20.157,0.17h-8.809a12.842,12.842,0,0,0-2.258-.06h-6.437a17.768,17.768,0,0,0-3.275-.05l-5.534-.06H641.03v-0.73c8.049,0,16.081-.12,24-0.12q4.036-.015,8.075-0.05a24.735,24.735,0,0,0,4.4-.06h8.357c6.363,0,12.74.16,19.028,0.17A2.807,2.807,0,0,1,704.947,3067.3Zm-87.632,4.07v1.41q-19.986.03-39.977,0.05-9.315-.015-18.633-0.05-14.171-.18-28.345-0.34a2.3,2.3,0,0,1-.056-0.68,10.571,10.571,0,0,1,2.766-.05,3.738,3.738,0,0,1,1.355-.06h3.727a19.412,19.412,0,0,1,3.67-.06H542.9c0.927-.2,2.165.16,3.162-0.05a20.02,20.02,0,0,1,3.727-.06c2.064,0,4.288-.06,6.437-0.06,3.011-.02,6.023-0.03,9.034-0.05a27.967,27.967,0,0,0,4.686-.06Zm8.582,1.29v-1.18c3.049,0.06,6.1.11,9.148,0.17h3.613a10.018,10.018,0,0,1,1.92.06h11.067a16.433,16.433,0,0,0,2.993-.06h2.033c1.339,0,2.754-.05,4.008-0.06a14.832,14.832,0,0,0,2.6-.05l10.728-.06a19.053,19.053,0,0,1,3.557-.06c1.969,0,4.1-.05,6.155-0.05,7.06,0,14.207.21,21.174,0.22a3.246,3.246,0,0,1,.056.91,6.266,6.266,0,0,1-1.637.05,5.112,5.112,0,0,1-1.807.06c-1.393.02-2.786,0.04-4.178,0.05l-15.246.12c-2.955,0-5.879-.1-8.752-0.12H669.94a9.969,9.969,0,0,1-1.751-.05H667.06a21.334,21.334,0,0,1-4.009-.06h-2.089c-1.374-.02-2.748-0.04-4.122-0.05a13.537,13.537,0,0,1-2.485-.06h-8.582C639.107,3072.44,632.438,3072.66,625.9,3072.66Zm-22.19,3.68v1.75c-7.831.07-15.9,0.05-23.828,0.05h-7.51a20.651,20.651,0,0,1-3.783-.05l-16.657-.06a11.945,11.945,0,0,0-2.258-.06c-1.129-.02-2.259-0.04-3.388-0.05h-1.807c-0.945-.21-2.2.16-3.218-0.06-1.1-.24-2.717.18-3.84-0.06a15.151,15.151,0,0,0-2.71-.05l-4.348-.06a3.031,3.031,0,0,1-.056-0.85,8.427,8.427,0,0,1,2.258-.05,2.947,2.947,0,0,1,1.129-.06h2.937q5.391-.105,10.784-0.23h3.5a25.742,25.742,0,0,1,4.4-.05l8.075-.06h3.613a21,21,0,0,1,3.9-.05h32.806Zm13.721,1.63v-1.47l4.291,0.06a14.244,14.244,0,0,1,2.71.06c1.033,0.22,2.313-.15,3.275.05h1.355l2.2,0.06a11.232,11.232,0,0,1,2.032.06h4.913a10.625,10.625,0,0,1,1.807.05h9.824a15.16,15.16,0,0,0,2.711-.05h2.6c0.937,0,1.975-.03,2.823-0.06a12.927,12.927,0,0,0,2.089-.06c1.015-.21,2.274.15,3.219-0.05l11.575-.12a17.729,17.729,0,0,1,3.106-.05h6.154c7.027,0,13.914.21,20.779,0.22a3.961,3.961,0,0,1,.056,1.08,8.428,8.428,0,0,1-2.258.05,4.8,4.8,0,0,1-1.751.06l-2.936.06h-1.524a26.708,26.708,0,0,1-4.574.05h-1.3a19.789,19.789,0,0,1-3.784.06h-7.509c-3.939,0-7.843.04-11.688-.17-1.565-.09-3.193-0.06-4.687-0.06a13.555,13.555,0,0,1-2.484-.05h-1.581l-3.162-.06a12.206,12.206,0,0,1-2.2-.06h-10.9C634.105,3077.63,625.853,3077.96,617.428,3077.97Zm-23.207,3.39v2.09c-9.243,0-18.63-.06-27.78-0.06q-6.776-.03-13.552-0.05a12.319,12.319,0,0,0-2.371-.06l-3.614-.06h-1.92a10.3,10.3,0,0,0-1.863-.05c-0.616-.01-1.339-0.06-2.033-0.06h-1.242c-0.945-.2-2.2.16-3.218-0.06a14.52,14.52,0,0,0-2.485-.05l-3.783-.06a3.638,3.638,0,0,1-.056-1.01,6.273,6.273,0,0,1,1.75-.06,4.224,4.224,0,0,1,1.524-.06c1.205-.02,2.41-0.04,3.614-0.05q6.183-.12,12.366-0.23,11.517-.12,23.037-0.23ZM704.947,3083c-2.672.07-5.345,0.15-8.017,0.22l-14.117.12c-2.058,0-4.244-.03-6.211-0.06a19.657,19.657,0,0,1-3.613-.06q-6.071-.075-12.14-0.17a19.967,19.967,0,0,0-3.388-.11h-1.129c-1.117-.24-2.756.19-3.9-0.05a13.534,13.534,0,0,0-2.485-.06h-13.5a13.18,13.18,0,0,1-2.371.06c-1.261.01-2.522,0.03-3.783,0.05h-1.92a17.953,17.953,0,0,1-3.219.11h-1.072c-0.891.2-2.088-.15-3.049,0.06a14.155,14.155,0,0,1-2.541.06c-1.3.02-2.6,0.03-3.9,0.05v-1.63a3.612,3.612,0,0,1,.96-0.06,5.194,5.194,0,0,0,1.863.06c1.581,0.02,3.162.03,4.743,0.05a20.6,20.6,0,0,0,3.614.12h1.185c0.657,0.14,1.588-.1,2.315.05a11.956,11.956,0,0,0,2.259.06l3.275,0.06h4.122a12.245,12.245,0,0,0,2.2.05h7.679a9.955,9.955,0,0,0,1.75-.05h3.049l2.09-.06a10.889,10.889,0,0,0,1.919-.06c0.71-.15,1.62.08,2.259-0.05,0.889-.2,2,0.12,2.823-0.06q6.042-.09,12.084-0.17a16.771,16.771,0,0,1,3.1-.06H684c7.036,0,13.985.28,20.892,0.29A4.575,4.575,0,0,1,704.947,3083Zm-119.76,5.76h-16.94a11.874,11.874,0,0,1-2.089-.06h-5.025a10.256,10.256,0,0,1-1.863-.06h-2.428c-1.638-.01-3.275-0.03-4.913-0.05a16.424,16.424,0,0,1-2.992-.06l-5.534-.06a12,12,0,0,0-1.92-.05c-0.752-.01-1.649-0.05-2.484-0.06-2.9-.07-5.8-0.15-8.7-0.22v-1.19c2.258-.06,4.517-0.11,6.775-0.17l3.5-.06a8.983,8.983,0,0,0,1.581-.05h1.186a20.939,20.939,0,0,0,3.557-.11l13.043-.12c8.324,0,16.736-.11,25.183-0.11A9.254,9.254,0,0,1,585.187,3088.76Zm9.825-2.37q5.532,0.045,11.067.11v2.09c-3.649-.01-7.344.11-11.067,0.11v-2.31Zm109.935,0.5v1.3a5.372,5.372,0,0,1-1.411.06,6.409,6.409,0,0,1-1.976.06c-0.951.08-2.128,0.11-3.106,0.11H696.93c-1.1.24-2.633-.19-3.784,0.05a27.97,27.97,0,0,1-4.686.06c-2.754.02-5.736,0.06-8.583,0.06H675.53a11.593,11.593,0,0,1-2.146-.06c-0.8-.17-1.812.1-2.541-0.06H669.6a23.122,23.122,0,0,1-3.84-.11h-1.242a22.428,22.428,0,0,1-3.783-.11h-2.315c-0.567-.12-1.4.08-2.033-0.06a18.246,18.246,0,0,0-3.331-.11,10.018,10.018,0,0,1-1.92-.06H641.2c-7.9,0-15.516.31-23.15,0.4a6.461,6.461,0,0,1-.057-1.7q7.143,0.18,14.286.34h5.364a12.919,12.919,0,0,0,2.428.06h8.583a19.052,19.052,0,0,1,3.557-.06q4.827-.135,9.655-0.28h2.485c2.841-.07,5.684-0.15,8.526-0.22h2.879a18.458,18.458,0,0,1,3.5-.06,39.137,39.137,0,0,1,5.534.06H691.4c1.1,0.23,2.717-.19,3.84.05,0.836,0.18,1.972-.14,2.879.06C700.392,3086.74,702.67,3086.82,704.947,3086.89Zm-127.835,4.46v2.71q-7.678-.015-15.358-0.05l-5.082-.06a17.084,17.084,0,0,1-3.049-.05h-2.992l-2.372-.06a11.241,11.241,0,0,1-2.033-.06c-0.763-.16-1.735.1-2.428-0.05-0.619-.14-1.427.06-1.976-0.06l-4.291-.06c-2.409-.07-4.819-0.15-7.227-0.22v-1.36l16.656-.45,7.9-.06a23.2,23.2,0,0,1,4.179-.05h1.186a10.611,10.611,0,0,1,1.976-.06h3.839C569.626,3091.39,573.439,3091.36,577.112,3091.35Zm13.044,0.06q7.179-.015,14.229.17v2.26a4.946,4.946,0,0,1-1.3.06h-2.767a12.921,12.921,0,0,1-2.879.05c-2.371,0-4.837.07-7.284,0.06v-2.6Zm114.791,0.57v1.46c-6.871.16-13.819,0.39-20.948,0.4-1.977,0-4.145.06-6.211,0.06h-2.71q-6.379-.15-12.761-0.29a9.327,9.327,0,0,0-1.694-.05,13.985,13.985,0,0,1-2.428-.12c-0.6-.13-1.389.06-1.92-0.05h-1.807c-0.5-.11-1.241.06-1.806-0.06a13.507,13.507,0,0,0-2.315-.06c-1.135,0-2.4-.05-3.614-0.05H632.5v-1.02c4.832,0,9.821.04,14.624,0,1.252-.01,2.622-0.02,3.783-0.05a15.9,15.9,0,0,0,2.315-.06c0.548-.12,1.274.04,1.751-0.06h1.806c0.549-.12,1.357.08,1.977-0.05a13.985,13.985,0,0,1,2.428-.12,10.332,10.332,0,0,0,1.694-.05c0.673-.15,1.542.07,2.145-0.06h2.2c0.621-.13,1.511.09,2.2-0.06,0.657-.14,1.588.1,2.315-0.05a18.711,18.711,0,0,1,3.445-.06,14.246,14.246,0,0,0,2.71-.06l7.792,0.06q6.183,0.09,12.366.17C700.355,3091.83,702.651,3091.9,704.947,3091.98Zm-132.973,4.4v2.99a5.387,5.387,0,0,1-1.468.06,2.46,2.46,0,0,0-.96-0.06h-2.258q-4.122-.03-8.244-0.05c-1.767,0-3.845.04-5.59-.12a33.157,33.157,0,0,1-3.614-.05c-0.979-.21-2.2.14-3.105-0.06H545.1a15.254,15.254,0,0,1-2.88-.11c-0.6-.13-1.388.06-1.919-0.06h-2.033c-0.567-.12-1.395.08-2.033-0.06a12.367,12.367,0,0,0-1.75-.05,13.921,13.921,0,0,1-2.146-.12c-0.638-.13-1.461.06-2.032-0.05v-1.53a16.106,16.106,0,0,0,2.089-.11c0.619-.13,1.427.06,1.976-0.06,0.619-.13,1.427.07,1.976-0.05l4.009-.06c0.531-.11,1.319.07,1.92-0.05,0.585-.13,1.434.08,2.089-0.06a16.885,16.885,0,0,1,3.106-.11h2.541a15.57,15.57,0,0,1,2.992-.06c1.568,0,3.264-.05,4.913-0.06C562.532,3096.47,567.241,3096.38,571.974,3096.38Zm20.1,0.11c5.645-.01,11.2.22,16.77,0.23a8.643,8.643,0,0,1,.057,2.26,5.845,5.845,0,0,1-1.581.05,3.435,3.435,0,0,1-1.3.06l-2.993.06c-1.392.02-2.785,0.03-4.178,0.05a14.5,14.5,0,0,0-2.654.06h-0.96a18.357,18.357,0,0,0-3.162.06v-2.83Zm52.851,1.92v-1.07a26.193,26.193,0,0,0,3.67-.06c0.783-.11,1.728.1,2.428-0.05h0.9a12.694,12.694,0,0,0,2.484-.12h0.96a13.57,13.57,0,0,0,2.484-.11h1.412a13.148,13.148,0,0,0,2.089-.11c0.584-.13,1.35.05,1.863-0.06h1.864c0.531-.11,1.318.07,1.919-0.05a15.394,15.394,0,0,1,3.05-.12,10.609,10.609,0,0,0,1.806-.05h9.712c1.75,0.01,3.5.03,5.251,0.05a16.782,16.782,0,0,1,3.106.06c1.015,0.22,2.274-.15,3.218.06,1.6,0.01,3.2.03,4.8,0.05,0.567,0.12,1.395-.08,2.033.06,0.513,0.11,1.279-.07,1.863.05a15.3,15.3,0,0,0,3.049.12,5.946,5.946,0,0,1,.056,1.58,4.538,4.538,0,0,1-1.242.05,2.853,2.853,0,0,1-1.073.06l-2.54.06a16.176,16.176,0,0,1-3.05.11H695.97c-0.729.16-1.742-.11-2.541,0.06a13.568,13.568,0,0,1-2.485.05l-3.67.06c-4.079,0-8.315.06-12.478,0.06l-5.873-.06a10.274,10.274,0,0,0-1.694-.06,12.735,12.735,0,0,1-2.315-.11c-0.583-.12-1.35.05-1.863-0.06h-1.807c-0.5-.1-1.241.07-1.807-0.05a13.7,13.7,0,0,0-2.032-.12h-1.412c-0.982-.21-2.324.11-3.331-0.11-0.5-.1-1.242.07-1.807-0.05a14.609,14.609,0,0,0-2.315-.06C647.434,3098.43,646.122,3098.42,644.926,3098.41Zm-80.687,3v3.21a8.842,8.842,0,0,1-2.315.06,9.64,9.64,0,0,0-2.372-.06c-2.108-.02-4.216-0.03-6.324-0.05a13.882,13.882,0,0,0-2.6-.06c-1.261-.04-2.523-0.07-3.783-0.11h-2.2l-14.285-.45a6.622,6.622,0,0,1-.056-1.75,4.543,4.543,0,0,1,1.3-.06,11.9,11.9,0,0,1,2.654-.11q3.077-.09,6.155-0.17c0.513-.11,1.279.07,1.863-0.06s1.434,0.09,2.089-.06a16.287,16.287,0,0,1,2.71-.11H549.5a12.854,12.854,0,0,1,2.259-.06c1.11-.01,2.221-0.03,3.331-0.05Q559.665,3101.46,564.239,3101.41Zm22.642,0.05q10.529,0.165,21.061.34c3.124,0.11,6.249.23,9.373,0.34v1.81l-9.6.33q-10.416.18-20.835,0.34v-3.16Zm118.066,0.74v1.69l-11.688.39h-1.411l-2.6.06a11.23,11.23,0,0,0-2.032.06h-5.986a11.594,11.594,0,0,1-1.976.05h-3.839c-4.619,0-9.094-.27-13.608-0.28a8.344,8.344,0,0,1-.057-2.2,4.943,4.943,0,0,1,1.3-.06,2.869,2.869,0,0,1,1.073-.05l2.484-.06c0.6-.13,1.472.09,2.146-0.06a13.54,13.54,0,0,1,2.315-.05l3.557-.06c2.786,0,5.657.06,8.357,0.06a27.725,27.725,0,0,1,4.573.05l5.986,0.06a15.968,15.968,0,0,0,3.105.11h1.073C700.129,3102.01,702.539,3102.1,704.947,3102.2Zm-123.6,4.23q9.317,0.135,18.633.28,12.111,0.4,24.224.79v1.36a7.121,7.121,0,0,1-1.864.06,2.773,2.773,0,0,1-1.016.05l-2.033.06c-2.333.07-4.668,0.15-7,.22-1.44.31-3.188-.08-4.63,0.23-0.548.12-1.274-.05-1.751,0.06-0.637.13-1.466-.07-2.033,0.05h-2.2a10.614,10.614,0,0,1-1.976.06l-2.315.06h-1.355c-1.052.22-2.516-.18-3.614,0.05-1.052.23-2.515-.18-3.614,0.06a15.489,15.489,0,0,1-2.823.05l-4.63.06v-3.5Zm-30.378.17v3.22c-6.934.03-13.79-.6-20.609-0.62a7.507,7.507,0,0,1-.056-1.98c2.2-.09,4.4-0.19,6.606-0.28Q543.939,3106.775,550.969,3106.6Zm133.369,3.05v-2.88a1.793,1.793,0,0,1,.508-0.06,4.8,4.8,0,0,0,1.751.06l4.347,0.06,13.947,0.45a6.775,6.775,0,0,1,.056,1.8,4.975,4.975,0,0,1-1.411.06,6.308,6.308,0,0,1-1.468.06c-0.982.21-2.322-.11-3.332,0.11a14.841,14.841,0,0,1-2.766.11h-1.017a11.959,11.959,0,0,1-1.92.06c-0.739.02-1.658,0.05-2.484,0.06C688.521,3109.55,686.451,3109.65,684.338,3109.65Z" transform="translate(-527.625 -3011.735)"/>
</svg>
