<svg xmlns="http://www.w3.org/2000/svg" width="20" height="20" viewBox="0 0 20 20">
  <defs>
    <style>
      .cls-1 {
        fill-rule: evenodd;
        fill:#fff;
      }
    </style>
  </defs>
  <path id="v2" class="cls-1" d="M1228.5,288a8.5,8.5,0,1,1,8.5-8.5A8.5,8.5,0,0,1,1228.5,288Zm2.11-2.379a6.494,6.494,0,0,0,4.08-4.236,1.755,1.755,0,0,0-.74-0.381,4.132,4.132,0,0,0-2.9,1.642,4.523,4.523,0,0,0-.67,1.883A6.948,6.948,0,0,0,1230.61,285.621Zm-4.21,0a5.118,5.118,0,0,0,.15-1.422l0.02,0.019a4.341,4.341,0,0,0-.99-2.08,3.91,3.91,0,0,0-2.26-1.147V281a4.3,4.3,0,0,0-.99.436A6.437,6.437,0,0,0,1226.4,285.622ZM1228.5,273a6.479,6.479,0,0,0-6.45,6h12.9A6.479,6.479,0,0,0,1228.5,273Z" transform="translate(-1218.5 -269.5)"/>
</svg>
