<svg id="title" xmlns="http://www.w3.org/2000/svg" xmlns:xlink="http://www.w3.org/1999/xlink" width="1057.06" height="84" viewBox="0 0 1057.06 84">
  <defs>
    <style>
      .cls-1, .cls-2 {
        fill-rule: evenodd;
      }

      .cls-1 {
        opacity: 0.3;
      }

      .cls-2 {
        fill: url(#linear-gradient);
      }
    </style>
    <linearGradient id="linear-gradient" x1="425" y1="396" x2="1481.06" y2="396" gradientUnits="userSpaceOnUse">
      <stop offset="0" stop-color="#fedd88"/>
      <stop offset="1" stop-color="#fff5be"/>
    </linearGradient>
  </defs>
  <path id="_1" data-name="1" class="cls-1" d="M1466.25,393.711s-3.09-1.232-3.5,3.413c-0.39,4.434,2.56,2.783,2.56,2.783h0.39l0.01-.013h3.8s12.13-1.468,10.86,13C1479.53,422.5,1465.89,423,1465.89,423h-19.6l0.69-7.946h15.4a3.049,3.049,0,0,0,3.05-2.791c0.24-2.761-.9-3.42-0.9-3.42h-3.4l0.06-.122-0.86.122s-13.61.078-12.63-11.086c1-11.49,12.94-10.752,12.94-10.752h21.2l0.21,6.708h-15.8ZM1419.08,407a5.243,5.243,0,0,0,4.38,4.883,7.11,7.11,0,0,0,2.3-.882h16.87c-4.32,9.194-17.14,12-17.14,12h-6s-16.94-.666-15.52-17c1.6-18.226,16.67-19.055,16.67-19.055h10s12.07,0.673,13.34,14.056h0.43l-0.52,6h-24.81Zm6.68-10h-2s-2.44.383-3.84,4h8.98C1428.14,397.382,1425.76,397,1425.76,397Zm-26.91,10.012,0.04-.012-0.21,2.41L1397.49,423c-1.23,13.974-15.09,17-15.09,17h-21.6l0.7-7.948h17.4a3.277,3.277,0,0,0,2.61-1.4l-0.72.345,0.72-8.265c-0.64.182-1.02,0.265-1.02,0.265h-6s-16.96-.482-15.52-17c1.6-18.226,16.67-19.055,16.67-19.055h6v0.01l19,0.045s-0.07.774-1.67,19C1398.94,406.343,1398.9,406.678,1398.85,407.01ZM1380.76,397h-2s-4.05.632-4.7,8c-0.45,5.213,2.72,6.543,4.4,6.883h0l-0.01.117h4l1.03-.312L1384.76,397h-4Zm-25.27,26h-15l1.71-19.6h-0.01c0.22-5.087-2.79-5.494-4.01-5.451-1.23-.044-4.38.376-4.99,5.665h-0.01L1331.49,423h-15l1.75-19.992v-0.012l0.08-1h0.04c1.81-12.35,16.28-15,16.28-15h8s14.95,2.651,14.65,15h0.03Zm-16.82-25h-1a3.61,3.61,0,0,1,.51-0.05A3.071,3.071,0,0,1,1338.67,398Zm-47.59,9a5.243,5.243,0,0,0,4.38,4.883,7.11,7.11,0,0,0,2.3-.882h16.87c-4.32,9.194-17.14,12-17.14,12h-6s-16.94-.666-15.52-17c1.6-18.226,16.67-19.055,16.67-19.055h10s12.07,0.673,13.34,14.056h0.43l-0.52,6h-24.81Zm6.68-10h-2s-2.44.383-3.84,4h8.98C1300.14,397.382,1297.76,397,1297.76,397Zm-29.27,26h-16l4.98-56.936,16-.056-0.79,9.125Zm-23,0h-16l4.98-56.936,16-.056-0.79,9.125Zm-37,0,0.11-1.331c-0.34.116-.68,0.229-1.03,0.332a26.693,26.693,0,0,1-6.08,1s-16.8-2.328-15.52-17c1.6-18.226,16.67-19.055,16.67-19.055h22v0.108l2.99,0.01L1224.49,423h-16Zm-2.73-26s-4.05.632-4.7,8c-0.61,7.034,5.39,7,5.39,7l3.12-1.333L1210.76,397h-5Zm-22.27,26h-14l0.08-.922c-0.37.13-.72,0.247-1.03,0.347L1170.06,405v0l0.18-2h-0.11c-0.17-5.486-3.37-6-3.37-6h-4l-2.27,26h-16l4.98-56.936,16-.056-0.79,9.125-1.04,11.812h8s13.81,0.77,13.44,17.056h0.07Zm-59.07-45s-19.72-3.114-21.4,16c-1.8,20.618,14.43,18,14.43,18l18.09-1-1.01,11.5h-33s-19.96-.465-17.77-25.5,19.15-30.888,27.71-30.888h27.99L1138.42,378h-14Zm-80.4,46-3.51-5-3.73,5.222h-20.54c-13.87,0-14.62-4.826-5.11-15.942,5.71-6.677,10.62-13.326,10.62-13.326l-10.36-14.427,1.51-7.248h28.81c12.11,0,9.73,4.621,3.29,12-3.94,4.518-7.13,8.92-7.13,8.92l5.56,7.732,3.76-4.528,7.85,4.6-6.33,7.31,10.75,14.911Zm-21.42-45.544,5.82,8.145,6.49-8.145H1022.6ZM1029.89,405l-11.79,14.045h11.69L1035.1,413Zm-70.139-7.874c-0.388,4.434,2.557,2.783,2.557,2.783H962.7l0.006-.013h3.8s12.128-1.468,10.863,13C976.531,422.5,962.887,423,962.887,423h-19.4l-14,.056-6.417-6.652-0.578,6.6h-16l4.982-56.936,16-.056-0.8,9.125-1.366,15.613,4.332-3.8L943.637,387l-17.08,16.425,16.749,19.366,0.677-7.737h15.4a3.041,3.041,0,0,0,3.044-2.791c0.241-2.761-.9-3.42-0.9-3.42h-3.4l0.063-.122-0.863.122s-13.607.078-12.63-11.086C945.7,386.265,957.637,387,957.637,387h21.2l0.213,6.708h-15.8S960.158,392.479,959.751,397.124Zm-74,0c-0.388,4.434,2.557,2.783,2.557,2.783H888.7l0.006-.013h3.8s12.128-1.468,10.863,13C902.531,422.5,888.887,423,888.887,423h-19.6l0.7-7.946h15.4a3.041,3.041,0,0,0,3.044-2.791c0.241-2.761-.9-3.42-0.9-3.42h-3.4l0.062-.122-0.862.122s-13.607.078-12.63-11.086C871.7,386.265,883.637,387,883.637,387h21.2l0.213,6.708h-15.8S886.158,392.479,885.751,397.124ZM847.487,423l0.117-1.331c-0.342.116-.686,0.229-1.029,0.332a26.753,26.753,0,0,1-6.088,1s-16.8-2.328-15.512-17c1.6-18.226,16.667-19.055,16.667-19.055h22v0.108l2.989,0.01L863.487,423h-16Zm-2.725-26s-4.055.632-4.7,8c-0.615,7.034,5.388,7,5.388,7l3.116-1.333,1.2-13.667h-5Zm-22.725-26-4.462,51L800,428l4.191-57H780l5-11h62l-6.963,11h-18ZM762.849,407.01l0.038-.012-0.21,2.41L761.487,423c-1.222,13.974-15.087,17-15.087,17H724.8l0.7-7.948h17.4a3.283,3.283,0,0,0,2.614-1.4l-0.722.345,0.724-8.265c-0.644.182-1.024,0.265-1.024,0.265h-6s-16.957-.482-15.512-17c1.6-18.226,16.667-19.055,16.667-19.055h6v0.01L764.637,387s-0.067.774-1.662,19C762.945,406.343,762.9,406.678,762.849,407.01ZM744.762,397h-2s-4.055.632-4.7,8c-0.456,5.213,2.722,6.543,4.4,6.883l-0.01.117h4l1.027-.312L748.762,397h-4Zm-25.187,25h-15l1.716-19.617h-0.015c0.216-5.071-2.787-5.477-4.009-5.434-1.232-.044-4.377.375-4.988,5.654h-0.007l-1.7,19.4h-15l1.749-19.993s0,0,0-.007v0l0.087-1h0.032c1.815-12.35,16.281-15,16.281-15h8s14.951,2.651,14.653,15h0.034Zm-16.813-25h-1a3.492,3.492,0,0,1,.505-0.05A3.265,3.265,0,0,1,702.762,397ZM681.25,380h-16l0.962-11h16l-0.093,1.071Zm-0.736,8.408L677.575,422h-16l3.15-36h16Zm-21.665,18.6,0.038-.012-0.211,2.41L657.487,423c-1.223,13.974-15.087,17-15.087,17H620.8l0.7-7.948h17.4a3.283,3.283,0,0,0,2.614-1.4l-0.722.345,0.723-8.265c-0.643.182-1.023,0.265-1.023,0.265h-6s-16.958-.482-15.512-17c1.6-18.226,16.667-19.055,16.667-19.055h6v0.01L660.637,387s-0.067.774-1.662,19C658.945,406.343,658.9,406.678,658.849,407.01ZM640.762,397h-2s-4.055.632-4.7,8c-0.456,5.213,2.721,6.543,4.4,6.883h0l-0.01.117h4l1.027-.312L644.062,405v0a0.007,0.007,0,0,0,0,0l0.7-8h-4Zm-17.3-8-3.612,7h-5.733c-1.571,1.3-3.153,2.654-4.617,4a52,52,0,0,0-7.879,10.043L600.487,423h-16l3.15-36h16l-0.21,2.41L603.1,393.2a19.81,19.81,0,0,1,2.192-2.2,15.154,15.154,0,0,1,6.263-3h13s-0.7.494-1.845,1.335Zm-65.386,18a5.256,5.256,0,0,0,4.384,4.883,7.077,7.077,0,0,0,2.3-.882h16.874c-4.32,9.194-17.147,12-17.147,12h-6s-16.941-.666-15.512-17c1.6-18.226,16.667-19.055,16.667-19.055h10s12.065,0.673,13.341,14.056h0.429l-0.525,6H558.076Zm6.686-10h-2s-2.443.383-3.838,4H567.9C567.137,397.382,564.762,397,564.762,397Zm-26.437,5-1.75,20h-15l1.662-19h-0.018c0.216-3.827-.489-4.8-1.019-5h0.475a1.515,1.515,0,0,0-.6-0.036,0.729,0.729,0,0,0-.4.036h0.212c-0.839.2-2.109,1.174-2.622,5h-0.028l-1.662,19h-12l1.662-19H507.21c0.157-3.827-.944-4.8-1.747-5h0.212a0.683,0.683,0,0,0-.4-0.036,1.581,1.581,0,0,0-.6.036h0.475c-0.565.2-1.441,1.174-1.894,5h-0.019l-1.662,19h-15l1.662-19h0a0.035,0.035,0,0,1,0-.006l0.087-.994h0.016c2.059-17.445,16.3-15,16.3-15h3a7.617,7.617,0,0,1,6.576,2.665A9.37,9.37,0,0,1,521.637,387h3s14.666-2.444,13.671,15h0.017Zm-32.862-4H505.15a0.778,0.778,0,0,1,.128-0.036A1.468,1.468,0,0,1,505.463,398Zm16.737,0h-0.313a1.628,1.628,0,0,1,.191-0.036A0.694,0.694,0,0,1,522.2,398Zm-68.163-27L452.9,384h32l-0.963,11h-32l-1.4,16h32l-0.962,11H426s5.5-10.28,6-16c1.521-17.381,5-46,5-46h54l-4.963,11h-32Z" transform="translate(-425 -356)"/>
  <path id="_1-2" data-name="1" class="cls-2" d="M1465.25,389.711s-3.09-1.232-3.5,3.413c-0.39,4.434,2.56,2.783,2.56,2.783h0.39l0.01-.013h3.8s12.13-1.468,10.86,13C1478.53,418.5,1464.89,419,1464.89,419h-19.6l0.69-7.947h15.4a3.049,3.049,0,0,0,3.05-2.79c0.24-2.762-.9-3.421-0.9-3.421h-3.4l0.06-.122-0.86.122s-13.61.078-12.63-11.086c1-11.49,12.94-10.752,12.94-10.752h21.2l0.21,6.708h-15.8ZM1418.08,403a5.243,5.243,0,0,0,4.38,4.882,7.11,7.11,0,0,0,2.3-.882h16.87c-4.32,9.194-17.14,12-17.14,12h-6s-16.94-.667-15.52-17c1.6-18.226,16.67-19.055,16.67-19.055h10s12.07,0.673,13.34,14.056h0.43l-0.52,6h-24.81Zm6.68-10h-2s-2.44.384-3.84,4h8.98C1427.14,393.383,1424.76,393,1424.76,393Zm-26.91,10.012,0.04-.011-0.21,2.409L1396.49,419c-1.23,13.974-15.09,17-15.09,17h-21.6l0.7-7.948h17.4a3.277,3.277,0,0,0,2.61-1.4l-0.72.345,0.72-8.265c-0.64.182-1.02,0.266-1.02,0.266h-6s-16.96-.483-15.52-17c1.6-18.226,16.67-19.055,16.67-19.055h6v0.01l19,0.046s-0.07.773-1.67,19C1397.94,402.343,1397.9,402.679,1397.85,403.01ZM1379.76,393h-2s-4.05.632-4.7,8c-0.45,5.213,2.72,6.543,4.4,6.883h0l-0.01.118h4l1.03-.312L1383.76,393h-4Zm-25.27,26h-15l1.71-19.6h-0.01c0.22-5.086-2.79-5.494-4.01-5.451-1.23-.043-4.38.376-4.99,5.666h-0.01L1330.49,419h-15l1.75-19.993V399l0.08-1h0.04c1.81-12.35,16.28-15,16.28-15h8s14.95,2.65,14.65,15h0.03Zm-16.82-25h-1a3.686,3.686,0,0,1,.51-0.051A3.128,3.128,0,0,1,1337.67,394Zm-47.59,9a5.243,5.243,0,0,0,4.38,4.882,7.11,7.11,0,0,0,2.3-.882h16.87c-4.32,9.194-17.14,12-17.14,12h-6s-16.94-.667-15.52-17c1.6-18.226,16.67-19.055,16.67-19.055h10s12.07,0.673,13.34,14.056h0.43l-0.52,6h-24.81Zm6.68-10h-2s-2.44.384-3.84,4h8.98C1299.14,393.383,1296.76,393,1296.76,393Zm-29.27,26h-16l4.98-56.937,16-.056-0.79,9.125Zm-23,0h-16l4.98-56.937,16-.056-0.79,9.125Zm-37,0,0.11-1.332c-0.34.116-.68,0.229-1.03,0.332a26.727,26.727,0,0,1-6.08,1s-16.8-2.329-15.52-17c1.6-18.226,16.67-19.055,16.67-19.055h22v0.108l2.99,0.01L1223.49,419h-16Zm-2.73-26s-4.05.632-4.7,8c-0.61,7.034,5.39,7,5.39,7l3.12-1.334L1209.76,393h-5Zm-22.27,26h-14l0.08-.923c-0.37.13-.72,0.247-1.03,0.348L1169.06,401v0h0l0.18-2h-0.11c-0.17-5.485-3.37-6-3.37-6h-4l-2.27,26h-16l4.98-56.937,16-.056-0.79,9.125-1.04,11.812h8s13.81,0.771,13.44,17.056h0.07Zm-59.07-45s-19.72-3.113-21.4,16c-1.8,20.619,14.43,18,14.43,18l18.09-1-1.01,11.5h-33s-19.96-.465-17.77-25.5,19.15-30.888,27.71-30.888h28L1137.42,374h-14Zm-80.4,46-3.51-5-3.73,5.223h-20.54c-13.87,0-14.62-4.827-5.11-15.942,5.71-6.678,10.62-13.327,10.62-13.327l-10.36-14.426,1.51-7.248h28.81c12.11,0,9.73,4.62,3.29,12-3.94,4.517-7.13,8.92-7.13,8.92l5.56,7.731,3.76-4.528,7.85,4.6-6.33,7.311,10.75,14.911Zm-21.42-45.544,5.82,8.145,6.49-8.145H1021.6ZM1028.89,401l-11.79,14.045h11.69L1034.1,409Zm-70.139-7.874c-0.388,4.434,2.557,2.783,2.557,2.783H961.7l0.006-.013h3.8s12.128-1.468,10.863,13C975.531,418.5,961.887,419,961.887,419h-19.4l-14,.055-6.418-6.652-0.578,6.6h-16l4.982-56.937,16-.056-0.8,9.125-1.366,15.613,4.332-3.8L942.637,383l-17.08,16.425,16.749,19.365,0.677-7.737h15.4a3.041,3.041,0,0,0,3.044-2.79c0.241-2.762-.9-3.421-0.9-3.421h-3.4l0.063-.122-0.863.122s-13.607.078-12.63-11.086C944.7,382.265,956.637,383,956.637,383h21.2l0.213,6.708h-15.8S959.158,388.479,958.751,393.124Zm-74,0c-0.388,4.434,2.557,2.783,2.557,2.783H887.7l0.006-.013h3.8s12.128-1.468,10.863,13C901.531,418.5,887.887,419,887.887,419h-19.6l0.7-7.947h15.4a3.041,3.041,0,0,0,3.044-2.79c0.241-2.762-.9-3.421-0.9-3.421h-3.4l0.063-.122-0.863.122s-13.607.078-12.63-11.086C870.7,382.265,882.637,383,882.637,383h21.2l0.213,6.708h-15.8S885.158,388.479,884.751,393.124ZM846.487,419l0.117-1.332c-0.342.116-.686,0.229-1.029,0.332a26.787,26.787,0,0,1-6.088,1s-16.8-2.329-15.512-17c1.6-18.226,16.667-19.055,16.667-19.055h22l0,0.108,2.988,0.01L862.487,419h-16Zm-2.725-26s-4.055.632-4.7,8c-0.615,7.034,5.388,7,5.388,7l3.116-1.334,1.2-13.667h-5Zm-22.725-26-4.462,51L799,424l4.191-57H779l5-11h62l-6.963,11h-18ZM761.849,403.01l0.038-.011-0.21,2.409L760.487,419c-1.222,13.974-15.087,17-15.087,17H723.8l0.7-7.948h17.4a3.283,3.283,0,0,0,2.614-1.4l-0.722.345,0.724-8.265c-0.644.182-1.024,0.266-1.024,0.266h-6s-16.957-.483-15.512-17c1.6-18.226,16.667-19.055,16.667-19.055h6v0.01L763.637,383s-0.067.773-1.662,19C761.945,402.343,761.9,402.679,761.849,403.01ZM743.762,393h-2s-4.055.632-4.7,8c-0.456,5.213,2.722,6.543,4.4,6.883l-0.01.118h4l1.027-.312L747.762,393h-4Zm-25.187,25h-15l1.716-19.617h-0.015c0.216-5.07-2.787-5.477-4.009-5.434-1.232-.044-4.377.376-4.988,5.654h-0.007l-1.7,19.4h-15l1.749-19.993s0,0,0-.007v0l0.087-1h0.032c1.815-12.35,16.281-15,16.281-15h8s14.951,2.651,14.653,15h0.034Zm-16.813-25h-1a3.492,3.492,0,0,1,.505-0.05A3.265,3.265,0,0,1,701.762,393ZM680.25,376h-16l0.962-11h16l-0.093,1.071Zm-0.736,8.409L676.575,418h-16l3.15-36h16Zm-21.665,18.6,0.038-.011-0.21,2.409L656.487,419c-1.223,13.974-15.087,17-15.087,17H619.8l0.7-7.948h17.4a3.283,3.283,0,0,0,2.614-1.4l-0.722.345,0.723-8.265c-0.643.182-1.023,0.266-1.023,0.266h-6s-16.957-.483-15.512-17c1.6-18.226,16.667-19.055,16.667-19.055h6v0.01L659.637,383s-0.067.773-1.662,19C657.945,402.343,657.9,402.679,657.849,403.01ZM639.762,393h-2s-4.055.632-4.7,8c-0.456,5.213,2.722,6.543,4.4,6.883h0l-0.01.118h4l1.027-.312L643.062,401v0a0.006,0.006,0,0,0,0,0l0.7-8h-4Zm-17.3-8-3.612,7h-5.733c-1.571,1.295-3.153,2.654-4.617,4a52,52,0,0,0-7.879,10.043L599.487,419h-16l3.15-36h16l-0.21,2.409L602.1,389.2a19.734,19.734,0,0,1,2.192-2.2,15.169,15.169,0,0,1,6.263-3h13s-0.7.494-1.845,1.336Zm-65.386,18a5.257,5.257,0,0,0,4.384,4.882,7.077,7.077,0,0,0,2.3-.882h16.874c-4.32,9.194-17.147,12-17.147,12h-6s-16.941-.667-15.512-17c1.6-18.226,16.667-19.055,16.667-19.055h10s12.065,0.673,13.341,14.056h0.429l-0.525,6H557.076Zm6.686-10h-2s-2.443.384-3.838,4H566.9C566.137,393.383,563.762,393,563.762,393Zm-26.437,5-1.75,20h-15l1.662-19h-0.018c0.216-3.827-.489-4.8-1.019-5h0.475a1.492,1.492,0,0,0-.6-0.036,0.718,0.718,0,0,0-.4.036h0.212c-0.839.2-2.109,1.173-2.622,5h-0.028l-1.662,19h-12l1.662-19H506.21c0.157-3.827-.944-4.8-1.747-5h0.212a0.673,0.673,0,0,0-.4-0.036,1.557,1.557,0,0,0-.6.036h0.475c-0.565.2-1.441,1.173-1.894,5h-0.019l-1.662,19h-15l1.662-19h0s0,0,0-.006l0.087-.994h0.016c2.059-17.445,16.3-15,16.3-15h3a7.615,7.615,0,0,1,6.576,2.664A9.367,9.367,0,0,1,520.637,383h3s14.666-2.445,13.671,15h0.017Zm-32.862-4H504.15a0.69,0.69,0,0,1,.128-0.036A1.309,1.309,0,0,1,504.463,394Zm16.737,0h-0.313a1.445,1.445,0,0,1,.191-0.036A0.618,0.618,0,0,1,521.2,394Zm-68.163-27L451.9,380h32l-0.963,11h-32l-1.4,16h32l-0.962,11H425s5.5-10.279,6-16c1.521-17.381,5-46,5-46h54l-4.963,11h-32Z" transform="translate(-425 -356)"/>
</svg>
