<!DOCTYPE svg PUBLIC "-//W3C//DTD SVG 1.1//EN" "http://www.w3.org/Graphics/SVG/1.1/DTD/svg11.dtd">
<!-- Uploaded to: SVG Repo, www.svgrepo.com, Transformed by: SVG Repo Mixer Tools -->
<svg fill="#0d0d0d" width="800px" height="800px" viewBox="-3.5 0 19 19" xmlns="http://www.w3.org/2000/svg" class="cf-icon-svg" stroke="#0d0d0d">
<g id="SVGRepo_bgCarrier" stroke-width="0"/>
<g id="SVGRepo_tracerCarrier" stroke-linecap="round" stroke-linejoin="round"/>
<g id="SVGRepo_iconCarrier">
<path d="M3.335 6.498a1.152 1.152 0 0 1-1.248 1.148h-.015a1.15 1.15 0 1 1 .03-2.295 1.147 1.147 0 0 1 1.233 1.147zM.982 8.553h2.206v6.637H.982zm10.165 2.83v3.807H8.941v-3.55c0-.893-.319-1.502-1.12-1.502a1.21 1.21 0 0 0-1.13.807 1.516 1.516 0 0 0-.073.538v3.708H4.41s.03-6.017 0-6.639h2.21v.94l-.016.023h.015V9.49a2.19 2.19 0 0 1 1.989-1.095c1.451 0 2.54.949 2.54 2.988z"/>
</g>
</svg>