<svg xmlns="http://www.w3.org/2000/svg" xmlns:xlink="http://www.w3.org/1999/xlink" viewBox="0,0,256,256" width="150px" height="150px" fill-rule="nonzero"><g fill="#0d0d0d" fill-rule="nonzero" stroke="none" stroke-width="1" stroke-linecap="butt" stroke-linejoin="miter" stroke-miterlimit="10" stroke-dasharray="" stroke-dashoffset="0" font-family="none" font-weight="none" font-size="none" text-anchor="none" style="mix-blend-mode: normal"><g transform="scale(5.12,5.12)"><path d="M35,22v2h1v-2zM35,22v2h1v-2zM44,4h-38c-1.09,0 -2,0.91 -2,2v38c0,1.09 0.91,2 2,2h38c1.09,0 2,-0.91 2,-2v-38c0,-1.09 -0.91,-2 -2,-2zM12,24c0,1.38 -0.19,5.89 -2.61,6.24l-0.28,-1.98c0.39,-0.19 0.89,-2.14 0.89,-4.26v-2h2zM15,30h-2v-11h2zM17.29,29.71c-1.2,-1.2 -1.29,-4.73 -1.29,-5.78v-1.93h2v1.93c0,1.91 0.34,3.99 0.71,4.36zM22,31h-3l1,-2h3zM31,31h-7l1,-2h2v-7h-2l-2.1,4.38h1.72l-1,2h-2.62c-0.8,0 -1.28,-0.91 -0.82,-1.57l1.82,-2.81h-2c-0.78,0 -1.26,-0.85 -0.86,-1.51l3,-5l1.72,1.02l-2.09,3.49h3.23v-2h6v2h-2v7h2zM40,28.5c0,1.38 -1.12,2.5 -2.5,2.5c-1.21,0 -1.22,-0.86 -1.45,-2h1.95v-3h-3v5h-2v-5h-2v-2h2v-2h-1v-2h1v-1h2v1h1c1.1,0 2,0.9 2,2v2c1.1,0 2,0.9 2,2zM40,22h-1v-1c0,-0.55 0.45,-1 1,-1c0.55,0 1,0.45 1,1c0,0.55 -0.45,1 -1,1zM35,24h1v-2h-1zM35,22v2h1v-2z"></path></g></g></svg>