<svg xmlns="http://www.w3.org/2000/svg" width="32" height="31.969" viewBox="0 0 32 31.969">
  <metadata><?xpacket begin="﻿" id="W5M0MpCehiHzreSzNTczkc9d"?>
<x:xmpmeta xmlns:x="adobe:ns:meta/" x:xmptk="Adobe XMP Core 5.6-c142 79.160924, 2017/07/13-01:06:39        ">
   <rdf:RDF xmlns:rdf="http://www.w3.org/1999/02/22-rdf-syntax-ns#">
      <rdf:Description rdf:about=""/>
   </rdf:RDF>
</x:xmpmeta>
                                                                                                    
                                                                                                    
                                                                                                    
                                                                                                    
                                                                                                    
                                                                                                    
                                                                                                    
                                                                                                    
                                                                                                    
                                                                                                    
                                                                                                    
                                                                                                    
                                                                                                    
                                                                                                    
                                                                                                    
                                                                                                    
                                                                                                    
                                                                                                    
                                                                                                    
                                                                                                    
                           
<?xpacket end="w"?></metadata>
<defs>
    <style>
      .cls-1 {
        fill: #fff;
        fill-rule: evenodd;
      }
    </style>
  </defs>
  <path id="facebook" class="cls-1" d="M712.87,206.6a8.843,8.843,0,0,1-9.279,9.282c-1.435.081-2.866,0.1-4.3,0.1V204.316h4.06l0.609-4.545h-4.669v-2.9c0-1.318.378-2.214,2.335-2.214h2.5v-4.063a33.971,33.971,0,0,0-3.638-.181c-3.6,0-6.064,2.12-6.064,6.01v3.351h-4.073v4.548h4.073V215.98c-1.34-.006-2.679-0.024-4.025-0.1a8.844,8.844,0,0,1-9.279-9.282c-0.124-2.2-.1-4.4-0.1-6.6s-0.02-4.391.1-6.6a8.844,8.844,0,0,1,9.279-9.282c2.2-.124,4.389-0.1,6.6-0.1s4.39-.02,6.6.1a8.843,8.843,0,0,1,9.279,9.282c0.124,2.2.1,4.391,0.1,6.6S713,204.4,712.87,206.6Z" transform="translate(-681 -184)"/>
</svg>
