<svg xmlns="http://www.w3.org/2000/svg" width="32" height="32" viewBox="0 0 32 32">
  <metadata><?xpacket begin="﻿" id="W5M0MpCehiHzreSzNTczkc9d"?>
<x:xmpmeta xmlns:x="adobe:ns:meta/" x:xmptk="Adobe XMP Core 5.6-c142 79.160924, 2017/07/13-01:06:39        ">
   <rdf:RDF xmlns:rdf="http://www.w3.org/1999/02/22-rdf-syntax-ns#">
      <rdf:Description rdf:about=""/>
   </rdf:RDF>
</x:xmpmeta>
                                                                                                    
                                                                                                    
                                                                                                    
                                                                                                    
                                                                                                    
                                                                                                    
                                                                                                    
                                                                                                    
                                                                                                    
                                                                                                    
                                                                                                    
                                                                                                    
                                                                                                    
                                                                                                    
                                                                                                    
                                                                                                    
                                                                                                    
                                                                                                    
                                                                                                    
                                                                                                    
                           
<?xpacket end="w"?></metadata>
<defs>
    <style>
      .cls-1 {
        fill: #fff;
        fill-rule: evenodd;
      }
    </style>
  </defs>
  <path id="instagram" class="cls-1" d="M833.985,194.669a5.331,5.331,0,1,0,5.33,5.331,5.342,5.342,0,0,0-5.33-5.331h0ZM849.968,200c0-2.207.02-4.4-.1-6.6a8.844,8.844,0,0,0-9.279-9.282c-2.207-.124-4.394-0.1-6.6-0.1s-4.394-.02-6.6.1a8.842,8.842,0,0,0-9.278,9.282c-0.124,2.207-.1,4.4-0.1,6.6s-0.02,4.4.1,6.6a8.842,8.842,0,0,0,9.278,9.282c2.207,0.124,4.394.1,6.6,0.1s4.393,0.02,6.6-.1a8.844,8.844,0,0,0,9.279-9.282c0.127-2.2.1-4.39,0.1-6.6h0Zm-15.983,8.2a8.2,8.2,0,1,1,8.2-8.2,8.189,8.189,0,0,1-8.2,8.2h0Zm8.536-14.824a1.915,1.915,0,1,1,1.354-.561,1.913,1.913,0,0,1-1.354.561h0Zm0,0" transform="translate(-818 -184)"/>
</svg>
