<svg xmlns="http://www.w3.org/2000/svg" width="32" height="32" viewBox="0 0 32 32">
  <metadata><?xpacket begin="﻿" id="W5M0MpCehiHzreSzNTczkc9d"?>
<x:xmpmeta xmlns:x="adobe:ns:meta/" x:xmptk="Adobe XMP Core 5.6-c142 79.160924, 2017/07/13-01:06:39        ">
   <rdf:RDF xmlns:rdf="http://www.w3.org/1999/02/22-rdf-syntax-ns#">
      <rdf:Description rdf:about=""/>
   </rdf:RDF>
</x:xmpmeta>
                                                                                                    
                                                                                                    
                                                                                                    
                                                                                                    
                                                                                                    
                                                                                                    
                                                                                                    
                                                                                                    
                                                                                                    
                                                                                                    
                                                                                                    
                                                                                                    
                                                                                                    
                                                                                                    
                                                                                                    
                                                                                                    
                                                                                                    
                                                                                                    
                                                                                                    
                                                                                                    
                           
<?xpacket end="w"?></metadata>
<defs>
    <style>
      .cls-1 {
        fill: #fff;
        fill-rule: evenodd;
      }
    </style>
  </defs>
  <path id="linkedin" class="cls-1" d="M893.865,206.6a8.844,8.844,0,0,1-9.279,9.282c-2.2.124-4.39,0.1-6.6,0.1s-4.39.02-6.6-.1a8.842,8.842,0,0,1-9.278-9.282c-0.124-2.2-.1-4.4-0.1-6.6s-0.02-4.391.1-6.6a8.842,8.842,0,0,1,9.278-9.282c2.2-.124,4.39-0.1,6.6-0.1s4.389-.02,6.6.1a8.844,8.844,0,0,1,9.279,9.282c0.123,2.2.1,4.391,0.1,6.6S893.992,204.4,893.865,206.6ZM869,209h4.991V196.013l-4.991.25V209Zm2.667-19a2.268,2.268,0,1,0,2.424,2.264A2.348,2.348,0,0,0,871.667,190Zm16.212,11.965a6.182,6.182,0,0,0-1.424-4.46c-0.815-.829-1.221-1.221-3.2-1.221a4.888,4.888,0,0,0-3.662,1.907v-1.867h-4.053v12.615H879.6v-7.19a1.911,1.911,0,0,1,1.934-2.135,2.361,2.361,0,0,1,2.3,2.532v6.792h4.051l0-6.973h0Z" transform="translate(-862 -184)"/>
</svg>
