<svg xmlns="http://www.w3.org/2000/svg" width="50" height="55" viewBox="0 0 50 55">
  <metadata><?xpacket begin="﻿" id="W5M0MpCehiHzreSzNTczkc9d"?>
<x:xmpmeta xmlns:x="adobe:ns:meta/" x:xmptk="Adobe XMP Core 5.6-c142 79.160924, 2017/07/13-01:06:39        ">
   <rdf:RDF xmlns:rdf="http://www.w3.org/1999/02/22-rdf-syntax-ns#">
      <rdf:Description rdf:about=""/>
   </rdf:RDF>
</x:xmpmeta>
                                                                                                    
                                                                                                    
                                                                                                    
                                                                                                    
                                                                                                    
                                                                                                    
                                                                                                    
                                                                                                    
                                                                                                    
                                                                                                    
                                                                                                    
                                                                                                    
                                                                                                    
                                                                                                    
                                                                                                    
                                                                                                    
                                                                                                    
                                                                                                    
                                                                                                    
                                                                                                    
                           
<?xpacket end="w"?></metadata>
<defs>
    <style>
      .cls-1 {
        fill: #fff;
        fill-rule: evenodd;
      }
    </style>
  </defs>
  <path id="top" class="cls-1" d="M39.814,41H84.186a2.82,2.82,0,0,1,0,5.639H39.814a2.82,2.82,0,0,1,0-5.639h0ZM59.23,54.82a3.961,3.961,0,0,1,5.6-.211c0.072,0.068.143,0.138,0.21,0.211l13.876,14.1a5.222,5.222,0,0,1,1.1,3.1,4.191,4.191,0,0,1-1.1,3.385,5.82,5.82,0,0,1-3.045,1.13,4.469,4.469,0,0,1-3.07-1.412l-6.638-7.05V91.768A4.125,4.125,0,0,1,62.151,96c-0.05,0-.1,0-0.151,0a4.306,4.306,0,0,1-4.168-4.23V68.359L50.92,75.127a3.989,3.989,0,0,1-5.643.2q-0.1-.095-0.2-0.2a5.8,5.8,0,0,1-.823-3.1,4.314,4.314,0,0,1,1.1-3.1Z" transform="translate(-37 -41)"/>
</svg>
