<svg xmlns="http://www.w3.org/2000/svg" width="31.969" height="32" viewBox="0 0 31.969 32">
  <metadata><?xpacket begin="﻿" id="W5M0MpCehiHzreSzNTczkc9d"?>
<x:xmpmeta xmlns:x="adobe:ns:meta/" x:xmptk="Adobe XMP Core 5.6-c142 79.160924, 2017/07/13-01:06:39        ">
   <rdf:RDF xmlns:rdf="http://www.w3.org/1999/02/22-rdf-syntax-ns#">
      <rdf:Description rdf:about=""/>
   </rdf:RDF>
</x:xmpmeta>
                                                                                                    
                                                                                                    
                                                                                                    
                                                                                                    
                                                                                                    
                                                                                                    
                                                                                                    
                                                                                                    
                                                                                                    
                                                                                                    
                                                                                                    
                                                                                                    
                                                                                                    
                                                                                                    
                                                                                                    
                                                                                                    
                                                                                                    
                                                                                                    
                                                                                                    
                                                                                                    
                           
<?xpacket end="w"?></metadata>
<defs>
    <style>
      .cls-1 {
        fill: #fff;
        fill-rule: evenodd;
      }
    </style>
  </defs>
  <path id="twitter" class="cls-1" d="M760.858,206.6a8.839,8.839,0,0,1-9.27,9.282c-2.2.124-4.385,0.1-6.59,0.1s-4.385.02-6.59-.1a8.839,8.839,0,0,1-9.269-9.282c-0.124-2.2-.1-4.4-0.1-6.6s-0.02-4.391.1-6.6a8.839,8.839,0,0,1,9.269-9.282c2.2-.124,4.386-0.1,6.59-0.1s4.386-.02,6.59.1a8.839,8.839,0,0,1,9.27,9.282c0.124,2.2.1,4.391,0.1,6.6S760.986,204.4,760.858,206.6Zm-4.4-15.26A8.3,8.3,0,0,1,753.7,192.4a4.31,4.31,0,0,0-3.164-1.5,4.391,4.391,0,0,0-4.334,4.539,4.849,4.849,0,0,0,.112,1.051,12.187,12.187,0,0,1-8.935-4.959,4.9,4.9,0,0,0,1.341,6.221,4.131,4.131,0,0,1-1.964-.6v0.059a4.621,4.621,0,0,0,3.478,4.583,4.075,4.075,0,0,1-1.142.156,3.838,3.838,0,0,1-.814-0.09,4.409,4.409,0,0,0,4.048,3.242,8.312,8.312,0,0,1-6.417,1.9,11.659,11.659,0,0,0,6.645,2.092c7.971,0,12.33-6.968,12.33-13.015q0-.3-0.013-0.591a8.931,8.931,0,0,0,2.163-2.336,8.262,8.262,0,0,1-2.489.684A4.467,4.467,0,0,0,756.453,191.338Z" transform="translate(-729 -184)"/>
</svg>
