<svg xmlns="http://www.w3.org/2000/svg" width="32" height="32" viewBox="0 0 32 32">
  <metadata><?xpacket begin="﻿" id="W5M0MpCehiHzreSzNTczkc9d"?>
<x:xmpmeta xmlns:x="adobe:ns:meta/" x:xmptk="Adobe XMP Core 5.6-c142 79.160924, 2017/07/13-01:06:39        ">
   <rdf:RDF xmlns:rdf="http://www.w3.org/1999/02/22-rdf-syntax-ns#">
      <rdf:Description rdf:about=""/>
   </rdf:RDF>
</x:xmpmeta>
                                                                                                    
                                                                                                    
                                                                                                    
                                                                                                    
                                                                                                    
                                                                                                    
                                                                                                    
                                                                                                    
                                                                                                    
                                                                                                    
                                                                                                    
                                                                                                    
                                                                                                    
                                                                                                    
                                                                                                    
                                                                                                    
                                                                                                    
                                                                                                    
                                                                                                    
                                                                                                    
                           
<?xpacket end="w"?></metadata>
<defs>
    <style>
      .cls-1 {
        fill: #fff;
        fill-rule: evenodd;
      }
    </style>
  </defs>
  <path id="youtube" class="cls-1" d="M809.877,206.6a8.844,8.844,0,0,1-9.279,9.282c-2.2.124-4.39,0.1-6.6,0.1s-4.39.02-6.6-.1a8.842,8.842,0,0,1-9.278-9.282c-0.124-2.2-.1-4.4-0.1-6.6s-0.02-4.391.1-6.6a8.842,8.842,0,0,1,9.278-9.282c2.2-.124,4.39-0.1,6.6-0.1s4.389-.02,6.6.1a8.844,8.844,0,0,1,9.279,9.282c0.124,2.2.1,4.391,0.1,6.6S810.005,204.4,809.877,206.6Zm-4.812-6.424c0-.057,0-0.121,0-0.2,0-.208-0.008-0.442-0.013-0.692-0.02-.718-0.055-1.433-0.111-2.108a13.98,13.98,0,0,0-.338-2.285,3.556,3.556,0,0,0-2.481-2.535,22.3,22.3,0,0,0-4.082-.391c-0.937-.036-1.939-0.059-2.941-0.072-0.351-.005-0.676-0.008-0.969-0.01h-0.742c-0.293,0-.619,0-0.97.01-1,.013-2,0.036-2.94.072a22.642,22.642,0,0,0-4.082.391,3.556,3.556,0,0,0-2.482,2.535,13.871,13.871,0,0,0-.338,2.285c-0.055.675-.091,1.39-0.111,2.108-0.007.25-.01,0.484-0.012,0.692,0,0.075,0,.139,0,0.2v0.144c0,0.057,0,.121,0,0.2,0,0.208.007,0.442,0.012,0.692,0.02,0.718.056,1.433,0.111,2.108a14.09,14.09,0,0,0,.338,2.285,3.558,3.558,0,0,0,2.482,2.535,22.268,22.268,0,0,0,4.082.391c0.936,0.036,1.938.059,2.94,0.072,0.351,0,.677.008,0.97,0.01h0.742c0.293,0,.618,0,0.969-0.01,1-.013,2-0.036,2.941-0.072a22.642,22.642,0,0,0,4.082-.391A3.549,3.549,0,0,0,804.6,205.6a13.659,13.659,0,0,0,.338-2.285c0.056-.675.091-1.39,0.111-2.108,0.008-.25.01-0.484,0.013-0.692,0-.075,0-0.139,0-0.2v-0.144ZM791.509,196.8l5.857,3.423-5.857,3.474v-6.9Z" transform="translate(-778 -184)"/>
</svg>
