<svg xmlns="http://www.w3.org/2000/svg" width="749.467" height="74" viewBox="0 0 749.467 74">
  <defs>
    <style>
      .cls-1 {
        fill: #fff;
        fill-rule: evenodd;
      }
    </style>
  </defs>
  <path id="auto" class="cls-1" d="M1208.08,268c-0.05.346-.12,0.681-0.19,1.014l0.04-.012-0.35,2.407L1205.57,285c-2.07,13.974-16.12,17-16.12,17h-21.6l1.18-7.947h17.4a3.517,3.517,0,0,0,2.69-1.4l-0.74.341,1.23-8.266c-0.66.182-1.04,0.267-1.04,0.267h-6s-16.93-.483-14.49-17c2.7-18.225,17.82-19.054,17.82-19.054h6v0.009L1209.89,249S1210.78,249.773,1208.08,268Zm-17.67-9h-2s-4.09.632-5.18,8c-0.77,5.212,2.33,6.543,3.98,6.883l-0.02.117h4l1.05-.312L1194.41,259h-4Zm-23.74,5-3.1,21h-15l2.9-19.64h-0.01c0.51-5.051-2.47-5.454-3.69-5.41-1.22-.045-4.38.369-5.32,5.606h-0.01L1139.57,285h-15l2.96-20h0l0.14-1h0.04c2.56-12.347,17.18-15,17.18-15h8s14.79,2.652,13.75,15h0.03Zm-19.4-4a2.525,2.525,0,0,1,1,0h-1Zm-24.49-17h-16l1.63-11h16l-0.16,1.069Zm-1.24,8.409L1116.57,285h-16l5.32-36h16ZM1058.49,285.5l-4.6-36.5h16l2.49,17,7.52-17.055h20L1075.49,285.5h-17Zm-7.71-42.5h-16l1.63-11h16l-0.16,1.069Zm-1.24,8.409L1044.57,285h-16l5.32-36h16ZM1030.75,250l-4.04,7h-5.73c-1.65,1.3-3.32,2.654-4.86,4a56.613,56.613,0,0,0-8.49,10.043L1005.72,284h-16l5.326-36h16l-0.36,2.408-0.56,3.794a21.7,21.7,0,0,1,2.33-2.2,16.2,16.2,0,0,1,6.44-3h13s-0.73.494-1.92,1.334Zm-64.109,34.5H944.729l-0.162.5h-19l14.652-45.308L940,228l3.993,0.02L944,228h19l-0.032.1c2.7,0.008,5.167.013,7.015,0.013,8.557,0,24.134,5.854,20.431,30.889S966.641,284.5,966.641,284.5Zm-7.483-44.62L948.214,273.72,953.2,274s15.612,2.618,18.662-18C973.771,243.061,965.016,240.308,959.158,239.879Zm-66.91,14.833s-3.018-1.232-3.705,3.412c-0.656,4.434,2.388,2.782,2.388,2.782h0.4l0.006-.012h3.8s12.217-1.467,10.077,13c-1.421,9.606-15.1,10.106-15.1,10.106h-19.6l1.176-7.947h15.4a3.267,3.267,0,0,0,3.212-2.789c0.409-2.762-.693-3.422-0.693-3.422h-3.4l0.069-.122-0.869.122s-13.612.079-11.96-11.086c1.7-11.489,13.59-10.752,13.59-10.752h21.2l-0.192,6.709h-15.8ZM867.934,269h0l-0.148,1h-0.035c-2.563,12.348-17.184,15-17.184,15h-8s-14.784-2.653-13.743-15h-0.038l3.107-21h15l-2.959,20h0.037c-0.337,4.711,2.524,5.092,3.716,5.05,1.18,0.042,4.154-.339,5.21-5.05h0.037l2.959-20h15l-2.959,20h0ZM848.2,274a3.652,3.652,0,0,1-.508.051A3.271,3.271,0,0,1,847.2,274h1Zm-42.628,11h-6s-16.439-3.791-14.485-17c2.7-18.225,17.819-19.054,17.819-19.054h10s14.878,0.829,12.181,19.054C823.128,281.208,805.567,285,805.567,285Zm1.847-26h-2s-4.094.632-5.184,8c-0.771,5.212,2.326,6.543,3.982,6.883,1.756-.34,5.247-1.671,6.018-6.883C811.32,259.631,807.414,259,807.414,259Zm-23.74,5-2.959,20h-15l2.811-19h-0.019c0.448-3.827-.2-4.8-0.716-5h0.475a1.478,1.478,0,0,0-.595-0.037,0.739,0.739,0,0,0-.405.037h0.212c-0.851.2-2.18,1.173-2.925,5h-0.027l-2.811,19h-12l2.811-19H752.5c0.389-3.827-.654-4.8-1.444-5h0.212a0.664,0.664,0,0,0-.395-0.037,1.592,1.592,0,0,0-.605.037h0.474c-0.577.2-1.511,1.173-2.2,5h-0.018l-2.811,19h-15l2.811-19h0v0l0.148-1h0.016c3.113-17.444,17.2-15,17.2-15h3a7.238,7.238,0,0,1,6.413,2.67,9.818,9.818,0,0,1,7.587-2.67h3s14.813-2.445,12.764,15h0.017Zm-32.62-4H750.74a0.878,0.878,0,0,1,.131-0.037A1.484,1.484,0,0,1,751.054,260Zm16.737,0h-0.313a1.711,1.711,0,0,1,.193-0.037A0.657,0.657,0,0,1,767.791,260Zm-57.224,25h-6s-16.439-3.791-14.485-17c2.7-18.225,17.819-19.054,17.819-19.054h10s14.878,0.829,12.181,19.054C728.128,281.208,710.567,285,710.567,285Zm1.847-26h-2s-4.094.632-5.184,8c-0.771,5.212,2.326,6.543,3.982,6.883,1.756-.34,5.247-1.671,6.018-6.883C716.32,259.631,712.414,259,712.414,259Zm-25.74,5-3.107,21h-15l2.89-19.534h-0.01c0.564-5.154-2.443-5.562-3.674-5.517-1.227-.045-4.392.371-5.326,5.637h-0.008L659.567,285h-15l2.958-19.991a0.025,0.025,0,0,1,0-.009,0,0,0,0,1,0,0l0.147-1h0.035c2.563-12.347,17.184-15,17.184-15h8s14.784,2.652,13.743,15h0.038Zm-19.408-4a3.549,3.549,0,0,1,.507-0.05,3.234,3.234,0,0,1,.493.05h-1Zm-40.7,25h-6s-16.439-3.791-14.485-17c2.7-18.225,17.819-19.054,17.819-19.054h10s14.877,0.829,12.181,19.054C644.128,281.208,626.567,285,626.567,285Zm1.847-26h-2s-4.093.632-5.183,8c-0.771,5.212,2.326,6.543,3.982,6.883,1.756-.34,5.247-1.671,6.018-6.883C632.32,259.631,628.414,259,628.414,259Zm-23.852-1h-10l-1.628,11h0.048c-0.33,5.926,5.212,5,5.212,5h1a6.257,6.257,0,0,0,3.054-.367L600.567,285h-8s-15.733-2.653-14.74-15h-0.041l1.775-12h-6l1.331-9h6l2.071-14h15l-2.071,14h10Zm-36.628,11v0l-0.148,1h-0.035c-2.563,12.348-17.184,15-17.184,15h-8s-14.784-2.653-13.743-15h-0.038l3.107-21h15l-2.959,20h0.037c-0.337,4.711,2.524,5.092,3.716,5.05,1.18,0.042,4.154-.339,5.21-5.05h0.037l2.959-20h15l-2.959,20h0Zm-19.74,5a3.623,3.623,0,0,1-.507.051,3.3,3.3,0,0,1-.493-0.051h1Zm-40.985,7h-17.05l4.331-9h11.878l-2.275-24.35-23.525,37.343h-20L501,228h17l5.726,55.929-16.15,1.008Z" transform="translate(-460.563 -228)"/>
</svg>
