<svg xmlns="http://www.w3.org/2000/svg" width="80" height="1000" viewBox="0 0 80 1000">
  <defs>
    <style>
      .cls-1 {
        fill: #333;
      }

      .cls-1, .cls-10, .cls-12, .cls-3, .cls-4, .cls-5, .cls-6, .cls-7, .cls-8, .cls-9 {
        fill-rule: evenodd;
      }

      .cls-2 {
        fill: #ffe474;
      }

      .cls-3 {
        fill: #ea4335;
      }

      .cls-4 {
        fill: #34c6f5;
      }

      .cls-5 {
        fill: #dc2169;
      }

      .cls-6 {
        fill: #eeae2e;
      }

      .cls-7 {
        fill: #34b37a;
      }

      .cls-8 {
        fill: #07c160;
      }

      .cls-9 {
        fill: #fff;
      }

      .cls-10, .cls-11 {
        fill: #1b1a1a;
      }

      .cls-12 {
        fill: orange;
      }
    </style>
  </defs>
  <path id="形状_1" data-name="形状 1" class="cls-1" d="M10.1,1.508a6.447,6.447,0,0,0-2.4-.47,6.845,6.845,0,0,0-6.7,6.979A6.846,6.846,0,0,0,7.692,15c4.489,0,6.6-3.005,7.337-6.979,0.271-1.7.944-.434,0.944-0.434C15.981,7.722,15.994,7.86,15.994,8A8,8,0,1,1,8-.011a7.178,7.178,0,0,1,2.975.637,0.847,0.847,0,0,1-.53,1.031A0.466,0.466,0,0,1,10.1,1.508ZM5.576,6.233l2.3,2.3H8.2l5.576-5.587s1.253-.323.656,0.986l-5.9,5.915a0.882,0.882,0,0,1-1.312,0L4.592,7.219a0.927,0.927,0,0,1,0-.986A1.028,1.028,0,0,1,5.576,6.233Z"/>
  <rect id="矩形_14_拷贝" data-name="矩形 14 拷贝" class="cls-2" x="-1" y="-1923" width="8" height="9"/>
  <rect id="矩形_14_拷贝_2" data-name="矩形 14 拷贝 2" class="cls-2" x="-1" y="-1890" width="8" height="9"/>
  <path id="形状_36" data-name="形状 36" class="cls-3" d="M2.994,51.081V41.23a1.743,1.743,0,0,1,2.669-.9L11,44.813l5.337-4.478s2.669-.935,2.669.9v9.851a1.115,1.115,0,0,1-.89.9H15.448V45.708l-2.669,2.686s-2.02,2.082-3.558,0L6.552,45.708v6.269H3.884a0.753,0.753,0,0,1-.889-0.9"/>
  <path id="形状_37" data-name="形状 37" class="cls-4" d="M8.49,68A1.5,1.5,0,0,0,8.49,71h1.5V69.5A1.5,1.5,0,0,0,8.49,68h0ZM8.279,71.987H3.711a1.516,1.516,0,1,0,0,3.007H8.277a1.516,1.516,0,1,0,0-3.007h0Z"/>
  <path id="矩形_18" data-name="矩形 18" class="cls-5" d="M8.49,76.007a1.618,1.618,0,0,0-1.5,1.714v4.571a1.619,1.619,0,0,0,1.5,1.714,1.617,1.617,0,0,0,1.5-1.714V77.721a1.856,1.856,0,0,0-.439-1.212,1.419,1.419,0,0,0-1.063-.5h0ZM3,77.51a1.5,1.5,0,1,0,3,0v-1.5H4.5A1.5,1.5,0,0,0,3,77.51H3Zm0,0"/>
  <path id="矩形_17" data-name="矩形 17" class="cls-6" d="M17.28,76.006H12.715A1.617,1.617,0,0,0,11,77.51a1.425,1.425,0,0,0,.5,1.063,1.842,1.842,0,0,0,1.212.441H17.28a1.516,1.516,0,1,0,0-3.007h0ZM12.5,80H11v1.5A1.5,1.5,0,1,0,12.5,80h0Z"/>
  <path id="矩形_16" data-name="矩形 16" class="cls-7" d="M12.5,74.994a1.617,1.617,0,0,0,1.5-1.714V68.709A1.618,1.618,0,0,0,12.5,67,1.618,1.618,0,0,0,11,68.709V73.28a1.616,1.616,0,0,0,1.5,1.714h0Zm5.49-1.5a1.5,1.5,0,1,0-3,0v1.5h1.5a1.5,1.5,0,0,0,1.5-1.5h0Z"/>
  <path id="形状_38" data-name="形状 38" class="cls-8" d="M13.739,108.5a6.187,6.187,0,0,1,.642.038c-0.576-2.634-3.445-4.591-6.72-4.591C4,103.949,1,106.4,1,109.51a5.347,5.347,0,0,0,2.665,4.414L3,115.891l2.328-1.146a11.657,11.657,0,0,0,2.333.328c0.209,0,.416-0.01.622-0.026a4.779,4.779,0,0,1-.206-1.37,5.414,5.414,0,0,1,5.663-5.175h0Zm-3.581-1.773a0.817,0.817,0,1,1,0,1.634,0.834,0.834,0,1,1,0-1.634h0ZM5.5,108.363a0.834,0.834,0,1,1,0-1.634,0.817,0.817,0,1,1,0,1.634h0ZM19.818,113.6c0-2.614-2.665-4.745-5.657-4.745-3.169,0-5.665,2.131-5.665,4.745s2.5,4.745,5.665,4.745a8.5,8.5,0,0,0,2-.327L17.986,119l-0.5-1.634a4.942,4.942,0,0,0,2.333-3.766h0Zm-7.494-.818a0.654,0.654,0,1,1,0-1.308,0.673,0.673,0,1,1,0,1.308h0Zm3.663,0a0.654,0.654,0,1,1,0-1.308,0.673,0.673,0,1,1,0,1.308h0Zm0,0"/>
  <path id="_" data-name="+" class="cls-9" d="M19.108,159.8v4.711H17.116V159.8H12.44v-1.968h4.676v-4.676h1.992v4.676h4.676V159.8H19.108Zm-4.571-9.338A4.818,4.818,0,0,0,11,149a4.993,4.993,0,0,0-5,5v2H4.5a2.5,2.5,0,1,0,0,5H12v2H4.5a4.337,4.337,0,0,1-3.188-1.312A4.341,4.341,0,0,1,0,158.5a4.411,4.411,0,0,1,1.137-3.014A4.365,4.365,0,0,1,4,154a6.756,6.756,0,0,1,2.038-4.964A6.756,6.756,0,0,1,11,147a6.847,6.847,0,0,1,4.25,1.424A6.775,6.775,0,0,1,17.7,152h-2.1A4.962,4.962,0,0,0,14.537,150.462Z"/>
  <path id="形状_39" data-name="形状 39" class="cls-10" d="M9,200a8.864,8.864,0,0,0-9,8.727,8.76,8.76,0,0,0,6.03,8.245c0.473,0.115.4-.211,0.4-0.433v-1.513c-2.73.31-2.84-1.442-3.023-1.735-0.37-.612-1.245-0.768-0.984-1.061,0.622-.31,1.255.078,1.989,1.13a1.942,1.942,0,0,0,2.092.507,2.441,2.441,0,0,1,.7-1.186c-2.828-.492-4.007-2.166-4.007-4.157a3.773,3.773,0,0,1,.972-2.57,3.313,3.313,0,0,1,.1-2.342,4.193,4.193,0,0,1,2.478.884,9.026,9.026,0,0,1,2.271-.265,9.03,9.03,0,0,1,2.283.271,4.1,4.1,0,0,1,2.44-.856,3.332,3.332,0,0,1,.111,2.3,3.777,3.777,0,0,1,.984,2.582c0,1.994-1.187,3.671-4.023,4.155a2.451,2.451,0,0,1,.766,1.775v2.2c0.016,0.175,0,.349.3,0.349A8.763,8.763,0,0,0,18,208.729,8.867,8.867,0,0,0,9,200H9Z"/>
  <path id="矩形_19_拷贝" data-name="矩形 19 拷贝" class="cls-10" d="M18,253H10v8H8v-8H0v-2H8v-8h2v8h8v2Z"/>
  <rect id="矩形_19" data-name="矩形 19" class="cls-11" y="282" width="18" height="2"/>
  <path id="矩形_12" data-name="矩形 12" class="cls-9" d="M30,358v-4H20v4H8V346H20v4H30v-4H42v12H30Zm9-9H33v6h6v-6Zm-23-5H11v-4h5v4Zm-5-10h5v4H11v-4Zm25-6H20v4H8V320H20v3H41v21H36V328Zm-19-5H11v6h6v-6Z"/>
  <path id="形状_41" data-name="形状 41" class="cls-9" d="M46,420a22.853,22.853,0,0,1-3,6c-1.81,2.3-2,0-2,0s-2.772-4.307-2.772-5.545c0-.08,0-0.13-0.005-0.194-0.041-.122-0.086-0.242-0.115-0.369L38,420a0.994,0.994,0,0,1,.081-0.194,4,4,0,1,1,7.824.044A1.5,1.5,0,0,1,46,420Zm-4-2.693A1.693,1.693,0,1,0,43.693,419,1.693,1.693,0,0,0,42,417.307ZM42,392H22v26H19V392H9v31H30V397h3v26h2v4H5V388H46v24H42V392Z"/>
  <path id="形状_39-2" data-name="形状 39" class="cls-9" d="M37.319,475.244V462.731L24.63,455.573,11.94,462.731v12.513l-11,6.2V495.8l12.689,7.156,11-6.2,11,6.2L48.316,495.8V481.447ZM35.627,486.7l-7.584-4.277,7.584-4.275,7.584,4.275Zm-20.3-20.108,7.614,4.293v8.555l-7.613-4.294v-8.554Zm11,12.848v-8.555l7.614-4.293v8.554Zm-5.106,2.983L13.632,486.7,6.048,482.42l7.584-4.275Zm-5.892,7.18,7.614-4.294v8.553l-7.613,4.292V489.6Zm16.888-25.894-7.582,4.276-7.582-4.275,7.582-4.278Zm-27.885,21.6L11.94,489.6v8.551l-7.614-4.292v-8.553Zm21.995,0,7.614,4.294v8.551l-7.614-4.292v-8.553Zm11,12.845V489.6l7.614-4.294v8.553Zm0,0"/>
  <path id="形状_36-2" data-name="形状 36" class="cls-9" d="M23,568l-0.013-13L27,555l-0.009,3.99L45,559v4H27v5H23ZM5,563v-4H18.013v4H5ZM14.008,555L14,550l-9-.008V546h9l0.008-4.987h4V555h-4Zm8.979-5v-4H45.009v4H22.987ZM32,541V528h4v5h9v4H36v4H32ZM5,536.008v-4H26.991v4H5Z"/>
  <path id="形状_42" data-name="形状 42" class="cls-12" d="M8,610v12a1.827,1.827,0,0,0,2,2h6s2,0.546,2-2v-6s-0.532-2,1-2h6s1-.061,1,2v6s-0.617,2,2,2h6a1.8,1.8,0,0,0,2-2V610h3a1.819,1.819,0,0,0,1-3L24,593a2.973,2.973,0,0,0-4,0L5,606s-2.949,2.806,0,4H8Z"/>
  <path id="形状_29_拷贝" data-name="形状 29 拷贝" class="cls-9" d="M3.386,652l-1.361-1.425,4.393-4.6L2.049,641.4,3.386,640l5.729,6Z"/>
  <path id="形状_25" data-name="形状 25" class="cls-9" d="M1,672v-9H13v9H1Zm11-1v-4.8L7,669l-5-2.722V671H12Zm0-7H2v1l5,3,5-3v-1Z"/>
</svg>
