<svg xmlns="http://www.w3.org/2000/svg" width="391" height="33.625" viewBox="0 0 391 33.625">
  <defs>
    <style>
      .cls-1 {
        fill: #fff;
        fill-rule: evenodd;
      }
    </style>
  </defs>
  <path id="cvpr2023" class="cls-1" d="M845.714,459.809c0,1.909,1.221,1.2,1.221,1.2h0.173l0,0h1.657S854,460.37,854,466.6c0,4.137-5.931,4.353-5.931,4.353h-8.547V467.53h6.715a1.19,1.19,0,0,0,1.222-1.2,1.585,1.585,0,0,0-.524-1.474h-1.482l0.022-.053-0.371.053s-5.931.033-5.931-4.775c0-4.95,5.233-4.631,5.233-4.631h9.245L854,458.339h-6.89S845.714,457.808,845.714,459.809Zm-17.879,11.145V480h-6.977V455.474l1.3,0,0-.047h9.594s6.541,0.357,6.541,8.208c0,5.69-7.413,7.323-7.413,7.323h-3.053Zm2.181-11.2h-2.181v6.461h1.309a2.694,2.694,0,0,0,2.616-3.015C831.76,460.027,830.016,459.755,830.016,459.755Zm-18.752,11.2H809.52s-7.413-1.633-7.413-7.323c0-7.851,6.541-8.208,6.541-8.208h4.361s6.541,0.357,6.541,8.208c0,5.69-7.413,7.323-7.413,7.323h-0.873Zm0-11.2h-0.872s-1.744.272-1.744,3.446a2.284,2.284,0,1,0,4.361,0C813.009,460.027,811.264,459.755,811.264,459.755Zm-16.577,10.8c-0.156.056-.3,0.107-0.437,0.15V463.48c0-.091.008-0.183,0.008-0.279,0-.118,0-0.231-0.008-0.341v-0.517h-0.041c-0.28-2.367-1.7-2.588-1.7-2.588h-1.744v11.2h-6.977V446.429l6.977-.024v9.018h3.489s6.055,0.335,6.511,7.357h0.043v8.188h-6.125v-0.41Zm-20.14-9.551h0.172l0,0h1.657s5.233-.632,5.233,5.6c0,4.137-5.931,4.353-5.931,4.353h-8.547V467.53h6.715a1.19,1.19,0,0,0,1.221-1.2,1.586,1.586,0,0,0-.523-1.474h-1.482l0.022-.053-0.371.053s-5.931.033-5.931-4.775c0-4.95,5.233-4.631,5.233-4.631h9.245l0.349,2.889h-6.89s-1.4-.531-1.4,1.47C773.326,461.718,774.547,461.007,774.547,461.007Zm-14.3,9.971-3.053-2.865v2.841h-6.977V456.209l-0.315.243,0.315-.143-1.308,3.014h-2.5c-0.636.558-1.274,1.143-1.862,1.723a19.811,19.811,0,0,0-3.052,4.326v5.582h-6.977V455.447h6.977v2.671a7.472,7.472,0,0,1,.872-0.948,6.043,6.043,0,0,1,2.616-1.291h5.233v-9.45l6.977-.024V457.06l1.745-1.637,6.105,0.024-6.822,7.075,8.13,8.432Zm-34.886-.024h-1.744s-7.413-1.633-7.413-7.323c0-7.851,6.541-8.208,6.541-8.208h4.36s6.542,0.357,6.542,8.208c0,5.69-7.414,7.323-7.414,7.323h-0.872Zm0-11.2h-0.872s-1.744.272-1.744,3.446a2.284,2.284,0,1,0,4.36,0C727.1,460.027,725.358,459.755,725.358,459.755Zm-24.42,10.983-1.613-6.318-3.62,6.318h-7.413l-6.105-23.9,6.977-.431,3.925,15.937,7.849-15.961h8.722l-5.494,9.59,1.569,6.371,7.849-15.961h8.722l-13.955,24.36h-7.413Zm-37.066.216H652.1v-4.738h10.03s2.616,0.445,2.616-2.585c0-2.752-1.311-3-1.659-3.015H651.662l0.436-3.9v-0.836h10.03s2.616,0.444,2.616-2.585c0-3.174-1.744-3.016-1.744-3.016H651.662l0.436-3.9h12.646s6.541-.5,6.541,7.347a5.759,5.759,0,0,1-2.138,4.5c1.182,1.054,2.138,2.832,2.138,5.833C671.285,469.751,663.872,470.954,663.872,470.954Zm-36.185-2.143v-5.177l-0.009,0,12.539-9.395a3.935,3.935,0,0,0,.107-0.942c0-3.174-1.744-3.016-1.744-3.016h-10.9v-3.9h12.646s6.541-.5,6.541,7.347a6.2,6.2,0,0,1-.063.856l0.063,0a9.429,9.429,0,0,1-2.18,2.584c-1.186.976-2.946,1.636-4.427,2.854L634.219,465v1.223h12.656v4.75H627.687v-2.157Zm-12.655,2.143h-6.541s-7.032-1.143-7.4-6.461h-0.018V453.718c0-7.844,6.541-7.34,6.541-7.34H615.9s6.537-.5,6.541,7.34v10.775h-0.018C622.064,469.811,615.032,470.954,615.032,470.954Zm0.872-17.66c0-3.174-1.744-3.016-1.744-3.016h-4.8s-1.744-.158-1.744,3.016v10.768h0.021a2.2,2.2,0,0,0,2.6,2.154h3.052a2.2,2.2,0,0,0,2.6-2.154H615.9V453.294Zm-37.06,15.517v-5.178l-0.006,0,0.006,0v0h0l12.531-9.388a3.935,3.935,0,0,0,.107-0.942c0-3.174-1.745-3.016-1.745-3.016h-10.9v-3.9h12.646s6.541-.5,6.541,7.347a6.043,6.043,0,0,1-.064.856l0.064,0a9.451,9.451,0,0,1-2.18,2.584c-1.186.976-2.947,1.636-4.427,2.854-2.542,2.092-5.064,4.168-6.043,4.975v1.219h12.656v4.75H578.844v-2.157Zm-14.675-1.733v3.66h-4.8l-6.612-7.107h-3.854v7.323l-8.721-.216V446.4l6.1-.021v0h12.646s6.541-.5,6.541,7.347c0,6.285-3.1,8.582-5.288,9.422Zm-6.978-16.8h-8.285v8.615h7.413s2.617-.412,2.617-4.307S557.191,450.278,557.191,450.278Zm-27.036,13.353h-9.594v7.323l-8.285-.216V449.847l2.18-3.469h16.571s6.541-.5,6.541,7.347C537.568,463.448,530.155,463.631,530.155,463.631Zm-0.872-13.353h-8.722v8.615h7.85s2.616-.412,2.616-4.307S529.283,450.278,529.283,450.278Zm-37.938,20.46-6.105-23.9,8.721-.431,3.052,14.214,6.978-14.238h8.721l-13.954,24.36h-7.413Zm-20.06-12.276c0,8.881,6.977,7.754,6.977,7.754l7.85-.432,1.308,4.954h-15.7s-8.721-.2-8.721-10.983,7.17-13.305,10.9-13.305h7.849l1.308,5.121h-3.052S471.285,450.23,471.285,458.462Z" transform="translate(-463 -446.375)"/>
</svg>
