<?xml version="1.0" encoding="UTF-8" standalone="no"?>
<!DOCTYPE svg PUBLIC "-//W3C//DTD SVG 1.1//EN" "http://www.w3.org/Graphics/SVG/1.1/DTD/svg11.dtd">
<svg width="100%" height="100%" viewBox="0 0 354 87" version="1.1" xmlns="http://www.w3.org/2000/svg" xmlns:xlink="http://www.w3.org/1999/xlink" xml:space="preserve" xmlns:serif="http://www.serif.com/" style="fill-rule:evenodd;clip-rule:evenodd;stroke-linejoin:round;stroke-miterlimit:2;">
    <g id="Artboard2" transform="matrix(1,0,0,1,-249.19,-4.89781)">
        <rect x="249.19" y="4.898" width="353.457" height="86.844" style="fill:none;"/>
        <clipPath id="_clip1">
            <rect x="249.19" y="4.898" width="353.457" height="86.844"/>
        </clipPath>
        <g clip-path="url(#_clip1)">
            <g id="Artboard1" transform="matrix(1,0,0,1,254.585,5.52775)">
                <rect x="-254.395" y="-4.63" width="595.961" height="90.31" style="fill:none;"/>
                <g transform="matrix(1,0,0,1,0.605338,0.370062)">
                    <path d="M163.1,0.188C140.175,0.188 121.59,18.773 121.59,41.698C121.59,43.433 121.709,45.14 121.916,46.819L150.274,20.74L174.653,42.739L185.587,32.37L203.965,48.954C204.381,46.596 204.61,44.175 204.61,41.698C204.61,18.773 186.025,0.188 163.1,0.188Z" style="fill:white;fill-rule:nonzero;"/>
                    <path d="M178.503,46.213L198.143,63.936C199.975,61.055 201.462,57.935 202.545,54.63L185.737,39.463L178.503,46.213Z" style="fill:white;fill-rule:nonzero;"/>
                    <path d="M143.897,78.497C149.64,81.501 156.169,83.209 163.1,83.209C168.788,83.209 174.207,82.062 179.142,79.992L160.412,63.09L143.897,78.497Z" style="fill:white;fill-rule:nonzero;"/>
                    <path d="M150.202,53.877L132.759,70.013C134.737,72.132 136.933,74.041 139.313,75.708L156.563,59.616L150.202,53.877Z" style="fill:white;fill-rule:nonzero;"/>
                    <path d="M164.203,59.553L184.095,77.503C188.287,75.04 192.013,71.869 195.096,68.143L174.712,49.749L164.203,59.553Z" style="fill:white;fill-rule:nonzero;"/>
                    <path d="M150.226,46.818L160.354,56.08L170.862,46.276L150.3,27.721L123.091,52.756C124.424,57.588 126.606,62.065 129.47,66.019L150.226,46.818Z" style="fill:white;fill-rule:nonzero;"/>
                    <path d="M0.145,43.723L0.145,18.438C0.145,11.176 3.911,6.872 11.04,6.872C18.168,6.872 21.934,11.176 21.934,18.438L21.934,23.414L14.939,23.414L14.939,17.967C14.939,14.874 13.461,13.597 11.241,13.597C9.022,13.597 7.543,14.874 7.543,17.967L7.543,44.26C7.543,47.353 9.022,48.564 11.241,48.564C13.461,48.564 14.939,47.353 14.939,44.26L14.939,37.401L21.934,37.401L21.934,43.723C21.934,50.985 18.168,55.288 11.04,55.288C3.911,55.288 0.145,50.985 0.145,43.723Z" style="fill:white;fill-rule:nonzero;"/>
                    <path d="M25.763,7.544L33.228,7.544L38.136,44.529L43.045,7.544L49.837,7.544L42.709,54.616L32.891,54.616L25.763,7.544Z" style="fill:white;fill-rule:nonzero;"/>
                    <path d="M65.702,28.726C68.057,28.726 69.334,27.651 69.334,24.288L69.334,18.707C69.334,15.345 68.057,14.269 65.702,14.269L62.206,14.269L62.206,28.726L65.702,28.726ZM54.809,7.544L65.702,7.544C73.1,7.544 76.731,11.646 76.731,19.178L76.731,23.818C76.731,31.349 73.1,35.451 65.702,35.451L62.206,35.451L62.206,54.616L54.809,54.616L54.809,7.544Z" style="fill:white;fill-rule:nonzero;"/>
                    <path d="M92.194,27.718C94.951,27.718 96.633,26.508 96.633,22.742L96.633,19.111C96.633,15.748 95.489,14.269 92.867,14.269L89.505,14.269L89.505,27.718L92.194,27.718ZM82.107,7.544L93.068,7.544C100.735,7.544 104.03,11.108 104.03,18.371L104.03,21.262C104.03,26.104 102.484,29.197 99.189,30.542L99.189,30.677C102.887,31.82 104.097,35.317 104.097,40.629L104.097,48.9C104.097,51.186 104.165,52.868 104.905,54.616L97.372,54.616C96.969,53.406 96.7,52.666 96.7,48.833L96.7,40.225C96.7,35.854 95.422,34.442 92.06,34.442L89.505,34.442L89.505,54.616L82.107,54.616L82.107,7.544Z" style="fill:white;fill-rule:nonzero;"/>
                    <path d="M230.657,38.586C232.478,38.586 233.569,37.65 233.569,35.05L233.569,16.121C233.569,13.521 232.478,12.585 230.657,12.585L227.745,12.585L227.745,38.586L230.657,38.586ZM222.024,7.385L230.761,7.385C236.481,7.385 239.289,10.557 239.289,16.381L239.289,34.79C239.289,40.614 236.481,43.786 230.761,43.786L222.024,43.786L222.024,7.385Z" style="fill:white;fill-rule:nonzero;"/>
                    <path d="M242.824,7.385L258.424,7.385L258.424,12.585L248.545,12.585L248.545,22.205L256.397,22.205L256.397,27.405L248.545,27.405L248.545,38.586L258.424,38.586L258.424,43.786L242.824,43.786L242.824,7.385Z" style="fill:white;fill-rule:nonzero;"/>
                    <path d="M261.18,7.385L268.252,7.385L274.024,29.174L274.024,7.385L279.12,7.385L279.12,43.786L273.349,43.786L266.276,17.213L266.276,43.786L261.18,43.786L261.18,7.385Z" style="fill:white;fill-rule:nonzero;"/>
                    <path d="M281.563,7.385L287.336,7.385L291.132,35.986L294.928,7.385L300.181,7.385L294.668,43.786L287.075,43.786L281.563,7.385Z" style="fill:white;fill-rule:nonzero;"/>
                    <path d="M302.622,7.385L318.223,7.385L318.223,12.585L308.343,12.585L308.343,22.205L316.194,22.205L316.194,27.405L308.343,27.405L308.343,38.586L318.223,38.586L318.223,43.786L302.622,43.786L302.622,7.385Z" style="fill:white;fill-rule:nonzero;"/>
                    <path d="M328.779,22.985C330.911,22.985 332.211,22.049 332.211,19.137L332.211,16.329C332.211,13.729 331.327,12.585 329.299,12.585L326.699,12.585L326.699,22.985L328.779,22.985ZM320.979,7.385L329.455,7.385C335.384,7.385 337.932,10.141 337.932,15.757L337.932,17.993C337.932,21.737 336.735,24.129 334.188,25.169L334.188,25.273C337.048,26.157 337.983,28.861 337.983,32.97L337.983,39.366C337.983,41.134 338.035,42.434 338.607,43.786L332.783,43.786C332.472,42.85 332.263,42.278 332.263,39.314L332.263,32.658C332.263,29.277 331.275,28.185 328.675,28.185L326.699,28.185L326.699,43.786L320.979,43.786L320.979,7.385Z" style="fill:white;fill-rule:nonzero;"/>
                    <path d="M0,76.252L0,73.974C0.273,74.042 0.546,74.066 0.82,74.066C1.822,74.066 2.3,73.587 2.3,72.539L2.3,60.306L4.807,60.306L4.807,72.471C4.807,75.091 3.622,76.344 1.162,76.344C0.706,76.344 0.364,76.321 0,76.252Z" style="fill:white;fill-rule:nonzero;"/>
                    <path d="M6.9,72.471L6.9,60.306L9.406,60.306L9.406,72.653C9.406,73.792 9.884,74.202 10.682,74.202C11.479,74.202 11.958,73.792 11.958,72.653L11.958,60.306L14.373,60.306L14.373,72.471C14.373,75.023 13.097,76.481 10.636,76.481C8.176,76.481 6.9,75.023 6.9,72.471Z" style="fill:white;fill-rule:nonzero;"/>
                    <path d="M16.556,60.306L19.654,60.306L22.183,69.851L22.183,60.306L24.416,60.306L24.416,76.252L21.887,76.252L18.789,64.612L18.789,76.252L16.556,76.252L16.556,60.306Z" style="fill:white;fill-rule:nonzero;"/>
                    <path d="M26.69,60.306L33.525,60.306L33.525,62.583L29.196,62.583L29.196,66.798L32.636,66.798L32.636,69.077L29.196,69.077L29.196,73.974L33.525,73.974L33.525,76.252L26.69,76.252L26.69,60.306Z" style="fill:white;fill-rule:nonzero;"/>
                    <path d="M38.851,72.516L38.851,71.218L41.22,71.218L41.22,72.63C41.22,73.769 41.722,74.202 42.519,74.202C43.316,74.202 43.817,73.815 43.817,72.403L43.817,71.104C43.817,69.623 43.316,69.077 42.177,69.077L41.335,69.077L41.335,66.798L42.246,66.798C43.18,66.798 43.749,66.388 43.749,65.113L43.749,63.951C43.749,62.812 43.225,62.356 42.496,62.356C41.767,62.356 41.289,62.788 41.289,63.836L41.289,64.885L38.919,64.885L38.919,64.041C38.919,61.491 40.195,60.078 42.587,60.078C44.98,60.078 46.255,61.467 46.255,64.019L46.255,64.588C46.255,66.297 45.709,67.345 44.478,67.801L44.478,67.846C45.822,68.347 46.323,69.509 46.323,71.126L46.323,72.539C46.323,75.091 45.048,76.481 42.587,76.481C40.127,76.481 38.851,75.068 38.851,72.516Z" style="fill:white;fill-rule:nonzero;"/>
                    <rect x="47.892" y="68.393" width="5.012" height="2.051" style="fill:white;"/>
                    <path d="M58.302,62.583L53.244,62.583L53.244,60.306L60.762,60.306L60.762,62.493L56.844,76.252L54.224,76.252L58.302,62.583Z" style="fill:white;fill-rule:nonzero;"/>
                    <path d="M61.329,76.252L60.464,76.252L60.464,73.746L62.97,73.746L62.97,76.002L61.534,78.987L60.373,78.987L61.329,76.252Z" style="fill:white;fill-rule:nonzero;"/>
                    <path d="M69.003,74.521C69.003,72.152 69.641,70.717 71.509,68.757C73.423,66.73 73.97,65.66 73.97,64.178C73.97,62.744 73.468,62.356 72.671,62.356C71.874,62.356 71.373,62.788 71.373,63.928L71.373,65.636L69.003,65.636L69.003,64.087C69.003,61.536 70.279,60.078 72.739,60.078C75.2,60.078 76.476,61.536 76.476,64.087C76.476,65.978 75.701,67.619 73.377,70.078C71.874,71.673 71.486,72.516 71.486,73.633L71.486,73.974L76.248,73.974L76.248,76.252L69.003,76.252L69.003,74.521Z" style="fill:white;fill-rule:nonzero;"/>
                    <path d="M83.17,72.63L83.17,63.928C83.17,62.788 82.669,62.356 81.872,62.356C81.074,62.356 80.573,62.788 80.573,63.928L80.573,72.63C80.573,73.769 81.074,74.202 81.872,74.202C82.669,74.202 83.17,73.769 83.17,72.63ZM78.067,72.471L78.067,64.087C78.067,61.536 79.411,60.078 81.872,60.078C84.332,60.078 85.676,61.536 85.676,64.087L85.676,72.471C85.676,75.023 84.332,76.481 81.872,76.481C79.411,76.481 78.067,75.023 78.067,72.471Z" style="fill:white;fill-rule:nonzero;"/>
                    <path d="M87.382,74.521C87.382,72.152 88.02,70.717 89.888,68.757C91.801,66.73 92.348,65.66 92.348,64.178C92.348,62.744 91.847,62.356 91.049,62.356C90.252,62.356 89.751,62.788 89.751,63.928L89.751,65.636L87.382,65.636L87.382,64.087C87.382,61.536 88.658,60.078 91.118,60.078C93.578,60.078 94.854,61.536 94.854,64.087C94.854,65.978 94.08,67.619 91.756,70.078C90.252,71.673 89.865,72.516 89.865,73.633L89.865,73.974L94.626,73.974L94.626,76.252L87.382,76.252L87.382,74.521Z" style="fill:white;fill-rule:nonzero;"/>
                    <path d="M101.549,72.653L101.549,69.828C101.549,68.757 101.116,68.256 100.25,68.256C99.384,68.256 98.951,68.757 98.951,69.828L98.951,72.653C98.951,73.702 99.384,74.202 100.25,74.202C101.116,74.202 101.549,73.702 101.549,72.653ZM96.445,72.471L96.445,64.224C96.445,61.536 97.675,60.078 100.273,60.078C102.733,60.078 104.009,61.536 104.009,64.087L104.009,64.383L101.64,64.383L101.64,63.928C101.64,62.788 101.139,62.356 100.341,62.356C99.452,62.356 98.951,62.788 98.951,64.315L98.951,67.368C99.452,66.434 100.228,65.978 101.275,65.978C103.121,65.978 104.055,67.277 104.055,69.623L104.055,72.471C104.055,75.023 102.71,76.481 100.25,76.481C97.789,76.481 96.445,75.023 96.445,72.471Z" style="fill:white;fill-rule:nonzero;"/>
                    <path d="M222.039,70.066L222.039,55.781C222.039,51.677 224.167,49.245 228.194,49.245C232.222,49.245 234.35,51.677 234.35,55.781L234.35,58.592L230.397,58.592L230.397,55.514C230.397,53.766 229.562,53.044 228.308,53.044C227.055,53.044 226.219,53.766 226.219,55.514L226.219,70.37C226.219,72.118 227.055,72.802 228.308,72.802C229.562,72.802 230.397,72.118 230.397,70.37L230.397,66.494L234.35,66.494L234.35,70.066C234.35,74.169 232.222,76.601 228.194,76.601C224.167,76.601 222.039,74.169 222.039,70.066Z" style="fill:white;fill-rule:nonzero;"/>
                    <path d="M245.027,70.18L245.027,55.666C245.027,53.766 244.191,53.044 242.861,53.044C241.532,53.044 240.696,53.766 240.696,55.666L240.696,70.18C240.696,72.079 241.532,72.802 242.861,72.802C244.191,72.802 245.027,72.079 245.027,70.18ZM236.517,69.914L236.517,55.932C236.517,51.677 238.758,49.245 242.861,49.245C246.965,49.245 249.207,51.677 249.207,55.932L249.207,69.914C249.207,74.169 246.965,76.601 242.861,76.601C238.758,76.601 236.517,74.169 236.517,69.914Z" style="fill:white;fill-rule:nonzero;"/>
                    <path d="M251.944,49.625L256.124,49.625L256.124,72.422L263.001,72.422L263.001,76.221L251.944,76.221L251.944,49.625Z" style="fill:white;fill-rule:nonzero;"/>
                    <path d="M272.995,70.18L272.995,55.666C272.995,53.766 272.159,53.044 270.829,53.044C269.5,53.044 268.664,53.766 268.664,55.666L268.664,70.18C268.664,72.079 269.5,72.802 270.829,72.802C272.159,72.802 272.995,72.079 272.995,70.18ZM264.484,69.914L264.484,55.932C264.484,51.677 266.726,49.245 270.829,49.245C274.933,49.245 277.175,51.677 277.175,55.932L277.175,69.914C277.175,74.169 274.933,76.601 270.829,76.601C266.726,76.601 264.484,74.169 264.484,69.914Z" style="fill:white;fill-rule:nonzero;"/>
                    <path d="M285.611,61.024C287.169,61.024 288.119,60.339 288.119,58.212L288.119,56.161C288.119,54.26 287.473,53.424 285.991,53.424L284.092,53.424L284.092,61.024L285.611,61.024ZM279.912,49.625L286.105,49.625C290.437,49.625 292.299,51.639 292.299,55.743L292.299,57.376C292.299,60.112 291.425,61.86 289.563,62.619L289.563,62.696C291.652,63.341 292.336,65.317 292.336,68.319L292.336,72.992C292.336,74.284 292.374,75.234 292.792,76.221L288.537,76.221C288.309,75.537 288.157,75.119 288.157,72.953L288.157,68.09C288.157,65.62 287.436,64.823 285.535,64.823L284.092,64.823L284.092,76.221L279.912,76.221L279.912,49.625Z" style="fill:white;fill-rule:nonzero;"/>
                    <path d="M302.977,67.407L301.077,53.994L299.215,67.407L302.977,67.407ZM303.509,71.016L298.684,71.016L297.961,76.221L294.086,76.221L298.417,49.625L304.078,49.625L308.41,76.221L304.23,76.221L303.509,71.016Z" style="fill:white;fill-rule:nonzero;"/>
                    <path d="M316.619,72.422C317.948,72.422 318.746,71.738 318.746,69.838L318.746,56.008C318.746,54.108 317.948,53.424 316.619,53.424L314.491,53.424L314.491,72.422L316.619,72.422ZM310.312,49.625L316.694,49.625C320.874,49.625 322.926,51.943 322.926,56.199L322.926,69.648C322.926,73.904 320.874,76.221 316.694,76.221L310.312,76.221L310.312,49.625Z" style="fill:white;fill-rule:nonzero;"/>
                    <path d="M333.87,70.18L333.87,55.666C333.87,53.766 333.034,53.044 331.704,53.044C330.375,53.044 329.539,53.766 329.539,55.666L329.539,70.18C329.539,72.079 330.375,72.802 331.704,72.802C333.034,72.802 333.87,72.079 333.87,70.18ZM325.359,69.914L325.359,55.932C325.359,51.677 327.601,49.245 331.704,49.245C335.808,49.245 338.05,51.677 338.05,55.932L338.05,69.914C338.05,74.169 335.808,76.601 331.704,76.601C327.601,76.601 325.359,74.169 325.359,69.914Z" style="fill:white;fill-rule:nonzero;"/>
                </g>
            </g>
        </g>
    </g>
</svg>
