<svg version="1.2" xmlns="http://www.w3.org/2000/svg" viewBox="0 0 512 512" width="512" height="512">
	<title>icons8-bilibili-512</title>
	<defs>
		<linearGradient id="g1" x1="321.2" y1="406.6" x2="75.2" y2="135.1" gradientUnits="userSpaceOnUse">
			<stop offset="0" stop-color="#58c9ed"/>
			<stop offset=".149" stop-color="#58c9ed"/>
			<stop offset=".47" stop-color="#60c332"/>
			<stop offset=".828" stop-color="#cae31c"/>
			<stop offset="1" stop-color="#cae31c"/>
		</linearGradient>
		<clipPath clipPathUnits="userSpaceOnUse" id="cp1">
			<path d="m16-172h1497.6v748.8h-1497.6z"/>
		</clipPath>
	</defs>
	<style>
		.s0 { fill: url(#g1) } 
		.s1 { fill: #41485b } 
		.s2 { fill: #35414d } 
	</style>
	<g id="g35">
		<g id="g37">
			<g id="g39">
				<g id="g45">
					<g id="g47">
						<path id="path61" fill-rule="evenodd" class="s0" d="m118.1 223.7h27.3l34-34v-44.4h49.1v49.1h-44.3l-34 34v27.4h-32.1zm-24-70.6l-11 11v20.4h-23.4v-23.4h20.4l11-11v-9.8h12.8v12.8zm210.5 158.3h-33v-33l28.8-0.1 15.5-15.4v-13.9h18.1v18.1h-13.9l-15.5 15.4zm16.5 42.9l-15.4 15.5v13.9h-18.1v-18.1h13.9l15.4-15.5v-28.8h33v33zm-271.9-127.3h26.6v26.6h-23.2l-12.5 12.5v11.2h-14.6v-14.6h11.2l12.5-12.5zm101.7 95.4h20.5v20.5h-15.7l-17.5 17.5-0.1 32.7h-37.3v-37.4h32.6l17.5-17.6zm60.5 0h37.4v37.4h-32.6l-17.5 17.6v15.7h-20.5v-20.5h15.7l17.5-17.5zm84.7-64.7h-34.6l-17.9 17.8v27.4h-32.1v-32.1h27.4l17.8-17.8v-34.6h39.4zm-98.3-4.6l-20.4 20.4v20.1h-24.9v-24.8h20.1l20.4-20.5v-34.5h34.5l21.2-21.1v-37.3h42v42h-37.3l-21.1 21.2v34.5zm-48.9-171.6h-8.7v-8.7h8.7zm-15.4 43h-21.5v-21.5h21.5zm-43.2-43.2h15.9v15.9h-15.9zm247.4 290.1h14.6v14.6h-14.6zm-248.3-102.3h14.6v14.6h-14.6zm37-75.6h14.7v14.6h-14.7zm23.7-99.7h30.1v30.1h-30.1zm79.1 14h29.2v29.2h-29.2zm-69.3 71.5h-38.6v-38.6h38.6zm192.3 57.3h-19.4v-19.4h19.4zm-33.8-41.6h-15.6v-15.6h15.6zm-103.3-67.4h-19v-19h19zm-128.7 73.5h16.1v16.1h-16.1zm203.9 146.9h-16.1v-16.1h16.1z"/>
					</g>
				</g>
			</g>
		</g>
		<g id="g63">
			<g id="Clip-Path: g65" clip-path="url(#cp1)">
				<g id="g65">
					<path id="path71" fill-rule="evenodd" class="s1" d="m440.2 380.1c-35.3 12.6-61 35.2-70.7 62.4 0 0 15.9-46.1 11.4-110.2h18.1v-45.8h-24.3v23.6h-24.2v-24.3h23.8c0-10.1-0.1-31.2-0.1-31.2l9-0.1v-19.7h-17.9v-31.5h-22.4c-3-5.4-6.2-10.7-9.6-16.1-5.5-9.5-11.5-18.2-17.6-26.2v-27.6h-25q-7.3-6.8-14.6-12.7v-28.6h-45.2c-8-4-15.6-7.2-22.7-9.8v-6.3h-19.1c-13.9-3.9-22.6-4.9-22.6-4.9v-2.8c0 0 114.6-49.4 191.1 48.7 0 0-2.8 17.1 8.4 21.8 29.4 18.9 107.5 43.9 107.5 43.9 0 0-8.3 20.7-20.1 38.8 0 0 2.1 11.2 13.9 20.2 0 0-0.7 3-6.3 16.1 0 0 12.9 2.9 12.4 18.2-0.5 15.4-19.8 15.6 6.2 40.5 26.1 25-6.2 51.7-39.4 63.6zm-45.8-125.6h-11.2v11.1h11.2zm-60.3-93h19.7v-19.7h-19.7zm-45-53.8h11.5v-11.5h-11.5zm115.8 251.5h20.5v-20.5h-20.5z"/>
					<path id="path73" class="s2" d="m616.5 127.3h71.5v210.6h-71.5z"/>
					<g id="g75">
						<path id="path77" class="s2" d="m892.6 251.7l62.5 17.2q-6.3 24.1-19.9 40.1-13.5 16.1-33.5 24.3-20.1 8.2-51.1 8.2-37.6 0-61.4-10-23.8-9.9-41.2-35.1-17.3-25.1-17.3-64.3 0-52.3 30.5-80.4 30.4-28 86.1-28 43.6 0 68.5 16.1 24.9 16.1 37.1 49.4l-63 12.8q-3.3-9.6-6.9-14.1-6-7.5-14.6-11.5-8.7-4-19.4-4-24.2 0-37.1 17.8-9.7 13.2-9.7 41.5 0 35 11.6 48 11.6 12.9 32.7 13 20.5 0 30.9-10.5 10.5-10.5 15.2-30.5z"/>
					</g>
					<g id="g79">
						<path id="path81" class="s2" d="m989.7 127.3h71.2v158.7h111.3v51.9h-182.5z"/>
					</g>
					<g id="g83">
						<path id="path85" fill-rule="evenodd" class="s2" d="m1205.5 337.9v-210.6h118.8q33 0 50.5 5.1 17.4 5.2 28.1 19.2 10.7 14 10.7 34.1 0 17.6-8.1 30.3-8.2 12.7-22.6 20.6-9.1 5-25 8.3 12.7 3.9 18.6 7.8 3.9 2.6 11.4 11.1 7.4 8.5 9.9 13.1l34.6 61h-80.6l-38.1-64.4q-7.2-12.5-12.9-16.2-7.7-4.9-17.4-4.9h-6.3v85.5zm71.6-125.3h30q4.9 0 18.9-2.9 7.1-1.2 11.6-6.6 4.4-5.3 4.4-12.2 0-10.2-7-15.6-7.1-5.5-26.6-5.5h-31.3z"/>
					</g>
					<g id="g87">
						<path id="path89" class="s2" d="m615.3 366.5h820.7"/>
					</g>
					<g id="g91">
						<path id="path93" class="s2" d="m1436 370h-820.7c-1.9 0-3.5-1.6-3.5-3.5 0-1.9 1.6-3.4 3.5-3.4h820.7c1.9 0 3.5 1.5 3.5 3.4 0 1.9-1.6 3.5-3.5 3.5z"/>
					</g>
				</g>
			</g>
		</g>
	</g>
</svg>