<svg xmlns="http://www.w3.org/2000/svg" width="20" height="20" viewBox="0 0 20 20">
  <defs>
    <style>
      .cls-1 {
        fill-rule: evenodd;
      }
    </style>
  </defs>
  <path id="v3" class="cls-1" d="M1228.5,319a8.495,8.495,0,1,1,8.52-8.494A8.523,8.523,0,0,1,1228.5,319Zm0-14.989a6.495,6.495,0,1,0,6.5,6.494A6.5,6.5,0,0,0,1228.5,304.011Zm0,10.48a4.137,4.137,0,0,1-3.57-1.994,3.854,3.854,0,0,1,0-3.985,4.155,4.155,0,0,1,3.57-1.991A3.987,3.987,0,1,1,1228.5,314.491Zm1.42-3.984a1.63,1.63,0,1,0,1.69,1.629A1.654,1.654,0,0,0,1229.92,310.507Z" transform="translate(-1218.5 -300.5)"/>
</svg>
