<svg xmlns="http://www.w3.org/2000/svg" width="20" height="20" viewBox="0 0 20 20">
  <defs>
    <style>
      .cls-1 {
        fill-rule: evenodd;
        fill:#fff;
      }
    </style>
  </defs>
  <path id="v4" class="cls-1" d="M1236,361h-0.14a3.983,3.983,0,0,1-7.72,0H1225v2a1,1,0,0,1-2,0v-2h-2a1,1,0,0,1,0-2h2v-4h-2a1,1,0,0,1,0-2h5c0.01,0,.03.007,0.04,0.008l1.3-1.3A1.65,1.65,0,0,1,1229,351h2v-3a1,1,0,0,1,2,0v3h2a1,1,0,0,1,0,2h-2v3.141a3.989,3.989,0,0,1,2.86,2.859H1236A1,1,0,0,1,1236,361Zm-5-8h-2a0.281,0.281,0,0,0-.25.121l-1.41,1.414A1.567,1.567,0,0,1,1226,355h-1v4h3.14a3.989,3.989,0,0,1,2.86-2.859V353Zm1,6a1,1,0,1,0,1,1A1,1,0,0,0,1232,359Z" transform="translate(-1218.5 -345.5)"/>
</svg>
