<?xml version="1.0" encoding="utf-8"?>
<!-- Generator: Adobe Illustrator 26.3.1, SVG Export Plug-In . SVG Version: 6.00 Build 0)  -->
<svg version="1.1" id="图层_1" xmlns="http://www.w3.org/2000/svg" xmlns:xlink="http://www.w3.org/1999/xlink" x="0px" y="0px"
	 viewBox="0 0 870.93 196.18" style="enable-background:new 0 0 870.93 196.18;" xml:space="preserve">
<style type="text/css">
	.st0{fill:#040000;}
	.st1{fill-rule:evenodd;clip-rule:evenodd;fill:#040000;}
</style>
<g>
	<path class="st0" d="M336.28,15.85l-28.22,113.64c-1.5,6.05-2.68,8.25-4.43,10.48c-1.72,2.2-3.89,3.93-6.4,5.13
		c-2.51,1.18-4.86,1.81-10.92,1.81h-19.2l32.55-131.06C299.66,15.85,336.28,15.85,336.28,15.85z"/>
	<path class="st0" d="M144.8,50.55l-18.94,76.29c-1.73,6.98-3.07,9.5-5.1,12.07c-2.01,2.56-4.48,4.55-7.39,5.94
		c-2.9,1.35-5.61,2.08-12.58,2.08H29.16c-6.98,0-9.32-0.73-11.55-2.08c-2.22-1.39-3.71-3.37-4.44-5.94
		c-0.75-2.56-0.84-5.09,0.9-12.07l18.94-76.29h36.62l-18.11,72.91c-0.69,2.79-0.65,3.8-0.35,4.84c0.29,1.02,0.88,1.81,1.78,2.37
		c0.87,0.54,1.82,0.83,4.61,0.83h22.47c2.79,0,3.89-0.29,5.02-0.83c1.18-0.56,2.17-1.35,2.96-2.37c0.82-1.04,1.36-2.04,2.05-4.84
		l18.11-72.91C108.17,50.55,144.8,50.55,144.8,50.55z"/>
	<path class="st0" d="M587.04,147.17h-40.19l-29.7-57.44h30.11c2.79,0,3.87-0.29,5.02-0.83c0.48-0.23,0.93-0.5,1.34-0.81
		c0.61-0.44,1.15-0.96,1.62-1.56c0.79-1.02,1.34-2.04,2.03-4.84l1.79-7.21c0.69-2.79,0.65-3.8,0.37-4.82
		c-0.18-0.6-0.45-1.14-0.85-1.56c-0.25-0.33-0.56-0.6-0.94-0.81c-0.89-0.54-1.82-0.83-4.61-0.83h-30.11l-19.98,80.45h-36.62
		l23.93-96.37h94.23c6.07,0,8.1,0.62,10.02,1.79c1.92,1.19,3.22,2.93,3.85,5.15c0.11,0.35,0.19,0.71,0.25,1.08
		c0.39,1.93,0.24,4.3-1.02,9.39l-4.99,20.08c-1.26,5.09-2.3,7.46-3.64,9.39c-0.25,0.37-0.51,0.73-0.79,1.08
		c-1.73,2.22-3.89,3.95-6.4,5.15c-2.51,1.18-4.84,1.79-10.91,1.79h-7.79l0,0L587.04,147.17z"/>
	<path class="st0" d="M647.58,87.17h75.17l-4.31,17.35h-67.13c-2.79,0-3.87,0.29-5.02,0.83c-1.16,0.56-2.17,1.35-2.96,2.37
		c-0.81,1.02-1.36,2.04-2.05,4.84l-4.23,17.02h75.17l-4.31,17.35h-91.69c-7,0-9.34-0.73-11.55-2.08c-2.22-1.39-3.73-3.37-4.46-5.94
		c-0.73-2.56-0.84-5.09,0.9-12.07l14.62-58.88c1.5-6.05,2.68-8.25,4.43-10.47c1.73-2.22,3.89-3.95,6.4-5.15
		c2.51-1.18,4.86-1.79,10.91-1.79h94.36l-4.31,17.35H660.4c-2.79,0-3.87,0.29-5.02,0.83c-1.16,0.56-2.17,1.35-2.96,2.37
		c-0.81,1.02-1.36,2.04-2.05,4.84L647.58,87.17z"/>
	<path class="st0" d="M777.75,87.17h75.17l-4.31,17.35h-67.13c-2.79,0-3.89,0.29-5.04,0.83c-1.16,0.56-2.15,1.35-2.96,2.37
		c-0.79,1.02-1.34,2.04-2.03,4.84l-4.23,17.02h75.17l-4.31,17.35h-91.71c-7,0-9.34-0.73-11.55-2.08c-2.22-1.39-3.73-3.37-4.44-5.94
		c-0.75-2.56-0.84-5.09,0.9-12.07l14.62-58.88c1.5-6.05,2.67-8.25,4.41-10.47c1.73-2.22,3.89-3.95,6.42-5.15
		c2.49-1.18,4.84-1.79,10.89-1.79H862l-4.31,17.35h-67.13c-2.79,0-3.89,0.29-5.04,0.83c-1.16,0.56-2.15,1.35-2.96,2.37
		c-0.79,1.02-1.34,2.04-2.03,4.84L777.75,87.17z"/>
	<g>
		<path class="st1" d="M274.41,50.55l-23.93,96.37h-25.33c-6.07,0-8.09-0.64-10.02-1.81c-0.25-0.15-0.48-0.31-0.7-0.5
			c-1.3-0.96-2.27-2.25-2.88-3.78c0.01-0.04,0-0.06-0.02-0.08l-20.92-55.47l-15.31,61.64h-36.62l23.93-96.37h25.33
			c6.05,0,8.1,0.62,10.02,1.79c0.25,0.15,0.48,0.31,0.7,0.5c1.32,0.98,2.27,2.25,2.87,3.82c0.01,0.02,0.01,0.02,0.03,0.04
			l20.92,55.47l15.3-61.62H274.41z"/>
	</g>
	<g>
		<polygon class="st0" points="473.07,50.55 468.52,68.86 422.27,68.86 394.27,181.61 357.65,181.61 385.64,68.86 339.39,68.86 
			343.93,50.55 		"/>
	</g>
</g>
</svg>
